<svg xmlns="http://www.w3.org/2000/svg" width="34" height="30"><path fill="#FFF" d="M29.442 5.73l-3.568-.018-3.42-5.18A1.127 1.127 0 0 0 21.522 0h-9.21c-.374 0-.71.209-.915.512l-3.531 5.2-3.307.019C2.055 5.73 0 7.818 0 10.36v14.971C0 27.875 2.055 30 4.558 30h24.884C31.945 30 34 27.875 34 25.332V10.36c0-2.542-2.055-4.63-4.558-4.63zM32 25.556C32 26.875 30.937 28 29.646 28H4.354C3.064 28 2 26.875 2 25.555V10.246C2 8.926 3.063 7.84 4.354 7.84h3.969c.38 0 .721-.213.93-.524L12.842 2h8.145l3.456 5.278c.209.31.57.524.93.524l4.254.038c1.29 0 2.354 1.087 2.354 2.406v15.31H32z"/></svg>