<svg xmlns="http://www.w3.org/2000/svg" xmlns:xlink="http://www.w3.org/1999/xlink" width="206" height="62"><defs><path id="a" d="M.03.115h16.938v18.852H.029z"/><path id="c" d="M.04.007h5.004v6.29H.04z"/><path id="e" d="M.123.01h11.184v6.335H.123z"/></defs><g fill="none" fill-rule="evenodd"><g transform="translate(11.286)"><mask id="b" fill="#fff"><use xlink:href="#a"/></mask><path fill="#7E5838" d="M7.613 16.87l-2.625.038-2.57.037a.065.065 0 0 1-.064-.056 8.245 8.245 0 0 0-.164-.787c-.093-.355-.223-.74-.395-1.032a37.02 37.02 0 0 1-.707-1.26 17.17 17.17 0 0 1-.604-1.22 5.58 5.58 0 0 1-.343-1.132 6.131 6.131 0 0 1-.11-1.341 2.57 2.57 0 0 1 .081-.576 3.51 3.51 0 0 1 .464-1.05 3.3 3.3 0 0 1 .71-.793c.324-.254.572-.439.836-.595.264-.156.544-.284.932-.423.388-.138.666-.227.846-.28.181-.055.265-.074.265-.074s.013-.029.046-.059a.268.268 0 0 1 .173-.064.505.505 0 0 1 .132.011.396.396 0 0 0 .133-.083c.036-.03.075-.065.15-.1a.31.31 0 0 1 .163-.025.42.42 0 0 1 .16.05c.06.031.123.04.184.04.06 0 .117-.01.163-.015a.564.564 0 0 0 .13-.033c.044-.015.086-.032.127-.042a.184.184 0 0 1 .145.036.628.628 0 0 1 .128.152c.047.068.132.226.239.476a12.166 12.166 0 0 1 .633 2.066c.038.187.062.327.075.405.005.036.038.06.073.054.087-.013.16-.023.221-.03.076-.009.13-.013.16-.016a.332.332 0 0 1 .002-.126.24.24 0 0 1 .06-.098c.023-.025.042-.044.042-.063l-.01-.097a1.568 1.568 0 0 1-.006-.13c0-.043.025-.063.059-.07a.24.24 0 0 1 .108.006c.046-.028.06-.049.056-.076-.005-.027-.028-.06-.056-.113a.197.197 0 0 1-.019-.148.318.318 0 0 1 .059-.114.092.092 0 0 0 .017-.086.31.31 0 0 0-.06-.102.585.585 0 0 1-.071-.21 1.962 1.962 0 0 1-.032-.24.146.146 0 0 1 .063-.127.19.19 0 0 1 .095-.04.74.74 0 0 0 0-.108c-.001-.03-.005-.06-.008-.1a.264.264 0 0 1 .03-.12c.017-.038.035-.074.035-.099 0-.023-.03-.06-.066-.107a.723.723 0 0 1-.105-.168.148.148 0 0 1 .023-.155.232.232 0 0 1 .11-.074c.005-.085.006-.158.01-.221a.587.587 0 0 1 .024-.157c.011-.033.067-.046.13-.05a1.09 1.09 0 0 1 .174.007.6.6 0 0 1-.25-.143.312.312 0 0 1-.053-.368.284.284 0 0 1-.28-.291c0-.06.015-.114.043-.16a.273.273 0 0 1 .117-.102.276.276 0 0 1-.161-.098.303.303 0 0 1 0-.376.282.282 0 0 1 .173-.094.279.279 0 0 1-.114-.104.304.304 0 0 1-.045-.158.281.281 0 0 1 .082-.208.294.294 0 0 1 .21-.082c0-.022-.01-.054-.02-.092a.524.524 0 0 1-.022-.131c0-.078.026-.146.072-.196a.286.286 0 0 1 .186-.091l.043-.165.044-.165c.02-.078.052-.32.08-.557.029-.236.054-.467.058-.52.004-.053-.032-.073-.086-.077a.814.814 0 0 0-.19.02 1.784 1.784 0 0 0-.276.096l-.139.058c-.037.016-.09-.016-.102-.055-.042-.134-.034-.27-.032-.438.004-.242.02-.419.02-.442.017-.076.04-.11.075-.12.035-.008.079.01.14.048.062.039.18.076.29.104.11.029.214.05.247.055.033.005.043-.021.04-.068A.982.982 0 0 0 8.17.856a3.98 3.98 0 0 0-.128-.332A4.325 4.325 0 0 0 7.916.25c-.021-.037-.03-.07-.024-.096.005-.025.026-.04.063-.039l.573.002.574.002c.044.002.058.015.055.04-.004.026-.025.064-.051.112a3.228 3.228 0 0 0-.122.402l-.08.31c-.01.04.018.083.06.083.08.001.182-.018.276-.043A2.54 2.54 0 0 0 9.522.93c.038-.016.076-.02.104-.006.028.013.047.043.047.094l-.01.43-.01.428c0 .068-.011.101-.037.11-.026.01-.066-.005-.125-.034a3.626 3.626 0 0 0-.272-.108l-.213-.078a.06.06 0 0 0-.076.026.655.655 0 0 0-.064.248c-.01.118-.004.253.01.392a11.005 11.005 0 0 0 .09.671.064.064 0 0 0 .05.052c.058.013.107.04.143.08.046.051.072.12.072.203a.345.345 0 0 1-.025.127c.085 0 .158.03.209.08.05.051.08.124.08.213a.295.295 0 0 1-.02.113.277.277 0 0 1-.054.09.263.263 0 0 1 .135.1.3.3 0 0 1 .05.174.315.315 0 0 1-.023.122.262.262 0 0 1-.064.092.255.255 0 0 1 .087.099.32.32 0 0 1 .031.142.301.301 0 0 1-.05.17.269.269 0 0 1-.129.101c.023.025.04.055.053.089a.334.334 0 0 1 .02.114.29.29 0 0 1-.073.2.277.277 0 0 1-.184.087.268.268 0 0 1 .034.077.346.346 0 0 1-.008.203.268.268 0 0 1-.053.088c.106.027.168.08.199.135a.175.175 0 0 1 .012.156c-.019.04-.044.077-.063.111-.02.034-.034.065-.03.095.003.03.024.077.045.122.02.045.04.089.04.11a.15.15 0 0 1-.02.067.204.204 0 0 0-.028.068c-.005.023.021.073.045.13.023.057.044.121.031.173a.495.495 0 0 1-.064.142c-.026.04-.05.072-.06.088-.01.016.009.038.038.059.028.02.067.04.096.053.028.012.043.076.044.153a.61.61 0 0 1-.044.238.906.906 0 0 1-.113.178c-.037.05-.068.087-.07.112a.385.385 0 0 1 .18.08c.038.037.046.086.01.153-.038.067-.08.117-.12.164a.612.612 0 0 0-.099.144c-.022.053-.053.085-.065.104-.012.02-.005.025.048.025s.123-.013.182-.01c.06.005.107.027.116.1a.42.42 0 0 0 .044.133.769.769 0 0 0 .07.115.066.066 0 0 0 .036.025l.112.032.135.037c.054-.144.143-.454.246-.806.102-.351.217-.746.322-1.059.12-.356.242-.66.348-.885.106-.226.195-.372.248-.414a.61.61 0 0 1 .134-.077.305.305 0 0 1 .136 0c.04.01.076.026.114.042a.382.382 0 0 0 .118.025c.036.002.062 0 .062 0s.02-.036.072-.073a.432.432 0 0 1 .263-.071.433.433 0 0 1 .376.22c0-.01.053-.003.122.016.068.02.15.05.207.087.058.036.098.036.203.063.106.027.276.082.594.228.319.146.71.308 1.126.53.415.223.855.506 1.27.894.275.257.485.502.641.76.157.26.26.534.325.848.032.16.055.332.069.518.014.186.019.386.017.603-.004.644-.167 1.296-.372 1.852a6.537 6.537 0 0 1-.628 1.278c-.174.263-.33.523-.475.788a13.02 13.02 0 0 0-.406.81 4.98 4.98 0 0 0-.269.841c-.072.297-.124.572-.15.714a.31.31 0 0 1 .087.489.286.286 0 0 1-.206.087 4.374 4.374 0 0 0-.05.798c0 .031.02.06.052.064.065.01.12.035.16.076.049.05.076.123.076.211a.3.3 0 0 1-.076.21.257.257 0 0 1-.19.08.258.258 0 0 1-.232-.14.248.248 0 0 1-.08.05.277.277 0 0 1-.252-.033.275.275 0 0 1-.096-.131.25.25 0 0 1-.226.125.26.26 0 0 1-.183-.073.3.3 0 0 1-.087-.186.27.27 0 0 1-.09.16.26.26 0 0 1-.169.06.259.259 0 0 1-.165-.059.286.286 0 0 1-.095-.151.259.259 0 0 1-.239.15.258.258 0 0 1-.166-.06.288.288 0 0 1-.094-.154.266.266 0 0 1-.095.134.263.263 0 0 1-.156.048.258.258 0 0 1-.144-.042.275.275 0 0 1-.097-.114.248.248 0 0 1-.093.095.269.269 0 0 1-.373-.12.249.249 0 0 1-.094.096.269.269 0 0 1-.378-.131.253.253 0 0 1-.223.12.259.259 0 0 1-.147-.045.28.28 0 0 1-.097-.118.258.258 0 0 1-.102.107.301.301 0 0 1-.15.038.287.287 0 0 1-.279-.207.269.269 0 0 1-.098.158.29.29 0 0 1-.18.058.29.29 0 0 1-.298-.287.288.288 0 0 1-.083.21.287.287 0 0 1-.204.077.291.291 0 0 1-.296-.287.288.288 0 0 1-.084.21.287.287 0 0 1-.203.077.286.286 0 0 1-.29-.284.326.326 0 0 1-.097.207.294.294 0 0 1-.205.077.29.29 0 0 1-.197-.074.292.292 0 0 1-.092-.189.282.282 0 0 1-.09.192.288.288 0 0 1-.196.071.286.286 0 0 1-.263-.165.26.26 0 0 1-.103.115.301.301 0 0 1-.156.04.282.282 0 0 1-.266-.172.262.262 0 0 1-.092.14.254.254 0 0 1-.156.05.248.248 0 0 1-.145-.045.28.28 0 0 1-.095-.12.262.262 0 0 1-.093.136.253.253 0 0 1-.153.05.248.248 0 0 1-.148-.049.283.283 0 0 1-.095-.126.269.269 0 0 1-.09.154.252.252 0 0 1-.162.056.249.249 0 0 1-.142-.044.273.273 0 0 1-.094-.115.267.267 0 0 1-.093.143.254.254 0 0 1-.157.052.25.25 0 0 1-.153-.051.279.279 0 0 1-.094-.134.282.282 0 0 1-.088.17.251.251 0 0 1-.17.062.248.248 0 0 1-.138-.041.27.27 0 0 1-.094-.11.275.275 0 0 1-.09.156.25.25 0 0 1-.164.058.252.252 0 0 1-.225-.135.266.266 0 0 1-.09.152.253.253 0 0 1-.163.056.25.25 0 0 1-.212-.116.256.256 0 0 1-.093.119.254.254 0 0 1-.145.043.251.251 0 0 1-.135-.039.266.266 0 0 1-.094-.103.267.267 0 0 1-.085.137.22.22 0 0 1-.142.05.286.286 0 0 1-.187-.068.254.254 0 0 1-.087-.193c0-.06.02-.121.051-.173a.356.356 0 0 1 .087-.1.07.07 0 0 0 .03-.052l.011-.199.013-.231.014-.208.01-.153a.062.062 0 0 0-.04-.066.292.292 0 0 1-.126-.09.308.308 0 0 1-.004-.385.287.287 0 0 1 .164-.104l2.625-.037 2.625-.038z" mask="url(#b)"/></g><path fill="#DCC763" d="M18.632 3.425c.02-.112.105-.612.141-.912.04-.338.03-.461.03-.509 0-.047-.049-.099-.21-.069-.164.031-.37.099-.404.112-.033.013-.078.03-.074-.064.004-.094.02-.595.02-.64 0-.044.05-.03.103-.001.056.026.372.156.438.16.066 0 .152-.023.134-.106-.019-.083-.153-.693-.199-.754-.046-.063-.021-.065.036-.065l.657.006c.041 0 .05.013.02.077-.03.065-.138.526-.153.663-.017.14.003.19.078.19s.337-.08.414-.113c.076-.031.154-.071.154-.006 0 .065.007.54.005.602-.001.062-.04.066-.095.024-.07-.025-.258-.093-.353-.12-.096-.027-.197-.037-.209.056-.007.045-.01.367.011.687.018.275.053.547.065.643l-.044-.003s-.017.008-.03.022c-.027-.118-.115-.193-.231-.193-.141 0-.247.116-.244.272 0 .028.003.052.01.077a.194.194 0 0 0-.07-.036"/><path fill="#DCC763" d="M18.987 3.079c0-.108.1-.195.225-.195s.226.087.226.195c0 .106-.101.193-.226.193-.124 0-.225-.087-.225-.193m.51.17c0 .107.1.194.225.194.124 0 .226-.087.226-.194 0-.106-.102-.193-.226-.193-.125 0-.226.087-.226.193m-1.003.105c0-.107.101-.194.227-.194.125 0 .226.087.226.194 0 .106-.101.193-.226.193-.126 0-.227-.087-.227-.193m-.278.47c0-.106.1-.193.227-.193.124 0 .225.087.225.193 0 .108-.1.195-.225.195-.127 0-.227-.087-.227-.195m-.1.502c0-.106.101-.194.226-.194.126 0 .227.088.227.194 0 .107-.101.194-.227.194-.125 0-.226-.087-.226-.194m.092.49c0-.107.103-.195.227-.195.125 0 .226.088.226.195 0 .107-.101.193-.226.193-.124 0-.227-.086-.227-.193m.244.41c0 .107.1.194.227.194.124 0 .225-.087.225-.195 0-.107-.101-.193-.225-.193-.127 0-.227.086-.227.193m.364.349c0-.107.101-.194.226-.194.124 0 .227.087.227.194 0 .107-.103.194-.227.194-.125 0-.226-.087-.226-.194m.48 0c0 .107.102.194.226.194.126 0 .227-.087.227-.194 0-.107-.1-.194-.227-.194-.124 0-.225.087-.225.194m.328-.262c0-.108.1-.195.227-.195.124 0 .225.087.225.195 0 .106-.1.193-.225.193-.126 0-.227-.087-.227-.193m.22-.392c0-.108.104-.195.228-.195.125 0 .226.087.226.195 0 .107-.101.193-.226.193-.124 0-.227-.086-.227-.193m.094-.434c0-.108.1-.195.225-.195s.227.087.227.195c0 .106-.102.193-.227.193-.124 0-.225-.087-.225-.193m-.03-.428c0-.108.102-.195.228-.195.124 0 .225.087.225.195 0 .106-.1.193-.225.193-.126 0-.227-.087-.227-.193m-.115-.43c0-.106.101-.193.227-.193.125 0 .226.087.226.194 0 .106-.101.194-.226.194-.126 0-.227-.088-.227-.194"/><path fill="#DCC763" d="M19.253 4.903c0-.478.255-.865.57-.865.314 0 .568.387.568.865 0 .479-.254.865-.569.865-.314 0-.569-.386-.569-.865m-1.25 4.662s-.18-1.09-.36-1.702c-.178-.613-.484-1.584-.612-1.514-.13.07 0 1.467.118 2.092.12.625.248 1.365.248 1.365l.606-.24zm3.07 0s.181-1.09.36-1.702c.177-.613.484-1.584.613-1.514.127.07 0 1.467-.12 2.092-.118.625-.247 1.365-.247 1.365l-.606-.24zM15.347 6.49c.056-.067.118-.084.184-.058-.148 1.443.217 3.415 1.094 5.915l-.148.288c-1.008-2.729-1.385-4.778-1.13-6.145m8.378-.021c-.012-.103-.184-.161-.223-.097.149 1.444-.142 3.53-1.019 6.03l.148.288c1.008-2.729 1.348-4.854 1.094-6.221"/><path fill="#7E5838" d="M19.397.577h.1l.035.294.042-.294h.134s-.111.6-.177.6c-.066 0-.134-.6-.134-.6m.288 2.307h-.088l-.065-.376-.047.376h-.109s.11-1.066.177-1.066c.066 0 .132 1.066.132 1.066m-1-1.226v-.096l.301-.034-.302-.04v-.13s.62.107.62.171c0 .064-.62.13-.62.13m1.707-.29v.096l-.265.035.265.04v.13s-.543-.108-.543-.172c0-.064.543-.13.543-.13"/><path fill="#DCC763" d="M15.852 5.99l1.109-.156c-.077.334.126 1.963.451 3.227.338 1.309 1.249 3.565 1.249 3.565s-.33.218-.411.413c-.082.195-.037.794-.037.794s-.294-.495-.294-.715c0-.22.16-.505.16-.66 0-.157-.066-.3-.16-.3-.095 0-.372.009-.425.113-.054.104-.127.331-.127.331l-.035.298s-.075-.404-.075-.56l.014-.699c0-.065-.109-.168-.149-.168-.04 0-.18.026-.18.026s-.748-1.864-.989-3.443c-.169-1.1-.1-2.065-.1-2.065m5.2 6.648s.109.065.203.22c.094.155.203.402.203.609v.376s.256-.221.283-.44c.027-.221-.014-.726-.054-.842-.04-.118-.054-.221.054-.234.108-.013.229-.065.338.039.107.103.228.35.242.48.014.129.054.232.054.232s.127-.563.072-.797c-.054-.233-.085-.485-.044-.575.039-.092.12-.195.174-.195.054 0 .203.052.203.052s.647-2.01.784-2.669c.252-1.214.241-2.945.241-2.945l-.957-.182c.049.301-.056 1.426-.432 2.967-.287 1.17-.74 2.708-1.364 3.904"/><path fill="#7E5838" d="M16.063 11.605a.46.46 0 0 1 .117-.315c-.154-.032-.273-.202-.273-.405 0-.11.035-.207.09-.282-.163-.025-.288-.199-.288-.407 0-.093.024-.177.064-.246-.113-.064-.192-.207-.192-.374a.46.46 0 0 1 .105-.301c-.14-.028-.246-.18-.246-.362 0-.09.025-.17.067-.235a.383.383 0 0 1-.166-.331c0-.105.035-.2.091-.266a.408.408 0 0 1-.105-.282c0-.13.052-.244.133-.31-.096-.059-.161-.183-.161-.328a.41.41 0 0 1 .093-.267.402.402 0 0 1-.122-.299.42.42 0 0 1 .08-.252.43.43 0 0 1-.051-.208c0-.203.13-.367.294-.367.162 0 .294.164.294.367a.42.42 0 0 1-.08.253c.032.059.051.13.051.207a.416.416 0 0 1-.093.27.405.405 0 0 1 .122.296.397.397 0 0 1-.134.309c.095.06.162.185.162.33a.412.412 0 0 1-.091.264c.064.069.105.17.105.283a.43.43 0 0 1-.067.234c.099.059.166.185.166.332 0 .098-.03.188-.081.254.165.022.294.196.294.41a.486.486 0 0 1-.065.244c.113.065.192.208.192.375a.475.475 0 0 1-.089.281c.162.025.287.198.287.408a.46.46 0 0 1-.117.315c.155.034.273.202.273.405 0 .1-.028.191-.075.261.183 0 .33.185.33.412 0 .227-.147.412-.33.412-.182 0-.329-.185-.329-.412a.48.48 0 0 1 .074-.26c-.181 0-.33-.184-.33-.413"/><path fill="#DCC763" d="M16.408 6.688a.4.4 0 0 1-.075.234.309.309 0 0 0-.227-.106.306.306 0 0 0-.206.084.396.396 0 0 1-.061-.212c0-.189.127-.343.285-.343.156 0 .284.154.284.343m-.569.552c0-.176.127-.318.285-.318.156 0 .284.142.284.317a.329.329 0 0 1-.092.234.313.313 0 0 0-.357.026.328.328 0 0 1-.12-.26"/><path fill="#DCC763" d="M16.408 7.22a.3.3 0 0 1-.15.264.336.336 0 0 0-.24.015.299.299 0 0 1-.18-.278c0-.165.128-.299.286-.299.156 0 .284.134.284.299m0 .587a.32.32 0 0 1-.104.239.3.3 0 0 0-.136-.032.321.321 0 0 0-.187.06.313.313 0 0 1-.142-.267c0-.17.127-.31.285-.31.156 0 .284.14.284.31m-.569.555c0-.158.127-.287.285-.287.156 0 .284.129.284.287 0 .16-.128.29-.284.29a.287.287 0 0 1-.285-.29"/><path fill="#DCC763" d="M15.839 8.94c0-.158.127-.288.285-.288.156 0 .284.13.284.288 0 .16-.128.29-.284.29a.287.287 0 0 1-.285-.29"/><path fill="#DCC763" d="M16.408 9.523a.3.3 0 0 1-.08.206l-.063-.006a.345.345 0 0 0-.223.083.292.292 0 0 1-.203-.283c0-.163.127-.294.284-.294a.29.29 0 0 1 .285.294m0 .571c0-.16.128-.288.285-.288.157 0 .284.129.284.288 0 .16-.127.289-.284.289a.288.288 0 0 1-.285-.29m0 .577c0-.159.128-.287.284-.287.157 0 .285.128.285.288a.288.288 0 0 1-.285.289.287.287 0 0 1-.284-.29m0 1.156c0-.16.126-.29.284-.29.157 0 .285.13.285.29a.286.286 0 0 1-.285.287.285.285 0 0 1-.284-.287"/><path fill="#DCC763" d="M16.977 11.826c0-.16.128-.29.285-.29.157 0 .284.13.284.29a.285.285 0 0 1-.284.287.286.286 0 0 1-.285-.287"/><path fill="#7E5838" d="M21.229 11.634c0 .09.031.175.083.242a.416.416 0 0 0-.351.403.42.42 0 0 0 .43.411.42.42 0 0 0 .43-.41.4.4 0 0 0-.083-.243.415.415 0 0 0 .352-.403.407.407 0 0 0-.229-.363.49.49 0 0 0 .102.011.42.42 0 0 0 .43-.41.41.41 0 0 0-.258-.375l.06.004c.238 0 .43-.185.43-.412a.42.42 0 0 0-.43-.409.421.421 0 0 0-.431.41.41.41 0 0 0 .258.376l-.06-.004a.421.421 0 0 0-.43.41.41.41 0 0 0 .229.363.42.42 0 0 0-.102-.012.421.421 0 0 0-.43.41m.803-2.314c0-.18.133-.329.31-.364a.347.347 0 0 1-.15-.283.36.36 0 0 1 .3-.346.35.35 0 0 1-.174-.3c0-.149.096-.277.233-.328a.347.347 0 0 1-.127-.267.35.35 0 0 1 .19-.309.346.346 0 0 1-.046-.536.34.34 0 0 1-.072-.21l.006-.062a.346.346 0 0 1-.06-.193c0-.195.166-.353.37-.353.206 0 .371.158.371.353l-.005.064a.342.342 0 0 1-.048.44c.045.06.072.132.072.21a.352.352 0 0 1-.19.31.349.349 0 0 1 .154.286c0 .15-.097.276-.234.329.077.064.127.16.127.267a.358.358 0 0 1-.298.346.351.351 0 0 1 .173.3.358.358 0 0 1-.288.344.363.363 0 0 1 .163.302.38.38 0 0 1-.39.37.38.38 0 0 1-.387-.37"/><path fill="#DCC763" d="M21.53 11.824c0-.159.127-.287.284-.287.157 0 .285.128.285.287 0 .16-.128.29-.285.29a.286.286 0 0 1-.284-.29"/><path fill="#DCC763" d="M22.099 11.826c0-.16.128-.29.285-.29.157 0 .284.13.284.29a.285.285 0 0 1-.284.287.287.287 0 0 1-.285-.287m0-1.155c0-.159.127-.288.284-.288.158 0 .285.13.285.288 0 .16-.127.289-.285.289a.286.286 0 0 1-.284-.289m0-.577c0-.159.127-.288.284-.288.157 0 .285.129.285.288 0 .16-.128.289-.285.289a.287.287 0 0 1-.284-.29m.569-1.728c0-.16.127-.29.284-.29.158 0 .285.13.285.29a.286.286 0 0 1-.285.287.286.286 0 0 1-.284-.287"/><path fill="#DCC763" d="M22.099 9.518c0-.159.127-.289.284-.289.158 0 .285.13.285.289 0 .16-.127.288-.285.288a.286.286 0 0 1-.284-.288m.569-1.153c0-.16.127-.29.284-.29.159 0 .285.13.285.29a.286.286 0 0 1-.285.287.287.287 0 0 1-.284-.287m0-1.154c0-.16.126-.289.284-.289.157 0 .285.13.285.289a.287.287 0 0 1-.285.288.286.286 0 0 1-.284-.288"/><path fill="#DCC763" d="M23.237 7.226a.302.302 0 0 1-.16.273.325.325 0 0 0-.286-.024.308.308 0 0 1-.123-.249c0-.168.127-.304.285-.304.157 0 .284.136.284.304m-.569-.528c0-.195.127-.353.285-.353.157 0 .284.158.284.353a.404.404 0 0 1-.065.224.314.314 0 0 0-.252-.139.297.297 0 0 0-.212.093.422.422 0 0 1-.04-.178m.284-.93c.152 0 .274.18.285.407-.061-.094-.147-.153-.24-.153-.142 0-.264.134-.315.323a.66.66 0 0 1-.014-.14c0-.241.126-.437.284-.437M20.16 16.423s-1.411-1.014-1.619-1.396c-.235-.433-.404-1.29-.314-1.47.088-.18.104-.284 0-.284s-.33.125-.415.493c-.058.248.03.627.118.836.09.21.133.417.133.417s-.518-.492-.65-.79c-.134-.299-.148-.871-.09-.976.263-.462.134-.463-.029-.488 0 0-.197.081-.256.231-.06.149-.1.545-.07.68.029.134.029.328.029.328s-.289-.482-.318-.75c-.03-.27.062-.856.022-1.026-.025-.102-.134-.164-.222-.044-.088.118-.163.537-.148.715.015.18.09.642.281.94.193.3.577.733.577.733s-.798-.671-1.125-1.359c-.325-.686-.69-1.318-.96-1.485-.361-.226-.671-.254-.747-.073 0 0 .537.304.73.573.192.268.71 1.104.71 1.104-.005.067-.055.065-.15-.006 0 0-.573-1.01-.87-1.259-.18-.15-.638-.467-.89-.453-.251.015-.394.076-.291.167.104.089.706.462.81.612.104.149.562.715.68.806l.623.477s-.093.062-.502-.206c-.123-.081-.482-.542-.737-.69-.141-.084-.8-.15-.74.12.06.268.394.224.586.313.194.09.668.373.668.373s-.677-.025-.772.105c-.212.295-.043.388-.043.388s.202-.166.424-.166c.221 0 1.308.316 1.308.316s-.797-.112-.93-.037c-.133.074-.245.31-.136.365.047.024.267-.15.488-.15.223 0 .949.225.949.225s-.44.075-.544.18c-.104.102-.109.268-.109.268s.45-.063.805-.063c.355 0 1.343.346 1.61.51.266.164 1.95 1.104 1.95 1.104l.177-.208zm-.872-.798s.675-.484.798-.794c.122-.31.041-1.309.03-1.423-.01-.113-.024-.117.061-.134.181-.036.308.124.37.34.06.217.082.475.071.68-.01.207-.113.517-.113.517s.512-.527.553-.732c.04-.207.133-.67.092-.795-.041-.124-.174-.308-.123-.34a.229.229 0 0 1 .276.052c.092.104.174.536.174.63 0 .09-.062.494-.062.494s.287-.33.318-.588c.03-.258.101-.69.062-.908-.041-.216-.144-.422-.01-.464.131-.04.254.176.316.444.061.268-.02.825-.092.98l-.245.546s.46-.701.624-1.03c.163-.331.419-.919.725-1.155.308-.238.359-.331.501-.331.144 0 .349.083.349.083s-.358.237-.563.505c-.205.268-.357.598-.45.732l-.379.547s.349-.331.532-.609c.184-.279.42-.722.645-.867.225-.143.593-.329.818-.298.225.031.378.145.378.145s-.378.134-.572.33c-.195.195-.707.773-.93.937a6.783 6.783 0 0 0-.584.526s.337-.196.594-.412c.255-.216.44-.433.685-.443.245-.01.746.165.746.165s-.286-.01-.46.113c-.174.123-.511.36-.624.392-.113.03-.307.154-.307.154s.358-.071.47-.02c.114.05.206.37.206.37s-.523-.133-.952.073c-.43.206-1.678.68-1.678.68s.982-.34 1.146-.381c.164-.042.634-.135.757-.01.123.123.113.33.113.33s-.523-.165-.788-.114a2.316 2.316 0 0 0-.542.197s.45-.031.521.03c.072.062.154.382.134.434-.02.051-.082-.032-.38-.083-.296-.052-.715-.165-1.115-.01-.398.155-1.759.762-1.759.762l-.337-.247zm3.959-2.546s.071 0 .112-.041l.522-.588c.072-.083.798-.63.798-.63s-.675.371-.84.557c-.163.185-.592.702-.592.702zm-.931 1.02s.686-.351.869-.505c.184-.155.511-.361.706-.465.195-.102.583-.174.583-.174s-.624.215-.961.484a6.26 6.26 0 0 1-.952.598c-.082.031-.245.062-.245.062zm.758-.196s.398-.124.531-.124c.132 0 .45.072.45.072s-.297-.155-.46-.134c-.164.02-.521.186-.521.186zm-2.129 1.217s.634-.196.84-.196c.203 0 .93.175.93.175s-.614-.258-.93-.237c-.318.02-.84.258-.84.258zm1.493-.619s.472-.103.593-.103c.123 0 .42.072.42.072s-.328-.134-.45-.124c-.122.01-.563.155-.563.155zm-4.603 2.02l.84-.515.306.176-.88.546-.266-.207z"/><path fill="#DCC763" d="M19.772 13.589l.012-.132c.005-.044.034-.24.034-.296l.006-.31a.69.69 0 0 0-.023-.187c-.017-.027-.057.011-.057.011l-.053.98.081-.066zm-.702.415l-.04-.066c.044-.012.122-.033.183-.044.06-.01.154.03.212.06l-.012.034c-.017.082-.109.41-.109.41s-.091.048-.12.005c-.028-.044-.046-.28-.114-.399zm.47-.201a1.142 1.142 0 0 0-.298-.078c-.084 0-.24.047-.31.07l.05.072c.062-.015.178-.043.23-.038.058.004.204.031.268.043l.06-.07zm-.339-2.888l.006.098h-.157l.013-.098h.138zm.2 0l.005.098h-.115l.003-.098h.108zm-.105-.05l.008-.126c.012-.044.058.011.086.055l.01.071h-.104zm-.226 0l.011-.087s.029-.05.057-.055c.03-.006.04.027.052.066l.009.076h-.13zm.54 2.865c-.007.005-.002.019-.01.025-.082-.074-.278-.118-.381-.118a1.2 1.2 0 0 0-.342.085c-.098-.124-.208-.237-.286-.248-.15-.022-.258.005-.292.033a.329.329 0 0 0-.063.07l-.012-.098s.097-.153.115-.192c.017-.038.011-.137.057-.164.046-.027.137-.055.109-.14-.029-.089-.212-.668-.212-.756 0-.088.057-.142.109-.153.051-.011.097-.093.057-.154-.04-.06-.308-.442-.336-.629-.029-.185.028-.486.08-.513.05-.028.33-.098.376-.136.046-.038.017-.044-.011-.192-.029-.148-.08-.263-.052-.312.029-.05.017-.13.063-.088.046.045.189.181.223.187.033.005.096-.022.057-.072-.04-.05-.274-.207-.309-.322-.034-.115-.08-.535-.154-.64-.075-.104-.199-.252-.193-.328.004-.076.016-.147.05-.147s.114-.022.097-.055-.074-.219-.04-.23c.034-.01.275.077.304.055.028-.022-.006-.174-.03-.207-.022-.033-.148-.203-.13-.252.016-.05.188-.126.188-.17 0-.044-.12-.131-.149-.163-.028-.033-.154-.34-.137-.416.017-.076.04-.126.086-.12.045.006.126.049.149 0 .023-.049-.069-.213-.046-.295.023-.083.103-.17.103-.203s-.19-.147-.223-.235c-.035-.087 0-.202.045-.202.046 0 .2.044.218.005.017-.038-.092-.186-.103-.25-.012-.066.006-.154.04-.165a.673.673 0 0 1 .156.004c.06.252.318.335.536.173a.3.3 0 0 0 .325.06s.006.215-.063.31c-.069.096-.119.108-.119.108s.106-.245.088-.28c-.02-.036-.062-.049-.062-.049l-.044.006s.056.197-.043.234c-.1.036-.23-.048-.23-.048s-.058.084 0 .114c.055.028.224.048.224.048s-.001.119.093.083c.093-.037.218-.197.218-.197s0 .107.05.094c.05-.01.087-.16.068-.256-.018-.096-.068-.24-.068-.24l.087-.2s.126-.026.169-.02c.044.007.163-.018.163.083 0 .102-.082.276-.119.33-.037.053-.113.119-.069.136.043.018.138.018.15.054.012.037-.118.245-.118.282 0 .036.156-.007.156-.007s.03.126-.013.222c-.044.095-.15.22-.132.269.02.048.22.113.225.167.007.053-.056.316-.106.37-.05.054-.137.131-.137.197s.063.12.106.126c.044.005.113-.025.075.041-.038.066-.224.366-.231.448-.006.085-.043.186.007.18.05-.006.286-.102.312-.048a.586.586 0 0 1-.032.348c-.05.094-.23.41-.23.513 0 .102-.027.323-.039.347a8.2 8.2 0 0 0-.087.178l-.143.197s-.006.084.043.066c.05-.018.119-.167.15-.185.032-.018.056.018.076.06.018.042-.05.317-.05.317l-.007.18s.044.028.113.023c.068-.006.236.053.249.12.013.064.084.323.067.4-.017.077-.296.443-.319.552-.023.108-.058.278-.006.311.05.033.16.05.165.104.005.055-.05.377-.075.454-.022.076-.13.382-.113.437.017.055.086.28.086.361 0 .083.01.154.01.154s-.127-.059-.276-.012l.031-.858.023-.06c.029-.044.023-.082-.011-.082h-.092c-.057 0-.131.027-.131.027s.028-.016 0 .137a4.48 4.48 0 0 0-.046.41l-.017.367-.009.245zm-.58-.852s0 .464.023.503c.023.038.343.016.382.016.04 0 .007-.044-.01-.071-.018-.028-.23-.006-.27-.011-.04-.006-.056-.044-.062-.082-.006-.039.143-.044.189-.044.046 0 .193.11.217.11.023 0 0-.284 0-.35s-.006-.148-.051-.17c-.046-.022-.292-.022-.298.006-.006.027.08.027.149.043.068.017.108.028.131.066.022.039.012.251-.011.273-.023.022-.195-.033-.235-.033-.04 0-.046-.042-.046-.082 0-.037.23-.033.207-.066-.023-.033-.172-.004-.212-.033-.04-.026-.006-.108-.04-.125-.035-.016-.063.05-.063.05zm-.205-5.97s.159.23.228.23c.068 0 .251-.121.251-.121s.092.12.25.12c.16 0 .298-.098.293-.17-.006-.07.005-.191-.018-.213-.022-.022-.068.186-.08.208-.011.022-.063.017-.063.017s.052-.093.04-.154c-.011-.06-.04-.098-.051-.076-.011.021-.063.24-.113.268-.052.028-.092-.005-.137-.027-.046-.022-.086 0-.063-.044.022-.044.063-.126.057-.17-.006-.044-.057.005-.086.055-.029.05-.126.17-.126.17s.052-.126.057-.176c.006-.05-.057-.071-.057-.071s-.074.241-.108.252c-.035.011-.11-.022-.12-.05l-.058-.109s-.073-.027-.09 0c-.017.028-.006.06-.006.06zm-.12.579c.023.044.13.12.182.12l.12-.005s-.012.175-.006.208.052.202.092.224c.04.022.08-.011.057-.088s-.08-.159-.074-.24c.005-.082.034-.164.068-.186a.633.633 0 0 1 .223-.05c.063 0 .126.017.132.077l.027.29c.006.06-.011.191-.074.219-.062.027-.216.043-.273.054-.058.011-.052.06 0 .066.051.005.359.011.393-.033.034-.044.132-.219.126-.268-.006-.05-.04-.098-.052-.141-.011-.044-.046-.094-.017-.11l.16-.071s-.2.043-.2-.017.046-.11-.057-.137a.523.523 0 0 0-.222-.027.825.825 0 0 0-.166.055c-.057.027-.114.104-.16.098a.727.727 0 0 1-.193-.066c-.034-.021-.086.028-.086.028zm.034 2.17s.04-.786.052-.88c.011-.093.027-.334.107-.35.08-.017.748.005.788.027.04.022.143.115.143.154 0 .038.018.115-.022.093-.04-.022-.092-.154-.19-.17-.095-.017-.65-.066-.673-.028-.023.039-.074.492-.074.596 0 .105-.03.509-.035.547-.004.038-.096.011-.096.011zm.32-.618l.017-.207c.005-.06.074-.115.074-.115l.189-.016c.057-.006.171.005.187.043.017.039-.033.028-.067.045-.034.016-.16 0-.2 0-.04 0-.08.054-.103.093-.023.038.08.01.131.004a.542.542 0 0 1 .212.045c.033.02.039.086.033.168l-.044.422s-.023-.147-.023-.213-.017-.241-.03-.28c-.01-.038-.056-.033-.09-.038a.795.795 0 0 0-.207.018c-.034.01-.017.059-.011.102.006.044.08.044.08.044s.109.006.166.028c.057.022.006.038-.023.049a.575.575 0 0 1-.166-.005c-.04-.006-.04.038-.051.076a.101.101 0 0 0 .029.104c.028.028.102.011.171.011.069 0 .046.038.046.06s-.189 0-.24.005c-.052.007-.006.083-.035.115-.028.033-.051-.06-.057-.098-.006-.04.011-.46.011-.46zm.656-.201s-.029.3-.029.366c0 .065-.034.431-.04.453-.005.022-.028.11-.074.131-.046.022-.057.077-.057.077s.194-.038.171 0a.35.35 0 0 1-.124.099c-.03.01.01.027-.12-.017-.132-.043-.172-.038-.235-.043l-.212-.017c-.085-.005-.103-.027-.131-.01-.029.016.023.054.051.07.029.017.218.05.275.05.057 0 .235-.017.262 0 .03.016.166.049.2.027.034-.022.132-.038.155-.093a.416.416 0 0 0 .034-.159c0-.05-.017-.131-.017-.197l.005-.262c0-.082.023-.224.035-.257l.051-.158c.012-.033.018-.082-.034-.082-.052 0-.086.104-.08.131a2.9 2.9 0 0 1-.029.306 2.637 2.637 0 0 0-.017.252c0 .064-.04.196-.04.125l.012-.24c0-.05.017-.16.028-.236.011-.077.006-.115.006-.175v-.147c0-.043-.012-.055-.012-.055l-.034.06zm-.901 1.689s.034-.06.056-.082l.108-.115c.023-.028.029-.099.023-.12a.713.713 0 0 0-.074-.131c-.017-.022.074-.029.074-.029s.12.024.195.029l.252.01c.062 0 .055.038.062.083.005.043-.314.01-.36 0-.046-.012-.057.01-.057.01s.017.11-.006.148c-.023.038-.177.23-.205.257-.03.028-.068-.06-.068-.06zm.634-.263s.216.28.256.318c.04.038-.058.087-.086.075-.029-.01-.25-.294-.256-.338-.006-.044.086-.055.086-.055zm-.732.416s-.022.109-.022.152c0 .044.011.744 0 .942-.012.196.028.185.045.207.018.021.075-.072.075-.072l.004-1.049a.465.465 0 0 0-.056-.18c-.023-.027-.046 0-.046 0zm.925.087s.011-.054.04-.039c.028.017.091.033.097.06.006.028-.023.34-.017.411.005.072.017.613.046.668.028.053-.023.18.011.201a.347.347 0 0 1 .069.066s-.046.05-.08.044c-.035-.006-.48.016-.565.016-.086 0-.304-.066-.304-.066s-.011-.043.023-.043.183.054.286.054c.103 0 .315.006.37-.021.058-.028.121-.083.121-.105 0-.022.04-.06 0-.07-.04-.012-.103.054-.138.065-.034.01-.221.027-.358.027-.138 0-.304-.033-.315-.076-.012-.044-.023-.092.023-.092.045 0 .097.053.206.064.108.011.37.006.399-.01.028-.017.051-.043.051-.116l.035-1.038zm-.352.301h.117c.006.267.003.636.019.662.023.038.063-.558.063-.596l.015-.362c0-.044-.096-.119-.096-.119s-.183-.05-.286-.038c-.103.01-.103.059-.137.113-.034.055.011.34.011.384l.023.06s.023-.049.023-.082l.169-.022.009.175s.04-.012.057-.038a.69.69 0 0 0 .013-.137zm-.561 2.247s0 .05.057.082c.056.033.056 0 .067-.027.012-.028-.027-.115-.027-.115l.023-.449c0-.06-.023-.224-.023-.262 0-.039.023-.077.016-.103-.006-.029-.079-.023-.09.015-.012.038-.023.859-.023.859zm.262-.87c0 .022.148.04.269.04.12 0 .32.026.365.004.045-.022.074-.071.045-.081-.028-.011-.143-.011-.204-.011l-.43.01c-.045 0-.045.038-.045.038z"/><path fill="#DCC763" d="M19.306 15.137c.003-.247-.14-.45-.32-.455-.178-.003-.326.194-.328.441-.003.232.122.427.286.451a.845.845 0 0 0 .097-.326c.015-.204-.006-.44-.006-.44.07.033.108.312.086.427-.016.083-.071.25-.1.34.157-.027.282-.211.285-.438m.429-.627c-.086.163-.213.277-.331.314.051-.06.127-.164.183-.316.092-.251.07-.36.07-.36s-.05.007-.042.047c.007.042-.092.327-.126.394a2.353 2.353 0 0 1-.174.236.36.36 0 0 0-.184-.188.65.65 0 0 1 .082-.381c.127-.241.348-.379.491-.308.145.07.159.322.03.562m-.948.161l-.044.035a4.229 4.229 0 0 0-.067-.32c-.028-.088-.191-.279-.199-.252-.007.027.058.096.12.258.048.122.064.322.07.416l-.017.036c-.174.057-.387-.122-.484-.395-.1-.275-.045-.541.118-.595.163-.055.376.124.474.398a.704.704 0 0 1 .03.42m.604.562s.042-.132.122-.206c.079-.075.191-.193.184-.131-.006.06-.09.181-.146.237a.639.639 0 0 1-.16.1m-.008-.271s.205-.076.283-.164c.078-.087.149-.278.127-.285-.021-.006-.106.176-.149.225-.041.047-.26.224-.26.224m-5.822 1.604v1.315s2.639-.505 5.61-.465c2.97.04 6.241.399 6.241.399s.012-.532.012-.664c0-.134.088-.642.088-.642s-5.486-.372-6.266-.358c-.78.012-5.685.415-5.685.415"/><path fill="#7E5838" d="M25.366 17.642c.104 0 .194.066.246.163a.266.266 0 0 1 .184-.08c.158 0 .286.154.286.345 0 .189-.128.343-.286.343-.104 0-.195-.066-.246-.164a.26.26 0 0 1-.184.079c-.108 0-.203-.072-.252-.18a.269.269 0 0 1-.217.119c-.118 0-.22-.085-.264-.208-.05.1-.142.17-.249.17-.12 0-.222-.089-.266-.213a.274.274 0 0 1-.234.144c-.111 0-.207-.076-.255-.188a.281.281 0 0 1-.238.15.277.277 0 0 1-.24-.156.268.268 0 0 1-.22.124.28.28 0 0 1-.241-.154.27.27 0 0 1-.22.124.28.28 0 0 1-.246-.165.273.273 0 0 1-.222.128c-.11 0-.203-.073-.253-.178a.277.277 0 0 1-.235.146c-.125 0-.232-.096-.271-.23-.037.139-.145.238-.274.238-.157 0-.286-.154-.286-.343 0-.19.129-.345.286-.345.127 0 .233.098.273.232.037-.139.144-.238.272-.238.11 0 .203.07.253.176a.277.277 0 0 1 .235-.146c.103 0 .195.066.245.165a.272.272 0 0 1 .222-.127c.1 0 .19.062.24.155a.271.271 0 0 1 .222-.124c.1 0 .188.061.24.154a.272.272 0 0 1 .22-.123c.112 0 .21.076.257.188a.277.277 0 0 1 .236-.15c.122 0 .224.088.266.213a.278.278 0 0 1 .234-.143c.119 0 .221.085.265.207.05-.1.142-.17.248-.17.11 0 .204.073.253.18a.269.269 0 0 1 .216-.118zm-4.986-.33c.16 0 .288.153.288.344 0 .189-.129.343-.288.343-.135 0-.249-.113-.279-.264-.03.15-.143.264-.279.264-.159 0-.288-.154-.288-.343 0-.19.13-.345.288-.345.136 0 .249.113.28.265.03-.152.143-.265.278-.265zm-1.142 0c.16 0 .288.153.288.344 0 .189-.129.343-.288.343-.136 0-.252-.117-.28-.27-.022.161-.14.286-.283.286-.117 0-.218-.084-.263-.205-.047.112-.143.189-.256.189-.11 0-.207-.076-.254-.184-.048.113-.145.192-.258.192a.272.272 0 0 1-.23-.139c-.049.106-.144.177-.25.177a.273.273 0 0 1-.23-.137c-.05.105-.144.176-.252.176a.275.275 0 0 1-.231-.142c-.047.112-.144.188-.255.188-.102 0-.191-.065-.242-.16-.045.12-.147.205-.263.205a.265.265 0 0 1-.212-.111c-.048.111-.145.188-.257.188a.273.273 0 0 1-.218-.12c-.045.12-.145.204-.262.204a.265.265 0 0 1-.199-.095.283.283 0 0 1-.244.164.268.268 0 0 1-.207-.104.28.28 0 0 1-.242.158c-.159 0-.288-.155-.288-.343 0-.191.13-.344.288-.344.08 0 .154.04.207.104a.278.278 0 0 1 .242-.157.27.27 0 0 1 .199.094c.05-.1.14-.163.244-.163.087 0 .165.045.217.12.045-.12.146-.205.263-.205.085 0 .16.042.212.111.048-.111.143-.189.257-.189.1 0 .19.065.242.16.044-.12.145-.205.263-.205.096 0 .179.055.231.14.048-.11.145-.186.255-.186.095 0 .178.054.23.137.05-.104.144-.175.252-.175.093 0 .176.054.229.137.05-.105.143-.176.251-.176.11 0 .207.076.254.186.047-.115.145-.194.258-.194.117 0 .218.085.263.205.047-.112.145-.19.256-.19.138 0 .253.117.28.272.024-.163.141-.287.283-.287zm-.286.344l.006.072.004-.058-.006-.072-.004.058z"/><path fill="#DCC763" d="M13.562 17.735c0-.081.092-.148.207-.148.113 0 .205.067.205.148 0 .08-.092.147-.205.147-.115 0-.207-.066-.207-.147m.455-.032c0-.081.092-.148.207-.148.113 0 .205.067.205.148 0 .08-.092.146-.205.146-.115 0-.207-.065-.207-.146m.45-.042c0-.081.093-.147.206-.147.113 0 .205.066.205.147 0 .082-.092.147-.205.147-.113 0-.207-.065-.207-.147m.487-.05c0-.083.093-.149.207-.149.113 0 .205.066.205.148 0 .081-.092.147-.205.147-.114 0-.207-.066-.207-.147m.475-.047c0-.08.092-.148.205-.148.115 0 .207.067.207.148 0 .081-.092.147-.207.147-.113 0-.205-.066-.205-.147m.513-.027c0-.082.092-.148.205-.148.114 0 .207.066.207.148 0 .08-.093.146-.207.146-.113 0-.205-.065-.205-.146m.493-.029c0-.081.092-.147.206-.147.114 0 .206.066.206.147 0 .082-.092.148-.206.148-.114 0-.206-.066-.206-.148m.487-.023c0-.08.092-.147.207-.147.113 0 .205.066.205.147 0 .081-.092.148-.205.148-.115 0-.207-.067-.207-.148m.487-.023c0-.082.092-.148.206-.148.113 0 .206.066.206.148 0 .081-.093.147-.206.147-.114 0-.206-.066-.206-.147m.52-.005c0-.082.092-.147.205-.147.115 0 .207.065.207.147 0 .081-.092.147-.207.147-.113 0-.205-.066-.205-.147m.525.01c0-.082.093-.148.207-.148.113 0 .205.066.205.148 0 .081-.092.147-.205.147-.114 0-.207-.066-.207-.147m.572-.01c0-.082.092-.147.206-.147.114 0 .206.065.206.147 0 .081-.092.147-.206.147-.114 0-.206-.066-.206-.147m.59 0c0-.082.093-.147.208-.147.113 0 .205.065.205.147 0 .081-.092.147-.205.147-.115 0-.207-.066-.207-.147m.566 0c0-.082.093-.147.206-.147.114 0 .206.065.206.147 0 .081-.092.147-.206.147-.113 0-.206-.066-.206-.147m.598 0c0-.082.092-.147.205-.147.115 0 .207.065.207.147 0 .081-.092.147-.207.147-.113 0-.205-.066-.205-.147m.552-.004c0-.081.092-.147.205-.147.113 0 .207.066.207.147 0 .08-.094.147-.207.147-.113 0-.205-.066-.205-.147m.493.018c0-.081.092-.147.206-.147.114 0 .206.066.206.147 0 .082-.092.148-.206.148-.114 0-.206-.066-.206-.148m.475.024c0-.081.092-.148.205-.148.113 0 .205.067.205.148 0 .08-.092.146-.205.146-.113 0-.205-.065-.205-.146m.467.018c0-.081.092-.147.206-.147.114 0 .206.066.206.147 0 .08-.092.148-.206.148-.114 0-.206-.067-.206-.148m.467.019c0-.081.092-.148.206-.148.115 0 .207.067.207.148 0 .08-.092.147-.207.147-.114 0-.206-.066-.206-.147m.5.023c0-.081.093-.147.206-.147.114 0 .206.066.206.147 0 .08-.092.147-.206.147-.113 0-.205-.066-.205-.147m.506.042c0-.081.092-.147.206-.147.113 0 .206.066.206.147 0 .08-.093.147-.206.147-.114 0-.206-.066-.206-.147m.519.023c0-.082.092-.147.206-.147.114 0 .206.065.206.147 0 .08-.092.147-.206.147-.114 0-.206-.066-.206-.147m.476.037c0-.081.092-.147.205-.147.115 0 .207.066.207.147 0 .08-.092.148-.207.148-.113 0-.205-.067-.205-.148m.435.051c0-.08.092-.148.206-.148.113 0 .205.067.205.148 0 .081-.092.147-.205.147-.114 0-.206-.066-.206-.147"/><path fill="#7E5838" d="M13.849 16.378c.08 0 .153.02.205.053a.359.359 0 0 1 .244-.082c.082 0 .156.021.209.056a.351.351 0 0 1 .247-.086.39.39 0 0 1 .213.058c.049-.056.145-.093.254-.093.084 0 .16.022.212.057.047-.057.145-.096.257-.096.1 0 .192.032.242.081.044-.062.146-.105.263-.105.096 0 .18.029.231.072.049-.057.145-.095.257-.095.093 0 .177.028.229.07a.348.348 0 0 1 .25-.09c.094 0 .178.028.23.07a.352.352 0 0 1 .251-.089c.11 0 .207.038.254.094.047-.058.146-.098.26-.098.116 0 .216.043.261.104.047-.057.145-.096.257-.096.138 0 .252.059.28.137.023-.082.142-.145.284-.145.158 0 .287.078.287.175 0 .097-.13.175-.287.175-.138 0-.253-.058-.282-.137-.022.083-.14.145-.282.145-.118 0-.219-.042-.262-.104-.049.058-.145.096-.257.096-.11 0-.206-.038-.255-.094-.048.059-.145.098-.258.098a.375.375 0 0 1-.23-.07c-.049.054-.142.09-.25.09a.372.372 0 0 1-.23-.07.35.35 0 0 1-.25.09.366.366 0 0 1-.232-.072c-.049.056-.145.095-.256.095a.356.356 0 0 1-.242-.082c-.045.062-.147.105-.263.105a.392.392 0 0 1-.212-.056c-.048.056-.145.095-.257.095a.39.39 0 0 1-.213-.058c-.049.056-.144.093-.254.093a.382.382 0 0 1-.209-.056.354.354 0 0 1-.247.086.394.394 0 0 1-.206-.052.36.36 0 0 1-.243.081c-.16 0-.287-.078-.287-.175 0-.096.128-.175.287-.175zm5.112-.031l-.006-.047-.004.037.006.046.004-.036zm.86-.192c.136 0 .25.057.28.135.03-.078.143-.135.28-.135.158 0 .286.078.286.175 0 .097-.128.175-.286.175-.137 0-.25-.057-.28-.135-.03.078-.144.135-.28.135-.159 0-.286-.078-.286-.175 0-.097.127-.175.287-.175zm1.15 0c.124 0 .23.05.27.117.037-.07.146-.12.274-.12.108 0 .202.035.251.09a.362.362 0 0 1 .236-.075.35.35 0 0 1 .244.084.378.378 0 0 1 .223-.064.36.36 0 0 1 .24.078.381.381 0 0 1 .221-.063c.1 0 .189.031.24.08a.376.376 0 0 1 .22-.064c.113 0 .21.038.257.095a.369.369 0 0 1 .237-.076c.121 0 .224.045.267.11a.36.36 0 0 1 .233-.075c.12 0 .221.044.265.107a.35.35 0 0 1 .248-.087c.11 0 .204.037.253.091a.383.383 0 0 1 .217-.06.36.36 0 0 1 .244.083.42.42 0 0 1 .185-.04c.157 0 .286.078.286.175 0 .097-.129.175-.286.175a.357.357 0 0 1-.246-.083.399.399 0 0 1-.183.04c-.11 0-.204-.037-.253-.092a.378.378 0 0 1-.217.061c-.118 0-.221-.044-.264-.106a.351.351 0 0 1-.249.086c-.12 0-.222-.045-.266-.108a.366.366 0 0 1-.234.074c-.11 0-.208-.04-.255-.097a.36.36 0 0 1-.238.077.361.361 0 0 1-.24-.079.383.383 0 0 1-.22.063.36.36 0 0 1-.241-.079.38.38 0 0 1-.221.063.354.354 0 0 1-.245-.083.386.386 0 0 1-.222.064c-.11 0-.203-.037-.252-.09a.37.37 0 0 1-.235.074c-.126 0-.233-.049-.271-.117-.038.07-.146.121-.274.121-.159 0-.288-.078-.288-.175 0-.097.129-.175.288-.175z"/><path fill="#DCC763" d="M13.562 16.578c0-.084.092-.151.207-.151.113 0 .205.067.205.151 0 .083-.092.15-.205.15-.115 0-.207-.067-.207-.15m.455-.036c0-.083.092-.15.207-.15.113 0 .205.067.205.15 0 .084-.092.151-.205.151-.115 0-.207-.067-.207-.151m.463-.036c0-.084.092-.151.205-.151.115 0 .207.067.207.15 0 .084-.092.151-.207.151-.113 0-.205-.067-.205-.15m.473-.043c0-.083.093-.15.207-.15.113 0 .205.067.205.15 0 .083-.092.15-.205.15-.114 0-.207-.067-.207-.15m.475-.048c0-.083.092-.15.205-.15.115 0 .207.067.207.15 0 .084-.092.151-.207.151-.113 0-.205-.067-.205-.15m.513-.029c0-.083.092-.15.205-.15.114 0 .207.067.207.15 0 .083-.093.151-.207.151-.113 0-.205-.068-.205-.151m.493-.028c0-.083.092-.151.206-.151.114 0 .206.068.206.15 0 .084-.092.15-.206.15-.114 0-.206-.066-.206-.15m.487-.023c0-.084.092-.15.207-.15.113 0 .205.066.205.15 0 .083-.092.15-.205.15-.115 0-.207-.067-.207-.15m.487-.024c0-.083.092-.15.206-.15.113 0 .206.067.206.15 0 .084-.093.151-.206.151-.114 0-.206-.067-.206-.151m.52-.005c0-.083.092-.15.205-.15.115 0 .207.067.207.15 0 .084-.092.151-.207.151-.113 0-.205-.067-.205-.15m.525.009c0-.083.093-.15.207-.15.113 0 .205.067.205.15 0 .083-.092.15-.205.15-.114 0-.207-.067-.207-.15m.572-.01c0-.083.092-.15.206-.15.114 0 .206.067.206.15 0 .084-.092.151-.206.151-.114 0-.206-.067-.206-.15m.59 0c0-.084.093-.151.208-.151.113 0 .205.067.205.15 0 .084-.092.151-.205.151-.115 0-.207-.067-.207-.15m.566 0c0-.084.093-.151.206-.151.114 0 .206.067.206.15 0 .084-.092.151-.206.151-.113 0-.206-.067-.206-.15m.598 0c0-.084.092-.151.205-.151.115 0 .207.067.207.15 0 .084-.092.151-.207.151-.113 0-.205-.067-.205-.15m.552-.006c0-.083.092-.15.205-.15.113 0 .207.067.207.15 0 .084-.094.151-.207.151-.113 0-.205-.067-.205-.15m.493.019c0-.083.092-.151.206-.151.114 0 .206.068.206.15 0 .084-.092.15-.206.15-.114 0-.206-.066-.206-.15m.475.024c0-.083.092-.15.205-.15.113 0 .205.067.205.15 0 .084-.092.151-.205.151-.113 0-.205-.067-.205-.15m.467.019c0-.084.092-.15.206-.15.114 0 .206.066.206.15 0 .082-.092.15-.206.15-.114 0-.206-.068-.206-.15m.467.018c0-.083.092-.15.206-.15.115 0 .207.067.207.15 0 .084-.092.151-.207.151-.114 0-.206-.067-.206-.15m.5.023c0-.083.093-.15.206-.15.114 0 .206.067.206.15 0 .083-.092.15-.206.15-.113 0-.205-.067-.205-.15m.506.043c0-.083.092-.15.206-.15.113 0 .206.067.206.15 0 .083-.093.15-.206.15-.114 0-.206-.067-.206-.15m.519.024c0-.084.092-.151.206-.151.114 0 .206.067.206.15 0 .084-.092.15-.206.15-.114 0-.206-.066-.206-.15m.476.039c0-.084.092-.151.205-.151.115 0 .207.067.207.15 0 .084-.092.15-.207.15-.113 0-.205-.066-.205-.15m.435.052c0-.082.092-.15.206-.15.113 0 .205.068.205.15 0 .084-.092.151-.205.151-.114 0-.206-.067-.206-.15"/><path fill="#7E5838" d="M20.96 9.61s-.311-.183-.548-.259c-.236-.076-.463-.122-.463-.122s-.273.347-.282.53a4.72 4.72 0 0 1-.057.456s.13.151.084.281c-.046.13-.037.271-.037.271s.264.13.283.205c.019.076.141.445.066.628-.076.185-.255.542-.255.542s.15.097.141.205c-.009.11-.188.846-.188.846l.207.052s.538-1.525.651-1.947c.114-.422.399-1.688.399-1.688m-3.984-.034s.33-.173.567-.25c.235-.075.453-.075.453-.075s.273.347.282.532c.01.183.057.454.057.454s-.132.15-.085.28c.047.131.038.272.038.272s-.264.13-.283.205c-.019.076-.142.445-.066.628.076.184.254.541.254.541s-.15.098-.14.206c.008.109.187.845.187.845l-.207.053c-.48-1.4-.833-2.63-1.057-3.69m1.589 7.257l-.006.223s-.018.072.173.076c.19.004 1.167.007 1.167.007s.104-.02.104-.111c0-.09.01-.238-.017-.259a.412.412 0 0 0-.214-.038c-.11.004-1.04.004-1.04.004s1.045.025 1.115.04c.07.013.08.114.075.163-.005.048-.017.139-.086.142a38.924 38.924 0 0 1-1.162-.01c-.074-.015-.109-.237-.109-.237m-1.752.036l.014.222s-.011.073.179.071c.19-.003 1.165-.03 1.165-.03s.103-.024.094-.115c-.007-.09-.009-.237-.04-.257a.405.405 0 0 0-.215-.032c-.11.008-1.039.037-1.039.037s1.047-.007 1.117.005c.07.011.091.11.09.16-.002.048-.005.14-.074.145a36.14 36.14 0 0 1-1.16.026c-.076-.012-.13-.232-.13-.232m-1.628.058l.017.205s-.008.067.157.063c.164-.005 1.009-.041 1.009-.041s.087-.023.078-.106c-.008-.083-.012-.219-.04-.237-.026-.019-.092-.035-.187-.027-.094.007-.899.046-.899.046s.906-.02.968-.009c.061.01.08.102.08.147s-.002.128-.061.134c-.06.006-.965.043-1.004.038-.066-.01-.118-.213-.118-.213m-1.625.116l.04.204s0 .067.163.056c.165-.012 1.003-.083 1.003-.083s.085-.028.066-.11c-.018-.082-.038-.218-.068-.235-.027-.017-.096-.03-.19-.018-.093.012-.89.083-.89.083s.901-.057.964-.05c.06.008.091.1.097.144.005.045.013.128-.045.137-.06.008-.96.084-1 .079-.065-.007-.14-.207-.14-.207m6.759-.208l-.012.222s-.02.072.171.078c.19.005 1.166.019 1.166.019s.105-.02.107-.11c.003-.09.019-.237-.01-.258-.028-.022-.102-.043-.212-.04-.11.002-1.04-.008-1.04-.008s1.045.037 1.114.051c.069.014.077.116.07.164-.008.049-.021.139-.09.141a36.05 36.05 0 0 1-1.162-.022c-.073-.015-.102-.237-.102-.237m1.787.04l-.032.204s-.024.066.14.076c.165.009 1.01.044 1.01.044s.091-.016.102-.1c.01-.082.038-.217.015-.237-.022-.02-.084-.042-.18-.042-.094 0-.899-.03-.899-.03s.902.057.959.073c.058.014.057.107.046.151-.01.045-.031.127-.091.128-.061 0-.967-.038-1.004-.046-.063-.016-.066-.221-.066-.221m1.592.069l-.037.204s-.025.066.138.077c.165.011 1.008.054 1.008.054s.092-.014.105-.097c.013-.083.045-.217.022-.238-.02-.02-.083-.042-.177-.044-.096 0-.9-.04-.9-.04s.9.067.958.083c.057.016.053.109.041.153-.013.044-.036.127-.095.127-.061 0-.966-.048-1.003-.058-.062-.016-.06-.221-.06-.221"/><path fill="#DCC763" d="M13.42 14.094s-.773-.6-.837-.8c-.064-.199-.226-.654-.128-.6.096.056.322.256.471.512.151.255.603.855.603.855s-.13-.589-.12-.778c.011-.188.054-.454.13-.432.075.022.225.399.215.533-.012.133-.076.565.01.721.086.156.466.5.466.5s-.171-.344-.171-.478c0-.132 0-.255.096-.178.096.079.28.39.322.51.043.124.226.446.354.523.13.077.398.166.398.166s-.322-.188-.365-.355c-.043-.166-.108-.355-.021-.388.085-.033.258.134.311.255.054.122.16.377.29.467.128.088.333.22.375.21.043-.011-.053-.088-.117-.177-.064-.09-.109-.31-.01-.3.095.011.214.278.3.344.085.067.58.333.58.333s-.205-.233-.237-.355c-.032-.123-.064-.189.043-.189.108 0 .355.4.408.423.054.02.075-.179.075-.278 0-.1.086-.034.226.066.139.1.236.122.268.221.032.101.301.289.301.289s-.15-.243-.15-.322c0-.077-.022-.21.064-.155.086.056.236.166.257.212.023.044.204.199.204.199s-.15-.212-.117-.212c.032 0 .215.057.258.134.042.078.247.223.247.223l-.205.1-.279.032-.387.034c-.096.01.355-.166.355-.166s-.333.044-.42.066c-.085.022-.236.133-.29.133-.053 0-.321.078-.385.056-.066-.022-.054-.233.096-.266.151-.033.451-.134.451-.134s-.43-.011-.613.1c-.181.111-.3.233-.407.244-.107.01-.462.078-.505.111-.043.034-.204.089-.139 0 .064-.088.429-.345.548-.365a.938.938 0 0 0 .247-.101s-.247-.011-.398.066c-.15.079-.45.333-.612.356-.162.022-.247-.1-.172-.222.074-.123.569-.289.569-.289s-.344-.1-.601-.033c-.258.066-.516.278-.74.333-.226.055-.43-.077-.366-.2.064-.122.161-.333.321-.4.162-.066.301-.11.301-.11s-.203-.068-.365.033c-.16.1-.315.289-.54.265-.226-.02-.42-.077-.505-.22-.086-.146.117-.245.31-.256.194-.011.703-.022.703-.022s-.038-.101-.364-.156c-.327-.055-.681-.078-.799-.155-.119-.077-.398-.289-.409-.39-.01-.099-.074-.198.043-.176.119.022.558.033.558.033zm8.867 1.421s.214-.044.278-.088c.064-.045.041-.166-.032-.089a1.5 1.5 0 0 1-.246.177zm-.597.089s.267-.122.32-.177c.053-.055.138-.199.138-.199s-.075.033-.16.132c-.084.1-.298.244-.298.244zm1.269-.188s.447.044.586.044c.14 0 .64.275.64.275s-.3-.209-.49-.297c-.192-.089-.522-.078-.522-.078s.223-.199.265-.31c.043-.108.054-.417.054-.417s-.064.265-.139.418c-.073.155-.394.365-.394.365zm.747-.31l.436.034s.097.077.32.12c.224.045.618.012.618.012l-.33-.044a1.557 1.557 0 0 1-.48-.122c-.128-.065-.564 0-.564 0zm.16-.186s.362-.232.373-.343c.01-.11-.065-.319-.065-.252 0 .064-.02.23-.064.308a2.572 2.572 0 0 1-.244.287zm.5-.276s.438-.089.576-.144c.138-.054.565-.175.565-.175s-.416.055-.554.088c-.139.033-.586.23-.586.23zm.81-.629s.47-.54.533-.64c.064-.099.225-.462.225-.462s-.214.287-.278.407c-.063.122-.48.695-.48.695zm-.234-.947s-.032.55-.064.706c-.032.153-.181.627-.181.627s.245-.496.267-.639c.021-.143-.022-.694-.022-.694zm-5.049 2.703l.344-.223a1.3 1.3 0 0 1 .366-.132l-.13.22s.29-.266.387-.332c.097-.067.182-.067.182-.067l-.064.333s.183-.244.28-.288c.097-.045.342-.1.342-.1l-.181.388s.268-.277.386-.333c.117-.055.462-.156.473-.09.01.068-.151.313-.215.357a1.67 1.67 0 0 1-.15.088s.28-.121.418-.288c.14-.166.247-.19.322-.166.075.022-.043.254-.043.254s.173 0 .344-.132c.172-.133.344-.423.387-.556.043-.132.16-.332.247-.3.086.034.14.212.096.323-.042.11-.183.377-.183.377s.377-.255.43-.377c.054-.122.14-.49.237-.589.096-.1.226-.177.247-.077.021.1-.055.5-.055.5s.311-.223.334-.412c.021-.188.01-.82.075-.987.064-.168.123-.366.219-.333.096.033.183.399.16.555-.02.155-.203.776-.203.776s.516-.654.601-.844c.086-.188.333-.765.495-.588.16.178-.184.8-.302.943-.118.145-.708.601-.708.601s.6-.167.622-.09c.022.08-.34.49-.708.522a5.62 5.62 0 0 0-.843.167s.36.111.613.166c.252.055.433.156.433.223 0 .066-.443.31-.765.189-.323-.123-.892-.19-.892-.19s.558.133.643.212c.087.077.302.232.14.322-.16.088-.751-.134-.976-.178-.226-.045-.666-.056-.666-.056s.29.122.398.212c.107.088.107.31-.01.288-.12-.023-.774-.345-.872-.356-.096-.011.269.145.323.19.054.044-.032.166-.279.122-.247-.046-.795-.378-.795-.378s.483.332.397.332c-.085 0-.473 0-.516-.044-.042-.044-.396-.233-.396-.233s.322.233.247.233h-.355l-.376-.167.247.179s-.257-.012-.343.022a.528.528 0 0 0-.15.09l-.259-.278z"/><path fill="#DCC763" d="M24.14 6.922l.965.409.035.22-.882-.407-.119-.222zm-.224.46l-.017.646.497.341-.48-.988zm-.085 1.226l-.034.323.171.528.855.357-.29-.868-.702-.34zm-.188 1.276l-.17.563.461.272-.29-.835zm-.273 1.005l.632.272.069.477-.445.213-.358-.161-.04-.266.142-.535zm-.342.928l-.104.273.344.153.152-.203-.392-.223zm-.19.495l-.085.255.275.119.102-.239-.291-.135zm-.17.374l.291.136-.154.17-.137-.306zm1.42-2.733l.923.442.215 1.022-.9-.476-.239-.988zm.923-.783c.018.068.3.903.3.903l.889.612-.257-.988-.932-.527zm-.445-1.499l1.001.494.307.953-.982-.544-.326-.903zm1.12-.085l.207.324.734.409-.307-.427-.633-.306zm.532 1.038l.786.596.154.766-.804-.56-.136-.802zm1.213.92l.137.818s.222.357.222.288c0-.068-.034-.662-.05-.73-.019-.07-.309-.376-.309-.376zm-.375-.936l.136.323s.273.154.188.05l-.324-.373zm-.532 1.532c.052.085.19.869.19.869l.666.792-.137-1.099-.719-.562zm-.975.699l.104.901.736.572-.087-.963-.753-.51zm1.25.978c.017.07.084.818.084.818l.258.426.221-.579-.563-.665zm.77-.808l.187.289-.137.553-.05-.842zm-1.797 1.49l.65.477.07.868-.172-.102c.099-.352-.032-.797-.35-.455l-.181-.09-.017-.698zm-.46-.239l.067.648-.54-.307c.22-.221.378-.335.472-.341zM14.66 7.526l-.414.89-1.024.452.406-1.023 1.032-.32zm-2.496 1.242l.9-.537-.354 1.023-.935.655.389-1.141zm-.684.614s-.137.435-.16.552l-.034.336.264-.217.282-.907-.352.236zm1.022-1.272l-.035.152s.846-.387.882-.454c.035-.066.14-.301.14-.301l-.987.603zm1.355-.785l-.035.168 1.085-.438.124-.133-1.174.403zm1.368.084l.018.603-.407.185.39-.788zm-.653 1.242l-.38 1.006.962-.42.142-.67-.036-.135-.688.219zm-1.526.855l-.39 1.006.054.1s.882-.468.882-.519c0-.05.336-1.057.336-1.057l-.882.47zm-1.271.99l.705-.521-.193.94-.706.797.194-1.216zm-.123 1.87l.388.683.106-.128.018-1.141-.512.587zm.97-1.082l-.088 1.066.83-.696.176-1.024-.918.654zm1.411-1.04l.91-.503-.318 1.023-.786.453.194-.973zm1.44-.722l.122.537s-.458.302-.44.253l.317-.79zm-.39 1.259l.635-.318.195.737-.705.454-.265-.118.14-.755zm-1.085.79c.054 0 .362.049.362.049l.177-.436-.539.386zm-.759.763l-.017.956a.942.942 0 0 0-.441-.268c-.081-.01-.123.024-.124.1 0 0 0 .202.017.319l.054.302-.212.1v-.922l.723-.587zm.424-.27l.035.874.548-.571-.477-.385-.106.083zm1.95-.25l.159.301.423-.184-.141-.36-.441.243zm.371.553l.229.252.195-.152-.125-.335-.299.235z"/><path fill="#7E5838" d="M27.448 36.677c.248.323.12.625-.068.906a7.3 7.3 0 0 1-1.395 1.43c-.276.194-.57.325-.885.07l-.162-.45a166.532 166.532 0 0 0-4.991-5.745l-5.084 5.454-.16.445c-.313.253-.605.125-.88-.067-.324-.235-.864-.81-1.078-1.103-.187-.282-.314-.583-.067-.906l.433-.163 5.31-5.289a74.536 74.536 0 0 0-4.63-4.462l-1.812 1.886c-.36.37-.76.336-1.056.031l-1.706-1.748a.735.735 0 0 1 0-1.024l5.407-5.541a.696.696 0 0 1 1 0l1.705 1.748a.737.737 0 0 1 0 1.024l-1.87 1.915a78.925 78.925 0 0 0 4.36 4.78l5.321-5.3c.195-.315.26-.799.112-.996l-1.705-1.72-.076-.626.837-.88.573.06c3.05 2.495 5.474 5.535 6.323 9.559l-.43.173c-.385-.662-2.213-3.798-3.337-4.434-.243-.138-.577-.07-.997.219l-5.08 5.45c1.798 1.72 3.79 3.512 5.647 5.138l.441.166z"/><path fill="#DCC763" d="M9.148 27.085a.464.464 0 0 1 0-.662l5.617-5.52a.48.48 0 0 1 .673 0l1.77 1.74a.462.462 0 0 1 0 .663L15.1 25.38c1.444 1.671 3 3.281 4.683 4.903l-1.105 1.073c-1.661-1.666-3.261-3.176-4.973-4.604l-2.11 2.073a.483.483 0 0 1-.675 0l-1.77-1.74zm12.316 4.794c1.845 1.704 3.803 3.4 5.847 5.114l.432.156c.09.114.05.293-.122.542a7.176 7.176 0 0 1-1.392 1.367c-.252.17-.436.21-.551.12l-.159-.424a158.07 158.07 0 0 0-5.192-5.718l1.137-1.157z"/><path fill="#DCC763" d="M23.453 22.45l-.05-.41.672-.697.381.038c3.395 2.74 5.454 5.802 6.18 9.187-1.372-2.317-2.596-3.957-3.397-4.405-.38-.211-.836-.066-1.283.243l-11.662 12.35-.155.423c-.11.088-.288.048-.533-.12-.299-.214-.817-.756-1.019-1.03-.166-.247-.205-.427-.118-.54l.417-.155 12.122-11.915c.223-.337.376-.985.102-1.316l-1.657-1.652z"/><path fill="#7E5838" d="M8.878 35.187s-1.702 2.4-.68 4.926c1.037 2.565 3.3 3.726 3.3 3.726s.746-2.858.08-5.074c-.702-2.328-2.7-3.578-2.7-3.578"/><path fill="#518551" d="M8.879 35.187s2.458 1.863 2.853 3.71c.3 1.4-.032 3.374-.114 4.235-1.142-2.304-1.889-4.675-2.63-7.08.441 2.396 1.302 4.775 2.434 7.21-.654-.44-2.021-1.423-3.03-3.167-1.41-2.438.487-4.908.487-4.908"/><path fill="#7E5838" d="M11.363 39.801s-.456 2.103.848 3.547c1.323 1.469 3.059 1.645 3.059 1.645s-.269-2.154-1.267-3.484c-1.049-1.399-2.64-1.708-2.64-1.708"/><path fill="#518551" d="M11.352 39.801s2.035.714 2.797 1.95c.577.939.929 2.452 1.12 3.098-1.348-1.374-2.474-2.898-3.605-4.45.945 1.622 2.143 3.123 3.521 4.594a6.814 6.814 0 0 1-2.75-1.512c-1.551-1.402-1.083-3.68-1.083-3.68"/><path fill="#7E5838" d="M7.871 47.43s1.62-2.37 3.578-2.434c2.356-.078 4.39 1.41 4.39 1.41s-1.864 1.69-3.804 2c-1.94.309-4.164-.977-4.164-.977"/><path fill="#518551" d="M7.871 47.621s2.272 1.119 3.902.763c1.235-.268 2.818-1.21 3.497-1.567-2.23-.024-4.469.284-6.659.585 2.092-.512 4.305-.783 6.637-.813-.557-.316-1.784-.89-3.517-1.01-2.422-.17-3.86 2.042-3.86 2.042"/><path fill="#7E5838" d="M9.677 14.42s.89 1.95.223 3.3c-.802 1.624-2.461 2.47-2.461 2.47s-.38-1.871.128-3.298 2.11-2.471 2.11-2.471"/><path fill="#518551" d="M9.705 14.42s-1.738 1.08-2.138 2.27c-.302.905-.252 2.28-.265 2.853.92-1.447 1.598-3.02 2.264-4.559-.471 1.551-1.167 3.094-2.089 4.628a6.705 6.705 0 0 0 2.164-1.93c1.101-1.519.064-3.261.064-3.261"/><path fill="#7E5838" d="M13.562 19.287s-1.678-1.318-3.51-.63c-1.862.7-2.75 2.34-2.75 2.34s2.028.627 3.63.192c1.686-.457 2.63-1.902 2.63-1.902"/><path fill="#518551" d="M13.562 19.702s-1.353 1.406-2.651 1.596c-.984.143-2.354-.098-2.954-.167 1.633-.62 3.304-1.004 5-1.385-1.683.204-3.363.656-5.086 1.267a6.359 6.359 0 0 1 2.275-1.714c1.732-.774 3.416.403 3.416.403"/><path fill="#7E5838" d="M13.562 15.087s-2.076-.414-3.407.54C8.003 17.17 7.302 20.19 7.302 20.19s2.078-.176 3.945-1.436c1.475-.997 2.315-3.666 2.315-3.666"/><path fill="#518551" d="M14.131 15.628S13.198 18 11.705 18.85c-1.133.645-2.868 1.139-3.64 1.34a46.446 46.446 0 0 1 5.346-4.219c-1.958 1.051-3.742 2.493-5.54 4.062.2-.612.671-1.82 1.905-3.09 1.723-1.775 4.355-1.315 4.355-1.315"/><path fill="#7E5838" d="M4.797 18.459s2.106 1.894 1.925 3.856c-.22 2.363-1.925 4.22-1.925 4.22s-1.419-2.06-1.477-4.033c-.058-1.975 1.477-4.043 1.477-4.043"/><path fill="#518551" d="M4.55 18.459s-1.373 1.968-1.22 3.511c.117 1.17.853 2.737 1.122 3.404.291-2.054.257-4.154.226-6.209.252 1.988.252 4.06 0 6.216.379-.48 1.09-1.546 1.418-3.13.457-2.215-1.545-3.792-1.545-3.792"/><path fill="#7E5838" d="M10.148 21.37s-2.275-.336-3.679 1.358c-1.427 1.72-1.443 3.806-1.443 3.806s2.257-.53 3.57-1.85c1.38-1.387 1.552-3.314 1.552-3.314"/><path fill="#518551" d="M10.148 21.363s-.563 2.493-1.795 3.525c-.937.782-2.503 1.353-3.168 1.646 1.323-1.744 2.828-3.237 4.36-4.74-1.624 1.288-3.098 2.865-4.52 4.655a8.63 8.63 0 0 1 1.335-3.427c1.333-1.988 3.788-1.659 3.788-1.659"/><path fill="#7E5838" d="M7.211 19.035s-1.904.626-2.624 1.993c-1.168 2.212-.52 4.93-.52 4.93s1.662-1.095 2.707-2.951c.825-1.466.437-3.972.437-3.972"/><path fill="#518551" d="M7.813 19.035s.32 2.574-.544 4.033c-.654 1.105-1.89 2.352-2.447 2.89a47.073 47.073 0 0 1 2.542-6.28c-1.16 1.854-1.992 3.98-2.777 6.228-.118-.646-.284-1.954.163-3.67.626-2.402 3.063-3.2 3.063-3.2"/><path fill="#7E5838" d="M1.989 24.804s2.466 1.137 2.89 3.013c.51 2.257-.474 4.486-.474 4.486s-1.892-1.494-2.537-3.31c-.642-1.815.12-4.19.12-4.19"/><path fill="#518551" d="M1.884 24.804s-.61 2.38-.006 3.872c.456 1.13 1.579 2.468 2.019 3.05-.368-2.136-1.034-4.217-1.685-6.256.823 1.904 1.452 3.968 1.885 6.193.188-.591.491-1.872.297-3.551-.269-2.346-2.51-3.308-2.51-3.308"/><path fill="#7E5838" d="M7.825 25.38s-2.355.323-3.327 2.51c-.99 2.225-.478 4.413-.478 4.413s2.118-1.227 3.095-2.996c1.027-1.86.71-3.926.71-3.926"/><path fill="#518551" d="M7.302 25.38s.049 2.549-.81 3.883c-.65 1.012-1.9 1.997-2.419 2.463.783-2.043 1.777-3.896 2.794-5.765-1.145 1.688-2.093 3.613-2.952 5.727a9.592 9.592 0 0 1 .427-3.66c.736-2.28 2.96-2.647 2.96-2.647"/><path fill="#7E5838" d="M4.634 24.227s-1.599 1.338-1.827 2.969c-.369 2.642 1.156 5.107 1.156 5.107s1.215-1.713 1.586-3.955c.293-1.77-.915-4.121-.915-4.121"/><path fill="#518551" d="M4.664 24.804s1.212 2.278.87 3.931c-.26 1.254-1.04 2.84-1.401 3.533-.065-2.255.04-4.492.314-6.713-.497 2.125-.575 4.388-.564 6.748-.34-.558-.96-1.717-1.118-3.465-.22-2.446 1.9-4.034 1.9-4.034"/><path fill="#7E5838" d="M1.042 32.303s2.815.176 3.92 1.831c1.328 1.993 1.198 4.514 1.198 4.514s-2.39-.736-3.686-2.25c-1.295-1.515-1.432-4.095-1.432-4.095"/><path fill="#518551" d="M1.042 32.303s.24 2.488 1.347 3.665c.841.893 2.4 1.723 3.033 2.103-1.105-1.878-2.482-3.589-3.83-5.265 1.47 1.482 2.803 3.19 4.003 5.128-.025-.634-.179-1.962-.954-3.475-1.084-2.115-3.599-2.156-3.599-2.156"/><path fill="#7E5838" d="M7.07 29.995s-1.958 1.363-2.04 3.812c-.085 2.488 1.138 4.264 1.138 4.264s1.43-2.085 1.665-4.15c.245-2.173-.764-3.926-.764-3.926"/><path fill="#518551" d="M7.106 29.995s1.062 2.158.684 3.685c-.286 1.159-1.214 2.564-1.578 3.197.017-2.1.332-4.132.665-6.19-.54 1.962-.778 4.035-.847 6.23a7.45 7.45 0 0 1-1-3.323c-.124-2.281 2.076-3.599 2.076-3.599"/><path fill="#7E5838" d="M3.726 30.572s-1.233 1.875-.928 3.54c.496 2.697 2.92 4.536 2.92 4.536s.703-2.101.344-4.41c-.282-1.823-2.336-3.666-2.336-3.666"/><path fill="#518551" d="M4.079 30.572s1.8 1.672 2.02 3.248c.166 1.195-.027 2.843-.13 3.569a42.2 42.2 0 0 1-1.845-6.081c.228 2.042.875 4.085 1.633 6.186-.481-.397-1.4-1.245-2.094-2.759-.97-2.114.416-4.163.416-4.163"/><path fill="#7E5838" d="M2.75 41s2.376-1.755 4.268-1.018c2.278.887 3.699 3.24 3.699 3.24s-2.374.962-4.334.483C4.422 43.225 2.75 41 2.75 41"/><path fill="#518551" d="M2.75 40.8s1.886 2.11 3.695 2.395c1.373.215 3.367-.143 4.203-.247-2.275-.93-4.69-1.51-7.054-2.08 2.346.305 4.72.916 7.123 1.83-.448-.562-1.478-1.669-3.205-2.501-2.415-1.161-4.763.604-4.763.604"/><path fill="#7E5838" d="M5.037 35.764s-.19 2.54.998 4.026c1.923 2.405 5.25 2.895 5.25 2.895s-.444-2.474-2.027-4.568c-1.25-1.653-4.221-2.353-4.221-2.353"/><path fill="#518551" d="M5.032 36.34s2.98.809 4.191 2.486c.918 1.272 1.726 3.285 2.063 4.185a55.8 55.8 0 0 1-5.75-5.852c1.508 2.208 3.47 4.156 5.586 6.103-.765-.159-2.281-.565-3.968-1.877-2.356-1.831-2.122-5.045-2.122-5.045"/><path fill="#7E5838" d="M7.302 41.889s1.042 2.38 2.855 3.133c2.932 1.219 6.25.024 6.25.024s-1.597-2.008-4.067-3.115c-1.95-.873-5.038-.042-5.038-.042"/><path fill="#518551" d="M7.871 41.827s2.992-.768 4.82.173c1.386.712 3.013 2.168 3.717 2.83a51.41 51.41 0 0 1-7.723-2.501c2.332 1.28 4.944 2.089 7.693 2.818-.747.243-2.267.636-4.347.28-2.908-.5-4.16-3.6-4.16-3.6"/><path fill="#7E5838" d="M30.199 35.187s1.7 2.4.678 4.926c-1.036 2.565-3.3 3.726-3.3 3.726s-.746-2.858-.079-5.074c.7-2.328 2.701-3.578 2.701-3.578"/><path fill="#518551" d="M30.764 35.187s-2.457 1.863-2.851 3.71c-.3 1.4.03 3.374.114 4.235 1.142-2.304 1.887-4.675 2.628-7.08-.44 2.396-1.302 4.775-2.432 7.21.653-.44 2.02-1.423 3.03-3.167 1.41-2.438-.489-4.908-.489-4.908"/><path fill="#7E5838" d="M27.144 39.801s.455 2.103-.847 3.547c-1.325 1.469-3.06 1.645-3.06 1.645s.27-2.154 1.266-3.484c1.049-1.399 2.64-1.708 2.64-1.708"/><path fill="#518551" d="M27.723 39.801s-2.033.714-2.795 1.95c-.578.939-.93 2.452-1.122 3.098 1.35-1.374 2.476-2.898 3.607-4.45-.945 1.622-2.143 3.123-3.523 4.594a6.832 6.832 0 0 0 2.752-1.512c1.55-1.402 1.081-3.68 1.081-3.68"/><path fill="#7E5838" d="M31.204 47.43s-1.619-2.37-3.576-2.434c-2.357-.078-4.391 1.41-4.391 1.41s1.863 1.69 3.803 2c1.941.309 4.164-.977 4.164-.977"/><path fill="#518551" d="M31.204 47.621s-2.272 1.119-3.9.763c-1.236-.268-2.819-1.21-3.498-1.567 2.23-.024 4.467.284 6.658.585-2.092-.512-4.303-.783-6.636-.813.558-.316 1.785-.89 3.516-1.01 2.421-.17 3.86 2.042 3.86 2.042"/><path fill="#7E5838" d="M29.398 14.42s-.889 1.95-.222 3.3c.8 1.624 2.46 2.47 2.46 2.47s.38-1.871-.126-3.298c-.508-1.427-2.112-2.471-2.112-2.471"/><path fill="#518551" d="M29.94 14.42s1.739 1.079 2.137 2.27c.302.905.253 2.28.266 2.853-.918-1.447-1.599-3.02-2.265-4.559.471 1.551 1.167 3.094 2.09 4.628a6.709 6.709 0 0 1-2.164-1.93c-1.102-1.519-.063-3.261-.063-3.261"/><path fill="#7E5838" d="M25.513 19.287s1.677-1.318 3.511-.63c1.862.7 2.75 2.34 2.75 2.34s-2.028.627-3.632.192c-1.684-.457-2.629-1.902-2.629-1.902"/><path fill="#518551" d="M25.513 19.702s1.354 1.406 2.652 1.596c.984.143 2.354-.098 2.954-.167-1.632-.62-3.304-1.004-5-1.385 1.684.204 3.362.656 5.085 1.267a6.346 6.346 0 0 0-2.274-1.714c-1.733-.774-3.417.403-3.417.403"/><path fill="#7E5838" d="M25.513 15.087s2.078-.414 3.408.54c2.152 1.542 2.852 4.562 2.852 4.562s-2.076-.176-3.944-1.436c-1.474-.997-2.316-3.666-2.316-3.666"/><path fill="#518551" d="M25.513 15.628s.935 2.371 2.428 3.222c1.133.645 2.869 1.139 3.64 1.34a46.5 46.5 0 0 0-5.348-4.219c1.959 1.051 3.743 2.493 5.54 4.062-.198-.612-.67-1.82-1.903-3.09-1.723-1.775-4.357-1.315-4.357-1.315"/><path fill="#7E5838" d="M34.85 18.459s-2.109 1.894-1.927 3.856c.22 2.363 1.927 4.22 1.927 4.22s1.416-2.06 1.475-4.033c.058-1.975-1.475-4.043-1.475-4.043"/><path fill="#518551" d="M34.526 18.459s1.372 1.968 1.22 3.511c-.117 1.17-.853 2.737-1.123 3.404-.29-2.054-.257-4.154-.226-6.209-.251 1.988-.251 4.06 0 6.216-.379-.48-1.09-1.546-1.417-3.13-.459-2.215 1.546-3.792 1.546-3.792"/><path fill="#7E5838" d="M28.359 21.37s2.274-.336 3.678 1.358c1.428 1.72 1.444 3.806 1.444 3.806s-2.258-.53-3.57-1.85c-1.381-1.387-1.552-3.314-1.552-3.314"/><path fill="#518551" d="M28.928 21.363s.561 2.493 1.795 3.525c.935.782 2.502 1.353 3.166 1.646-1.323-1.744-2.827-3.237-4.359-4.74 1.625 1.288 3.097 2.865 4.52 4.655a8.651 8.651 0 0 0-1.334-3.427c-1.333-1.988-3.788-1.659-3.788-1.659"/><path fill="#7E5838" d="M31.31 19.035s2.222.626 3.063 1.993c1.36 2.212.607 4.93.607 4.93s-1.94-1.095-3.16-2.951c-.962-1.466-.51-3.972-.51-3.972"/><path fill="#518551" d="M31.262 19.035s-.32 2.574.544 4.033c.655 1.105 1.89 2.352 2.446 2.89a46.948 46.948 0 0 0-2.542-6.28c1.161 1.854 1.995 3.98 2.778 6.228.12-.646.284-1.954-.163-3.67-.626-2.402-3.063-3.2-3.063-3.2"/><path fill="#7E5838" d="M37.656 24.804s-2.468 1.137-2.89 3.013c-.51 2.257.473 4.486.473 4.486s1.893-1.494 2.537-3.31c.643-1.815-.12-4.19-.12-4.19"/><path fill="#518551" d="M37.191 24.804s.61 2.38.008 3.872c-.458 1.13-1.58 2.468-2.02 3.05.367-2.136 1.034-4.217 1.686-6.256-.825 1.904-1.454 3.968-1.887 6.193-.187-.591-.49-1.872-.297-3.551.27-2.346 2.51-3.308 2.51-3.308"/><path fill="#7E5838" d="M31.25 25.38s2.355.323 3.328 2.51c.99 2.225.478 4.413.478 4.413s-2.12-1.227-3.096-2.996c-1.025-1.86-.71-3.926-.71-3.926"/><path fill="#518551" d="M31.205 25.38s-.048 2.549.809 3.883c.651 1.012 1.9 1.997 2.419 2.463-.781-2.043-1.776-3.896-2.793-5.765 1.144 1.688 2.094 3.613 2.952 5.727a9.608 9.608 0 0 0-.426-3.66c-.738-2.28-2.961-2.647-2.961-2.647"/><path fill="#7E5838" d="M33.871 24.227s1.6 1.338 1.83 2.969c.366 2.642-1.157 5.107-1.157 5.107s-1.215-1.713-1.586-3.955c-.294-1.77.913-4.121.913-4.121"/><path fill="#518551" d="M34.411 24.804s-1.211 2.278-.87 3.931c.26 1.254 1.04 2.84 1.402 3.533a44.273 44.273 0 0 0-.315-6.713c.498 2.125.575 4.388.564 6.748.342-.558.961-1.717 1.118-3.465.221-2.446-1.899-4.034-1.899-4.034"/><g transform="translate(32.912 32.303)"><mask id="d" fill="#fff"><use xlink:href="#c"/></mask><path fill="#7E5838" d="M5.044.007s-2.75.175-3.83 1.816C-.083 3.798.044 6.296.044 6.296s2.335-.73 3.602-2.23C4.91 2.565 5.045.007 5.045.007" mask="url(#d)"/></g><path fill="#518551" d="M37.465 32.303s-.24 2.488-1.349 3.665c-.84.893-2.4 1.723-3.032 2.103 1.104-1.878 2.482-3.589 3.83-5.265-1.469 1.482-2.804 3.19-4.002 5.128.023-.634.177-1.962.952-3.475 1.084-2.115 3.6-2.156 3.6-2.156"/><path fill="#7E5838" d="M31.437 29.995s1.956 1.363 2.04 3.812c.084 2.488-1.139 4.264-1.139 4.264s-1.43-2.085-1.664-4.15c-.246-2.173.763-3.926.763-3.926"/><path fill="#518551" d="M31.969 29.995s-1.06 2.158-.684 3.685c.286 1.159 1.215 2.564 1.577 3.197-.016-2.1-.331-4.132-.664-6.19.54 1.962.778 4.035.848 6.23.3-.53.91-1.69.999-3.323.124-2.281-2.076-3.599-2.076-3.599"/><path fill="#7E5838" d="M35.349 30.572s1.234 1.875.929 3.54c-.495 2.697-2.919 4.536-2.919 4.536s-.704-2.101-.346-4.41c.284-1.823 2.336-3.666 2.336-3.666"/><path fill="#518551" d="M34.996 30.572s-1.801 1.672-2.02 3.248c-.166 1.195.028 2.843.132 3.569a42.046 42.046 0 0 0 1.843-6.081c-.229 2.042-.875 4.085-1.632 6.186.482-.397 1.4-1.245 2.094-2.759.97-2.114-.417-4.163-.417-4.163"/><path fill="#7E5838" d="M36.326 41s-2.377-1.755-4.27-1.018c-2.276.887-3.697 3.24-3.697 3.24s2.372.962 4.333.483c1.962-.48 3.634-2.706 3.634-2.706"/><path fill="#518551" d="M36.326 40.8s-1.887 2.11-3.696 2.395c-1.373.215-3.366-.143-4.204-.247 2.277-.93 4.692-1.51 7.056-2.08-2.346.305-4.72.916-7.123 1.83.446-.562 1.478-1.669 3.205-2.501 2.415-1.161 4.762.604 4.762.604"/><path fill="#7E5838" d="M34.039 35.764s.188 2.54-1 4.026c-1.921 2.405-5.25 2.895-5.25 2.895s.446-2.474 2.028-4.568c1.25-1.653 4.222-2.353 4.222-2.353"/><path fill="#518551" d="M34.613 36.34s-2.98.809-4.19 2.486c-.918 1.272-1.727 3.285-2.064 4.185a55.84 55.84 0 0 0 5.752-5.852c-1.51 2.208-3.471 4.156-5.588 6.103.766-.159 2.282-.565 3.968-1.877 2.357-1.831 2.122-5.045 2.122-5.045"/><path fill="#7E5838" d="M31.773 41.889s-1.043 2.38-2.854 3.133c-2.932 1.219-6.251.024-6.251.024s1.598-2.008 4.068-3.115c1.949-.873 5.037-.042 5.037-.042"/><path fill="#518551" d="M31.773 41.827s-2.99-.768-4.819.173c-1.386.712-3.012 2.168-3.717 2.83a51.366 51.366 0 0 0 7.722-2.501c-2.332 1.28-4.944 2.089-7.691 2.818.745.243 2.266.636 4.347.28 2.906-.5 4.158-3.6 4.158-3.6"/><g transform="translate(13.562 42.109)"><mask id="f" fill="#fff"><use xlink:href="#e"/></mask><path fill="#7E5838" d="M1.08.01c1.672.328 7.6.328 9.271 0-.25 1.615-.233 2.918.05 4.23l.906.04-.302 2.065c-1.827-.398-8.753-.398-10.58 0L.123 4.28l.907-.04c.283-1.31.3-2.614.05-4.23" mask="url(#f)"/></g><path fill="#518551" d="M15.106 42.685c1.68.202 7.149.202 8.828 0-.286 1.588-.265 3.319.441 5.192-1.796-.228-7.877-.228-9.675 0 .708-1.873.691-3.604.406-5.192"/><path fill="#DCC763" d="M16.055 43.262a3.55 3.55 0 0 1-.363.576 2.917 2.917 0 0 1-.422.451v.317c.193-.168.361-.345.508-.531l.032 2.637a.617.617 0 0 1-.029.216c-.025.086-.094.14-.206.165v.207h1.17v-.207c-.11-.027-.178-.08-.202-.163a.604.604 0 0 1-.029-.218v-3.45h-.459zm.985 1.176h.198c.022-.207.069-.332.145-.375a.328.328 0 0 1 .21-.053l1.09.007c-.165.28-.35.619-.552 1.014-.202.398-.386.798-.553 1.203a5.78 5.78 0 0 0-.34 1.066h.866c.043-.23.105-.505.184-.827a74.545 74.545 0 0 1 .554-2.08l.264-.912v-.219h-1.998l-.068 1.176zm2.066 0h.198c.02-.207.069-.332.143-.375a.331.331 0 0 1 .212-.053l1.09.007a18.262 18.262 0 0 0-1.105 2.217 5.78 5.78 0 0 0-.34 1.066h.866c.043-.23.104-.505.183-.827a58.582 58.582 0 0 1 .555-2.08l.263-.912v-.219h-1.997l-.068 1.176zm2.287-.25c.114-.207.226-.344.338-.41a.52.52 0 0 1 .286-.09c.146.009.242.057.289.144.048.09.07.168.066.238a.795.795 0 0 1-.132.424 1.732 1.732 0 0 1-.325.368c-.133.115-.27.223-.414.327l.12.229a.74.74 0 0 1 .157-.093.412.412 0 0 1 .166-.035c.165.001.291.052.377.151.085.1.128.24.128.421.003.166-.036.333-.112.502a1.03 1.03 0 0 1-.383.43c-.179.118-.418.185-.72.198l-.063.292.129.012.128.004a1.876 1.876 0 0 0 1.579-.851c.151-.241.227-.485.23-.733-.001-.251-.067-.451-.197-.603-.13-.152-.313-.23-.55-.234l-.055.002-.058.004v-.044c.059-.045.134-.114.225-.206.09-.092.172-.201.243-.328a.883.883 0 0 0 .115-.41.622.622 0 0 0-.178-.431c-.118-.129-.294-.196-.528-.203a.986.986 0 0 0-.723.274 1.754 1.754 0 0 0-.36.511l.222.14z"/><path fill="#113060" d="M52.125 26.025c-1.345 0-2.615-.48-3.671-1.451l.93-1.14c.842.751 1.685 1.179 2.778 1.179.956 0 1.56-.454 1.56-1.166 0-.648-.353-.998-1.987-1.4-1.873-.452-2.93-1.022-2.93-2.72 0-1.554 1.258-2.629 3.005-2.629 1.283 0 2.301.402 3.194 1.14l-.83 1.205c-.792-.61-1.584-.933-2.389-.933-.905 0-1.433.48-1.433 1.101 0 .7.402 1.01 2.087 1.425 1.86.466 2.829 1.153 2.829 2.681 0 1.697-1.295 2.708-3.143 2.708zm4.211-.13l3.872-9.132h1.434l3.872 9.132h-1.635l-.892-2.19h-4.161l-.906 2.19h-1.584zm3.055-3.601h3.03L60.9 18.667l-1.509 3.627zm7.72 3.601v-9.067h1.546v9.067H67.11zm3.897 0v-9.067h1.433l4.714 6.27v-6.27h1.521v9.067h-1.295l-4.852-6.45v6.45h-1.521zm12.094 0v-7.59H80.31v-1.477h7.14v1.476h-2.79v7.591H83.1zm5.556-3.2v-1.54h3.722v1.54h-3.722zm5.557 3.2v-9.067h3.47c2.05 0 3.344 1.204 3.344 3.057 0 2.033-1.584 3.096-3.52 3.096H95.76v2.914h-1.546zm1.546-4.352h1.798c1.17 0 1.898-.674 1.898-1.645 0-1.063-.741-1.62-1.898-1.62h-1.798v3.265zm6.852 4.352v-9.067h6.525v1.425h-4.979v2.357h4.413v1.425h-4.413v2.435h5.042v1.425h-6.588zm10.585 0v-7.59h-2.79v-1.477h7.14v1.476h-2.79v7.591h-1.56zm5.985 0v-9.067h6.524v1.425h-4.978v2.357h4.413v1.425h-4.413v2.435h5.041v1.425h-6.587zm8.423 0v-9.067h3.922c2.062 0 3.269 1.14 3.269 2.888 0 1.49-.868 2.384-2.1 2.746l2.376 3.433h-1.823l-2.187-3.16h-1.911v3.16h-1.546zm1.546-4.573h2.263c1.106 0 1.81-.595 1.81-1.541 0-.971-.679-1.503-1.823-1.503h-2.25v3.044zm10.623 4.703c-1.345 0-2.615-.48-3.67-1.451l.93-1.14c.842.751 1.684 1.179 2.778 1.179.955 0 1.559-.454 1.559-1.166 0-.648-.352-.998-1.987-1.4-1.873-.452-2.929-1.022-2.929-2.72 0-1.554 1.257-2.629 3.005-2.629 1.282 0 2.3.402 3.193 1.14l-.83 1.205c-.792-.61-1.584-.933-2.388-.933-.905 0-1.433.48-1.433 1.101 0 .7.402 1.01 2.086 1.425 1.861.466 2.83 1.153 2.83 2.681 0 1.697-1.296 2.708-3.144 2.708zm4.966-.13v-9.067h3.948c1.005 0 1.797.285 2.3.803.39.401.591.894.591 1.528 0 1.088-.603 1.671-1.257 2.021 1.03.363 1.747.971 1.747 2.228 0 1.62-1.294 2.487-3.256 2.487h-4.073zm1.521-5.246h2.112c.993 0 1.66-.402 1.66-1.257 0-.712-.553-1.152-1.547-1.152h-2.225v2.409zm0 3.834h2.565c1.056 0 1.697-.427 1.697-1.27 0-.764-.59-1.217-1.81-1.217h-2.452v2.487zm11.164 1.554c-2.288 0-3.746-1.36-3.746-3.99v-5.22h1.546v5.156c0 1.684.842 2.59 2.225 2.59 1.37 0 2.213-.854 2.213-2.525v-5.22h1.546v5.142c0 2.707-1.483 4.067-3.784 4.067zm5.909-.142v-9.067h3.922c2.062 0 3.269 1.14 3.269 2.888 0 1.49-.868 2.384-2.1 2.746l2.376 3.433h-1.823l-2.187-3.16h-1.911v3.16h-1.546zm1.546-4.573h2.263c1.106 0 1.81-.595 1.81-1.541 0-.971-.679-1.503-1.823-1.503h-2.25v3.044zm11.717 4.728c-2.753 0-4.564-2.02-4.564-4.689 0-2.538 1.886-4.689 4.539-4.689 1.534 0 2.476.44 3.382 1.23l-.981 1.205c-.679-.595-1.345-.971-2.464-.971-1.622 0-2.854 1.464-2.854 3.225 0 1.866 1.194 3.239 2.992 3.239.83 0 1.584-.272 2.125-.687v-1.697h-2.25V20.83h3.746v3.809c-.868.764-2.112 1.411-3.671 1.411zM48.975 42.567V33.5h1.65l2.681 4.288 2.682-4.288h1.65v9.067h-1.55v-6.502l-2.782 4.274h-.05l-2.758-4.248v6.476h-1.523zm11.017 0V33.5h1.549v9.067h-1.549zm3.903 0V33.5h1.436l4.722 6.27V33.5h1.523v9.067H70.28l-4.86-6.45v6.45h-1.524zm10.036 0V33.5h1.548v9.067h-1.548zm3.903 0V33.5h1.435l4.722 6.27V33.5h1.524v9.067h-1.297l-4.86-6.45v6.45h-1.524zm14.127.156c-2.757 0-4.57-2.021-4.57-4.69 0-2.538 1.889-4.688 4.545-4.688 1.536 0 2.48.44 3.387 1.23l-.982 1.205c-.68-.596-1.347-.972-2.468-.972-1.624 0-2.858 1.464-2.858 3.226 0 1.865 1.196 3.238 2.997 3.238.83 0 1.586-.272 2.128-.687V38.89h-2.254v-1.386h3.752v3.808c-.869.764-2.115 1.412-3.677 1.412zm13.083-.013c-2.292 0-3.752-1.36-3.752-3.99V33.5h1.548v5.155c0 1.684.844 2.591 2.229 2.591 1.372 0 2.216-.855 2.216-2.526V33.5h1.549v5.142c0 2.708-1.486 4.068-3.79 4.068zm5.918-.143V33.5h1.435l4.722 6.27V33.5h1.523v9.067h-1.297l-4.86-6.45v6.45h-1.523zm10.035 0V33.5h1.549v9.067h-1.549zm6.812.065l-3.664-9.132h1.712l2.657 6.969 2.644-6.969h1.675l-3.664 9.132h-1.36zm6.535-.065V33.5h6.535v1.425h-4.987v2.357h4.42v1.425h-4.42v2.435h5.05v1.425h-6.598zm8.436 0V33.5h3.928c2.065 0 3.274 1.14 3.274 2.889 0 1.49-.869 2.383-2.103 2.746l2.38 3.432h-1.826l-2.19-3.16h-1.914v3.16h-1.55zm1.549-4.572h2.266c1.108 0 1.813-.596 1.813-1.542 0-.971-.68-1.502-1.826-1.502h-2.253v3.044zm10.64 4.702c-1.348 0-2.62-.48-3.677-1.451l.931-1.14c.844.751 1.688 1.179 2.783 1.179.957 0 1.561-.453 1.561-1.166 0-.648-.352-.997-1.99-1.399-1.875-.453-2.933-1.023-2.933-2.72 0-1.554 1.26-2.63 3.01-2.63 1.284 0 2.304.402 3.198 1.14l-.831 1.205c-.794-.609-1.587-.933-2.393-.933-.906 0-1.435.48-1.435 1.101 0 .7.403 1.01 2.09 1.425 1.864.467 2.833 1.153 2.833 2.682 0 1.696-1.297 2.707-3.148 2.707zm5.06-.13V33.5h1.55v9.067h-1.55zm6.07 0v-7.59h-2.795V33.5h7.152v1.477h-2.796v7.59h-1.56zm8.587 0v-3.575l-3.5-5.492h1.826l2.467 4.015 2.494-4.015h1.775l-3.5 5.453v3.614h-1.562zM1.953 60.669v-5.326H0v-.392h4.323v.392H2.369v5.326h-.416zm3.546 0v-5.963h.393v2.573c.272-.49.728-.874 1.472-.874 1.033 0 1.633.719 1.633 1.715v2.549h-.392v-2.475c0-.858-.472-1.422-1.297-1.422-.8 0-1.416.621-1.416 1.487v2.41h-.393zm6.628.098c-1.072 0-2-.874-2-2.19 0-1.208.832-2.172 1.936-2.172 1.145 0 1.873.947 1.873 2.18 0 .074 0 .099-.008.164h-3.386c.072 1.037.8 1.642 1.601 1.642.633 0 1.065-.286 1.401-.654l.272.245c-.416.458-.904.785-1.689.785zm-1.585-2.377h2.97c-.056-.842-.528-1.618-1.465-1.618-.808 0-1.433.695-1.505 1.618zm7.029 2.279V54.95h3.946v.392h-3.53v2.344h3.17v.392h-3.17v2.59h-.416zm5.219 0v-4.166h.392v4.166h-.392zm-.048-5.252v-.548h.488v.548h-.488zm1.985 5.252v-4.166h.392v1.184c.32-.743 1-1.282 1.81-1.25v.442h-.04c-.945 0-1.77.727-1.77 2.082v1.708h-.392zm4.523.081a2.761 2.761 0 0 1-1.673-.604l.232-.319c.448.352.944.548 1.465.548.552 0 .984-.31.984-.81 0-.49-.512-.669-1.08-.832-.665-.196-1.401-.4-1.401-1.16 0-.67.552-1.152 1.345-1.152.488 0 1.04.18 1.449.458l-.209.334c-.376-.253-.824-.416-1.256-.416-.56 0-.929.31-.929.743 0 .466.552.637 1.137.809.656.188 1.345.433 1.345 1.184 0 .744-.625 1.217-1.41 1.217zm4.018-.008c-.632 0-1.144-.351-1.144-1.143V56.87h-.593v-.367h.593V55.17h.392v1.332h1.433v.367h-1.433v2.688c0 .596.344.808.816.808.2 0 .368-.04.6-.147v.376a1.474 1.474 0 0 1-.664.147zm4.33-.073V54.95h.417v2.646h3.586V54.95h.417v5.718H41.6v-2.68h-3.586v2.68H37.6zm6.053 0v-4.166h.392v4.166h-.392zm-.048-5.252v-.548h.488v.548h-.488zm3.778 6.575c-.68 0-1.313-.213-1.873-.637l.232-.327a2.634 2.634 0 0 0 1.649.588c.936 0 1.6-.547 1.6-1.617v-.605c-.351.515-.896.964-1.704.964-.985 0-1.961-.768-1.961-1.976a1.96 1.96 0 0 1 1.96-1.977c.817 0 1.37.44 1.706.931v-.833h.392v3.52c0 .605-.192 1.079-.52 1.413-.353.36-.88.556-1.481.556zm-.056-2.018c.848 0 1.689-.637 1.689-1.6 0-.964-.84-1.585-1.69-1.585-.856 0-1.576.604-1.576 1.593 0 .939.736 1.592 1.577 1.592zm3.546.695v-5.963h.392v2.573c.272-.49.729-.874 1.473-.874 1.033 0 1.633.719 1.633 1.715v2.549h-.392v-2.475c0-.858-.472-1.422-1.297-1.422-.8 0-1.417.621-1.417 1.487v2.41h-.392zm6.628.098c-1.073 0-2.001-.874-2.001-2.19 0-1.208.832-2.172 1.937-2.172 1.145 0 1.873.947 1.873 2.18 0 .074 0 .099-.008.164h-3.386c.072 1.037.8 1.642 1.601 1.642.632 0 1.065-.286 1.4-.654l.273.245c-.416.458-.905.785-1.689.785zm-1.585-2.377h2.97c-.056-.842-.529-1.618-1.465-1.618-.809 0-1.433.695-1.505 1.618zm4.539 2.279v-4.166h.392v1.184c.32-.743 1-1.282 1.81-1.25v.442h-.04c-.946 0-1.77.727-1.77 2.082v1.708h-.392zm7.244 0v-5.326h-1.953v-.392h4.323v.392h-1.954v5.326h-.416zm5.267.098c-1.072 0-2-.874-2-2.19 0-1.208.832-2.172 1.936-2.172 1.145 0 1.873.947 1.873 2.18 0 .074 0 .099-.008.164H71.38c.072 1.037.8 1.642 1.601 1.642.633 0 1.065-.286 1.401-.654l.272.245c-.416.458-.904.785-1.689.785zM71.38 58.39h2.97c-.056-.842-.528-1.618-1.465-1.618-.808 0-1.433.695-1.505 1.618zm6.34 2.377c-1.176 0-2.081-.98-2.081-2.181 0-1.193.913-2.181 2.081-2.181.769 0 1.265.36 1.625.776l-.272.286c-.352-.368-.752-.686-1.36-.686-.905 0-1.65.808-1.65 1.805 0 1.004.745 1.805 1.681 1.805.577 0 1.009-.319 1.353-.71l.288.26c-.416.483-.912.826-1.665.826zm2.77-.098v-5.963h.392v2.573c.272-.49.729-.874 1.473-.874 1.033 0 1.633.719 1.633 1.715v2.549h-.392v-2.475c0-.858-.472-1.422-1.297-1.422-.8 0-1.417.621-1.417 1.487v2.41h-.392zm4.907 0v-4.166h.392v.776c.272-.49.729-.874 1.473-.874 1.033 0 1.633.719 1.633 1.715v2.549h-.392v-2.475c0-.858-.472-1.422-1.297-1.422-.8 0-1.417.621-1.417 1.487v2.41h-.392zm4.963 0v-4.166h.392v4.166h-.392zm-.048-5.252v-.548h.488v.548h-.488zm3.786 5.35c-1.177 0-2.081-.98-2.081-2.181 0-1.193.912-2.181 2.081-2.181.769 0 1.265.36 1.625.776l-.272.286c-.352-.368-.752-.686-1.36-.686-.905 0-1.65.808-1.65 1.805 0 1.004.745 1.805 1.681 1.805.577 0 1.009-.319 1.353-.71l.288.26c-.416.483-.912.826-1.665.826zm4.01 0c-.76 0-1.576-.441-1.576-1.324 0-.865.728-1.356 1.785-1.356.568 0 .96.074 1.353.18v-.18c0-.84-.505-1.274-1.345-1.274-.497 0-.905.14-1.281.335l-.144-.351c.448-.212.888-.36 1.449-.36.552 0 .992.156 1.289.458.272.278.416.662.416 1.176v2.598h-.384v-.695c-.28.4-.785.793-1.561.793zm.025-.376c.832 0 1.545-.523 1.545-1.283v-.473a5.31 5.31 0 0 0-1.385-.188c-.865 0-1.345.392-1.345.988 0 .605.56.956 1.185.956zm3.386.278v-5.963h.392v5.963h-.392zm6.636.09c-1.345 0-2.298-.866-2.298-2.467V54.95h.417v3.3c0 1.348.712 2.124 1.897 2.124 1.136 0 1.865-.703 1.865-2.083V54.95h.416v3.292c0 1.641-.936 2.515-2.297 2.515zm3.786-.09v-4.166h.392v.776c.272-.49.729-.874 1.473-.874 1.033 0 1.633.719 1.633 1.715v2.549h-.392v-2.475c0-.858-.472-1.422-1.297-1.422-.8 0-1.417.621-1.417 1.487v2.41h-.392zm4.963 0v-4.166h.392v4.166h-.392zm-.048-5.252v-.548h.488v.548h-.488zm3.402 5.284l-1.833-4.198h.456l1.545 3.716 1.561-3.716h.44l-1.833 4.198h-.336zm4.963.066c-1.073 0-2.001-.874-2.001-2.19 0-1.208.832-2.172 1.937-2.172 1.145 0 1.873.947 1.873 2.18 0 .074 0 .099-.008.164h-3.386c.072 1.037.8 1.642 1.601 1.642.633 0 1.065-.286 1.401-.654l.272.245c-.416.458-.904.785-1.689.785zm-1.585-2.377h2.97c-.056-.842-.528-1.618-1.465-1.618-.808 0-1.433.695-1.505 1.618zm4.539 2.279v-4.166h.392v1.184c.32-.743 1-1.282 1.81-1.25v.442h-.04c-.945 0-1.77.727-1.77 2.082v1.708h-.392zm4.523.081a2.761 2.761 0 0 1-1.673-.604l.232-.319c.448.352.944.548 1.465.548.552 0 .984-.31.984-.81 0-.49-.512-.669-1.08-.832-.665-.196-1.401-.4-1.401-1.16 0-.67.552-1.152 1.345-1.152.488 0 1.04.18 1.448.458l-.208.334c-.376-.253-.824-.416-1.256-.416-.56 0-.929.31-.929.743 0 .466.552.637 1.137.809.656.188 1.345.433 1.345 1.184 0 .744-.625 1.217-1.41 1.217zm2.713-.081v-4.166h.393v4.166h-.393zm-.048-5.252v-.548h.489v.548h-.489zm3.346 5.325c-.632 0-1.144-.351-1.144-1.143V56.87h-.593v-.367h.593V55.17h.392v1.332h1.433v.367h-1.433v2.688c0 .596.344.808.816.808.2 0 .369-.04.6-.147v.376a1.474 1.474 0 0 1-.664.147zM141.046 62c-.312 0-.537-.057-.809-.18l.136-.35a1.4 1.4 0 0 0 .697.154c.424 0 .704-.253 1.008-.98l-1.96-4.141h.455l1.697 3.725 1.473-3.725h.433l-1.77 4.313c-.36.874-.776 1.184-1.36 1.184zm6.668-1.331v-4.166h.392v4.166h-.392zm-.048-5.252v-.548h.488v.548h-.488zm1.985 5.252v-4.166h.392v.776c.272-.49.729-.874 1.473-.874 1.033 0 1.633.719 1.633 1.715v2.549h-.392v-2.475c0-.858-.472-1.422-1.297-1.422-.8 0-1.417.621-1.417 1.487v2.41h-.392zm7.396 0V54.95h2.354c.688 0 1.24.22 1.577.564.264.27.424.653.424 1.078 0 .955-.696 1.503-1.64 1.633l1.848 2.443h-.528l-1.785-2.37h-1.833v2.37h-.417zm.417-2.753h1.889c.936 0 1.633-.482 1.633-1.323 0-.768-.592-1.25-1.61-1.25h-1.912v2.573zm6.836 2.85c-1.033 0-1.633-.718-1.633-1.715v-2.548h.392v2.475c0 .857.472 1.421 1.297 1.421.8 0 1.417-.62 1.417-1.487v-2.41h.392v4.167h-.392v-.776c-.272.49-.729.874-1.473.874zm4.675-.016a2.761 2.761 0 0 1-1.673-.604l.232-.319c.448.352.944.548 1.465.548.552 0 .984-.31.984-.81 0-.49-.512-.669-1.08-.832-.665-.196-1.401-.4-1.401-1.16 0-.67.552-1.152 1.345-1.152.488 0 1.04.18 1.449.458l-.209.334c-.376-.253-.824-.416-1.256-.416-.56 0-.929.31-.929.743 0 .466.552.637 1.137.809.656.188 1.345.433 1.345 1.184 0 .744-.625 1.217-1.41 1.217zm3.978 0c-.592 0-1.24-.245-1.673-.604l.232-.319c.449.352.945.548 1.465.548.553 0 .985-.31.985-.81 0-.49-.513-.669-1.08-.832-.665-.196-1.402-.4-1.402-1.16 0-.67.553-1.152 1.345-1.152.488 0 1.04.18 1.449.458l-.208.334c-.376-.253-.825-.416-1.257-.416-.56 0-.929.31-.929.743 0 .466.553.637 1.137.809.657.188 1.345.433 1.345 1.184 0 .744-.624 1.217-1.409 1.217zm2.714-.081v-4.166h.392v4.166h-.392zm-.048-5.252v-.548h.488v.548h-.488zm3.226 5.35c-.76 0-1.577-.441-1.577-1.324 0-.865.728-1.356 1.785-1.356.568 0 .96.074 1.353.18v-.18c0-.84-.505-1.274-1.345-1.274-.496 0-.905.14-1.28.335l-.145-.351c.448-.212.889-.36 1.449-.36.552 0 .992.156 1.289.458.272.278.416.662.416 1.176v2.598h-.384v-.695c-.28.4-.785.793-1.561.793zm.024-.376c.832 0 1.545-.523 1.545-1.283v-.473a5.31 5.31 0 0 0-1.385-.188c-.865 0-1.345.392-1.345.988 0 .605.56.956 1.185.956z"/></g></svg>