<svg width="78" height="80" xmlns="http://www.w3.org/2000/svg"><g fill="#FFF"><path d="M77.24 33.599l-15.452-10c-.12-.077-.254-.106-.384-.15V20c0-.92-.742-1.666-1.66-1.666h-6.162l-12.872-8.08a1.652 1.652 0 0 0-1.76 0l-12.872 8.08h-7.822c-.918 0-1.66.745-1.66 1.666v3.448c-.13.044-.264.073-.384.151l-15.452 10c-.473.307-.76.835-.76 1.4v43.334C0 79.254.742 80 1.66 80h74.68c.917 0 1.66-.745 1.66-1.667V35c0-.566-.287-1.093-.76-1.401zM39.83 13.633l7.49 4.7H32.34l7.49-4.7zm-19.915 8.034h38.17v37.5c0 .005.003.008.003.014l-5.614 3.423-13.51-7.4a1.658 1.658 0 0 0-1.617.017L25.02 62.295l-5.107-3.114c0-.005.003-.008.003-.013V21.667zM3.32 35.908l13.276-8.59v29.84L3.32 49.064V35.908zm0 17.053l18.406 11.223L3.32 74.748V52.96zm3.344 23.706l31.526-18.09 33.026 18.09H6.664zm68.017-1.899l-18.84-10.32 18.84-11.487v21.807zm0-25.705l-13.277 8.095v-29.84l13.277 8.59v13.155z"/><path d="M26.643 38h19.714c.908 0 1.643-.727 1.643-1.625v-9.75c0-.898-.735-1.625-1.643-1.625H26.643c-.908 0-1.643.727-1.643 1.625v9.75c0 .898.735 1.625 1.643 1.625zm1.643-9.75h16.428v6.5H28.286v-6.5zM25 42h27v3H25zm0 6h27v3H25zm45.626-28a1.62 1.62 0 0 0 1.15-.476l5.748-5.748a1.625 1.625 0 1 0-2.3-2.3l-5.748 5.748A1.625 1.625 0 0 0 70.626 20zm-63.402-.476a1.62 1.62 0 0 0 1.15.476 1.626 1.626 0 0 0 1.15-2.776l-5.749-5.748a1.625 1.625 0 1 0-2.299 2.3l5.748 5.748zm48.877-7.646c.212.084.433.122.65.122a1.75 1.75 0 0 0 1.624-1.078l3.5-8.571a1.703 1.703 0 0 0-.976-2.228c-.888-.35-1.916.073-2.274.955l-3.5 8.572a1.704 1.704 0 0 0 .976 2.228zm-33.476-.956A1.749 1.749 0 0 0 24.25 12c.217 0 .438-.038.649-.122a1.703 1.703 0 0 0 .975-2.228l-3.499-8.572c-.359-.882-1.384-1.305-2.274-.955a1.703 1.703 0 0 0-.975 2.228l3.499 8.571z"/></g></svg>