<svg xmlns="http://www.w3.org/2000/svg" width="29" height="27"><path fill="#113060" d="M12.681 21.58c-1.14-1.125 6.094-10.134 7.696-11.927 1.602-1.793 7.3-7.455 8.255-8.39.955-.935-.055-1.863-1.794-.765-1.738 1.098-13.69 12.326-15.004 16.209.708-4.447 3.877-8.59 4.673-9.657.795-1.068 1.448-2.478.365-3.496-2.208-2.059-5.356 1.598-13.576 12.492s1.526 12.845 1.526 9.413c0-1.372-.6-1.63-.983-.989-.384.64-6.78 2.063 1.224-6.919s7.043-7.81 7.767-8.565c-5.731 9.951-1.524 12.796-.447 13.348.433.158.551-.469.298-.753"/></svg>