<svg width="40" height="40" xmlns="http://www.w3.org/2000/svg"><g fill="none" fill-rule="evenodd"><circle fill="#113060" cx="20" cy="20" r="20"/><path d="M8.55 24l4.8-11.28h2.273l4.8 11.28h-2.576l-1.024-2.512h-4.736L11.063 24H8.55zm4.417-4.688h2.976l-1.488-3.632-1.488 3.632zm11.36 4.848c-1.616 0-2.944-.928-2.944-2.656 0-1.872 1.424-2.736 3.456-2.736.864 0 1.488.144 2.096.352v-.144c0-1.008-.624-1.568-1.84-1.568-.928 0-1.584.176-2.368.464l-.608-1.856c.944-.416 1.872-.688 3.328-.688 1.328 0 2.288.352 2.896.96.64.64.928 1.584.928 2.736V24h-2.352v-.928c-.592.656-1.408 1.088-2.592 1.088zm.736-1.68c1.136 0 1.904-.624 1.904-1.504v-.432a3.771 3.771 0 0 0-1.552-.32c-1.04 0-1.68.416-1.68 1.216 0 .656.544 1.04 1.328 1.04z" fill="#FFF"/></g></svg>