<svg xmlns="http://www.w3.org/2000/svg" xmlns:xlink="http://www.w3.org/1999/xlink" width="347" height="119"><defs><path id="a" d="M.056.22h32.51v36.185H.057z"/><path id="c" d="M.076.014h9.606v12.07H.076z"/><path id="e" d="M.237.019H21.7v12.16H.237z"/></defs><g fill="none" fill-rule="evenodd"><g transform="translate(21.662)"><mask id="b" fill="#fff"><use xlink:href="#a"/></mask><path fill="#7E5838" d="M14.613 32.379l-5.04.073-4.93.07a.124.124 0 0 1-.124-.106c-.053-.34-.156-.9-.316-1.51-.179-.681-.428-1.421-.757-1.98a71.055 71.055 0 0 1-1.357-2.42c-.458-.856-.884-1.7-1.16-2.342a10.71 10.71 0 0 1-.66-2.173 11.768 11.768 0 0 1-.208-2.573 5.342 5.342 0 0 1 .154-1.106 6.712 6.712 0 0 1 .89-2.016 6.335 6.335 0 0 1 1.365-1.52c.62-.488 1.096-.843 1.603-1.143.507-.3 1.045-.545 1.79-.81a32.866 32.866 0 0 1 1.623-.54c.347-.104.508-.141.508-.141s.024-.056.089-.113a.514.514 0 0 1 .331-.123.97.97 0 0 1 .254.022.76.76 0 0 0 .256-.16c.068-.06.143-.124.289-.192.1-.046.205-.06.31-.049.106.01.21.045.308.097a.74.74 0 0 0 .352.076c.116-.001.225-.02.314-.03.085-.007.169-.033.251-.062.083-.029.163-.06.241-.08a.353.353 0 0 1 .28.07c.082.06.157.159.246.29.09.13.253.434.457.915.205.48.451 1.139.706 1.98.24.79.403 1.478.509 1.985.075.359.12.627.144.777.01.07.074.114.142.104a11.543 11.543 0 0 1 .73-.089.637.637 0 0 1 .004-.241.46.46 0 0 1 .116-.19c.044-.047.08-.083.08-.12l-.018-.186a3.009 3.009 0 0 1-.013-.25c0-.081.048-.12.113-.135a.459.459 0 0 1 .207.013c.088-.053.116-.093.108-.146-.009-.052-.053-.116-.108-.217a.377.377 0 0 1-.035-.285.611.611 0 0 1 .112-.218.178.178 0 0 0 .033-.165.596.596 0 0 0-.116-.195c-.057-.074-.103-.235-.136-.405a3.765 3.765 0 0 1-.06-.46.281.281 0 0 1 .12-.244.366.366 0 0 1 .182-.077 1.42 1.42 0 0 0 .002-.206c-.004-.06-.011-.116-.018-.19a.507.507 0 0 1 .058-.23c.034-.076.068-.145.068-.192 0-.044-.058-.116-.127-.206-.07-.09-.152-.2-.201-.323a.284.284 0 0 1 .045-.298.445.445 0 0 1 .211-.141c.01-.163.011-.304.018-.424.007-.12.018-.22.046-.301.022-.064.129-.089.25-.096.12-.007.255.005.334.014a1.152 1.152 0 0 1-.48-.275.598.598 0 0 1-.157-.57.544.544 0 0 1 .056-.137.545.545 0 0 1-.538-.558.56.56 0 0 1 .082-.306.525.525 0 0 1 .225-.198.53.53 0 0 1-.31-.187.581.581 0 0 1 .002-.722.542.542 0 0 1 .331-.181.536.536 0 0 1-.22-.2.583.583 0 0 1-.085-.303.54.54 0 0 1 .157-.398c.1-.099.24-.158.402-.158.003-.042-.017-.103-.037-.176a1.006 1.006 0 0 1-.043-.252.545.545 0 0 1 .138-.376.549.549 0 0 1 .357-.175l.083-.316.084-.316c.038-.15.1-.616.155-1.07.055-.454.102-.896.111-.998.008-.101-.062-.14-.165-.148a1.562 1.562 0 0 0-.365.04c-.127.024-.34.105-.53.183-.1.04-.194.08-.266.11-.072.031-.172-.029-.196-.105-.081-.256-.065-.518-.061-.84.007-.465.037-.804.037-.848.032-.147.076-.213.144-.23.068-.017.152.017.27.091.117.075.343.145.556.2.212.055.41.094.474.105.062.01.082-.04.075-.13a1.885 1.885 0 0 0-.083-.36 7.64 7.64 0 0 0-.246-.635 8.301 8.301 0 0 0-.24-.527c-.042-.071-.06-.137-.048-.185.01-.048.05-.077.121-.074l1.1.004 1.101.004c.086.002.113.029.106.078-.007.049-.048.12-.098.213-.05.094-.145.436-.234.772-.06.227-.116.45-.153.594-.02.079.035.16.114.16.156.002.35-.035.53-.082.246-.065.468-.148.543-.179.072-.03.145-.037.199-.011.054.025.09.083.09.18l-.02.824-.018.823c0 .13-.022.194-.072.212-.05.017-.127-.011-.239-.067a6.96 6.96 0 0 0-.523-.207l-.408-.15a.117.117 0 0 0-.146.05 1.266 1.266 0 0 0-.123.477c-.02.226-.008.484.02.752a21.123 21.123 0 0 0 .17 1.288c.008.052.05.09.1.1.11.024.203.077.273.155.087.096.138.23.138.388a.662.662 0 0 1-.048.244c.163 0 .302.056.4.154a.563.563 0 0 1 .156.407c0 .08-.014.152-.039.218a.531.531 0 0 1-.105.171.504.504 0 0 1 .259.192c.062.09.097.204.097.335a.604.604 0 0 1-.045.234.503.503 0 0 1-.122.176c.07.048.127.113.166.191a.61.61 0 0 1 .06.272.58.58 0 0 1-.095.329.516.516 0 0 1-.249.193.505.505 0 0 1 .102.17.641.641 0 0 1 .037.22.553.553 0 0 1-.14.383.531.531 0 0 1-.352.167.53.53 0 0 1 .065.147.665.665 0 0 1-.014.39.515.515 0 0 1-.102.17c.202.05.321.151.38.259.06.106.06.22.024.298-.035.078-.083.149-.12.214-.038.064-.065.124-.059.18a.993.993 0 0 0 .087.235c.04.088.077.17.077.213 0 .044-.02.085-.04.127-.021.041-.044.084-.052.13-.009.045.04.141.085.25.045.11.087.233.061.332a.95.95 0 0 1-.124.274c-.049.078-.096.138-.114.168-.02.03.017.072.072.112.055.04.129.079.184.103.054.023.083.145.084.294a1.17 1.17 0 0 1-.084.457 1.74 1.74 0 0 1-.216.342c-.072.094-.13.166-.135.214.15.035.276.082.347.153.071.072.087.166.017.294-.072.129-.154.225-.23.315-.075.09-.143.174-.188.276-.044.102-.103.164-.125.2-.023.037-.01.049.091.049.102 0 .236-.027.35-.019.113.009.205.051.222.19.01.083.04.17.084.256.037.075.083.15.135.221a.129.129 0 0 0 .07.049l.215.06.257.07c.104-.276.276-.87.473-1.545.197-.675.418-1.432.619-2.033.229-.684.464-1.267.667-1.7.203-.432.374-.713.476-.793a1.17 1.17 0 0 1 .135-.09.735.735 0 0 1 .123-.058.585.585 0 0 1 .26.001c.076.018.146.048.22.078a.694.694 0 0 0 .226.048c.069.006.12.003.12.003s.037-.072.136-.142c.1-.07.26-.14.506-.136a.832.832 0 0 1 .72.42c0-.018.104-.004.235.033.131.037.29.096.398.166.11.07.188.07.39.122.203.052.53.156 1.14.437.611.28 1.362.591 2.16 1.018.798.427 1.643.97 2.44 1.716.527.492.929.962 1.23 1.46.3.497.5 1.022.622 1.626.063.308.106.638.132.995.027.356.037.74.035 1.157-.008 1.236-.32 2.486-.715 3.553-.394 1.068-.87 1.952-1.205 2.455a20.456 20.456 0 0 0-.912 1.511 24.38 24.38 0 0 0-.779 1.556c-.2.436-.378 1.045-.516 1.614-.14.569-.24 1.097-.288 1.37.097.044.18.118.238.21a.594.594 0 0 1-.072.727.55.55 0 0 1-.394.169 11.477 11.477 0 0 0-.087.776c-.006.104-.008.269-.01.434v.32c0 .061.04.117.099.124.126.017.23.068.306.145a.566.566 0 0 1 .148.406.577.577 0 0 1-.146.403.493.493 0 0 1-.367.152.495.495 0 0 1-.443-.267.475.475 0 0 1-.154.094.532.532 0 0 1-.484-.062.528.528 0 0 1-.184-.252.48.48 0 0 1-.434.241.498.498 0 0 1-.35-.14.577.577 0 0 1-.167-.357.517.517 0 0 1-.174.307.499.499 0 0 1-.323.113.496.496 0 0 1-.318-.112.549.549 0 0 1-.182-.29.497.497 0 0 1-.458.288.496.496 0 0 1-.32-.114.552.552 0 0 1-.18-.296.51.51 0 0 1-.182.256.504.504 0 0 1-.3.094.495.495 0 0 1-.276-.082.527.527 0 0 1-.185-.217.476.476 0 0 1-.18.18.516.516 0 0 1-.714-.228.477.477 0 0 1-.181.183.516.516 0 0 1-.727-.252.485.485 0 0 1-.427.23.497.497 0 0 1-.282-.085.538.538 0 0 1-.187-.227.494.494 0 0 1-.195.205.578.578 0 0 1-.29.073.551.551 0 0 1-.535-.397.516.516 0 0 1-.188.304.558.558 0 0 1-.345.111.557.557 0 0 1-.571-.55.552.552 0 0 1-.16.4.552.552 0 0 1-.391.15.559.559 0 0 1-.569-.55.552.552 0 0 1-.16.4.551.551 0 0 1-.391.15.549.549 0 0 1-.556-.545.625.625 0 0 1-.187.397.564.564 0 0 1-.392.148.555.555 0 0 1-.379-.143.56.56 0 0 1-.177-.362.54.54 0 0 1-.171.368.552.552 0 0 1-.377.137.55.55 0 0 1-.505-.318.498.498 0 0 1-.197.22.578.578 0 0 1-.3.08.54.54 0 0 1-.51-.33.503.503 0 0 1-.177.267.488.488 0 0 1-.3.098.477.477 0 0 1-.278-.088.539.539 0 0 1-.183-.23.503.503 0 0 1-.177.26.485.485 0 0 1-.294.095.477.477 0 0 1-.284-.092.543.543 0 0 1-.183-.242.515.515 0 0 1-.172.294.484.484 0 0 1-.312.108.478.478 0 0 1-.272-.083.523.523 0 0 1-.181-.221.513.513 0 0 1-.178.273.488.488 0 0 1-.302.1.479.479 0 0 1-.294-.098.535.535 0 0 1-.18-.257.541.541 0 0 1-.168.325.483.483 0 0 1-.327.12.476.476 0 0 1-.264-.079.518.518 0 0 1-.18-.21.528.528 0 0 1-.174.3.48.48 0 0 1-.314.11.483.483 0 0 1-.433-.258.511.511 0 0 1-.172.292.486.486 0 0 1-.313.107.48.48 0 0 1-.407-.222.49.49 0 0 1-.179.227.487.487 0 0 1-.277.082.482.482 0 0 1-.26-.074.511.511 0 0 1-.18-.198.512.512 0 0 1-.164.263.42.42 0 0 1-.272.097.55.55 0 0 1-.359-.13.487.487 0 0 1-.167-.37.652.652 0 0 1 .099-.334.682.682 0 0 1 .167-.193.136.136 0 0 0 .056-.1l.022-.38.026-.444.027-.398.02-.294c.003-.055-.027-.11-.077-.127a.56.56 0 0 1-.244-.174.59.59 0 0 1-.007-.737.552.552 0 0 1 .314-.2l5.039-.072 5.039-.073z" mask="url(#b)"/></g><path fill="#DCC763" d="M35.762 6.573c.037-.214.2-1.174.27-1.749.078-.65.056-.886.056-.978 0-.089-.092-.189-.403-.131-.314.06-.709.189-.773.214-.065.024-.15.057-.142-.122.006-.182.038-1.143.038-1.23 0-.084.097-.058.198-.002.108.05.713.301.84.306.127.003.292-.042.257-.201-.036-.16-.294-1.331-.382-1.448-.088-.12-.04-.125.069-.125.11 0 1.183.013 1.26.013.08 0 .097.025.04.146-.056.125-.265 1.01-.295 1.274-.032.266.006.364.15.364s.647-.155.795-.217c.146-.06.297-.137.297-.012 0 .126.012 1.037.008 1.157-.002.119-.077.127-.182.044-.135-.046-.495-.177-.677-.229-.185-.052-.378-.072-.402.107-.012.087-.019.704.022 1.32.034.526.101 1.049.125 1.233l-.084-.005s-.035.015-.058.042c-.052-.226-.221-.37-.445-.37-.27 0-.472.22-.468.522 0 .052.006.1.02.147a.371.371 0 0 0-.134-.07"/><path fill="#DCC763" d="M36.442 5.91c0-.208.194-.374.433-.374s.433.166.433.373c0 .205-.194.371-.433.371-.24 0-.433-.166-.433-.37m.978.327c0 .205.195.37.433.37.24 0 .434-.165.434-.37s-.195-.371-.434-.371c-.238 0-.433.166-.433.37m-1.926.2c0-.204.194-.37.436-.37.24 0 .433.166.433.37 0 .205-.194.372-.433.372-.242 0-.436-.167-.436-.371m-.534.903c0-.205.194-.371.436-.371.24 0 .433.166.433.371 0 .207-.194.373-.433.373-.242 0-.436-.166-.436-.373m-.19.964c0-.205.193-.374.432-.374.242 0 .436.169.436.374s-.194.371-.436.371c-.239 0-.433-.166-.433-.371m.177.939c0-.205.197-.373.436-.373.24 0 .433.168.433.373s-.194.371-.433.371-.436-.166-.436-.371m.467.786c0 .207.194.373.436.373.239 0 .432-.166.432-.373 0-.205-.193-.372-.432-.372-.242 0-.436.167-.436.372m.7.67c0-.206.194-.372.433-.372.24 0 .436.166.436.371s-.197.373-.436.373c-.24 0-.433-.168-.433-.373m.922 0c0 .205.195.373.433.373.242 0 .436-.168.436-.373s-.194-.371-.436-.371c-.238 0-.433.166-.433.371m.63-.503c0-.207.194-.374.436-.374.239 0 .433.167.433.374 0 .205-.194.37-.433.37-.242 0-.436-.165-.436-.37m.424-.752c0-.207.198-.373.437-.373s.432.166.432.373c0 .205-.193.371-.432.371-.24 0-.437-.166-.437-.371m.18-.834c0-.207.195-.373.433-.373.24 0 .436.166.436.373 0 .205-.196.372-.436.372-.238 0-.433-.167-.433-.372m-.055-.82c0-.208.194-.374.435-.374.24 0 .433.166.433.373 0 .205-.194.371-.433.371-.241 0-.435-.166-.435-.37m-.22-.825c0-.205.194-.37.436-.37.239 0 .432.165.432.37s-.193.374-.432.374c-.242 0-.436-.169-.436-.374"/><path fill="#DCC763" d="M36.954 9.41c0-.918.488-1.66 1.092-1.66.604 0 1.092.742 1.092 1.66 0 .92-.488 1.661-1.092 1.661-.604 0-1.092-.742-1.092-1.66m-2.4 8.949s-.347-2.092-.69-3.268c-.342-1.177-.93-3.04-1.176-2.907-.248.134 0 2.817.228 4.016.228 1.2.476 2.62.476 2.62l1.162-.461zm5.893 0s.347-2.092.689-3.268c.34-1.177.93-3.04 1.178-2.907.244.134 0 2.817-.229 4.016-.228 1.2-.475 2.62-.475 2.62l-1.163-.461zm-10.991-5.904c.107-.127.227-.162.354-.111-.285 2.77.416 6.555 2.1 11.354l-.284.553c-1.936-5.239-2.66-9.172-2.17-11.796m16.082-.04c-.023-.198-.355-.31-.429-.185.286 2.77-.273 6.774-1.955 11.574l.283.552c1.935-5.238 2.588-9.316 2.1-11.94"/><path fill="#7E5838" d="M37.23 1.107h.192l.067.565.08-.565h.257s-.212 1.152-.339 1.152c-.127 0-.256-1.152-.256-1.152m.551 4.429h-.168l-.125-.723-.09.723h-.21s.213-2.046.34-2.046c.126 0 .253 2.046.253 2.046m-1.92-2.353v-.185l.58-.066-.58-.077v-.25s1.188.207 1.188.33c0 .123-1.188.248-1.188.248m3.276-.557v.186l-.51.068.51.075v.249s-1.043-.206-1.043-.33c0-.123 1.043-.248 1.043-.248"/><path fill="#DCC763" d="M30.426 11.498l2.127-.301c-.146.642.243 3.768.868 6.195.648 2.51 2.396 6.841 2.396 6.841s-.635.42-.79.793c-.156.374-.07 1.525-.07 1.525s-.564-.95-.564-1.372c0-.424.308-.97.308-1.27 0-.298-.128-.572-.308-.572-.183 0-.714.016-.815.216a5.395 5.395 0 0 0-.244.635l-.067.572s-.144-.775-.144-1.074l.026-1.342c0-.125-.209-.323-.285-.323-.078 0-.347.05-.347.05s-1.435-3.578-1.898-6.61c-.324-2.111-.193-3.963-.193-3.963m9.982 12.76s.21.126.39.424c.18.296.389.77.389 1.167v.722s.491-.424.543-.845c.053-.424-.026-1.392-.104-1.616-.076-.225-.102-.424.104-.449.207-.025.44-.123.649.076.206.198.439.672.465.92.026.248.104.447.104.447s.243-1.082.139-1.53c-.105-.447-.165-.931-.086-1.105.075-.175.232-.374.334-.374.104 0 .39.101.39.101s1.24-3.859 1.505-5.123c.483-2.331.462-5.653.462-5.653l-1.837-.349c.094.577-.107 2.738-.828 5.696-.552 2.243-1.42 5.196-2.619 7.491"/><path fill="#7E5838" d="M30.83 22.275a.88.88 0 0 1 .226-.605c-.297-.062-.525-.388-.525-.777a.91.91 0 0 1 .172-.541c-.313-.049-.551-.382-.551-.783 0-.177.045-.339.122-.471-.217-.124-.368-.398-.368-.718 0-.229.078-.433.2-.579-.267-.053-.471-.344-.471-.693 0-.173.047-.329.129-.452-.19-.113-.319-.355-.319-.635a.79.79 0 0 1 .175-.51.783.783 0 0 1-.203-.542c0-.25.102-.468.257-.595-.186-.112-.31-.352-.31-.629 0-.204.068-.387.178-.514a.772.772 0 0 1-.234-.572c0-.186.058-.356.155-.485a.824.824 0 0 1-.1-.398c0-.39.252-.705.565-.705.312 0 .564.315.564.705a.806.806 0 0 1-.153.484.83.83 0 0 1 .099.399.798.798 0 0 1-.179.516c.14.13.233.336.233.57a.762.762 0 0 1-.257.592c.184.116.31.355.31.632a.79.79 0 0 1-.174.509.797.797 0 0 1 .203.543c0 .172-.05.328-.13.45.19.112.32.354.32.637 0 .188-.059.36-.156.487.317.043.564.376.564.785a.925.925 0 0 1-.125.47c.218.124.368.399.368.719a.912.912 0 0 1-.17.54c.31.049.551.38.551.784 0 .241-.087.46-.225.604.299.065.525.388.525.778a.899.899 0 0 1-.144.5c.35 0 .633.356.633.791 0 .436-.283.791-.633.791-.349 0-.631-.355-.631-.79a.93.93 0 0 1 .142-.501c-.349 0-.633-.352-.633-.791"/><path fill="#DCC763" d="M31.492 12.836c0 .174-.056.33-.143.45a.593.593 0 0 0-.436-.203.587.587 0 0 0-.396.16.76.76 0 0 1-.117-.407c0-.362.245-.657.548-.657.3 0 .544.295.544.657M30.4 13.895c0-.336.244-.61.547-.61.3 0 .545.274.545.61a.631.631 0 0 1-.175.448.567.567 0 0 0-.306-.086.6.6 0 0 0-.38.136.63.63 0 0 1-.231-.498"/><path fill="#DCC763" d="M31.492 13.859c0 .22-.117.411-.286.506a.646.646 0 0 0-.195-.03.603.603 0 0 0-.265.058.574.574 0 0 1-.346-.534.56.56 0 0 1 .547-.573c.3 0 .545.257.545.573m0 1.126c0 .186-.077.35-.199.46a.574.574 0 0 0-.26-.06.616.616 0 0 0-.359.115.6.6 0 0 1-.274-.515c0-.326.244-.592.547-.592.3 0 .545.266.545.592M30.4 16.052a.55.55 0 0 1 .547-.552c.3 0 .545.248.545.552a.55.55 0 0 1-.545.555.55.55 0 0 1-.547-.555m0 1.108a.55.55 0 0 1 .548-.553c.3 0 .544.248.544.552a.55.55 0 0 1-.544.555.55.55 0 0 1-.548-.555m1.092 1.12a.577.577 0 0 1-.154.395l-.12-.012c-.16 0-.31.06-.427.16a.56.56 0 0 1-.391-.543c0-.313.244-.565.545-.565.302 0 .547.252.547.565m0 1.095a.55.55 0 0 1 .548-.553c.301 0 .545.247.545.553a.55.55 0 0 1-.545.555.552.552 0 0 1-.548-.555m0 1.106c0-.305.245-.551.545-.551a.55.55 0 0 1 .548.552.552.552 0 0 1-.548.555c-.3 0-.545-.25-.545-.555m0 2.217a.55.55 0 0 1 .546-.555c.3 0 .547.249.547.555a.55.55 0 0 1-.547.552.548.548 0 0 1-.546-.552"/><path fill="#DCC763" d="M32.585 22.698c0-.306.245-.555.547-.555a.55.55 0 0 1 .545.555.548.548 0 0 1-.545.552.55.55 0 0 1-.547-.552"/><path fill="#7E5838" d="M40.746 22.33c0 .173.06.336.16.465a.798.798 0 0 0-.675.773c0 .438.371.79.827.79.456 0 .825-.352.825-.79a.767.767 0 0 0-.16-.465.797.797 0 0 0 .676-.773.782.782 0 0 0-.44-.696c.063.013.128.02.196.02.456 0 .825-.351.825-.786 0-.323-.204-.6-.495-.721l.115.007c.456 0 .825-.354.825-.789 0-.434-.369-.786-.825-.786-.456 0-.828.352-.828.786 0 .324.204.6.496.722l-.113-.008c-.459 0-.828.354-.828.79 0 .3.18.563.44.695a.807.807 0 0 0-.196-.023c-.456 0-.825.354-.825.789m1.542-4.444c0-.344.255-.63.594-.698a.665.665 0 0 1-.287-.543c0-.328.246-.603.575-.665a.672.672 0 0 1-.334-.574c0-.287.184-.533.448-.63a.666.666 0 0 1-.245-.513.67.67 0 0 1 .367-.592.661.661 0 0 1-.09-1.03.653.653 0 0 1-.138-.403l.01-.12a.665.665 0 0 1-.113-.369c0-.375.317-.678.711-.678.394 0 .711.303.711.678l-.011.121a.656.656 0 0 1-.092.846.664.664 0 0 1 .138.404.675.675 0 0 1-.363.592.67.67 0 0 1 .295.55.682.682 0 0 1-.45.632c.15.124.244.308.244.512a.688.688 0 0 1-.572.664c.198.12.333.331.333.575a.687.687 0 0 1-.553.662c.19.129.312.338.312.58 0 .392-.334.71-.747.71-.41 0-.743-.318-.743-.71"/><path fill="#DCC763" d="M41.323 22.695c0-.305.244-.552.545-.552a.55.55 0 0 1 .547.552.55.55 0 0 1-.547.555.55.55 0 0 1-.545-.555"/><path fill="#DCC763" d="M42.415 22.698c0-.307.247-.555.548-.555.3 0 .545.248.545.555a.549.549 0 0 1-.545.552.55.55 0 0 1-.548-.552m0-2.216a.55.55 0 0 1 .546-.553.55.55 0 0 1 .547.553.55.55 0 0 1-.547.554.55.55 0 0 1-.546-.554m0-1.108a.55.55 0 0 1 .547-.553.55.55 0 0 1 .546.553.55.55 0 0 1-.546.555.55.55 0 0 1-.547-.555m1.093-3.319a.55.55 0 0 1 .544-.555.55.55 0 0 1 .548.555.55.55 0 0 1-.548.552.55.55 0 0 1-.544-.552"/><path fill="#DCC763" d="M42.415 18.268a.55.55 0 0 1 .547-.554.55.55 0 0 1 .546.554.549.549 0 0 1-.546.553.549.549 0 0 1-.547-.553m1.093-2.213a.55.55 0 0 1 .546-.555c.304 0 .546.248.546.555a.548.548 0 0 1-.546.552.55.55 0 0 1-.546-.552m0-2.215c0-.306.242-.554.546-.554a.55.55 0 0 1 .546.554.55.55 0 0 1-.546.553.548.548 0 0 1-.546-.553"/><path fill="#DCC763" d="M44.6 13.87a.58.58 0 0 1-.309.523.623.623 0 0 0-.547-.045.591.591 0 0 1-.236-.479c0-.323.244-.583.547-.583.3 0 .545.26.545.583m-1.092-1.014c0-.374.244-.676.547-.676.3 0 .545.302.545.676a.77.77 0 0 1-.125.43.602.602 0 0 0-.484-.265.57.57 0 0 0-.406.177.81.81 0 0 1-.077-.342m.546-1.784c.29 0 .524.344.546.78-.117-.18-.282-.293-.461-.293-.272 0-.506.257-.604.62a1.268 1.268 0 0 1-.027-.269c0-.462.242-.838.546-.838m-5.358 20.451s-2.71-1.946-3.109-2.68c-.45-.83-.775-2.477-.603-2.821.17-.345.2-.546 0-.546s-.634.24-.797.947c-.11.476.057 1.203.227 1.604.172.402.255.801.255.801s-.993-.945-1.249-1.517c-.256-.573-.283-1.672-.17-1.873.504-.887.256-.89-.056-.937 0 0-.38.157-.493.444-.115.285-.19 1.047-.134 1.304.056.258.056.63.056.63s-.553-.924-.61-1.44c-.057-.516.118-1.642.042-1.969-.047-.196-.256-.315-.426-.084-.17.228-.312 1.031-.285 1.373.03.345.172 1.233.541 1.806.37.575 1.107 1.405 1.107 1.405s-1.532-1.289-2.16-2.608c-.624-1.317-1.325-2.53-1.842-2.851-.693-.434-1.289-.486-1.434-.14 0 0 1.031.583 1.4 1.1.369.515 1.365 2.119 1.365 2.119-.01.129-.106.124-.29-.012 0 0-1.1-1.94-1.668-2.416-.347-.287-1.225-.897-1.71-.87-.481.03-.754.147-.558.32.2.171 1.356.888 1.555 1.175.199.286 1.08 1.374 1.306 1.547l1.195.915s-.18.12-.964-.394c-.236-.156-.925-1.041-1.414-1.326-.27-.159-1.535-.286-1.422.23.116.516.758.431 1.126.603.372.17 1.282.716 1.282.716s-1.299-.05-1.48.201c-.409.565-.084.744-.084.744s.388-.317.814-.317c.425 0 2.511.605 2.511.605s-1.53-.214-1.785-.07c-.256.141-.47.593-.26.7.09.046.51-.288.936-.288.428 0 1.82.431 1.82.431s-.844.144-1.043.345c-.2.198-.209.516-.209.516s.863-.122 1.545-.122c.681 0 2.577.664 3.089.98.511.315 3.743 2.12 3.743 2.12l.34-.4zM37.02 29.99s1.296-.93 1.532-1.525c.233-.592.079-2.511.057-2.73-.02-.218-.047-.225.118-.258.346-.07.59.238.708.652.118.417.158.912.138 1.307-.02.397-.217.992-.217.992s.981-1.012 1.06-1.406c.08-.397.256-1.287.177-1.525-.078-.238-.334-.592-.236-.652a.439.439 0 0 1 .53.1c.176.198.333 1.028.333 1.207 0 .175-.117.95-.117.95s.55-.635.61-1.129c.058-.496.194-1.326.118-1.743-.08-.414-.276-.81-.02-.89.253-.079.49.337.607.85.119.516-.039 1.585-.177 1.883l-.47 1.048s.883-1.346 1.198-1.978c.312-.635.805-1.763 1.392-2.217.59-.456.689-.635.962-.635.275 0 .669.159.669.159s-.686.456-1.08.97c-.393.515-.686 1.147-.863 1.406l-.728 1.048s.67-.635 1.02-1.168c.355-.536.808-1.386 1.238-1.663.433-.276 1.139-.633 1.571-.573.431.06.726.277.726.277s-.726.258-1.1.633c-.373.377-1.355 1.485-1.785 1.8-.433.317-1.12 1.009-1.12 1.009s.648-.375 1.14-.79c.49-.415.844-.832 1.315-.851.47-.02 1.432.317 1.432.317s-.548-.02-.883.218c-.334.236-.981.692-1.198.751-.216.06-.588.295-.588.295s.687-.136.903-.037c.217.097.394.712.394.712s-1.004-.258-1.828.139c-.824.394-3.22 1.304-3.22 1.304s1.885-.652 2.2-.732c.314-.079 1.217-.257 1.453-.02.236.239.216.635.216.635s-1.003-.317-1.512-.218c-.512.1-1.04.377-1.04.377s.863-.06 1 .06c.138.116.296.73.256.83-.04.1-.157-.06-.728-.158-.568-.1-1.372-.318-2.14-.02-.764.297-3.377 1.463-3.377 1.463l-.646-.474zm7.597-4.887s.138 0 .217-.08l1-1.128c.138-.158 1.533-1.207 1.533-1.207s-1.296.711-1.611 1.069a84.91 84.91 0 0 0-1.139 1.346zm-1.786 1.959s1.316-.675 1.668-.97c.354-.297.982-.694 1.356-.892.374-.196 1.118-.335 1.118-.335s-1.197.414-1.844.93c-.65.513-1.67 1.088-1.828 1.148-.157.059-.47.119-.47.119zm1.454-.377s.765-.238 1.02-.238c.254 0 .864.139.864.139s-.57-.298-.883-.259c-.315.04-1 .358-1 .358zM40.2 29.021s1.217-.377 1.61-.377c.392 0 1.787.337 1.787.337s-1.179-.496-1.786-.456c-.61.04-1.611.496-1.611.496zm2.865-1.188s.906-.199 1.139-.199c.236 0 .807.14.807.14s-.63-.259-.864-.239c-.236.02-1.082.298-1.082.298zm-8.834 3.878l1.61-.99.589.338-1.688 1.048-.511-.396z"/><path fill="#DCC763" d="M37.95 26.082l.022-.253c.01-.084.066-.462.066-.568l.01-.597c0-.052-.01-.304-.043-.357-.033-.053-.11.02-.11.02l-.102 1.88.157-.125zm-1.348.797l-.077-.127c.085-.023.234-.063.351-.084.116-.02.297.058.407.116l-.022.063c-.033.158-.209.786-.209.786s-.176.095-.23.01c-.056-.084-.089-.536-.22-.764zm.9-.387c-.134-.05-.417-.15-.57-.15-.16 0-.462.092-.594.137l.096.136c.118-.028.34-.08.442-.073.11.008.39.06.514.084l.113-.134zm-.648-5.543l.011.19h-.302l.025-.19h.266zm.385 0l.008.19h-.22l.006-.19h.206zm-.203-.095l.016-.241c.022-.085.11.02.164.104l.02.137h-.2zm-.434 0l.022-.168s.055-.095.11-.105c.055-.01.076.053.098.126l.017.147h-.247zm1.035 5.499c-.011.01-.003.036-.017.047-.159-.142-.535-.226-.733-.226-.197 0-.502.105-.656.163-.187-.237-.398-.455-.55-.476-.285-.042-.493.01-.56.063a.73.73 0 0 0-.12.134l-.022-.187s.186-.294.22-.368c.033-.073.021-.263.11-.315.087-.053.263-.105.208-.27-.055-.17-.406-1.282-.406-1.45 0-.168.11-.273.209-.294.098-.022.186-.179.11-.295-.078-.116-.591-.85-.646-1.207-.055-.355.055-.933.154-.986.096-.052.634-.187.722-.26.088-.074.032-.084-.022-.368-.055-.284-.154-.505-.099-.6.055-.094.033-.25.12-.168.089.087.363.347.43.358.063.01.183-.042.11-.137-.08-.095-.528-.397-.594-.618-.066-.221-.154-1.028-.297-1.228-.143-.2-.381-.484-.37-.631.008-.145.03-.281.096-.281s.22-.042.186-.106c-.032-.063-.142-.42-.076-.441.065-.022.527.147.582.105.055-.043-.011-.334-.055-.398-.044-.063-.286-.389-.253-.483.033-.095.363-.242.363-.326 0-.084-.23-.253-.286-.313-.055-.063-.296-.652-.263-.8.033-.144.076-.242.164-.228.088.01.242.092.286 0 .044-.095-.132-.41-.088-.568.044-.158.198-.326.198-.39 0-.062-.363-.28-.428-.45-.067-.167 0-.388.087-.388.088 0 .385.084.418.01.033-.073-.177-.357-.198-.48-.022-.127.01-.295.077-.316.066-.021.299.008.299.008.115.484.61.641 1.03.33a.576.576 0 0 0 .623.116s.011.413-.12.595c-.132.184-.229.208-.229.208s.203-.471.168-.54c-.036-.068-.118-.092-.118-.092l-.085.01s.107.38-.083.45c-.192.069-.442-.091-.442-.091s-.11.16 0 .218c.107.055.431.092.431.092s-.002.228.179.16c.178-.07.417-.379.417-.379s0 .206.096.182c.097-.02.168-.308.132-.492-.035-.184-.132-.46-.132-.46l.168-.387s.241-.047.324-.036c.085.013.313-.034.313.16 0 .195-.157.529-.228.631-.071.103-.217.23-.132.263.082.034.264.034.286.103.025.07-.225.47-.225.542 0 .068.299-.014.299-.014s.057.242-.025.426c-.085.182-.288.424-.253.516.037.092.42.218.432.32.013.103-.107.608-.203.71-.097.105-.264.253-.264.379s.12.231.203.242c.085.01.217-.047.146.079-.075.126-.432.702-.445.86-.011.163-.083.357.013.344.097-.01.55-.194.599-.092.046.105.036.484-.06.668-.096.181-.442.789-.442.986 0 .195-.053.62-.075.665-.024.045-.167.342-.167.342l-.275.379s-.01.16.083.126c.096-.034.228-.321.288-.355.06-.034.107.034.146.116.035.079-.097.607-.097.607l-.013.345s.085.055.216.044c.132-.01.453.103.478.232.025.123.162.62.13.767-.033.148-.569.85-.613 1.06-.043.208-.11.534-.01.597.095.063.306.095.315.2.01.105-.096.723-.143.87-.043.147-.25.734-.217.84.033.104.165.535.165.693 0 .158.02.295.02.295s-.245-.113-.531-.024l.06-1.646.044-.116c.055-.084.045-.158-.021-.158h-.176c-.11 0-.253.053-.253.053s.055-.031 0 .263c-.055.295-.088.786-.088.786l-.033.705-.016.47zm-1.112-1.636s0 .892.044.965c.044.074.659.032.733.032.077 0 .014-.084-.02-.137-.032-.053-.439-.01-.516-.021-.076-.01-.11-.084-.12-.158-.011-.073.274-.084.362-.084.088 0 .37.21.417.21.044 0 0-.544 0-.67 0-.127-.01-.284-.098-.326-.088-.042-.56-.042-.572.01-.01.053.155.053.286.084.132.032.209.053.253.127.04.073.022.481-.022.523-.044.042-.374-.063-.45-.063-.077 0-.089-.081-.089-.158 0-.07.44-.063.396-.126-.044-.063-.33-.008-.406-.063-.078-.05-.012-.208-.078-.24-.065-.031-.12.095-.12.095zm-.393-11.46s.305.443.437.443.483-.232.483-.232.176.232.48.232c.308 0 .572-.19.56-.326-.01-.137.012-.369-.032-.41-.044-.043-.132.357-.154.4-.022.041-.12.03-.12.03s.098-.178.076-.294c-.022-.115-.077-.19-.099-.147-.022.042-.12.463-.217.515-.098.053-.175-.01-.263-.052-.088-.042-.165 0-.121-.084.044-.085.12-.243.11-.327-.011-.084-.11.01-.165.106-.055.094-.242.326-.242.326s.1-.242.11-.337c.011-.095-.11-.137-.11-.137s-.142.463-.208.484c-.066.021-.21-.042-.231-.094l-.11-.21s-.14-.054-.173 0c-.033.052-.01.115-.01.115zm-.23 1.113c.044.084.25.232.348.232l.23-.011s-.021.337-.01.4c.01.063.099.386.175.428.078.043.154-.02.11-.168-.044-.147-.153-.305-.142-.46.01-.158.066-.316.132-.358.065-.042.307-.094.428-.094.12 0 .242.031.252.147l.053.555c.01.115-.022.368-.143.42-.119.053-.415.084-.525.106-.11.02-.099.115 0 .126.1.01.69.021.756-.063.065-.085.252-.42.241-.516-.01-.094-.077-.186-.099-.27-.022-.085-.088-.18-.033-.21l.308-.138s-.384.084-.384-.031c0-.116.087-.21-.11-.263-.195-.053-.338-.074-.426-.053a1.633 1.633 0 0 0-.318.105c-.11.053-.22.2-.308.19a1.395 1.395 0 0 1-.37-.127c-.067-.042-.165.053-.165.053zm.066 4.165s.076-1.51.098-1.688c.022-.179.053-.641.206-.673.154-.032 1.436.01 1.513.052.077.042.275.221.275.295 0 .074.033.221-.044.179-.077-.042-.176-.295-.363-.326-.184-.032-1.249-.126-1.293-.053-.044.074-.143.944-.143 1.144 0 .2-.055.976-.065 1.05-.009.073-.184.02-.184.02zm.612-1.186l.033-.397c.01-.115.142-.22.142-.22l.363-.032c.11-.01.33.01.36.084.033.074-.063.053-.13.084-.065.032-.307 0-.384 0-.077 0-.154.105-.198.179-.043.074.154.021.253.008.099-.008.34.045.406.087.064.039.075.165.064.323l-.086.81s-.043-.284-.043-.41-.033-.463-.058-.537c-.02-.073-.107-.063-.173-.073a1.56 1.56 0 0 0-.396.034c-.066.018-.032.113-.022.197.012.084.154.084.154.084s.209.01.319.053c.11.042.011.074-.044.094-.055.022-.242 0-.319-.01-.076-.01-.076.074-.098.148a.194.194 0 0 0 .055.199c.054.053.197.021.33.021.13 0 .087.073.087.116 0 .042-.363 0-.462.008-.098.013-.01.16-.066.22-.054.063-.098-.113-.11-.186-.01-.076.023-.884.023-.884zm1.26-.386s-.055.576-.055.702-.066.828-.077.87c-.01.042-.055.21-.142.253-.088.042-.11.147-.11.147s.373-.074.33 0a.673.673 0 0 1-.24.19c-.057.02.02.052-.23-.032-.253-.084-.33-.074-.451-.084l-.406-.032c-.165-.01-.198-.053-.253-.021-.054.031.044.105.1.137.054.031.417.095.526.095.11 0 .45-.032.503 0 .058.03.318.094.384.052s.253-.074.297-.18a.799.799 0 0 0 .066-.304c0-.095-.033-.252-.033-.378l.01-.503c0-.158.045-.43.067-.494l.098-.302c.022-.064.034-.158-.066-.158-.098 0-.164.2-.153.252.01.05-.044.524-.055.586a5.062 5.062 0 0 0-.033.484c0 .124-.077.376-.077.24l.022-.46c0-.095.033-.306.055-.453.022-.147.011-.22.011-.336v-.282c0-.084-.022-.105-.022-.105l-.066.116zm-1.73 3.242s.066-.116.107-.158l.209-.22c.044-.053.055-.19.044-.232a1.369 1.369 0 0 0-.143-.25c-.033-.042.143-.055.143-.055s.23.045.373.055l.484.019c.12 0 .107.073.12.16.009.082-.604.018-.692 0-.088-.024-.11.018-.11.018s.034.21-.01.285a6.75 6.75 0 0 1-.393.494c-.058.052-.132-.116-.132-.116zm1.217-.505s.414.537.491.61c.077.074-.11.168-.165.145-.054-.019-.48-.565-.491-.65-.011-.084.165-.105.165-.105zm-1.403.8s-.045.207-.045.291c0 .085.023 1.428 0 1.807-.022.376.056.355.089.397.032.042.142-.137.142-.137l.009-2.014c0-.074-.064-.295-.108-.345-.043-.052-.087 0-.087 0zm1.774.165s.021-.103.076-.074c.055.032.176.063.187.116.01.053-.044.652-.033.789.01.137.033 1.176.088 1.28.055.103-.044.345.022.387.066.042.132.126.132.126s-.088.095-.154.085c-.066-.011-.92.03-1.085.03-.165 0-.582-.125-.582-.125s-.022-.084.044-.084.352.105.55.105c.197 0 .603.01.71-.042.11-.053.231-.158.231-.2 0-.042.077-.116 0-.137-.077-.02-.198.106-.264.127-.066.02-.425.052-.689.052-.264 0-.582-.063-.604-.147-.022-.084-.044-.176.044-.176s.187.102.395.123c.21.021.712.01.767-.02.054-.033.098-.082.098-.221l.067-1.994zm-.676.578h.225c.011.513.006 1.22.036 1.27.044.074.12-1.07.12-1.143l.03-.694c0-.085-.183-.23-.183-.23s-.352-.094-.55-.073c-.197.021-.197.113-.263.218-.066.106.022.652.022.737l.044.116s.044-.095.044-.159l.324-.042.016.337s.077-.023.11-.073c.011-.019.02-.13.025-.264zm-1.076 4.313s0 .095.11.158c.106.063.106 0 .128-.053.022-.052-.052-.22-.052-.22l.044-.86c0-.116-.044-.432-.044-.506 0-.073.044-.147.03-.197-.01-.055-.15-.044-.172.03-.022.073-.044 1.648-.044 1.648zm.502-1.67c0 .042.285.077.516.077.231 0 .615.05.7.007.088-.042.143-.136.088-.155-.054-.02-.274-.02-.392-.02l-.824.02c-.088 0-.088.071-.088.071z"/><path fill="#DCC763" d="M37.055 29.054c.005-.475-.268-.864-.614-.874-.341-.007-.626.371-.63.847-.005.445.235.818.55.866a1.63 1.63 0 0 0 .186-.627c.028-.391-.012-.846-.012-.846.134.066.207.6.165.821-.03.159-.137.48-.193.652.303-.05.543-.405.548-.84m.823-1.203c-.164.312-.409.532-.635.602.099-.113.245-.315.35-.607.177-.481.137-.69.137-.69s-.096.014-.082.091c.014.08-.177.626-.242.755-.052.1-.245.342-.335.453a.69.69 0 0 0-.352-.36c-.03-.208.021-.475.157-.732.245-.462.668-.727.944-.591.277.136.303.618.058 1.079m-1.82.31l-.085.066a8.116 8.116 0 0 0-.13-.614c-.054-.17-.366-.535-.38-.484-.015.052.11.183.23.496.092.233.122.618.132.799l-.03.067c-.335.111-.744-.233-.93-.758-.19-.527-.087-1.038.226-1.142.313-.104.722.24.91.765.106.296.12.588.056.805m1.16 1.08s.082-.254.236-.397c.15-.143.367-.369.352-.251-.011.116-.174.348-.28.455a1.22 1.22 0 0 1-.308.192m-.014-.52s.393-.145.543-.315c.149-.167.285-.534.243-.547-.04-.012-.202.34-.285.432-.08.09-.5.43-.5.43m-11.174 3.08v2.522s5.065-.97 10.767-.891c5.701.077 11.98.765 11.98.765s.022-1.02.022-1.274c0-.257.17-1.232.17-1.232s-10.53-.715-12.028-.688c-1.495.024-10.91.798-10.91.798"/><path fill="#7E5838" d="M48.686 33.86c.199 0 .373.127.472.315a.51.51 0 0 1 .353-.155c.303 0 .55.297.55.663 0 .362-.247.658-.55.658-.2 0-.373-.127-.472-.314a.498.498 0 0 1-.353.15c-.207 0-.39-.138-.483-.344a.516.516 0 0 1-.416.227c-.227 0-.424-.163-.508-.399-.096.194-.272.327-.477.327-.23 0-.427-.17-.51-.409a.526.526 0 0 1-.45.276c-.214 0-.398-.146-.49-.36a.537.537 0 0 1-.456.287c-.192 0-.361-.118-.46-.3a.515.515 0 0 1-.424.24.536.536 0 0 1-.462-.296.52.52 0 0 1-.424.238c-.2 0-.373-.127-.47-.317a.524.524 0 0 1-.426.245c-.21 0-.39-.14-.485-.342a.53.53 0 0 1-.452.281c-.24 0-.444-.184-.52-.44-.07.265-.278.455-.525.455-.303 0-.55-.296-.55-.658 0-.366.247-.662.55-.662.242 0 .447.188.522.445.071-.267.278-.457.523-.457.21 0 .389.136.485.339a.532.532 0 0 1 .452-.282c.197 0 .373.127.47.318a.523.523 0 0 1 .426-.245c.192 0 .364.12.462.299a.52.52 0 0 1 .424-.239c.192 0 .361.118.46.297a.521.521 0 0 1 .424-.236c.214 0 .401.145.492.36a.532.532 0 0 1 .455-.288c.232 0 .429.17.51.408a.533.533 0 0 1 .45-.274c.226 0 .423.163.507.398.095-.193.272-.326.477-.326.21 0 .391.139.485.344.1-.139.25-.227.414-.227zm-9.57-.634c.306 0 .553.296.553.662 0 .362-.247.658-.553.658-.26 0-.477-.217-.535-.507-.058.29-.275.507-.535.507-.305 0-.553-.296-.553-.658 0-.366.248-.662.553-.662.26 0 .477.218.535.508.058-.29.276-.508.535-.508zm-2.191 0c.306 0 .553.296.553.662 0 .362-.247.658-.553.658-.262 0-.485-.223-.538-.52-.043.312-.27.55-.543.55-.224 0-.419-.16-.504-.392-.091.215-.276.362-.493.362-.212 0-.396-.145-.487-.353-.091.218-.278.368-.495.368a.522.522 0 0 1-.442-.265c-.093.202-.275.338-.48.338a.525.525 0 0 1-.441-.263c-.096.203-.276.338-.483.338a.527.527 0 0 1-.444-.271c-.09.214-.275.36-.49.36-.194 0-.366-.125-.464-.309-.086.232-.28.396-.505.396a.51.51 0 0 1-.407-.214c-.09.214-.278.362-.492.362a.525.525 0 0 1-.42-.23c-.085.23-.277.39-.501.39a.509.509 0 0 1-.382-.181.543.543 0 0 1-.47.314.515.515 0 0 1-.396-.2c-.098.182-.27.303-.464.303-.306 0-.553-.297-.553-.659 0-.366.247-.659.553-.659.154 0 .295.076.396.2a.534.534 0 0 1 .464-.302c.147 0 .28.07.382.18a.533.533 0 0 1 .47-.313.51.51 0 0 1 .416.23c.086-.23.28-.393.505-.393a.51.51 0 0 1 .406.214c.092-.214.276-.363.493-.363.194 0 .366.124.465.309.085-.233.28-.396.504-.396.184 0 .344.106.444.269.091-.212.278-.357.49-.357.182 0 .341.103.442.263.094-.2.276-.335.482-.335.18 0 .339.103.44.263.096-.203.275-.339.482-.339.212 0 .397.145.487.357.091-.22.278-.372.495-.372.225 0 .42.163.505.393.091-.215.278-.363.492-.363.266 0 .485.224.538.52.046-.311.27-.55.543-.55zm-.55.662l.012.139.008-.112-.013-.139-.007.112z"/><path fill="#DCC763" d="M26.03 34.04c0-.156.177-.284.397-.284.218 0 .395.128.395.283 0 .156-.177.282-.395.282-.22 0-.396-.126-.396-.282m.873-.062c0-.155.176-.283.396-.283.218 0 .394.128.394.283 0 .156-.176.282-.394.282-.22 0-.396-.126-.396-.282m.862-.08c0-.156.179-.282.397-.282.217 0 .394.126.394.282 0 .157-.177.284-.394.284-.218 0-.397-.127-.397-.284m.934-.097c0-.158.18-.284.397-.284.217 0 .394.126.394.284 0 .155-.177.282-.394.282-.218 0-.397-.127-.397-.282m.911-.09c0-.155.177-.284.394-.284.22 0 .397.129.397.284 0 .156-.177.282-.397.282-.217 0-.394-.126-.394-.282m.985-.053c0-.157.177-.284.395-.284.217 0 .396.127.396.284 0 .155-.179.282-.396.282-.218 0-.395-.127-.395-.282m.948-.055c0-.155.176-.282.393-.282.22 0 .397.127.397.282 0 .158-.176.284-.397.284-.217 0-.393-.126-.393-.284m.933-.044c0-.155.177-.281.397-.281.218 0 .394.126.394.281 0 .156-.176.284-.394.284-.22 0-.397-.128-.397-.284m.935-.044c0-.157.176-.283.396-.283.217 0 .394.126.394.283 0 .156-.177.282-.394.282-.22 0-.396-.126-.396-.282m.998-.009c0-.157.176-.283.394-.283.22 0 .397.126.397.283 0 .156-.177.282-.397.282-.218 0-.394-.126-.394-.282m1.008.018c0-.157.18-.283.397-.283.217 0 .394.126.394.283 0 .156-.177.282-.394.282-.218 0-.397-.126-.397-.282m1.098-.018c0-.157.177-.283.394-.283.22 0 .397.126.397.283 0 .156-.177.282-.397.282-.217 0-.394-.126-.394-.282m1.134 0c0-.157.176-.283.396-.283.218 0 .394.126.394.283 0 .156-.176.282-.394.282-.22 0-.396-.126-.396-.282m1.087 0c0-.157.177-.283.394-.283.22 0 .397.126.397.283 0 .156-.177.282-.397.282-.217 0-.394-.126-.394-.282m1.147 0c0-.157.176-.283.394-.283.22 0 .397.126.397.283 0 .156-.177.282-.397.282-.218 0-.394-.126-.394-.282m1.06-.01c0-.155.176-.28.393-.28.218 0 .397.125.397.28 0 .157-.179.283-.397.283-.217 0-.394-.126-.394-.282m.947.035c0-.156.177-.282.394-.282.22 0 .397.126.397.282 0 .157-.177.283-.397.283-.217 0-.394-.126-.394-.283m.911.046c0-.156.177-.284.394-.284.218 0 .394.128.394.284 0 .155-.176.281-.394.281-.217 0-.394-.126-.394-.281m.896.034c0-.155.177-.282.397-.282.217 0 .394.127.394.282 0 .156-.177.284-.394.284-.22 0-.397-.128-.397-.284m.898.037c0-.156.177-.284.394-.284.22 0 .397.128.397.284 0 .155-.176.282-.397.282-.217 0-.394-.127-.394-.282m.96.044c0-.156.177-.282.394-.282.22 0 .397.126.397.282 0 .156-.177.282-.397.282-.217 0-.394-.126-.394-.282m.973.08c0-.155.176-.281.394-.281.217 0 .396.126.396.281 0 .156-.179.282-.396.282-.218 0-.394-.126-.394-.282m.995.044c0-.155.177-.282.397-.282.217 0 .394.127.394.282 0 .156-.177.284-.394.284-.22 0-.397-.128-.397-.284m.913.072c0-.156.177-.282.395-.282.22 0 .396.126.396.282 0 .155-.176.283-.396.283-.218 0-.395-.128-.395-.283m.835.098c0-.155.176-.283.396-.283.218 0 .395.128.395.283 0 .156-.177.282-.395.282-.22 0-.396-.126-.396-.282"/><path fill="#7E5838" d="M26.581 31.436c.154 0 .293.038.394.101.099-.094.27-.157.467-.157.16 0 .3.04.402.107.096-.099.272-.165.474-.165a.76.76 0 0 1 .41.11c.093-.106.277-.178.487-.178.161 0 .305.043.406.11.091-.11.278-.184.493-.184.194 0 .369.062.464.156.086-.119.28-.202.505-.202.185 0 .346.055.445.139.093-.11.277-.184.492-.184.18 0 .341.054.44.136.095-.103.275-.172.482-.172.179 0 .34.052.44.133.095-.101.274-.17.481-.17.212 0 .397.072.488.18.09-.111.28-.188.497-.188.225 0 .417.081.503.198.09-.11.277-.184.492-.184.265 0 .485.114.538.264.045-.158.272-.278.545-.278.303 0 .55.15.55.335 0 .187-.247.336-.55.336-.265 0-.485-.112-.54-.263-.043.158-.27.278-.543.278-.225 0-.42-.081-.502-.2-.094.111-.278.185-.493.185-.212 0-.396-.072-.49-.18-.09.112-.277.188-.495.188a.72.72 0 0 1-.442-.134c-.093.103-.272.172-.48.172a.713.713 0 0 1-.441-.135c-.094.103-.273.172-.48.172a.703.703 0 0 1-.444-.137c-.094.108-.278.182-.493.182-.194 0-.368-.063-.464-.157-.086.118-.28.201-.505.201a.752.752 0 0 1-.407-.107c-.09.107-.278.183-.492.183a.749.749 0 0 1-.41-.11c-.093.105-.275.176-.487.176a.733.733 0 0 1-.4-.106c-.1.099-.274.165-.476.165a.757.757 0 0 1-.394-.1c-.098.093-.27.155-.467.155-.305 0-.55-.15-.55-.335 0-.185.245-.336.55-.336zm9.813-.077l-.013-.073-.008.057.013.073.008-.057zm1.65-.351c.261 0 .48.11.536.258.058-.149.276-.258.538-.258.303 0 .55.15.55.335 0 .187-.247.336-.55.336-.262 0-.48-.11-.538-.259-.055.15-.275.26-.535.26-.306 0-.55-.15-.55-.337 0-.186.244-.335.55-.335zm2.205 0c.24 0 .444.094.52.225.071-.136.28-.233.526-.233.206 0 .388.07.482.174a.696.696 0 0 1 .452-.145c.2 0 .374.065.47.162a.725.725 0 0 1 .426-.123c.195 0 .364.06.462.15a.732.732 0 0 1 .425-.121c.191 0 .36.06.46.153a.722.722 0 0 1 .423-.122c.215 0 .402.074.493.183a.708.708 0 0 1 .454-.146c.232 0 .43.086.513.21a.691.691 0 0 1 .447-.142c.23 0 .424.083.507.204.096-.1.273-.168.477-.168.21 0 .392.071.485.176.1-.07.25-.116.417-.116.197 0 .373.065.47.16a.805.805 0 0 1 .353-.076c.303 0 .55.15.55.335 0 .187-.247.336-.55.336-.2 0-.373-.063-.472-.16a.765.765 0 0 1-.351.079c-.21 0-.392-.073-.485-.178a.726.726 0 0 1-.417.117c-.227 0-.424-.084-.507-.204-.096.1-.273.166-.477.166-.23 0-.427-.086-.51-.208a.703.703 0 0 1-.45.142c-.212 0-.399-.076-.49-.185-.098.09-.265.146-.457.146s-.36-.06-.46-.15a.734.734 0 0 1-.423.12c-.192 0-.364-.06-.463-.152a.73.73 0 0 1-.424.122c-.2 0-.373-.065-.47-.16a.74.74 0 0 1-.426.123c-.21 0-.389-.07-.482-.174a.709.709 0 0 1-.452.143c-.243 0-.447-.094-.52-.224-.074.135-.281.232-.526.232-.305 0-.553-.15-.553-.336 0-.186.248-.335.553-.335z"/><path fill="#DCC763" d="M26.03 31.82c0-.162.177-.29.397-.29.218 0 .395.128.395.29 0 .158-.177.287-.395.287-.22 0-.396-.129-.396-.288m.873-.069c0-.16.176-.288.396-.288.218 0 .394.129.394.288 0 .16-.176.29-.394.29-.22 0-.396-.13-.396-.29m.887-.07c0-.16.177-.29.394-.29.22 0 .397.13.397.29 0 .16-.176.289-.397.289-.217 0-.394-.13-.394-.288m.909-.083c0-.159.18-.288.397-.288.217 0 .394.13.394.288 0 .16-.177.288-.394.288-.218 0-.397-.129-.397-.288m.911-.091c0-.16.177-.288.394-.288.22 0 .397.129.397.288 0 .16-.177.29-.397.29-.217 0-.394-.13-.394-.29m.985-.055c0-.159.177-.288.395-.288.217 0 .396.13.396.288 0 .16-.179.29-.396.29-.218 0-.395-.13-.395-.29m.948-.054c0-.159.176-.29.393-.29.22 0 .397.131.397.29 0 .16-.176.288-.397.288-.217 0-.393-.129-.393-.288m.933-.045c0-.16.177-.29.397-.29.218 0 .394.13.394.29 0 .16-.176.288-.394.288-.22 0-.397-.129-.397-.288m.935-.046c0-.16.176-.288.396-.288.217 0 .394.129.394.288 0 .16-.177.29-.394.29-.22 0-.396-.13-.396-.29m.998-.01c0-.159.176-.288.394-.288.22 0 .397.13.397.288 0 .161-.177.29-.397.29-.218 0-.394-.129-.394-.29m1.008.019c0-.159.18-.288.397-.288.217 0 .394.129.394.288 0 .16-.177.288-.394.288-.218 0-.397-.129-.397-.288m1.098-.019c0-.159.177-.288.394-.288.22 0 .397.13.397.288 0 .161-.177.29-.397.29-.217 0-.394-.129-.394-.29m1.134 0c0-.159.176-.288.396-.288.218 0 .394.13.394.288 0 .161-.176.29-.394.29-.22 0-.396-.129-.396-.29m1.087 0c0-.159.177-.288.394-.288.22 0 .397.13.397.288 0 .161-.177.29-.397.29-.217 0-.394-.129-.394-.29m1.147 0c0-.159.176-.288.394-.288.22 0 .397.13.397.288 0 .161-.177.29-.397.29-.218 0-.394-.129-.394-.29m1.06-.01c0-.158.176-.287.393-.287.218 0 .397.129.397.288 0 .16-.179.29-.397.29-.217 0-.394-.13-.394-.29m.947.037c0-.159.177-.29.394-.29.22 0 .397.131.397.29 0 .16-.177.288-.397.288-.217 0-.394-.129-.394-.288m.911.045c0-.159.177-.288.394-.288.218 0 .394.13.394.288 0 .16-.176.29-.394.29-.217 0-.394-.13-.394-.29m.896.038c0-.161.177-.289.397-.289.217 0 .394.128.394.289 0 .159-.177.288-.394.288-.22 0-.397-.13-.397-.288m.898.035c0-.159.177-.288.394-.288.22 0 .397.129.397.288 0 .161-.176.29-.397.29-.217 0-.394-.129-.394-.29m.96.045c0-.159.177-.288.394-.288.22 0 .397.129.397.288 0 .161-.177.29-.397.29-.217 0-.394-.129-.394-.29m.973.084c0-.16.176-.29.394-.29.217 0 .396.13.396.29 0 .16-.179.288-.396.288-.218 0-.394-.129-.394-.288m.995.045c0-.16.177-.29.397-.29.217 0 .394.13.394.29 0 .159-.177.288-.394.288-.22 0-.397-.129-.397-.288m.913.073c0-.16.177-.29.395-.29.22 0 .396.13.396.29 0 .159-.176.288-.396.288-.218 0-.395-.13-.395-.288m.835.1c0-.16.176-.289.396-.289.218 0 .395.13.395.288 0 .16-.177.29-.395.29-.22 0-.396-.13-.396-.29"/><path fill="#7E5838" d="M40.23 18.446s-.598-.352-1.052-.498c-.453-.145-.89-.234-.89-.234s-.523.667-.54 1.018c-.019.354-.11.875-.11.875s.252.29.161.539c-.088.25-.07.52-.07.52s.506.248.542.394c.036.145.272.854.127 1.205-.145.354-.49 1.039-.49 1.039s.29.187.272.395c-.018.209-.36 1.622-.36 1.622l.397.102s1.031-2.929 1.25-3.739c.217-.81.764-3.238.764-3.238m-7.646-.065s.635-.334 1.088-.48c.452-.145.869-.145.869-.145s.524.666.542 1.02c.018.352.109.872.109.872s-.254.29-.163.54c.09.25.072.52.072.52s-.505.25-.542.393c-.036.146-.272.854-.127 1.205.146.354.488 1.04.488 1.04s-.288.186-.27.395c.016.208.36 1.622.36 1.622l-.397.101c-.922-2.686-1.598-5.047-2.03-7.083m3.052 13.929l-.013.428s-.033.14.333.146c.364.007 2.24.013 2.24.013s.199-.04.199-.213.02-.456-.033-.496c-.056-.04-.202-.08-.41-.074-.211.008-1.996.008-1.996.008s2.006.049 2.138.076c.135.026.156.22.145.313-.01.094-.033.267-.165.273-.132.006-2.143-.005-2.23-.02-.142-.027-.208-.454-.208-.454m-3.364.07l.026.426s-.02.14.344.136c.367-.006 2.237-.058 2.237-.058s.196-.046.18-.22c-.014-.173-.017-.454-.075-.493-.059-.038-.207-.074-.415-.061-.21.013-1.993.07-1.993.07s2.008-.014 2.143.01c.135.02.175.212.173.307-.005.092-.01.267-.143.278-.132.01-2.14.063-2.227.05-.145-.023-.25-.446-.25-.446m-3.123.112l.033.393s-.015.13.3.12c.316-.009 1.938-.078 1.938-.078s.168-.044.15-.203c-.015-.16-.023-.42-.076-.455-.051-.036-.179-.066-.36-.051-.18.014-1.725.087-1.725.087s1.738-.036 1.858-.017c.117.019.153.197.153.282 0 .086-.003.247-.118.258-.114.012-1.852.083-1.927.072-.127-.018-.226-.408-.226-.408m-3.118.223l.076.39s0 .13.313.108c.316-.022 1.925-.16 1.925-.16s.162-.052.127-.21c-.036-.158-.074-.418-.13-.45-.054-.033-.186-.057-.364-.035-.18.022-1.71.159-1.71.159s1.73-.11 1.85-.095c.117.014.176.19.186.276.01.085.026.245-.087.262-.114.015-1.84.16-1.916.151-.128-.012-.27-.396-.27-.396m12.972-.4l-.023.426s-.038.139.329.15c.364.01 2.237.036 2.237.036s.201-.038.206-.21c.006-.173.036-.456-.02-.496-.054-.041-.196-.083-.407-.078-.209.004-1.996-.014-1.996-.014s2.006.07 2.138.098c.133.028.148.222.135.314-.015.094-.04.267-.173.272-.135.006-2.143-.026-2.23-.043-.14-.028-.196-.455-.196-.455m3.43.076l-.062.392s-.046.128.27.146c.315.017 1.937.084 1.937.084s.176-.03.196-.19c.02-.16.074-.418.03-.456-.043-.039-.162-.08-.346-.08-.18-.002-1.725-.06-1.725-.06s1.73.112 1.84.141c.112.028.11.207.09.291-.021.086-.062.244-.176.245a60.63 60.63 0 0 1-1.927-.088c-.12-.031-.128-.425-.128-.425m3.058.133l-.072.391s-.048.127.265.149c.315.021 1.935.104 1.935.104s.175-.027.2-.187c.026-.16.087-.417.044-.457-.04-.038-.16-.08-.341-.084-.183-.001-1.726-.076-1.726-.076s1.726.128 1.838.159c.11.03.102.208.079.293-.026.085-.069.243-.184.243a54.781 54.781 0 0 1-1.924-.11c-.12-.03-.114-.425-.114-.425"/><path fill="#DCC763" d="M25.759 27.051s-1.485-1.15-1.608-1.534c-.123-.382-.433-1.257-.246-1.151.184.106.618.49.905.98.29.491 1.156 1.642 1.156 1.642s-.249-1.13-.228-1.493c.02-.36.102-.872.249-.83.143.042.43.766.412 1.024-.023.254-.146 1.084.018 1.384.167.3.895.96.895.96s-.328-.66-.328-.918c0-.254 0-.49.185-.342.184.15.536.747.617.98.082.237.433.854.68 1.003.248.148.764.318.764.318s-.618-.36-.7-.682c-.082-.317-.207-.68-.041-.744.164-.064.495.257.597.49.103.233.308.724.557.896.246.17.638.424.72.403.082-.021-.103-.17-.226-.34-.123-.172-.208-.596-.02-.575.185.022.413.533.576.66.165.128 1.113.64 1.113.64s-.392-.449-.453-.682c-.062-.236-.123-.363.082-.363.207 0 .682.766.784.811.103.04.144-.342.144-.533 0-.193.164-.066.433.128.267.19.454.233.515.424.062.193.577.554.577.554s-.29-.467-.29-.618c0-.148-.04-.403.126-.297.164.107.452.319.492.406.044.084.393.382.393.382s-.288-.406-.226-.406c.062 0 .413.108.495.257.082.149.474.427.474.427l-.392.191-.536.063-.743.064c-.185.021.681-.318.681-.318s-.638.085-.805.127c-.164.043-.453.255-.556.255-.103 0-.618.15-.74.108-.126-.042-.103-.448.184-.511.29-.064.866-.257.866-.257s-.825-.022-1.176.193c-.35.212-.577.446-.782.467-.205.021-.887.15-.97.214-.081.064-.392.17-.266 0 .123-.17.823-.662 1.051-.702.226-.045.474-.194.474-.194s-.474-.02-.764.128c-.287.15-.864.639-1.174.684-.31.042-.474-.194-.33-.427.143-.236 1.092-.554 1.092-.554s-.66-.191-1.154-.064c-.495.127-.99.533-1.42.64-.434.105-.826-.15-.703-.385.123-.234.31-.64.618-.767.31-.127.577-.212.577-.212s-.39-.13-.7.064c-.308.191-.605.554-1.039.509-.433-.04-.805-.148-.968-.424-.165-.279.225-.47.597-.49.371-.022 1.348-.043 1.348-.043s-.074-.194-.7-.3c-.628-.106-1.307-.148-1.533-.296-.228-.15-.764-.555-.785-.748-.02-.191-.143-.382.083-.34.228.043 1.072.064 1.072.064zm17.018 2.728s.41-.085.533-.17c.123-.085.08-.318-.062-.169-.143.148-.471.34-.471.34zm-1.146.17s.513-.234.612-.34a2.91 2.91 0 0 0 .267-.381s-.143.063-.308.254c-.161.191-.571.467-.571.467zm2.435-.36s.86.084 1.126.084c.266 0 1.228.528 1.228.528s-.575-.4-.941-.57c-.37-.17-1.002-.149-1.002-.149s.428-.382.51-.594c.082-.209.103-.803.103-.803s-.124.509-.267.803c-.141.297-.757.7-.757.7zm1.434-.595l.838.064s.184.148.613.233c.43.085 1.187.021 1.187.021l-.634-.084c-.328-.043-.674-.107-.92-.234-.246-.124-1.084 0-1.084 0zm.307-.358s.695-.445.715-.657c.02-.212-.123-.612-.123-.485 0 .124-.04.443-.123.591-.082.149-.469.551-.469.551zm.962-.53s.838-.17 1.104-.275c.265-.104 1.085-.337 1.085-.337s-.8.106-1.064.17c-.267.063-1.125.442-1.125.442zm1.554-1.206s.9-1.036 1.023-1.227c.122-.191.43-.888.43-.888s-.41.551-.534.782c-.12.233-.92 1.333-.92 1.333zm-.45-1.819s-.061 1.058-.122 1.355c-.062.295-.35 1.204-.35 1.204s.472-.952.514-1.225c.04-.276-.042-1.334-.042-1.334zm-9.69 5.189l.658-.427c.27-.17.703-.255.703-.255l-.249.424s.557-.511.744-.639c.184-.127.349-.127.349-.127l-.124.639s.352-.47.536-.554c.187-.085.659-.19.659-.19l-.349.744s.516-.532.742-.64c.225-.105.886-.299.907-.17.02.129-.29.598-.413.683-.123.085-.287.17-.287.17s.536-.234.803-.555c.269-.318.474-.363.617-.318.144.043-.082.488-.082.488s.331 0 .66-.255c.33-.254.66-.81.743-1.065.082-.255.307-.639.474-.575.164.063.267.405.184.617-.081.212-.35.724-.35.724s.722-.488.825-.724c.102-.233.267-.938.454-1.13.184-.19.433-.338.474-.147.04.19-.106.96-.106.96s.598-.428.642-.79c.04-.361.02-1.575.143-1.896.123-.321.236-.703.42-.64.186.064.352.767.309 1.067-.041.296-.39 1.49-.39 1.49s.99-1.257 1.153-1.62c.164-.361.639-1.469.95-1.13.307.342-.352 1.535-.58 1.81-.226.28-1.36 1.154-1.36 1.154s1.154-.32 1.196-.172c.04.151-.652.938-1.36 1.002-.71.064-1.617.32-1.617.32s.692.213 1.177.319c.482.106.83.3.83.426 0 .128-.85.597-1.469.364-.62-.236-1.712-.364-1.712-.364s1.071.255 1.235.406c.167.149.58.446.27.618-.308.17-1.444-.257-1.875-.342-.433-.085-1.279-.106-1.279-.106s.557.233.764.406c.206.169.206.596-.02.554-.229-.045-1.485-.663-1.672-.684-.184-.022.515.278.62.363.103.085-.061.32-.535.236-.475-.088-1.526-.727-1.526-.727s.926.64.762.64c-.164 0-.908 0-.99-.086-.082-.084-.762-.448-.762-.448s.618.448.475.448h-.682l-.72-.32.474.342s-.495-.022-.659.042c-.167.064-.29.172-.29.172l-.495-.532z"/><path fill="#DCC763" d="M46.331 13.286l1.855.784.067.424-1.693-.783-.229-.425zm-.427.88l-.033 1.243.953.654-.92-1.896zm-.164 2.355l-.065.621.328 1.013 1.64.686-.556-1.666-1.347-.654zm-.36 2.45l-.329 1.08.888.522-.56-1.601zm-.525 1.93l1.213.521.132.916-.853.409-.688-.31-.075-.51.271-1.027zm-.657 1.781l-.198.523.659.294.293-.39-.754-.427zm-.362.948l-.164.49.526.228.197-.458-.56-.26zm-.328.718l.559.263-.296.326-.263-.589zm2.724-5.245l1.772.849.413 1.96L46.692 21l-.46-1.896zm1.772-1.503c.035.131.577 1.733.577 1.733l1.705 1.176-.492-1.896-1.79-1.013zm-.852-2.876l1.92.948.59 1.83-1.886-1.045-.624-1.733zm2.15-.164l.395.622 1.41.785-.59-.82-1.215-.587zm1.019 1.993l1.509 1.144.296 1.47-1.544-1.077-.261-1.537zm2.329 1.765l.263 1.57s.425.685.425.554-.064-1.272-.096-1.404c-.035-.13-.592-.72-.592-.72zm-.72-1.797l.26.621s.525.295.363.097l-.624-.718zm-1.02 2.94c.1.164.363 1.67.363 1.67l1.28 1.52-.264-2.11-1.38-1.08zm-1.872 1.343l.2 1.73 1.411 1.096-.167-1.847-1.444-.98zm2.399 1.878c.032.132.162 1.57.162 1.57l.494.817.425-1.112-1.081-1.275zm1.476-1.552l.361.555-.264 1.062-.097-1.617zm-3.447 2.86l1.248.915.132 1.666-.328-.195c.188-.676-.063-1.53-.672-.874l-.348-.174-.032-1.338zm-.885-.459l.13 1.243-1.035-.589c.423-.423.723-.641.905-.654zm-20.444-9.086l-.795 1.707-1.964.869.78-1.964 1.98-.612zm-4.79 2.383l1.726-1.03-.677 1.964L22.6 19.02l.747-2.191zm-1.314 1.179s-.262.836-.305 1.06c-.026.232-.066.645-.066.645l.507-.418.541-1.739-.677.452zm1.962-2.44l-.066.29s1.623-.742 1.692-.87c.067-.128.27-.58.27-.58l-1.896 1.16zm2.6-1.508l-.066.322 2.083-.839.238-.256-2.254.773zm2.627.161l.034 1.159-.78.354.746-1.513zm-1.254 2.384l-.728 1.931 1.846-.804.272-1.289-.07-.258-1.32.42zm-2.929 1.641l-.746 1.932.103.193s1.692-.9 1.692-.998c0-.097.644-2.03.644-2.03l-1.693.903zm-2.439 1.9l1.354-1-.372 1.806-1.354 1.53.372-2.336zm-.236 3.591l.744 1.31.205-.246.034-2.19-.983 1.126zm1.862-2.078l-.17 2.047 1.593-1.337.34-1.966-1.763 1.256zm2.709-1.995l1.746-.966-.61 1.964-1.508.868.372-1.866zm2.762-1.386l.235 1.03s-.879.58-.846.485l.61-1.515zm-.747 2.415l1.219-.61.374 1.415-1.354.871-.508-.227.27-1.449zm-2.082 1.515c.103 0 .695.095.695.095l.339-.837-1.034.742zm-1.457 1.466l-.033 1.834c-.21-.236-.495-.407-.847-.514-.156-.017-.236.046-.238.193 0 0 0 .387.033.612l.103.58-.406.193v-1.77l1.388-1.128zm.813-.517l.067 1.676 1.051-1.096-.915-.739-.203.16zm3.742-.48l.305.577.813-.353-.271-.693-.847.468zm.713 1.06l.439.484.374-.29-.238-.645-.575.451z"/><path fill="#7E5838" d="M52.683 70.397c.476.62.228 1.199-.13 1.739a14.011 14.011 0 0 1-2.68 2.745c-.528.37-1.094.622-1.698.135l-.31-.866c-3.125-3.748-6.292-7.43-9.58-11.026l-9.758 10.469-.306.853c-.601.485-1.162.24-1.69-.129-.622-.45-1.658-1.555-2.068-2.117-.36-.542-.604-1.119-.129-1.738l.83-.314 10.193-10.15c-2.86-2.98-5.787-5.846-8.888-8.564l-3.476 3.619c-.692.709-1.459.644-2.029.06l-3.273-3.356a1.41 1.41 0 0 1 0-1.965l10.377-10.635a1.335 1.335 0 0 1 1.92 0l3.273 3.355a1.415 1.415 0 0 1 0 1.965l-3.589 3.676c2.596 3.112 5.515 6.283 8.368 9.173l10.213-10.17c.373-.607.497-1.534.214-1.913l-3.271-3.303-.146-1.199 1.607-1.689 1.098.115c5.855 4.788 10.507 10.623 12.137 18.346l-.825.333c-.74-1.27-4.248-7.29-6.405-8.511-.466-.264-1.109-.135-1.914.42l-9.752 10.46c3.452 3.302 7.274 6.742 10.84 9.863l.847.319z"/><path fill="#DCC763" d="M17.559 51.986a.891.891 0 0 1 0-1.271l10.78-10.594a.923.923 0 0 1 1.292 0l3.399 3.34a.887.887 0 0 1 0 1.27l-4.05 3.982c2.772 3.208 5.758 6.298 8.988 9.412l-2.12 2.059c-3.188-3.199-6.26-6.097-9.546-8.838l-4.049 3.98a.927.927 0 0 1-1.295 0l-3.4-3.34zm23.638 9.201c3.542 3.27 7.3 6.526 11.222 9.816l.83.3c.173.218.095.562-.235 1.04a13.774 13.774 0 0 1-2.671 2.624c-.483.324-.836.401-1.058.23l-.305-.815c-3.374-3.885-6.612-7.472-9.966-10.975l2.183-2.22z"/><path fill="#DCC763" d="M45.015 43.091l-.097-.79 1.29-1.337.732.074c6.517 5.26 10.468 11.136 11.86 17.633-2.633-4.447-4.98-7.595-6.519-8.455-.727-.406-1.603-.128-2.462.466L27.435 74.388l-.297.81c-.212.17-.552.093-1.022-.229-.574-.411-1.57-1.452-1.957-1.98-.318-.472-.394-.817-.226-1.033l.8-.299L48 48.788c.428-.647.722-1.89.197-2.526l-3.18-3.17z"/><path fill="#7E5838" d="M17.04 67.536s-3.267 4.609-1.305 9.455c1.99 4.924 6.335 7.152 6.335 7.152s1.431-5.487.153-9.739c-1.347-4.469-5.183-6.868-5.183-6.868"/><path fill="#518551" d="M17.042 67.536s4.717 3.576 5.476 7.12c.575 2.69-.062 6.476-.22 8.13-2.19-4.422-3.624-8.973-5.046-13.59.846 4.6 2.499 9.166 4.67 13.84-1.255-.844-3.879-2.732-5.814-6.08-2.706-4.68.934-9.42.934-9.42"/><path fill="#7E5838" d="M21.81 76.393s-.876 4.035 1.627 6.807c2.539 2.82 5.87 3.157 5.87 3.157s-.514-4.134-2.43-6.687c-2.013-2.684-5.067-3.277-5.067-3.277"/><path fill="#518551" d="M21.789 76.393s3.905 1.37 5.368 3.744c1.108 1.8 1.783 4.704 2.15 5.944-2.588-2.637-4.748-5.562-6.92-8.542 1.814 3.114 4.114 5.996 6.76 8.818a13.079 13.079 0 0 1-5.28-2.902c-2.977-2.69-2.078-7.062-2.078-7.062"/><path fill="#7E5838" d="M15.108 91.033s3.11-4.547 6.866-4.67c4.523-.15 8.426 2.706 8.426 2.706s-3.577 3.246-7.3 3.839c-3.726.593-7.992-1.875-7.992-1.875"/><path fill="#518551" d="M15.108 91.402s4.36 2.147 7.488 1.464c2.37-.515 5.408-2.322 6.712-3.007-4.28-.047-8.576.545-12.78 1.122 4.014-.983 8.262-1.502 12.739-1.56-1.07-.607-3.425-1.709-6.752-1.939-4.647-.325-7.407 3.92-7.407 3.92"/><path fill="#7E5838" d="M18.574 27.679s1.707 3.74.427 6.33c-1.538 3.12-4.724 4.741-4.724 4.741s-.729-3.59.246-6.329c.975-2.738 4.05-4.742 4.05-4.742"/><path fill="#518551" d="M18.627 27.679s-3.336 2.068-4.102 4.356c-.58 1.737-.485 4.376-.51 5.475 1.764-2.778 3.068-5.795 4.346-8.75-.905 2.976-2.24 5.938-4.01 8.883.878-.48 2.64-1.615 4.154-3.704 2.113-2.916.122-6.26.122-6.26"/><path fill="#7E5838" d="M26.03 37.02s-3.22-2.531-6.737-1.209c-3.574 1.342-5.278 4.49-5.278 4.49s3.892 1.203 6.969.368c3.234-.877 5.047-3.65 5.047-3.65"/><path fill="#518551" d="M26.03 37.815s-2.596 2.699-5.089 3.063c-1.888.276-4.517-.187-5.669-.32 3.135-1.19 6.341-1.927 9.596-2.659-3.23.392-6.454 1.26-9.76 2.432a12.205 12.205 0 0 1 4.366-3.289c3.324-1.487 6.557.773 6.557.773"/><path fill="#7E5838" d="M26.03 28.957s-3.985-.794-6.54 1.037c-4.13 2.96-5.475 8.756-5.475 8.756s3.989-.338 7.572-2.757c2.83-1.912 4.444-7.036 4.444-7.036"/><path fill="#518551" d="M27.123 29.996s-1.79 4.55-4.656 6.184c-2.176 1.237-5.507 2.185-6.988 2.57a89.147 89.147 0 0 1 10.262-8.095c-3.758 2.017-7.184 4.784-10.633 7.795.381-1.175 1.287-3.492 3.656-5.93 3.307-3.408 8.36-2.524 8.36-2.524"/><path fill="#7E5838" d="M9.206 35.429s4.044 3.635 3.696 7.401c-.422 4.535-3.696 8.099-3.696 8.099s-2.722-3.953-2.834-7.74c-.11-3.79 2.834-7.76 2.834-7.76"/><path fill="#518551" d="M8.735 35.429s-2.636 3.778-2.343 6.74c.223 2.246 1.637 5.252 2.153 6.533.558-3.942.493-7.972.434-11.917.483 3.815.483 7.792 0 11.93.726-.92 2.094-2.968 2.722-6.008.877-4.25-2.966-7.278-2.966-7.278"/><path fill="#7E5838" d="M19.477 41.016s-4.366-.644-7.06 2.608c-2.74 3.301-2.77 7.305-2.77 7.305s4.332-1.02 6.852-3.552c2.647-2.662 2.978-6.36 2.978-6.36"/><path fill="#518551" d="M19.477 41.003s-1.08 4.785-3.445 6.765c-1.798 1.502-4.803 2.599-6.08 3.16 2.539-3.347 5.428-6.213 8.367-9.098-3.117 2.473-5.944 5.5-8.673 8.935.205-1.228.731-3.848 2.56-6.577 2.56-3.816 7.27-3.185 7.27-3.185"/><path fill="#7E5838" d="M13.84 36.536s-3.654 1.2-5.036 3.823c-2.242 4.247-.999 9.462-.999 9.462s3.191-2.1 5.197-5.663c1.583-2.813.839-7.622.839-7.622"/><path fill="#518551" d="M14.996 36.536s.615 4.939-1.043 7.739c-1.257 2.122-3.627 4.515-4.697 5.546a90.188 90.188 0 0 1 4.879-12.053c-2.228 3.559-3.825 7.64-5.331 11.955-.226-1.24-.545-3.75.314-7.045 1.2-4.609 5.878-6.142 5.878-6.142"/><path fill="#7E5838" d="M3.817 47.607s4.734 2.182 5.549 5.783c.976 4.333-.91 8.61-.91 8.61s-3.633-2.866-4.87-6.352c-1.232-3.484.231-8.04.231-8.04"/><path fill="#518551" d="M3.616 47.607s-1.17 4.57-.012 7.433c.876 2.17 3.03 4.736 3.875 5.853-.705-4.099-1.984-8.094-3.234-12.008 1.581 3.655 2.788 7.618 3.618 11.887.362-1.134.943-3.593.571-6.815-.516-4.503-4.818-6.35-4.818-6.35"/><path fill="#7E5838" d="M15.02 48.714s-4.521.62-6.388 4.818C6.734 57.802 7.715 62 7.715 62s4.067-2.354 5.94-5.749c1.972-3.57 1.364-7.537 1.364-7.537"/><path fill="#518551" d="M14.014 48.714s.095 4.891-1.553 7.453c-1.248 1.94-3.646 3.832-4.643 4.726 1.502-3.92 3.41-7.476 5.363-11.065-2.199 3.24-4.018 6.934-5.667 10.993-.086-1.237-.194-3.897.82-7.027 1.413-4.375 5.68-5.08 5.68-5.08"/><path fill="#7E5838" d="M8.895 46.5s-3.07 2.568-3.508 5.698C4.68 57.27 7.607 62 7.607 62s2.331-3.288 3.044-7.59c.562-3.396-1.756-7.91-1.756-7.91"/><path fill="#518551" d="M8.953 47.607s2.326 4.373 1.668 7.546c-.497 2.406-1.994 5.452-2.689 6.782a85.324 85.324 0 0 1 .603-12.886C7.582 53.127 7.432 57.47 7.453 62c-.654-1.07-1.841-3.294-2.145-6.65-.423-4.694 3.645-7.743 3.645-7.743"/><path fill="#7E5838" d="M2 62s5.402.339 7.522 3.516c2.551 3.825 2.302 8.663 2.302 8.663S7.236 72.766 4.75 69.86C2.263 66.952 2 62 2 62"/><path fill="#518551" d="M2 62s.46 4.775 2.585 7.036c1.615 1.713 4.608 3.307 5.821 4.035-2.12-3.604-4.763-6.887-7.351-10.106 2.82 2.845 5.38 6.125 7.683 9.845-.047-1.218-.342-3.767-1.83-6.67C6.828 62.08 2 62 2 62"/><path fill="#7E5838" d="M13.568 57.571s-3.756 2.615-3.914 7.317c-.162 4.775 2.185 8.183 2.185 8.183s2.744-4 3.195-7.966c.47-4.169-1.466-7.534-1.466-7.534"/><path fill="#518551" d="M13.64 57.571s2.036 4.141 1.312 7.073c-.549 2.224-2.33 4.922-3.028 6.136.03-4.029.636-7.931 1.276-11.88-1.036 3.765-1.494 7.744-1.626 11.957-.58-1.018-1.747-3.245-1.918-6.378-.24-4.38 3.984-6.908 3.984-6.908"/><path fill="#7E5838" d="M7.152 58.679s-2.367 3.598-1.782 6.794c.952 5.176 5.604 8.706 5.604 8.706s1.35-4.033.661-8.465c-.542-3.498-4.483-7.035-4.483-7.035"/><path fill="#518551" d="M7.828 58.679s3.458 3.208 3.88 6.233c.316 2.295-.054 5.458-.252 6.85A80.996 80.996 0 0 1 7.915 60.09c.439 3.92 1.68 7.84 3.135 11.874-.924-.761-2.686-2.39-4.019-5.295-1.863-4.058.797-7.99.797-7.99"/><path fill="#7E5838" d="M5.277 78.692s4.562-3.366 8.192-1.952c4.373 1.702 7.1 6.218 7.1 6.218s-4.555 1.848-8.317.928c-3.765-.922-6.975-5.194-6.975-5.194"/><path fill="#518551" d="M5.277 78.311s3.621 4.049 7.093 4.595c2.635.413 6.463-.273 8.068-.474-4.368-1.783-9.002-2.899-13.54-3.993 4.504.586 9.06 1.759 13.671 3.515-.858-1.08-2.836-3.204-6.15-4.802-4.636-2.229-9.142 1.16-9.142 1.16"/><path fill="#7E5838" d="M9.667 68.643s-.363 4.877 1.917 7.728c3.69 4.615 10.078 5.558 10.078 5.558s-.855-4.75-3.893-8.77c-2.398-3.172-8.102-4.516-8.102-4.516"/><path fill="#518551" d="M9.659 69.75s5.72 1.552 8.044 4.771c1.761 2.442 3.313 6.306 3.959 8.032A107.101 107.101 0 0 1 10.624 71.32c2.897 4.238 6.662 7.977 10.723 11.715-1.469-.305-4.379-1.085-7.617-3.603-4.52-3.515-4.07-9.682-4.07-9.682"/><path fill="#7E5838" d="M14.015 80.4s2 4.567 5.48 6.012c5.627 2.34 11.997.046 11.997.046s-3.066-3.853-7.807-5.978c-3.743-1.675-9.67-.08-9.67-.08"/><path fill="#518551" d="M15.108 80.282s5.742-1.476 9.25.332c2.662 1.365 5.784 4.16 7.134 5.43a98.676 98.676 0 0 1-14.822-4.8c4.475 2.458 9.49 4.009 14.765 5.408-1.433.468-4.35 1.222-8.344.538-5.581-.96-7.983-6.908-7.983-6.908"/><path fill="#7E5838" d="M57.963 67.536s3.263 4.609 1.302 9.455c-1.99 4.924-6.336 7.152-6.336 7.152s-1.431-5.487-.15-9.739c1.344-4.469 5.184-6.868 5.184-6.868"/><path fill="#518551" d="M59.048 67.536s-4.717 3.576-5.473 7.12c-.575 2.69.059 6.476.22 8.13 2.19-4.422 3.621-8.973 5.043-13.59-.844 4.6-2.499 9.166-4.667 13.84 1.252-.844 3.876-2.732 5.814-6.08 2.706-4.68-.937-9.42-.937-9.42"/><path fill="#7E5838" d="M52.098 76.393s.874 4.035-1.626 6.807c-2.541 2.82-5.872 3.157-5.872 3.157s.517-4.134 2.43-6.687c2.013-2.684 5.068-3.277 5.068-3.277"/><path fill="#518551" d="M53.211 76.393s-3.902 1.37-5.365 3.744c-1.11 1.8-1.786 4.704-2.154 5.944 2.591-2.637 4.752-5.562 6.923-8.542-1.814 3.114-4.113 5.996-6.761 8.818a13.085 13.085 0 0 0 5.28-2.902c2.976-2.69 2.077-7.062 2.077-7.062"/><path fill="#7E5838" d="M59.892 91.033s-3.107-4.547-6.865-4.67c-4.523-.15-8.427 2.706-8.427 2.706s3.575 3.246 7.3 3.839c3.725.593 7.992-1.875 7.992-1.875"/><path fill="#518551" d="M59.892 91.402s-4.361 2.147-7.486 1.464c-2.373-.515-5.41-2.322-6.714-3.007 4.281-.047 8.575.545 12.78 1.122-4.016-.983-8.26-1.502-12.738-1.56 1.072-.607 3.427-1.709 6.75-1.939 4.646-.325 7.408 3.92 7.408 3.92"/><path fill="#7E5838" d="M56.424 27.679s-1.704 3.74-.425 6.33c1.537 3.12 4.723 4.741 4.723 4.741s.73-3.59-.243-6.329c-.975-2.738-4.055-4.742-4.055-4.742"/><path fill="#518551" d="M57.467 27.679s3.336 2.068 4.1 4.356c.58 1.737.486 4.376.51 5.475-1.762-2.778-3.068-5.795-4.347-8.75.905 2.976 2.241 5.938 4.011 8.883-.878-.48-2.637-1.615-4.152-3.704-2.117-2.916-.122-6.26-.122-6.26"/><path fill="#7E5838" d="M48.97 37.02s3.218-2.531 6.738-1.209c3.573 1.342 5.277 4.49 5.277 4.49s-3.893 1.203-6.97.368c-3.233-.877-5.046-3.65-5.046-3.65"/><path fill="#518551" d="M48.97 37.815s2.598 2.699 5.089 3.063c1.888.276 4.517-.187 5.669-.32-3.132-1.19-6.341-1.927-9.597-2.659 3.232.392 6.454 1.26 9.761 2.432a12.18 12.18 0 0 0-4.366-3.289c-3.325-1.487-6.557.773-6.557.773"/><path fill="#7E5838" d="M48.97 28.957s3.988-.794 6.54 1.037c4.13 2.96 5.475 8.756 5.475 8.756s-3.987-.338-7.572-2.757c-2.828-1.912-4.444-7.036-4.444-7.036"/><path fill="#518551" d="M48.97 29.996s1.792 4.55 4.658 6.184c2.176 1.237 5.507 2.185 6.988 2.57a89.25 89.25 0 0 0-10.265-8.095c3.759 2.017 7.184 4.784 10.634 7.795-.382-1.175-1.288-3.492-3.654-5.93-3.307-3.408-8.362-2.524-8.362-2.524"/><path fill="#7E5838" d="M66.889 35.429s-4.047 3.635-3.699 7.401c.422 4.535 3.699 8.099 3.699 8.099s2.72-3.953 2.831-7.74c.111-3.79-2.831-7.76-2.831-7.76"/><path fill="#518551" d="M66.267 35.429s2.634 3.778 2.341 6.74c-.223 2.246-1.635 5.252-2.154 6.533-.558-3.942-.494-7.972-.434-11.917-.482 3.815-.482 7.792 0 11.93-.726-.92-2.092-2.968-2.72-6.008-.88-4.25 2.967-7.278 2.967-7.278"/><path fill="#7E5838" d="M54.43 41.016s4.365-.644 7.061 2.608c2.74 3.301 2.77 7.305 2.77 7.305s-4.333-1.02-6.852-3.552c-2.65-2.662-2.978-6.36-2.978-6.36"/><path fill="#518551" d="M55.523 41.003s1.077 4.785 3.445 6.765c1.795 1.502 4.803 2.599 6.077 3.16-2.539-3.347-5.425-6.213-8.366-9.098 3.119 2.473 5.943 5.5 8.675 8.935-.208-1.228-.731-3.848-2.561-6.577-2.558-3.816-7.27-3.185-7.27-3.185"/><path fill="#7E5838" d="M60.096 36.536s4.263 1.2 5.878 3.823c2.612 4.247 1.164 9.462 1.164 9.462s-3.724-2.1-6.064-5.663c-1.846-2.813-.978-7.622-.978-7.622"/><path fill="#518551" d="M60.004 36.536s-.615 4.939 1.044 7.739c1.257 2.122 3.625 4.515 4.695 5.546a90.11 90.11 0 0 0-4.88-12.053c2.229 3.559 3.828 7.64 5.332 11.955.23-1.24.545-3.75-.313-7.045-1.201-4.609-5.878-6.142-5.878-6.142"/><path fill="#7E5838" d="M72.275 47.607s-4.736 2.182-5.548 5.783c-.977 4.333.91 8.61.91 8.61s3.633-2.866 4.868-6.352c1.235-3.484-.23-8.04-.23-8.04"/><path fill="#518551" d="M71.383 47.607s1.171 4.57.014 7.433c-.878 2.17-3.033 4.736-3.877 5.853.705-4.099 1.986-8.094 3.237-12.008-1.584 3.655-2.791 7.618-3.621 11.887-.36-1.134-.94-3.593-.571-6.815.518-4.503 4.818-6.35 4.818-6.35"/><path fill="#7E5838" d="M59.98 48.714s4.52.62 6.387 4.818c1.9 4.27.917 8.468.917 8.468s-4.067-2.354-5.94-5.749c-1.97-3.57-1.364-7.537-1.364-7.537"/><path fill="#518551" d="M59.893 48.714s-.092 4.891 1.553 7.453c1.25 1.94 3.646 3.832 4.643 4.726-1.499-3.92-3.408-7.476-5.36-11.065 2.196 3.24 4.018 6.934 5.665 10.993.085-1.237.195-3.897-.818-7.027-1.416-4.375-5.683-5.08-5.683-5.08"/><path fill="#7E5838" d="M65.01 46.5s3.073 2.568 3.511 5.698c.705 5.071-2.22 9.802-2.22 9.802s-2.331-3.288-3.043-7.59c-.565-3.396 1.753-7.91 1.753-7.91"/><path fill="#518551" d="M66.047 47.607s-2.325 4.373-1.669 7.546c.498 2.406 1.995 5.452 2.69 6.782a84.976 84.976 0 0 0-.604-12.886c.956 4.078 1.104 8.421 1.083 12.951.656-1.07 1.843-3.294 2.145-6.65.425-4.694-3.645-7.743-3.645-7.743"/><g transform="translate(63.17 62)"><mask id="d" fill="#fff"><use xlink:href="#c"/></mask><path fill="#7E5838" d="M9.682.014s-5.28.336-7.35 3.485C-.162 7.29.081 12.084.081 12.084s4.482-1.4 6.914-4.28C9.422 4.923 9.682.015 9.682.015" mask="url(#d)"/></g><path fill="#518551" d="M71.908 62s-.46 4.775-2.588 7.036c-1.613 1.713-4.608 3.307-5.82 4.035 2.12-3.604 4.765-6.887 7.35-10.106-2.818 2.845-5.38 6.125-7.68 9.845.044-1.218.339-3.767 1.827-6.67 2.08-4.06 6.91-4.14 6.91-4.14"/><path fill="#7E5838" d="M60.338 57.571s3.756 2.615 3.916 7.317c.162 4.775-2.185 8.183-2.185 8.183s-2.746-4-3.195-7.966c-.472-4.169 1.464-7.534 1.464-7.534"/><path fill="#518551" d="M61.36 57.571s-2.034 4.141-1.313 7.073c.55 2.224 2.332 4.922 3.028 6.136-.031-4.029-.637-7.931-1.276-11.88 1.035 3.765 1.493 7.744 1.628 11.957.577-1.018 1.746-3.245 1.917-6.378.238-4.38-3.985-6.908-3.985-6.908"/><path fill="#7E5838" d="M67.847 58.679s2.37 3.598 1.783 6.794c-.95 5.176-5.602 8.706-5.602 8.706s-1.351-4.033-.664-8.465c.545-3.498 4.483-7.035 4.483-7.035"/><path fill="#518551" d="M67.17 58.679s-3.457 3.208-3.876 6.233c-.32 2.295.053 5.458.252 6.85a80.7 80.7 0 0 0 3.537-11.672c-.439 3.92-1.68 7.84-3.131 11.874.923-.761 2.685-2.39 4.017-5.295 1.863-4.058-.8-7.99-.8-7.99"/><path fill="#7E5838" d="M69.723 78.692s-4.562-3.366-8.194-1.952c-4.371 1.702-7.098 6.218-7.098 6.218s4.553 1.848 8.317.928c3.765-.922 6.975-5.194 6.975-5.194"/><path fill="#518551" d="M69.723 78.311s-3.622 4.049-7.094 4.595c-2.636.413-6.462-.273-8.07-.474 4.37-1.783 9.007-2.899 13.543-3.993-4.502.586-9.06 1.759-13.671 3.515.856-1.08 2.836-3.204 6.151-4.802 4.636-2.229 9.141 1.16 9.141 1.16"/><path fill="#7E5838" d="M65.333 68.643s.361 4.877-1.92 7.728c-3.687 4.615-10.075 5.558-10.075 5.558s.854-4.75 3.89-8.77c2.4-3.172 8.105-4.516 8.105-4.516"/><path fill="#518551" d="M66.434 69.75s-5.72 1.552-8.042 4.771c-1.761 2.442-3.313 6.306-3.961 8.032A107.178 107.178 0 0 0 65.47 71.32c-2.897 4.238-6.662 7.977-10.725 11.715 1.47-.305 4.38-1.085 7.616-3.603 4.523-3.516 4.072-9.683 4.072-9.683"/><path fill="#7E5838" d="M60.985 80.4s-2.002 4.567-5.48 6.012c-5.628 2.34-11.997.046-11.997.046s3.068-3.853 7.808-5.978c3.74-1.675 9.669-.08 9.669-.08"/><path fill="#518551" d="M60.985 80.282s-5.742-1.476-9.25.332c-2.66 1.365-5.783 4.16-7.135 5.43a98.59 98.59 0 0 0 14.822-4.8c-4.477 2.458-9.49 4.009-14.763 5.408 1.43.468 4.35 1.222 8.343.538 5.578-.96 7.983-6.908 7.983-6.908"/><g transform="translate(26.03 80.821)"><mask id="f" fill="#fff"><use xlink:href="#e"/></mask><path fill="#7E5838" d="M2.073.019c3.209.63 14.586.63 17.795 0-.48 3.1-.448 5.601.096 8.118l1.737.077-.579 3.965c-3.505-.764-16.8-.764-20.306 0l-.58-3.965 1.74-.077c.545-2.517.577-5.017.097-8.118" mask="url(#f)"/></g><path fill="#518551" d="M28.994 81.929c3.223.387 13.721.387 16.945 0-.55 3.047-.51 6.369.846 9.964-3.448-.437-15.12-.437-18.57 0 1.359-3.595 1.326-6.917.779-9.964"/><path fill="#DCC763" d="M30.815 83.036c-.19.38-.422.748-.696 1.105a5.599 5.599 0 0 1-.811.866v.607c.37-.322.694-.662.975-1.018l.061 5.062c.01.112-.007.25-.054.414-.05.164-.18.268-.396.317v.397h2.246v-.397c-.211-.053-.342-.156-.387-.314a1.16 1.16 0 0 1-.056-.417v-6.622h-.882zm1.891 2.256h.38c.041-.397.132-.636.278-.72a.629.629 0 0 1 .403-.1l2.092.011a37.081 37.081 0 0 0-1.059 1.948 32.069 32.069 0 0 0-1.061 2.309c-.32.777-.539 1.458-.654 2.046h1.663c.083-.44.2-.97.354-1.589.15-.619.32-1.278.508-1.968.184-.694.371-1.367.556-2.023l.505-1.75v-.42h-3.835l-.13 2.256zm3.965 0h.38c.039-.397.132-.636.275-.72a.636.636 0 0 1 .406-.1l2.091.011c-.32.538-.67 1.189-1.058 1.948a31.224 31.224 0 0 0-1.061 2.309c-.32.777-.539 1.458-.653 2.046h1.662c.083-.44.2-.97.35-1.589a112.439 112.439 0 0 1 1.067-3.991l.505-1.75v-.42h-3.834l-.13 2.256zm4.389-.478c.219-.398.434-.662.65-.788.216-.126.399-.185.548-.174.28.017.465.11.555.278a.86.86 0 0 1 .126.457c-.005.291-.09.56-.252.813a3.324 3.324 0 0 1-.624.706c-.255.22-.517.428-.795.628l.23.44c.097-.076.2-.135.302-.18a.79.79 0 0 1 .319-.067c.316.003.558.1.722.291.165.19.247.46.247.808.006.319-.069.639-.216.964-.146.324-.393.596-.735.823-.342.227-.803.356-1.383.382l-.119.56.247.022.247.009c.692-.011 1.296-.171 1.815-.48a3.49 3.49 0 0 0 1.214-1.154c.29-.463.437-.93.442-1.407-.003-.482-.128-.866-.378-1.157-.25-.292-.602-.44-1.054-.449l-.108.003-.11.008v-.084a4.55 4.55 0 0 0 .432-.395c.172-.176.329-.387.465-.63.139-.245.21-.507.22-.788 0-.305-.115-.58-.341-.826-.226-.247-.563-.376-1.013-.39a2.07 2.07 0 0 0-.671.095c-.237.07-.476.213-.718.431-.239.22-.47.545-.689.981l.425.27z"/><path fill="#FFF" d="M100.046 49.95c-2.582 0-5.02-.92-7.046-2.784l1.786-2.188c1.616 1.442 3.233 2.262 5.332 2.262 1.834 0 2.992-.87 2.992-2.237 0-1.243-.675-1.915-3.812-2.685-3.595-.87-5.622-1.964-5.622-5.221 0-2.984 2.413-5.047 5.767-5.047 2.46 0 4.415.77 6.129 2.188l-1.593 2.312c-1.52-1.169-3.04-1.79-4.585-1.79-1.737 0-2.75.92-2.75 2.113 0 1.342.772 1.94 4.005 2.735 3.571.895 5.43 2.212 5.43 5.146 0 3.257-2.486 5.196-6.033 5.196zm8.083-.248l7.432-17.528h2.751l7.432 17.528h-3.137l-1.713-4.202h-7.987l-1.737 4.202h-3.04zm5.864-6.912h5.815l-2.92-6.961-2.895 6.961zm14.815 6.912V32.298h2.968v17.404h-2.968zm7.48 0V32.298h2.751l9.05 12.033V32.298h2.919v17.404h-2.486l-9.314-12.382v12.382h-2.92zm23.213 0v-14.57h-5.356v-2.834h13.705v2.835h-5.356v14.569H159.5zm10.666-6.141v-2.959h7.142v2.959h-7.142zm10.665 6.14V32.299h6.66c3.933 0 6.418 2.312 6.418 5.868 0 3.903-3.04 5.942-6.756 5.942H183.8v5.594h-2.968zm2.968-8.353h3.45c2.245 0 3.644-1.293 3.644-3.157 0-2.04-1.423-3.108-3.643-3.108h-3.45v6.265zm13.15 8.354V32.298h12.524v2.735h-9.555v4.525h8.47v2.735h-8.47v4.674h9.676v2.735H196.95zm20.318 0v-14.57h-5.357v-2.834h13.706v2.835h-5.357v14.569h-2.992zm11.486 0V32.298h12.523v2.735h-9.555v4.525h8.47v2.735h-8.47v4.674h9.676v2.735h-12.644zm16.167 0V32.298h7.528c3.957 0 6.274 2.188 6.274 5.545 0 2.859-1.665 4.574-4.03 5.27l4.56 6.589h-3.498l-4.199-6.067h-3.667v6.067h-2.968zm2.968-8.777h4.343c2.123 0 3.475-1.143 3.475-2.958 0-1.865-1.303-2.884-3.5-2.884h-4.318v5.842zm20.39 9.025c-2.583 0-5.02-.92-7.047-2.784l1.786-2.188c1.617 1.442 3.233 2.262 5.333 2.262 1.833 0 2.992-.87 2.992-2.237 0-1.243-.676-1.915-3.813-2.685-3.595-.87-5.622-1.964-5.622-5.221 0-2.984 2.413-5.047 5.767-5.047 2.461 0 4.416.77 6.129 2.188l-1.593 2.312c-1.52-1.169-3.04-1.79-4.584-1.79-1.738 0-2.751.92-2.751 2.113 0 1.342.772 1.94 4.005 2.735 3.572.895 5.43 2.212 5.43 5.146 0 3.257-2.486 5.196-6.033 5.196zm9.53-.248V32.298h7.577c1.93 0 3.45.547 4.416 1.542.748.77 1.134 1.715 1.134 2.933 0 2.089-1.158 3.208-2.413 3.879 1.979.696 3.354 1.865 3.354 4.276 0 3.108-2.485 4.774-6.25 4.774h-7.818zm2.92-10.07h4.054c1.906 0 3.185-.77 3.185-2.411 0-1.367-1.062-2.213-2.968-2.213h-4.27v4.625zm0 7.36h4.923c2.026 0 3.257-.82 3.257-2.437 0-1.467-1.134-2.337-3.475-2.337h-4.705v4.774zm21.427 2.983c-4.391 0-7.19-2.61-7.19-7.657v-10.02h2.968v9.895c0 3.232 1.616 4.973 4.27 4.973 2.63 0 4.247-1.641 4.247-4.848v-10.02h2.968v9.87c0 5.197-2.847 7.807-7.263 7.807zm11.341-.273V32.298h7.529c3.957 0 6.273 2.188 6.273 5.545 0 2.859-1.664 4.574-4.03 5.27l4.561 6.589h-3.498l-4.199-6.067h-3.668v6.067h-2.968zm2.968-8.777h4.344c2.123 0 3.474-1.143 3.474-2.958 0-1.865-1.303-2.884-3.499-2.884h-4.319v5.842zM338.955 50c-5.285 0-8.76-3.878-8.76-9 0-4.873 3.62-9 8.71-9 2.945 0 4.754.845 6.492 2.362l-1.882 2.312c-1.303-1.144-2.582-1.865-4.73-1.865-3.113 0-5.477 2.81-5.477 6.191 0 3.58 2.292 6.215 5.743 6.215 1.592 0 3.04-.522 4.078-1.317V42.64h-4.32v-2.66H346v7.31c-1.665 1.466-4.054 2.709-7.046 2.709zM94 81.702V64.298h3.166l5.147 8.23 5.148-8.23h3.166v17.404h-2.973V69.22l-5.34 8.204h-.097l-5.293-8.154V81.7H94zm21.146 0V64.298h2.973v17.404h-2.973zm7.492 0V64.298h2.755l9.063 12.033V64.298h2.924v17.404h-2.49l-9.328-12.382v12.382h-2.924zm19.261 0V64.298h2.973v17.404h-2.973zm7.492 0V64.298h2.755l9.063 12.033V64.298h2.924v17.404h-2.49l-9.328-12.382v12.382h-2.924zm27.116.298c-5.293 0-8.773-3.878-8.773-9 0-4.873 3.625-9 8.724-9 2.949 0 4.761.845 6.501 2.362l-1.885 2.312c-1.305-1.144-2.586-1.865-4.737-1.865-3.117 0-5.485 2.81-5.485 6.191 0 3.58 2.295 6.215 5.751 6.215 1.595 0 3.045-.522 4.085-1.317V74.64h-4.326v-2.66h7.201v7.31c-1.667 1.466-4.06 2.709-7.056 2.709zm25.11-.025c-4.4 0-7.202-2.61-7.202-7.657v-10.02h2.972v9.895c0 3.232 1.62 4.973 4.278 4.973 2.634 0 4.253-1.641 4.253-4.848v-10.02h2.973v9.87c0 5.197-2.852 7.807-7.275 7.807zm11.358-.273V64.298h2.755l9.063 12.033V64.298h2.924v17.404h-2.49L215.9 69.32v12.382h-2.924zm19.261 0V64.298h2.973v17.404h-2.973zm13.075.124l-7.033-17.528h3.287l5.099 13.376 5.075-13.376h3.214l-7.032 17.528h-2.61zm12.542-.124V64.298h12.543v2.735h-9.57v4.525h8.482v2.735h-8.482v4.674h9.69v2.735h-12.663zm16.192 0V64.298h7.54c3.964 0 6.284 2.188 6.284 5.545 0 2.859-1.668 4.574-4.036 5.27l4.568 6.589h-3.505l-4.205-6.067h-3.673v6.067h-2.973zm2.973-8.777h4.35c2.127 0 3.48-1.143 3.48-2.958 0-1.865-1.305-2.884-3.504-2.884h-4.326v5.842zm20.421 9.025c-2.586 0-5.027-.92-7.057-2.784l1.789-2.188c1.619 1.442 3.238 2.262 5.34 2.262 1.837 0 2.997-.87 2.997-2.237 0-1.243-.676-1.915-3.818-2.685-3.601-.87-5.631-1.964-5.631-5.221 0-2.984 2.417-5.047 5.776-5.047 2.465 0 4.422.77 6.138 2.188l-1.595 2.312c-1.522-1.169-3.045-1.79-4.591-1.79-1.74 0-2.756.92-2.756 2.113 0 1.342.774 1.94 4.012 2.735 3.577.895 5.438 2.212 5.438 5.146 0 3.257-2.49 5.196-6.042 5.196zm9.715-.248V64.298h2.973v17.404h-2.973zm11.649 0v-14.57h-5.365v-2.834h13.727v2.835H321.8v14.569h-2.997zm16.482 0V74.84l-6.719-10.542h3.505l4.736 7.708 4.785-7.708H345l-6.718 10.467v6.937h-2.997zM3.749 116.445v-10.222H0v-.753h8.297v.753h-3.75v10.222H3.75zm6.806 0V105h.753v4.938c.522-.94 1.398-1.677 2.827-1.677 1.982 0 3.134 1.38 3.134 3.292v4.892h-.753v-4.75c0-1.647-.906-2.729-2.489-2.729-1.536 0-2.719 1.192-2.719 2.854v4.625h-.753zm12.722.188c-2.06 0-3.841-1.678-3.841-4.202 0-2.32 1.598-4.17 3.718-4.17 2.197 0 3.595 1.819 3.595 4.186 0 .14 0 .188-.015.313h-6.5c.139 1.991 1.537 3.152 3.073 3.152 1.214 0 2.044-.55 2.69-1.255l.522.47c-.8.879-1.737 1.506-3.242 1.506zm-3.042-4.562h5.7c-.108-1.615-1.014-3.105-2.812-3.105-1.552 0-2.75 1.333-2.888 3.105zm13.49 4.374V105.47h7.574v.753h-6.776v4.5h6.085v.752h-6.085v4.97h-.799zm10.017 0v-7.996h.753v7.996h-.753zm-.092-10.081v-1.05h.937v1.05h-.937zm3.81 10.08v-7.995h.753v2.273c.614-1.426 1.92-2.461 3.472-2.398v.846h-.077c-1.813 0-3.395 1.396-3.395 3.998v3.277h-.753zm8.68.157c-1.136 0-2.38-.47-3.21-1.16l.445-.611c.86.674 1.813 1.05 2.812 1.05 1.06 0 1.89-.596 1.89-1.552 0-.94-.984-1.285-2.075-1.599-1.275-.376-2.688-.768-2.688-2.226 0-1.286 1.06-2.21 2.58-2.21.938 0 1.998.344 2.782.877l-.4.643c-.722-.486-1.582-.8-2.412-.8-1.075 0-1.782.596-1.782 1.427 0 .894 1.06 1.223 2.182 1.552 1.26.36 2.58.831 2.58 2.273 0 1.427-1.198 2.336-2.703 2.336zm7.714-.015c-1.214 0-2.198-.674-2.198-2.195v-5.236H60.52v-.706h1.136v-2.555h.753v2.555h2.75v.706h-2.75v5.157c0 1.145.661 1.553 1.567 1.553.385 0 .707-.079 1.153-.283v.721a2.82 2.82 0 0 1-1.275.283zm8.312-.141V105.47h.798v5.08h6.884v-5.08h.799v10.975h-.8v-5.143h-6.883v5.143h-.798zm11.615 0v-7.996h.753v7.996h-.753zm-.092-10.081v-1.05h.937v1.05h-.937zm7.252 12.62c-1.306 0-2.52-.407-3.596-1.223l.446-.627c.937.737 2.013 1.13 3.165 1.13 1.798 0 3.073-1.051 3.073-3.105v-1.16c-.676.988-1.721 1.85-3.273 1.85-1.89 0-3.764-1.474-3.764-3.794 0-2.305 1.874-3.794 3.764-3.794 1.567 0 2.627.847 3.273 1.787v-1.599h.753v6.757c0 1.16-.37 2.07-.999 2.712-.676.69-1.69 1.066-2.842 1.066zm-.108-3.872c1.629 0 3.242-1.223 3.242-3.073 0-1.85-1.613-3.041-3.242-3.041-1.644 0-3.027 1.16-3.027 3.057 0 1.803 1.414 3.057 3.027 3.057zm6.806 1.333V105h.753v4.938c.523-.94 1.398-1.677 2.827-1.677 1.982 0 3.135 1.38 3.135 3.292v4.892h-.753v-4.75c0-1.647-.907-2.729-2.49-2.729-1.536 0-2.719 1.192-2.719 2.854v4.625h-.753zm12.722.188c-2.059 0-3.841-1.678-3.841-4.202 0-2.32 1.598-4.17 3.718-4.17 2.197 0 3.595 1.819 3.595 4.186 0 .14 0 .188-.015.313h-6.5c.14 1.991 1.537 3.152 3.074 3.152 1.213 0 2.043-.55 2.688-1.255l.523.47c-.8.879-1.736 1.506-3.242 1.506zm-3.042-4.562h5.7c-.108-1.615-1.014-3.105-2.812-3.105-1.552 0-2.75 1.333-2.888 3.105zm8.711 4.374v-7.996h.753v2.273c.615-1.426 1.92-2.461 3.472-2.398v.846h-.076c-1.813 0-3.396 1.396-3.396 3.998v3.277h-.753zm13.905 0v-10.222h-3.749v-.753h8.297v.753h-3.75v10.222h-.798zm10.11.188c-2.06 0-3.842-1.678-3.842-4.202 0-2.32 1.598-4.17 3.719-4.17 2.197 0 3.595 1.819 3.595 4.186 0 .14 0 .188-.016.313h-6.499c.139 1.991 1.537 3.152 3.073 3.152 1.214 0 2.044-.55 2.689-1.255l.522.47c-.799.879-1.736 1.506-3.242 1.506zm-3.043-4.562h5.7c-.107-1.615-1.014-3.105-2.811-3.105-1.552 0-2.75 1.333-2.889 3.105zm12.169 4.562c-2.259 0-3.995-1.882-3.995-4.186 0-2.29 1.752-4.186 3.995-4.186 1.475 0 2.427.69 3.119 1.49l-.523.548c-.676-.705-1.444-1.317-2.612-1.317-1.736 0-3.165 1.552-3.165 3.465 0 1.928 1.43 3.465 3.227 3.465 1.106 0 1.936-.612 2.596-1.364l.554.501c-.8.925-1.752 1.584-3.196 1.584zm5.316-.188V105h.753v4.938c.522-.94 1.398-1.677 2.827-1.677 1.982 0 3.134 1.38 3.134 3.292v4.892h-.753v-4.75c0-1.647-.906-2.729-2.489-2.729-1.536 0-2.72 1.192-2.72 2.854v4.625h-.752zm9.418 0v-7.996h.753v1.49c.522-.941 1.398-1.678 2.827-1.678 1.982 0 3.134 1.38 3.134 3.292v4.892h-.753v-4.75c0-1.647-.906-2.729-2.489-2.729-1.536 0-2.72 1.192-2.72 2.854v4.625h-.752zm9.526 0v-7.996h.753v7.996h-.753zm-.092-10.081v-1.05h.937v1.05h-.937zm7.267 10.269c-2.259 0-3.995-1.882-3.995-4.186 0-2.29 1.752-4.186 3.995-4.186 1.475 0 2.427.69 3.119 1.49l-.523.548c-.676-.705-1.444-1.317-2.611-1.317-1.737 0-3.165 1.552-3.165 3.465 0 1.928 1.428 3.465 3.226 3.465 1.106 0 1.936-.612 2.597-1.364l.553.501c-.8.925-1.752 1.584-3.196 1.584zm7.697 0c-1.46 0-3.026-.847-3.026-2.54 0-1.662 1.398-2.603 3.426-2.603 1.09 0 1.844.142 2.596.345v-.345c0-1.614-.968-2.445-2.58-2.445-.953 0-1.737.266-2.459.643l-.277-.675c.86-.407 1.706-.69 2.781-.69 1.06 0 1.905.299 2.474.879.522.533.799 1.27.799 2.257v4.986h-.738v-1.333c-.537.768-1.505 1.52-2.996 1.52zm.046-.721c1.598 0 2.966-1.004 2.966-2.462v-.91c-.66-.172-1.537-.36-2.658-.36-1.66 0-2.581.753-2.581 1.897 0 1.16 1.075 1.835 2.273 1.835zm6.5.533V105h.752v11.445h-.752zm12.736.172c-2.58 0-4.41-1.662-4.41-4.735v-6.412h.8v6.334c0 2.587 1.367 4.076 3.641 4.076 2.182 0 3.58-1.348 3.58-3.998v-6.412h.799v6.318c0 3.152-1.798 4.829-4.41 4.829zm7.268-.172v-7.996h.753v1.49c.522-.941 1.398-1.678 2.827-1.678 1.982 0 3.134 1.38 3.134 3.292v4.892h-.753v-4.75c0-1.647-.906-2.729-2.489-2.729-1.536 0-2.72 1.192-2.72 2.854v4.625h-.752zm9.525 0v-7.996h.753v7.996h-.753zm-.092-10.081v-1.05h.938v1.05h-.938zm6.53 10.143l-3.518-8.058h.875l2.966 7.133 2.996-7.133h.845l-3.519 8.058h-.645zm9.526.126c-2.059 0-3.841-1.678-3.841-4.202 0-2.32 1.598-4.17 3.718-4.17 2.197 0 3.595 1.819 3.595 4.186 0 .14 0 .188-.015.313h-6.5c.139 1.991 1.537 3.152 3.074 3.152 1.213 0 2.043-.55 2.688-1.255l.523.47c-.8.879-1.736 1.506-3.242 1.506zm-3.042-4.562h5.7c-.108-1.615-1.014-3.105-2.812-3.105-1.552 0-2.75 1.333-2.888 3.105zm8.711 4.374v-7.996h.753v2.273c.615-1.426 1.92-2.461 3.472-2.398v.846h-.076c-1.813 0-3.396 1.396-3.396 3.998v3.277h-.753zm8.681.156c-1.137 0-2.381-.47-3.211-1.16l.445-.611c.86.674 1.813 1.05 2.812 1.05 1.06 0 1.89-.596 1.89-1.552 0-.94-.983-1.285-2.074-1.599-1.275-.376-2.689-.768-2.689-2.226 0-1.286 1.06-2.21 2.581-2.21.937 0 1.998.344 2.781.877l-.4.643c-.721-.486-1.582-.8-2.412-.8-1.075 0-1.782.596-1.782 1.427 0 .894 1.06 1.223 2.182 1.552 1.26.36 2.581.831 2.581 2.273 0 1.427-1.198 2.336-2.704 2.336zm5.208-.156v-7.996h.753v7.996h-.753zm-.092-10.081v-1.05h.937v1.05h-.937zm6.423 10.222c-1.214 0-2.198-.674-2.198-2.195v-5.236h-1.137v-.706h1.137v-2.555h.753v2.555h2.75v.706h-2.75v5.157c0 1.145.66 1.553 1.567 1.553.385 0 .707-.079 1.153-.283v.721a2.82 2.82 0 0 1-1.275.283zm4.486 2.414c-.6 0-1.03-.11-1.552-.345l.261-.674c.415.204.753.298 1.337.298.814 0 1.352-.486 1.936-1.881l-3.764-7.949h.875l3.258 7.149 2.827-7.149h.83l-3.396 8.278c-.692 1.677-1.49 2.273-2.612 2.273zm12.798-2.555v-7.996h.753v7.996h-.753zm-.092-10.081v-1.05h.937v1.05h-.937zm3.81 10.08v-7.995h.753v1.49c.523-.941 1.398-1.678 2.827-1.678 1.982 0 3.134 1.38 3.134 3.292v4.892h-.752v-4.75c0-1.647-.907-2.729-2.49-2.729-1.536 0-2.719 1.192-2.719 2.854v4.625h-.753zm14.197 0V105.47h4.517c1.321 0 2.381.424 3.027 1.082.507.517.814 1.254.814 2.07 0 1.834-1.337 2.884-3.15 3.135l3.55 4.688h-1.015l-3.426-4.547h-3.518v4.547h-.8zm.799-5.283h3.626c1.797 0 3.134-.925 3.134-2.54 0-1.473-1.137-2.398-3.088-2.398h-3.672v4.938zm13.12 5.472c-1.981 0-3.134-1.38-3.134-3.293v-4.891h.753v4.75c0 1.646.907 2.728 2.49 2.728 1.536 0 2.719-1.191 2.719-2.853v-4.625h.753v7.996h-.753v-1.49c-.523.94-1.398 1.678-2.827 1.678zm8.973-.032c-1.136 0-2.381-.47-3.21-1.16l.445-.611c.86.674 1.813 1.05 2.812 1.05 1.06 0 1.89-.596 1.89-1.552 0-.94-.984-1.285-2.075-1.599-1.275-.376-2.689-.768-2.689-2.226 0-1.286 1.06-2.21 2.582-2.21.937 0 1.997.344 2.78.877l-.399.643c-.722-.486-1.582-.8-2.412-.8-1.076 0-1.782.596-1.782 1.427 0 .894 1.06 1.223 2.181 1.552 1.26.36 2.582.831 2.582 2.273 0 1.427-1.199 2.336-2.705 2.336zm7.636 0c-1.136 0-2.381-.47-3.21-1.16l.445-.611c.86.674 1.813 1.05 2.812 1.05 1.06 0 1.89-.596 1.89-1.552 0-.94-.984-1.285-2.075-1.599-1.275-.376-2.689-.768-2.689-2.226 0-1.286 1.06-2.21 2.582-2.21.937 0 1.997.344 2.78.877l-.399.643c-.722-.486-1.582-.8-2.412-.8-1.076 0-1.782.596-1.782 1.427 0 .894 1.06 1.223 2.181 1.552 1.26.36 2.582.831 2.582 2.273 0 1.427-1.199 2.336-2.705 2.336zm5.209-.156v-7.996h.753v7.996h-.753zm-.092-10.081v-1.05h.937v1.05h-.937zm6.192 10.269c-1.46 0-3.027-.847-3.027-2.54 0-1.662 1.398-2.603 3.426-2.603a9.29 9.29 0 0 1 2.597.345v-.345c0-1.614-.968-2.445-2.582-2.445-.952 0-1.736.266-2.458.643l-.276-.675c.86-.407 1.705-.69 2.78-.69 1.06 0 1.906.299 2.474.879.522.533.799 1.27.799 2.257v4.986h-.737v-1.333c-.538.768-1.506 1.52-2.996 1.52zm.046-.721c1.597 0 2.965-1.004 2.965-2.462v-.91c-.66-.172-1.537-.36-2.658-.36-1.66 0-2.581.753-2.581 1.897 0 1.16 1.075 1.835 2.274 1.835z"/></g></svg>