<svg xmlns="http://www.w3.org/2000/svg" width="38" height="26"><path fill="#FFF" d="M35.625 1.182h-1.053c-.624 0-1.222.244-1.668.68L29.687 5.02V3.545A3.555 3.555 0 0 0 26.125 0H3.562C1.599 0 0 1.59 0 3.545v18.91A3.555 3.555 0 0 0 3.563 26h22.562a3.555 3.555 0 0 0 3.563-3.545v-1.443l3.216 3.157a2.386 2.386 0 0 0 1.668.681h1.053A2.37 2.37 0 0 0 38 22.486V3.546a2.37 2.37 0 0 0-2.375-2.364zM3.361 23.833c-.657 0-1.19-.54-1.19-1.203V3.37c0-.665.532-1.203 1.19-1.203h22.593c.655 0 1.189.539 1.189 1.203v19.26c0 .663-.534 1.203-1.19 1.203H3.362zm32.255-1.369h-1.192l-4.768-4.757v-.032l-1.191-1.19V9.35l5.96-5.947h1.19v19.061z"/></svg>