<svg xmlns="http://www.w3.org/2000/svg" width="22" height="13"><path fill="#FFF" d="M21.089 10.182c.289.352.563.715.772 1.123.297.581.028 1.22-.488 1.255l-3.205-.002c-.826.07-1.486-.267-2.04-.837-.444-.457-.855-.942-1.282-1.414a3.045 3.045 0 0 0-.576-.518c-.438-.287-.818-.199-1.068.262-.254.469-.312.987-.337 1.51-.034.762-.263.962-1.02.997-1.62.077-3.158-.17-4.587-.996-1.26-.727-2.236-1.754-3.086-2.917C2.517 6.381 1.25 3.893.112 1.335-.146.76.041.45.671.44A86.146 86.146 0 0 1 3.81.437c.425.007.706.253.87.658.566 1.405 1.258 2.74 2.127 3.98.231.33.467.659.803.891.372.257.655.172.83-.246.11-.265.16-.55.184-.835.083-.976.094-1.952-.051-2.925-.09-.607-.429-1-1.029-1.116-.306-.058-.26-.173-.112-.35.257-.304.5-.494.983-.494h3.622c.57.114.697.372.775.952l.003 4.062c-.006.225.11.89.51 1.039.321.105.532-.153.724-.358.868-.93 1.487-2.028 2.04-3.165.245-.5.456-1.02.66-1.539.152-.385.39-.574.82-.566l3.485.003c.104 0 .208.002.308.019.588.101.749.356.567.935-.285.91-.842 1.666-1.386 2.427-.58.813-1.203 1.597-1.78 2.414-.529.746-.487 1.122.171 1.77.73.72 1.5 1.397 2.155 2.189z"/></svg>