<svg xmlns="http://www.w3.org/2000/svg" width="24" height="33" viewBox="0 0 24 33">
    <g fill="#113060" fill-rule="nonzero">
        <path d="M23.998 6.68a.784.784 0 0 0-.217-.54L18.044.227a.735.735 0 0 0-.53-.226H1.578C.708 0 0 .73 0 1.627v29.746C0 32.27.708 33 1.578 33h20.844c.87 0 1.578-.73 1.578-1.627V6.687l-.002-.008zm-5.734-4.042l3.177 3.277h-3.099a.08.08 0 0 1-.078-.082V2.638zM22.5 31.373a.08.08 0 0 1-.079.082H1.578a.08.08 0 0 1-.08-.082V1.627a.08.08 0 0 1 .08-.082h15.187v4.288c0 .897.707 1.627 1.577 1.627h4.16v23.913z"/>
        <path d="M18.976 10.043H5.024c-.436 0-.789.322-.789.718 0 .396.353.717.789.717h13.952c.436 0 .789-.321.789-.717 0-.396-.353-.718-.789-.718zM18.976 15.783H5.024c-.436 0-.789.32-.789.717 0 .396.353.717.789.717h13.952c.436 0 .789-.32.789-.717 0-.396-.353-.717-.789-.717zM18.976 20.087H5.024c-.436 0-.789.321-.789.717 0 .397.353.718.789.718h13.952c.436 0 .789-.321.789-.718 0-.396-.353-.717-.789-.717zM11.925 24.391H5.016c-.431 0-.78.322-.78.718 0 .396.349.717.78.717h6.91c.43 0 .78-.321.78-.717 0-.397-.35-.718-.78-.718z"/>
    </g>
</svg>
