<svg xmlns="http://www.w3.org/2000/svg" xmlns:xlink="http://www.w3.org/1999/xlink" width="375" height="156" viewBox="0 0 375 156">
    <defs>
        <path id="a" d="M.095.363H54.66v59.422H.095z"/>
        <path id="c" d="M.124.023h15.633v19.822H.124z"/>
        <path id="e" d="M.412.031h37.336V20H.412z"/>
    </defs>
    <g fill="none" fill-rule="evenodd">
        <g transform="translate(33)">
            <mask id="b" fill="#fff">
                <use xlink:href="#a"/>
            </mask>
            <path fill="#7E5838" d="M24.526 53.174l-8.457.12-8.277.116a.207.207 0 0 1-.208-.175 25.497 25.497 0 0 0-.53-2.482c-.3-1.117-.718-2.332-1.27-3.251a116.007 116.007 0 0 1-2.278-3.972c-.77-1.407-1.483-2.794-1.945-3.848a17.309 17.309 0 0 1-1.108-3.568 18.92 18.92 0 0 1-.35-4.226 8.605 8.605 0 0 1 .258-1.816c.298-1.176.83-2.31 1.495-3.31.664-.999 1.461-1.863 2.29-2.497 1.04-.8 1.838-1.384 2.69-1.877.85-.492 1.753-.894 3.003-1.331a56.022 56.022 0 0 1 2.726-.886c.582-.17.852-.231.852-.231s.041-.091.15-.185a.874.874 0 0 1 .555-.202 1.663 1.663 0 0 1 .427.035 1.28 1.28 0 0 0 .428-.263c.116-.097.241-.203.486-.314.167-.076.345-.098.521-.08.177.017.353.074.516.157.192.099.397.126.592.125.194 0 .377-.03.527-.047a1.85 1.85 0 0 0 .42-.103c.14-.047.275-.099.405-.132a.603.603 0 0 1 .47.115c.137.1.264.261.412.477.15.214.425.712.768 1.502.344.79.757 1.87 1.185 3.253.402 1.297.676 2.426.854 3.259.125.589.202 1.03.242 1.276a.206.206 0 0 0 .238.17c.278-.041.517-.072.712-.094.242-.028.416-.043.513-.052a1.024 1.024 0 0 1-.017-.209.8.8 0 0 1 .025-.187.753.753 0 0 1 .195-.31c.072-.078.134-.137.132-.198-.004-.06-.017-.175-.029-.306a4.835 4.835 0 0 1-.023-.41c0-.134.082-.197.19-.221a.787.787 0 0 1 .348.02c.148-.087.195-.153.18-.24-.013-.085-.087-.19-.18-.356a.608.608 0 0 1-.058-.468.996.996 0 0 1 .187-.358.287.287 0 0 0 .057-.27.975.975 0 0 0-.195-.32c-.097-.122-.174-.387-.23-.666a6.057 6.057 0 0 1-.1-.756.458.458 0 0 1 .202-.4.622.622 0 0 1 .305-.126c.01-.139.01-.24.003-.339-.006-.097-.018-.19-.03-.313-.01-.12.043-.254.098-.378.056-.124.114-.237.114-.313 0-.074-.097-.191-.214-.34a2.273 2.273 0 0 1-.337-.53.459.459 0 0 1 .075-.489.748.748 0 0 1 .355-.232c.015-.267.018-.498.03-.696.01-.198.03-.362.078-.495.036-.104.215-.146.417-.157.203-.011.43.007.563.023-.344-.11-.617-.261-.805-.452a.972.972 0 0 1-.264-.937.883.883 0 0 1 .093-.224.925.925 0 0 1-.642-.27.92.92 0 0 1-.262-.647.875.875 0 0 1 .517-.826.893.893 0 0 1-.52-.308.942.942 0 0 1-.21-.587.886.886 0 0 1 .213-.598.915.915 0 0 1 .556-.298.892.892 0 0 1-.37-.328.943.943 0 0 1-.142-.497.877.877 0 0 1 .262-.654.958.958 0 0 1 .675-.26c.005-.069-.028-.169-.062-.29a1.62 1.62 0 0 1-.071-.413.884.884 0 0 1 .231-.617.928.928 0 0 1 .599-.288l.14-.519.14-.52c.064-.245.168-1.01.26-1.756.092-.745.172-1.47.187-1.638.013-.167-.105-.232-.277-.244-.174-.012-.402.026-.613.066-.213.039-.57.173-.89.301-.168.067-.325.132-.446.181-.121.05-.288-.048-.329-.174-.136-.42-.11-.85-.102-1.379.011-.764.061-1.32.061-1.392.055-.241.129-.35.242-.378.114-.028.255.029.453.15.197.122.577.238.933.328.357.09.69.155.796.172.105.017.139-.066.127-.213a3.038 3.038 0 0 0-.14-.591 12.381 12.381 0 0 0-.413-1.044c-.17-.388-.337-.747-.404-.864-.069-.117-.098-.226-.08-.305.019-.078.084-.126.204-.121l1.848.006 1.846.007c.145.004.19.048.178.128-.012.08-.08.198-.164.35-.084.154-.244.716-.393 1.268-.1.372-.195.74-.256.975-.035.13.057.263.19.264.263.003.587-.058.89-.136.413-.106.786-.243.91-.293.123-.05.244-.061.335-.02.091.043.151.137.151.298L31.13 4.56l-.032 1.352c0 .213-.037.319-.12.348-.083.03-.213-.017-.401-.109-.186-.089-.536-.217-.878-.34-.256-.091-.507-.18-.684-.247a.198.198 0 0 0-.246.083c-.116.215-.18.482-.207.782-.034.373-.012.797.033 1.236.045.442.105.9.163 1.302.046.32.09.603.123.813a.205.205 0 0 0 .167.165.853.853 0 0 1 .459.253.921.921 0 0 1 .231.639.939.939 0 0 1-.08.4c.275 0 .508.091.672.252.165.161.26.391.26.67a.98.98 0 0 1-.063.356.87.87 0 0 1-.178.282c.181.06.33.168.435.316a.94.94 0 0 1 .163.55c0 .14-.027.27-.075.383a.826.826 0 0 1-.205.29.808.808 0 0 1 .279.314c.065.129.1.28.1.447 0 .21-.058.393-.159.539a.864.864 0 0 1-.417.317.826.826 0 0 1 .171.279c.04.107.061.227.061.36a.901.901 0 0 1-.234.631.9.9 0 0 1-.592.273.834.834 0 0 1 .109.242 1.07 1.07 0 0 1-.024.64.842.842 0 0 1-.17.279c.34.085.54.25.64.426.1.175.1.362.039.49-.06.129-.141.244-.204.35-.063.107-.108.205-.097.298.01.094.08.242.146.385.065.143.13.28.13.35 0 .072-.033.14-.068.208-.036.068-.075.138-.088.214-.015.074.068.231.144.411.075.18.144.382.102.545a1.544 1.544 0 0 1-.209.45c-.082.127-.161.226-.191.275-.033.05.029.12.121.185.093.066.216.129.309.167.09.04.14.24.142.484.002.245-.044.534-.142.75a2.85 2.85 0 0 1-.363.562c-.12.154-.218.274-.227.352.252.057.464.135.583.252.12.116.146.272.029.482-.121.211-.259.37-.385.518a1.928 1.928 0 0 0-.317.452c-.073.167-.172.27-.21.33-.038.06-.016.078.154.078.17 0 .396-.043.586-.03.19.014.345.084.373.313.017.135.068.277.14.42.063.122.14.244.228.363.029.039.07.067.117.08l.36.097.433.118c.174-.454.463-1.43.793-2.54.33-1.108.701-2.35 1.039-3.337.384-1.124.779-2.082 1.12-2.792.34-.71.628-1.172.798-1.302.078-.06.154-.109.226-.15.073-.04.143-.072.208-.094.168-.034.307-.026.436.002.128.029.246.079.368.129.12.05.266.07.38.079.116.008.2.003.2.003s.064-.117.23-.233c.168-.116.437-.23.85-.223.36.007.629.124.825.267.197.144.32.313.384.424 0-.03.174-.007.394.054.22.06.485.157.668.272.185.115.315.114.655.2.34.085.888.256 1.912.717 1.026.461 2.287.972 3.626 1.673 1.34.701 2.757 1.594 4.094 2.817.886.809 1.56 1.58 2.064 2.398a8.11 8.11 0 0 1 1.045 2.67c.106.507.178 1.048.222 1.634.045.585.062 1.216.058 1.9-.013 2.03-.538 4.084-1.2 5.836-.661 1.753-1.46 3.205-2.022 4.03a33.458 33.458 0 0 0-1.531 2.483 39.7 39.7 0 0 0-1.307 2.556c-.337.715-.634 1.715-.867 2.65-.233.933-.402 1.8-.483 2.248a.96.96 0 0 1 .28 1.54.932.932 0 0 1-.663.277 18.452 18.452 0 0 0-.146 1.274 18.46 18.46 0 0 0-.015.713 56.81 56.81 0 0 0-.002.526c0 .1.068.192.167.204a.87.87 0 0 1 .514.238c.16.16.248.39.248.666a.936.936 0 0 1-.245.663.837.837 0 0 1-.615.25.844.844 0 0 1-.744-.44.801.801 0 0 1-.26.155.91.91 0 0 1-.317.054.845.845 0 0 1-.804-.57.797.797 0 0 1-.302.293.882.882 0 0 1-.425.103.846.846 0 0 1-.588-.23.94.94 0 0 1-.28-.587.845.845 0 0 1-.292.505.848.848 0 0 1-.543.187.844.844 0 0 1-.533-.184.9.9 0 0 1-.306-.477.821.821 0 0 1-.77.473.843.843 0 0 1-.535-.188.904.904 0 0 1-.303-.486.839.839 0 0 1-.306.421.859.859 0 0 1-.502.153.844.844 0 0 1-.774-.49.79.79 0 0 1-.302.296.881.881 0 0 1-.887-.025.884.884 0 0 1-.313-.35.793.793 0 0 1-.302.3.882.882 0 0 1-.433.109.844.844 0 0 1-.787-.522.808.808 0 0 1-.303.279.878.878 0 0 1-.415.1.847.847 0 0 1-.472-.141.889.889 0 0 1-.315-.373.82.82 0 0 1-.327.336.988.988 0 0 1-.486.12.95.95 0 0 1-.568-.18.906.906 0 0 1-.33-.472.845.845 0 0 1-.316.5.95.95 0 0 1-.58.183.976.976 0 0 1-.67-.258.906.906 0 0 1-.288-.646.896.896 0 0 1-.267.657.937.937 0 0 1-.658.247.97.97 0 0 1-.668-.258.909.909 0 0 1-.286-.646.897.897 0 0 1-.268.657.936.936 0 0 1-.657.247.932.932 0 0 1-.655-.256.92.92 0 0 1-.279-.64c-.03.272-.142.496-.312.652a.959.959 0 0 1-.66.244.913.913 0 0 1-.933-.83.88.88 0 0 1-.287.604.94.94 0 0 1-.633.226.951.951 0 0 1-.51-.144.909.909 0 0 1-.337-.378.824.824 0 0 1-.33.362.986.986 0 0 1-.504.13.955.955 0 0 1-.522-.15.893.893 0 0 1-.334-.393.825.825 0 0 1-.297.44.831.831 0 0 1-.503.16.813.813 0 0 1-.466-.145.889.889 0 0 1-.308-.378.825.825 0 0 1-.297.427.827.827 0 0 1-.494.156.812.812 0 0 1-.476-.15.894.894 0 0 1-.308-.398.843.843 0 0 1-.288.484.823.823 0 0 1-.524.177.814.814 0 0 1-.456-.138.864.864 0 0 1-.305-.362.84.84 0 0 1-.297.45.831.831 0 0 1-.508.162.815.815 0 0 1-.492-.16.879.879 0 0 1-.303-.422.882.882 0 0 1-.283.534.82.82 0 0 1-.548.196.81.81 0 0 1-.443-.129.856.856 0 0 1-.304-.344.863.863 0 0 1-.29.491.818.818 0 0 1-.528.182.825.825 0 0 1-.726-.425.836.836 0 0 1-.289.48.828.828 0 0 1-.525.176.821.821 0 0 1-.683-.365.809.809 0 0 1-.3.373.83.83 0 0 1-.465.135.822.822 0 0 1-.74-.447.838.838 0 0 1-.274.432.716.716 0 0 1-.457.159.934.934 0 0 1-.602-.214.793.793 0 0 1-.28-.608 1.055 1.055 0 0 1 .165-.548c.079-.129.178-.24.28-.316a.222.222 0 0 0 .095-.163l.037-.624.042-.73.046-.655.033-.483a.203.203 0 0 0-.129-.208.94.94 0 0 1-.409-.285.957.957 0 0 1-.01-1.21.928.928 0 0 1 .525-.329l8.458-.119 8.457-.12z" mask="url(#b)"/>
        </g>
        <path fill="#DCC763" d="M58.818 10.874c.067-.387.366-2.121.495-3.16.142-1.173.102-1.6.102-1.766 0-.161-.168-.341-.738-.238-.575.108-1.298.342-1.416.387-.118.044-.275.103-.26-.22.012-.329.07-2.064.07-2.22 0-.154.177-.106.362-.005.198.09 1.306.543 1.539.553.232.004.534-.077.471-.364-.067-.288-.538-2.404-.7-2.616-.161-.216-.074-.225.126-.225s2.167.022 2.309.022c.145 0 .176.046.07.265-.102.226-.484 1.825-.539 2.302-.058.48.012.656.276.656.263 0 1.184-.279 1.455-.391.267-.108.543-.247.543-.022 0 .228.023 1.874.015 2.09-.004.215-.141.229-.334.08-.247-.084-.905-.319-1.239-.413-.338-.094-.692-.13-.735.193-.024.157-.035 1.272.04 2.382.062.953.184 1.897.227 2.23l-.153-.01s-.063.027-.106.076c-.094-.409-.405-.67-.814-.67-.496 0-.865.4-.858.945 0 .094.012.18.036.265a.683.683 0 0 0-.244-.126"/>
        <path fill="#DCC763" d="M59.68 10.675c0-.375.31-.675.694-.675.382 0 .693.3.693.675 0 .37-.31.67-.693.67a.683.683 0 0 1-.694-.67m1.567.591c0 .37.311.67.694.67.383 0 .694-.3.694-.67 0-.37-.311-.67-.694-.67-.383 0-.694.3-.694.67m-3.085.362c0-.37.31-.67.698-.67.383 0 .694.3.694.67 0 .37-.31.67-.694.67a.684.684 0 0 1-.698-.67m-.856 1.631c0-.37.31-.67.699-.67.382 0 .693.3.693.67 0 .374-.31.675-.693.675a.684.684 0 0 1-.7-.675M57 15c0-.37.31-.674.694-.674.387 0 .698.304.698.674 0 .37-.311.67-.698.67A.682.682 0 0 1 57 15m.283 1.697a.69.69 0 0 1 .699-.674c.383 0 .694.304.694.674 0 .37-.311.67-.694.67-.383 0-.699-.3-.699-.67m.748 1.42c0 .373.31.674.699.674.382 0 .693-.3.693-.674 0-.371-.31-.671-.693-.671-.388 0-.699.3-.699.67m1.122 1.21c0-.37.31-.671.693-.671.384 0 .7.3.7.671a.69.69 0 0 1-.7.674.686.686 0 0 1-.693-.674m1.478 0c0 .37.31.674.693.674a.687.687 0 0 0 .699-.674c0-.37-.312-.671-.699-.671-.382 0-.693.3-.693.671m1.008-.91c0-.374.311-.674.699-.674.382 0 .693.3.693.675 0 .37-.31.67-.693.67a.684.684 0 0 1-.699-.67m.68-1.359c0-.374.316-.674.7-.674.382 0 .692.3.692.674 0 .37-.31.67-.693.67-.383 0-.699-.3-.699-.67m.289-1.505c0-.375.31-.674.693-.674.384 0 .699.3.699.674 0 .37-.315.67-.699.67a.683.683 0 0 1-.693-.67m-.09-1.484c0-.374.311-.675.698-.675.383 0 .694.3.694.675 0 .37-.311.67-.694.67a.684.684 0 0 1-.698-.67m-.352-1.488c0-.37.311-.67.699-.67.382 0 .693.3.693.67 0 .37-.31.674-.693.674a.687.687 0 0 1-.699-.674"/>
        <path fill="#DCC763" d="M59 15c0-1.66.894-3 2-3 1.106 0 2 1.34 2 3s-.894 3-2 3c-1.106 0-2-1.34-2-3M55.606 30.235s-.636-3.463-1.262-5.411c-.627-1.949-1.703-5.034-2.155-4.813-.454.221 0 4.665.417 6.65.418 1.986.871 4.339.871 4.339l2.129-.765zm10.79 0s.635-3.463 1.261-5.411c.624-1.949 1.703-5.034 2.157-4.813.448.221 0 4.665-.418 6.65-.419 1.986-.872 4.339-.872 4.339l-2.128-.765zM46.253 20.456c.183-.21.388-.266.606-.183-.488 4.548.71 10.764 3.587 18.646l-.484.908c-3.308-8.603-4.546-15.062-3.709-19.371m27.483-.066c-.04-.326-.606-.508-.732-.304.487 4.55-.467 11.125-3.342 19.007l.483.907c3.307-8.603 4.423-15.3 3.59-19.61"/>
        <path fill="#7E5838" d="M60.089 2h.292l.103 1.02.122-1.02h.392s-.325 2.081-.518 2.081S60.09 2 60.09 2m.842 8h-.258l-.19-1.306L60.347 10h-.32s.324-3.696.517-3.696c.194 0 .388 3.696.388 3.696M58 5.75v-.335l.885-.118-.885-.14v-.45s1.813.372 1.813.595c0 .222-1.813.448-1.813.448m5-1.006v.335l-.778.123.778.136v.45s-1.591-.373-1.591-.595c0-.223 1.591-.449 1.591-.449"/>
        <path fill="#DCC763" d="M48.043 19.743l3.477-.525c-.24 1.12.398 6.565 1.418 10.791 1.06 4.375 3.918 11.918 3.918 11.918s-1.038.73-1.29 1.381c-.257.651-.116 2.657-.116 2.657s-.922-1.656-.922-2.39c0-.739.504-1.692.504-2.212 0-.52-.21-.997-.504-.997-.3 0-1.167.027-1.333.377-.172.345-.398 1.105-.398 1.105l-.11.997s-.235-1.351-.235-1.87l.042-2.339c0-.218-.342-.563-.466-.563-.128 0-.568.087-.568.087s-2.345-6.232-3.101-11.512c-.53-3.68-.316-6.905-.316-6.905M64.362 41.97s.342.22.636.739c.295.516.637 1.342.637 2.033V46s.803-.739.888-1.473c.086-.738-.043-2.425-.17-2.814-.125-.393-.167-.739.17-.782.338-.044.718-.215 1.06.131.337.345.718 1.171.76 1.604.043.432.17.778.17.778s.398-1.884.227-2.666c-.17-.778-.269-1.622-.14-1.923.123-.306.38-.652.546-.652.17 0 .637.175.637.175s2.03-6.721 2.46-8.924c.791-4.06.757-9.847.757-9.847L69.996 19c.154 1.005-.175 4.768-1.354 9.92-.901 3.908-2.32 9.052-4.28 13.05"/>
        <path fill="#7E5838" d="M49.787 36.709c0-.383.161-.727.414-.957-.544-.097-.962-.612-.962-1.228 0-.332.123-.63.315-.855-.572-.077-1.009-.604-1.009-1.237 0-.28.083-.536.225-.745-.398-.195-.674-.629-.674-1.135 0-.361.142-.684.366-.914-.488-.084-.863-.545-.863-1.097 0-.272.087-.519.236-.714-.346-.178-.583-.561-.583-1.004 0-.319.123-.604.32-.807a1.147 1.147 0 0 1-.371-.855c0-.396.185-.74.469-.94-.34-.179-.568-.557-.568-.995 0-.323.126-.612.327-.812A1.145 1.145 0 0 1 47 21.51c0-.293.106-.562.284-.766a1.164 1.164 0 0 1-.182-.63c0-.615.461-1.113 1.033-1.113.572 0 1.033.498 1.033 1.114 0 .297-.106.565-.28.765.115.179.181.395.181.63 0 .323-.126.612-.326.816.256.204.425.531.425.901 0 .391-.186.736-.47.936.336.183.569.561.569.999 0 .315-.123.604-.32.804.225.208.371.514.371.858 0 .273-.09.52-.237.71.347.179.584.562.584 1.008 0 .298-.107.57-.284.77.58.068 1.033.595 1.033 1.241 0 .277-.087.536-.229.744.398.196.674.63.674 1.136 0 .327-.118.63-.311.854.568.077 1.009.6 1.009 1.238 0 .382-.161.726-.414.956.548.102.962.613.962 1.229 0 .302-.099.579-.264.79.642 0 1.159.562 1.159 1.25 0 .69-.517 1.251-1.159 1.251-.638 0-1.155-.561-1.155-1.25 0-.298.098-.574.26-.791-.638 0-1.16-.557-1.16-1.25"/>
        <path fill="#DCC763" d="M50 21.188c0 .313-.102.597-.263.812a1.092 1.092 0 0 0-.798-.366c-.272 0-.525.11-.725.29a1.359 1.359 0 0 1-.214-.736c0-.654.448-1.188 1.002-1.188.55 0 .998.534.998 1.188"/>
        <path fill="#DCC763" d="M48 22.1c0-.606.448-1.1 1.002-1.1.55 0 .998.494.998 1.1 0 .322-.121.611-.322.81a1.049 1.049 0 0 0-.559-.156c-.263 0-.501.091-.696.246a1.132 1.132 0 0 1-.423-.9"/>
        <path fill="#DCC763" d="M50 23.036c0 .399-.214.742-.525.914a1.197 1.197 0 0 0-.356-.056c-.175 0-.34.036-.486.106a1.036 1.036 0 0 1-.633-.964c0-.571.448-1.036 1.002-1.036.55 0 .998.465.998 1.036M50 25.07c0 .335-.14.632-.365.83a1.064 1.064 0 0 0-.477-.11c-.243 0-.472.08-.656.21a1.08 1.08 0 0 1-.502-.93c0-.589.448-1.07 1.002-1.07.55 0 .998.481.998 1.07"/>
        <path fill="#DCC763" d="M48 26.998a1 1 0 1 1 2 .004 1 1 0 0 1-2-.004"/>
        <path fill="#DCC763" d="M48 28.998a1 1 0 1 1 2 .005 1 1 0 0 1-2-.005"/>
        <path fill="#DCC763" d="M51 30.02c0 .275-.107.53-.282.713l-.22-.022c-.295 0-.568.11-.783.289a1.014 1.014 0 0 1-.715-.98c0-.565.446-1.02.998-1.02A1.01 1.01 0 0 1 51 30.02M50 31.998a1 1 0 1 1 2 .004 1 1 0 0 1-2-.004M50 34.998A1 1 0 1 1 50.997 36c-.548 0-.997-.45-.997-1.002M51 37.002a1 1 0 1 1 2-.005 1 1 0 0 1-2 .005M52 39.002a1 1 0 1 1 0 0"/>
        <path fill="#7E5838" d="M66.825 37.642c0 .287.097.557.257.77A1.307 1.307 0 0 0 66 39.695c0 .724.595 1.306 1.326 1.306.73 0 1.322-.582 1.322-1.306 0-.287-.096-.553-.257-.771a1.306 1.306 0 0 0 1.082-1.28c0-.502-.286-.935-.704-1.152.1.02.205.033.313.033a1.31 1.31 0 0 0 1.322-1.301c0-.536-.326-.994-.792-1.195l.183.013c.731 0 1.323-.587 1.323-1.307 0-.719-.592-1.301-1.323-1.301-.73 0-1.325.582-1.325 1.301 0 .536.326.994.795 1.195l-.183-.013c-.735 0-1.326.587-1.326 1.307 0 .496.287.933.704 1.151a1.316 1.316 0 0 0-1.635 1.268m2.47-7.357c0-.57.41-1.045.953-1.156a1.112 1.112 0 0 1-.46-.9c0-.543.395-.998.92-1.1a1.118 1.118 0 0 1 .183-1.996 1.114 1.114 0 0 1 .195-1.83 1.112 1.112 0 0 1-.143-1.704 1.105 1.105 0 0 1-.222-.667l.018-.198a1.127 1.127 0 0 1-.183-.612c0-.62.509-1.122 1.14-1.122.63 0 1.139.501 1.139 1.122l-.018.201c.118.176.183.386.183.609 0 .312-.126.59-.33.792.139.188.221.42.221.668 0 .42-.234.788-.582.98.287.206.474.536.474.913 0 .475-.3.878-.722 1.044.239.206.39.51.39.849 0 .544-.395.998-.916 1.1.317.197.535.548.535.951 0 .535-.379.981-.887 1.096.304.214.5.56.5.96 0 .65-.535 1.177-1.196 1.177a1.185 1.185 0 0 1-1.191-1.177"/>
        <path fill="#DCC763" d="M67 38.998A1 1 0 1 1 67.998 40 1 1 0 0 1 67 38.998M68 38.002a1 1 0 1 1 0 0M69 35A1 1 0 1 1 71 35 1 1 0 0 1 69 35M69 31.997a1 1 0 1 1 1.998.004A1 1 0 0 1 69 31.997M70 28.002a1 1 0 1 1 2-.005 1 1 0 0 1-2 .005"/>
        <path fill="#DCC763" d="M69 30c0-.55.446-1 1-1a1.001 1.001 0 1 1-1 1M70 26.002A1 1 0 1 1 72.001 26a1 1 0 0 1-2.001.002M71 24.002a1.001 1.001 0 1 1 0 0M73 22.054c0 .42-.229.777-.565.946a1.153 1.153 0 0 0-1.002-.082 1.064 1.064 0 0 1-.433-.864c0-.583.448-1.054 1.002-1.054.55 0 .998.47.998 1.054"/>
        <path fill="#DCC763" d="M71 21.222c0-.676.447-1.222 1.002-1.222.55 0 .998.546.998 1.222 0 .29-.083.564-.229.778-.218-.297-.535-.48-.886-.48-.282 0-.54.117-.744.32a1.446 1.446 0 0 1-.141-.618M72 19c.532 0 .96.31 1 .705a1.415 1.415 0 0 0-.844-.266c-.497 0-.926.233-1.107.561a.596.596 0 0 1-.049-.243c0-.418.444-.757 1-.757M63.03 53.002s-4.715-3.32-5.408-4.572c-.783-1.418-1.348-4.226-1.048-4.814.295-.589.346-.931 0-.931-.347 0-1.104.41-1.386 1.615-.193.812.098 2.053.394 2.737.299.686.444 1.367.444 1.367s-1.728-1.612-2.173-2.589c-.445-.977-.492-2.851-.295-3.194.877-1.514.445-1.518-.098-1.599 0 0-.66.267-.857.758-.2.486-.333 1.784-.234 2.225.098.44.098 1.074.098 1.074s-.963-1.578-1.061-2.458c-.099-.88.205-2.8.072-3.358-.08-.334-.445-.537-.74-.145-.295.39-.543 1.76-.496 2.344.051.588.3 2.102.941 3.08.642.981 1.926 2.398 1.926 2.398s-2.666-2.2-3.757-4.45c-1.086-2.246-2.306-4.315-3.204-4.864-1.207-.74-2.242-.83-2.494-.237 0 0 1.792.994 2.434 1.874.642.88 2.374 3.616 2.374 3.616-.016.22-.184.212-.504-.02 0 0-1.912-3.309-2.901-4.121-.603-.49-2.131-1.531-2.973-1.485-.839.051-1.314.25-.972.546.347.292 2.358 1.514 2.704 2.005.347.487 1.878 2.343 2.272 2.64l2.079 1.56s-.312.204-1.677-.672c-.41-.267-1.609-1.777-2.46-2.263-.47-.27-2.67-.487-2.473.393.201.88 1.318.736 1.96 1.028.646.292 2.229 1.222 2.229 1.222s-2.26-.084-2.575.343c-.71.964-.146 1.27-.146 1.27s.675-.542 1.416-.542c.74 0 4.368 1.032 4.368 1.032s-2.66-.364-3.106-.119c-.445.242-.817 1.012-.453 1.194.158.08.89-.491 1.63-.491.744 0 3.165.736 3.165.736s-1.467.245-1.814.588c-.346.338-.363.88-.363.88s1.501-.207 2.686-.207c1.186 0 4.484 1.133 5.374 1.67.89.538 6.511 3.617 6.511 3.617l.59-.68zm-2.914-2.614s2.254-1.587 2.666-2.602c.406-1.01.136-4.285.098-4.657-.035-.372-.081-.385.206-.44.602-.119 1.026.406 1.232 1.112.204.711.274 1.556.24 2.23-.036.677-.378 1.692-.378 1.692s1.707-1.726 1.844-2.399c.138-.676.446-2.195.308-2.601-.136-.406-.581-1.011-.41-1.113a.774.774 0 0 1 .92.17c.308.338.581 1.755.581 2.06 0 .3-.205 1.62-.205 1.62s.959-1.083 1.062-1.925c.102-.846.337-2.263.205-2.974-.137-.706-.48-1.383-.035-1.519.44-.134.852.575 1.057 1.452.206.88-.069 2.702-.308 3.21l-.817 1.79s1.535-2.298 2.083-3.376c.543-1.083 1.4-3.007 2.422-3.782 1.027-.778 1.197-1.083 1.672-1.083.48 0 1.164.27 1.164.27s-1.193.78-1.878 1.655c-.685.88-1.194 1.958-1.501 2.399l-1.267 1.789s1.164-1.084 1.775-1.993c.617-.914 1.404-2.364 2.153-2.838.753-.47 1.98-1.079 2.733-.977.75.101 1.262.473 1.262.473s-1.262.44-1.912 1.08c-.65.642-2.357 2.533-3.106 3.07-.753.542-1.947 1.722-1.947 1.722s1.125-.64 1.981-1.35c.852-.706 1.468-1.417 2.289-1.45.817-.034 2.49.541 2.49.541s-.954-.034-1.536.372c-.581.403-1.707 1.18-2.083 1.282-.377.102-1.023.503-1.023.503s1.194-.232 1.57-.063c.377.165.685 1.214.685 1.214s-1.746-.44-3.179.237c-1.433.673-5.6 2.225-5.6 2.225s3.277-1.112 3.824-1.248c.548-.135 2.119-.44 2.53-.034.41.406.375 1.083.375 1.083s-1.745-.541-2.63-.372c-.89.169-1.81.642-1.81.642s1.501-.1 1.74.103c.24.198.514 1.247.446 1.416-.069.17-.274-.101-1.267-.27-.988-.17-2.387-.541-3.722-.034-1.33.508-5.874 2.496-5.874 2.496l-1.125-.808zm13.216-8.338s.24 0 .376-.135l1.742-1.925c.239-.27 2.665-2.06 2.665-2.06s-2.255 1.214-2.803 1.823c-.548.605-1.98 2.297-1.98 2.297zm-3.107 3.342s2.29-1.15 2.901-1.654c.616-.508 1.707-1.184 2.358-1.523.65-.334 1.946-.57 1.946-.57s-2.083.705-3.209 1.585c-1.129.876-2.904 1.857-3.178 1.96-.274.1-.818.202-.818.202zm2.53-.643s1.33-.407 1.775-.407c.44 0 1.501.238 1.501.238s-.993-.508-1.536-.44c-.547.068-1.74.609-1.74.609zm-7.107 3.985s2.117-.643 2.802-.643c.68 0 3.107.575 3.107.575s-2.05-.846-3.107-.778c-1.06.068-2.802.846-2.802.846zm4.984-2.026s1.575-.339 1.98-.339c.412 0 1.404.237 1.404.237s-1.095-.44-1.501-.406c-.411.033-1.883.508-1.883.508zm-15.367 6.615l2.802-1.687 1.023.575L56.155 54l-.89-.677z"/>
        <path fill="#DCC763" d="M62.096 44.308l.035-.426c.018-.142.106-.78.106-.958l.017-1.006c0-.088-.017-.514-.07-.603-.053-.088-.176.036-.176.036l-.163 3.17.251-.213zm-2.16 1.343l-.123-.213a6.74 6.74 0 0 1 .563-.142c.185-.035.475.098.651.196l-.035.106c-.053.266-.335 1.325-.335 1.325s-.281.16-.37.018c-.087-.142-.14-.904-.351-1.29zM61.379 45c-.216-.085-.669-.253-.915-.253-.255 0-.74.155-.95.23l.154.23c.188-.048.545-.137.708-.123.175.013.624.102.822.141L61.38 45zm-1.039-9.346l.018.32h-.484l.04-.32h.426zm.616 0l.013.32h-.352l.01-.32h.33zm-.325-.16l.026-.407c.035-.143.176.035.264.176l.03.231h-.32zm-.695 0l.035-.284s.088-.159.176-.177c.088-.017.123.09.158.213l.027.248h-.396zm1.659 9.27c-.018.018-.005.062-.027.08-.255-.239-.858-.38-1.175-.38-.316 0-.805.176-1.051.274-.3-.4-.638-.767-.88-.803-.457-.07-.791.018-.897.107-.106.089-.194.226-.194.226l-.035-.315s.299-.497.352-.62c.053-.124.035-.444.176-.532.141-.089.422-.178.334-.457-.088-.284-.651-2.16-.651-2.443 0-.284.176-.46.335-.496.158-.036.298-.301.175-.497-.123-.195-.946-1.432-1.033-2.035-.088-.599.087-1.574.246-1.663.154-.088 1.016-.314 1.157-.438.141-.125.052-.142-.035-.62-.088-.48-.247-.852-.158-1.012.088-.16.052-.421.193-.284.141.147.58.586.686.604.102.017.294-.071.176-.231-.127-.16-.845-.67-.95-1.042-.105-.372-.247-1.733-.475-2.07-.23-.337-.611-.816-.594-1.064.013-.244.049-.475.154-.475s.351-.07.299-.177c-.052-.107-.229-.71-.123-.745.105-.036.844.248.933.178.087-.072-.018-.564-.089-.67-.07-.107-.457-.656-.404-.816.052-.16.58-.407.58-.55 0-.14-.369-.425-.457-.527-.088-.106-.475-1.1-.422-1.348.053-.243.123-.408.264-.385.14.017.387.155.457 0 .07-.16-.21-.692-.14-.958.07-.266.316-.55.316-.656 0-.106-.58-.474-.686-.759-.106-.283 0-.656.14-.656.142 0 .617.143.67.019.052-.125-.283-.604-.318-.812-.035-.212.018-.496.124-.532.105-.035.48.014.48.014.184.815.976 1.081 1.649.558.308.28.643.341.999.195 0 0 .017.696-.194 1.002-.211.31-.365.35-.365.35s.325-.794.268-.909a.344.344 0 0 0-.19-.155l-.135.018s.171.638-.132.758c-.308.115-.708-.155-.708-.155s-.177.27 0 .368c.17.093.69.155.69.155s-.004.385.286.27c.286-.12.669-.638.669-.638s0 .346.154.306c.154-.035.268-.519.211-.83-.057-.31-.211-.775-.211-.775l.268-.652s.387-.08.52-.061c.136.021.5-.058.5.27 0 .327-.25.891-.364 1.064-.114.172-.348.386-.212.443.132.058.423.058.458.173.04.12-.36.793-.36.913 0 .116.478-.022.478-.022s.093.408-.039.719c-.136.305-.462.714-.405.868.058.155.674.368.691.54.022.174-.172 1.026-.325 1.198-.155.177-.423.426-.423.638 0 .213.193.39.326.408.136.018.348-.08.233.133-.119.213-.69 1.184-.713 1.45-.017.275-.132.603.022.581.155-.017.88-.328.959-.155.075.177.058.815-.096 1.126-.155.305-.708 1.33-.708 1.662 0 .328-.085 1.046-.12 1.122-.04.075-.268.576-.268.576l-.44.639s-.017.27.132.213c.154-.058.365-.542.462-.599.097-.058.171.057.234.195.056.134-.155 1.024-.155 1.024l-.022.581s.137.093.347.075c.212-.017.726.173.766.39.04.209.26 1.046.207 1.295-.053.248-.91 1.432-.98 1.786-.07.35-.177.9-.018 1.007.153.106.492.16.506.337.017.177-.154 1.219-.23 1.467-.07.248-.4 1.237-.347 1.415.053.177.263.904.263 1.17 0 .266.032.497.032.497s-.392-.19-.85-.04l.097-2.776.07-.195c.089-.141.071-.266-.034-.266h-.282c-.176 0-.405.09-.405.09s.088-.054 0 .442a15.641 15.641 0 0 0-.14 1.325l-.053 1.189-.026.794zm-1.782-2.757s0 1.503.07 1.627c.07.124 1.056.053 1.175.053.123 0 .022-.142-.031-.23-.053-.089-.704-.018-.827-.036s-.176-.142-.194-.266c-.018-.124.44-.142.581-.142.141 0 .594.355.668.355.07 0 0-.917 0-1.13 0-.214-.017-.48-.157-.55-.142-.07-.898-.07-.916.018-.017.088.247.088.458.141.211.054.334.09.404.213.066.124.036.812-.035.882-.07.071-.598-.106-.721-.106s-.141-.137-.141-.266c0-.12.704-.106.634-.213-.071-.106-.529-.013-.652-.106-.123-.085-.017-.35-.123-.404-.106-.053-.193.16-.193.16zm-.63-19.32s.489.744.7.744c.212 0 .774-.39.774-.39s.282.39.77.39c.493 0 .915-.319.898-.55-.018-.23.017-.62-.053-.691-.07-.072-.211.603-.247.674-.034.07-.193.053-.193.053s.159-.301.123-.497c-.035-.194-.123-.319-.158-.248-.035.071-.194.78-.348.869-.158.089-.281-.018-.422-.089-.14-.07-.264 0-.194-.141.07-.142.194-.409.176-.55-.017-.143-.176.017-.263.177-.089.16-.388.55-.388.55s.159-.408.176-.568c.017-.16-.176-.23-.176-.23s-.229.78-.334.815c-.106.036-.335-.07-.37-.159l-.176-.355s-.224-.089-.277 0c-.053.09-.017.195-.017.195zm-.369 1.874c.07.143.4.391.559.391l.37-.018s-.036.568-.018.674c.017.107.158.652.28.723.124.07.247-.036.177-.284-.07-.249-.246-.515-.228-.776.017-.265.105-.532.211-.603.105-.07.492-.16.686-.16.193 0 .387.053.404.25l.085.934c.017.195-.036.62-.23.71-.19.088-.663.141-.84.177-.175.036-.158.195 0 .213.16.017 1.104.036 1.21-.106.106-.143.405-.71.387-.87-.018-.159-.123-.314-.158-.456-.036-.142-.141-.302-.053-.354l.493-.232s-.616.142-.616-.053c0-.195.14-.354-.176-.444-.313-.088-.541-.123-.682-.088-.14.035-.335.088-.51.178-.177.089-.352.337-.493.32a2.16 2.16 0 0 1-.594-.214c-.105-.07-.264.088-.264.088zm.106 7.023s.123-2.545.158-2.846c.035-.301.084-1.082.33-1.135.246-.053 2.3.017 2.424.089.123.07.44.372.44.496s.053.373-.07.301c-.124-.07-.282-.496-.581-.55-.296-.052-2.002-.212-2.072-.088-.07.124-.229 1.592-.229 1.929 0 .337-.088 1.645-.105 1.769-.014.124-.295.035-.295.035zm.98-2l.054-.669c.017-.195.228-.372.228-.372l.58-.054c.177-.017.529.019.578.142.052.125-.102.09-.207.143-.106.053-.493 0-.616 0-.124 0-.247.177-.317.3-.07.125.247.036.405.014.158-.013.545.076.65.146.102.067.12.28.102.546l-.137 1.365s-.07-.478-.07-.691c0-.213-.052-.78-.092-.905-.031-.124-.172-.106-.277-.124-.106-.018-.529.018-.634.058-.106.03-.052.19-.035.332.017.142.246.142.246.142s.334.018.51.089c.176.07.018.124-.07.16-.088.035-.387 0-.51-.018s-.123.124-.159.248a.338.338 0 0 0 .089.337c.087.089.316.036.528.036.21 0 .14.123.14.194 0 .071-.58 0-.74.014-.158.022-.017.27-.105.372-.087.106-.158-.19-.175-.315-.018-.128.034-1.49.034-1.49zm2.02-.651s-.088.971-.088 1.184c0 .213-.106 1.396-.123 1.467-.018.071-.088.355-.229.426-.14.07-.176.248-.176.248s.598-.124.528 0c-.07.124-.3.284-.383.32-.092.035.031.088-.369-.054-.405-.142-.529-.124-.722-.142l-.651-.053c-.264-.018-.317-.089-.405-.036-.087.054.07.177.16.23.087.054.667.161.843.161.176 0 .722-.053.805 0 .093.053.51.159.616.088.106-.07.405-.124.475-.302.07-.177.106-.354.106-.514 0-.16-.053-.425-.053-.638l.018-.846c0-.267.07-.727.105-.834l.158-.51c.036-.106.054-.266-.105-.266-.158 0-.264.337-.247.426.018.084-.07.882-.087.988a8.975 8.975 0 0 0-.053.816c0 .209-.123.634-.123.403l.035-.776c0-.16.053-.514.088-.762.035-.248.018-.372.018-.567v-.475c0-.141-.036-.177-.036-.177l-.105.195zm-2.772 5.466s.106-.195.172-.266l.334-.372c.07-.089.088-.319.07-.39a2.342 2.342 0 0 0-.228-.421c-.053-.071.229-.094.229-.094s.37.076.598.094l.775.03c.193 0 .17.125.193.272.013.137-.968.03-1.109 0-.14-.041-.176.03-.176.03s.053.354-.018.48c-.07.123-.545.744-.628.832-.093.089-.212-.195-.212-.195zm1.95-.851s.664.905.787 1.029c.123.123-.176.283-.264.244-.088-.031-.77-.953-.788-1.096-.017-.141.265-.177.265-.177zm-2.249 1.348s-.07.35-.07.492c0 .142.035 2.407 0 3.046-.036.634.088.598.14.67.054.07.229-.232.229-.232l.014-3.395c0-.125-.101-.497-.172-.581-.07-.089-.14 0-.14 0zm2.842.28s.035-.174.123-.125c.088.053.282.106.3.195.017.089-.07 1.1-.053 1.33.017.23.052 1.982.14 2.159.089.173-.07.58.036.652.105.071.21.213.21.213s-.14.16-.246.142c-.105-.018-1.473.052-1.737.052s-.933-.212-.933-.212-.035-.141.07-.141c.106 0 .564.176.88.176.317 0 .968.018 1.14-.07.176-.089.37-.267.37-.338 0-.07.122-.195 0-.23-.124-.036-.318.178-.423.213-.106.035-.682.088-1.104.088-.423 0-.933-.106-.968-.248-.035-.141-.07-.297.07-.297s.3.173.634.208c.334.036 1.14.018 1.228-.035.087-.053.158-.137.158-.372l.105-3.36zm-1.082.974h.36c.019.865.01 2.057.058 2.142.07.124.193-1.804.193-1.929l.049-1.17c0-.142-.295-.386-.295-.386s-.563-.16-.88-.124c-.316.035-.316.19-.422.368-.106.177.035 1.1.035 1.241l.07.196s.07-.16.07-.267l.52-.07.026.567s.124-.04.177-.124c.017-.031.03-.217.04-.444zm-1.724 7.271s0 .16.176.266c.171.106.171 0 .206-.089.035-.088-.083-.372-.083-.372l.07-1.45c0-.195-.07-.726-.07-.85 0-.125.07-.249.048-.333-.017-.094-.242-.076-.277.049-.035.124-.07 2.78-.07 2.78zm.804-2.815c0 .071.458.129.828.129.37 0 .985.084 1.122.013.14-.07.228-.23.14-.262-.088-.035-.44-.035-.629-.035l-1.32.035c-.14 0-.14.12-.14.12z"/>
        <path fill="#DCC763" d="M61.185 48.484c.01-.858-.49-1.561-1.123-1.578-.625-.012-1.147.67-1.155 1.529-.009.805.43 1.48 1.008 1.565.112-.209.306-.633.34-1.132.052-.707-.022-1.529-.022-1.529.246.119.38 1.084.302 1.484-.056.286-.25.866-.353 1.177.555-.09.994-.73 1.003-1.516m1.508-2.174c-.301.564-.75.96-1.163 1.087.18-.205.447-.568.641-1.096.324-.87.25-1.246.25-1.246s-.176.025-.15.164c.026.143-.323 1.131-.444 1.364-.095.18-.448.618-.612.818-.15-.31-.379-.548-.645-.65-.056-.376.039-.858.288-1.324.448-.834 1.223-1.312 1.727-1.067.508.246.556 1.116.108 1.95m-3.334.56l-.155.119c-.056-.303-.168-.888-.236-1.108-.1-.307-.673-.968-.7-.875-.024.094.204.33.424.895.168.421.223 1.116.241 1.443l-.056.122c-.612.2-1.362-.421-1.702-1.369-.349-.952-.159-1.876.414-2.063.573-.188 1.322.432 1.667 1.38.193.536.22 1.063.103 1.455m2.123 1.95s.15-.458.431-.715c.276-.258.672-.666.646-.454-.021.209-.318.63-.512.822-.198.192-.565.347-.565.347m-.025-.94s.719-.262.994-.568c.272-.303.522-.965.444-.989-.073-.02-.37.613-.521.78-.147.164-.917.777-.917.777M41 54.202V58s8.611-1.46 18.304-1.343c9.694.117 20.369 1.153 20.369 1.153s.038-1.536.038-1.919c0-.387.289-1.854.289-1.854s-17.904-1.076-20.45-1.036C57.008 53.037 41 54.202 41 54.202"/>
        <path fill="#7E5838" d="M78.653 57.167c.34 0 .637.23.805.568a.848.848 0 0 1 .603-.279c.517 0 .939.536.939 1.196 0 .655-.422 1.19-.94 1.19-.34 0-.636-.23-.805-.568a.828.828 0 0 1-.602.273c-.354 0-.664-.251-.823-.623-.173.252-.427.41-.71.41-.389 0-.725-.295-.867-.72-.163.349-.465.59-.814.59-.392 0-.728-.307-.87-.738-.168.3-.448.497-.767.497-.366 0-.68-.262-.836-.65-.172.312-.456.52-.78.52-.327 0-.616-.213-.784-.542-.172.269-.435.432-.723.432-.332 0-.62-.213-.789-.534-.172.261-.43.43-.723.43-.34 0-.637-.229-.801-.572-.173.267-.435.442-.728.442-.358 0-.664-.252-.828-.617-.167.305-.451.507-.77.507-.41 0-.759-.332-.888-.796-.12.48-.474.823-.896.823-.516 0-.939-.534-.939-1.19 0-.66.423-1.194.939-1.194.414 0 .763.338.891.802.122-.48.474-.824.892-.824.358 0 .664.245.828.611.168-.306.452-.508.77-.508.337 0 .638.23.802.573.172-.267.435-.442.728-.442.327 0 .62.219.788.54.172-.262.43-.43.724-.43.327 0 .616.212.784.535.172-.262.435-.426.724-.426.366 0 .685.262.84.649.168-.312.452-.519.775-.519.397 0 .732.306.87.738.173-.301.452-.497.767-.497.388 0 .724.295.866.72.163-.35.465-.59.814-.59.357 0 .668.252.827.623.172-.251.426-.41.707-.41zm-16.327-1.145c.522 0 .943.534.943 1.194 0 .656-.421 1.19-.943 1.19-.443 0-.814-.392-.913-.916-.099.524-.47.916-.914.916-.52 0-.943-.534-.943-1.19 0-.66.423-1.194.943-1.194.445 0 .815.392.914.917.099-.525.47-.917.913-.917zm-3.74 0c.523 0 .945.534.945 1.194 0 .656-.422 1.19-.944 1.19-.447 0-.827-.404-.917-.939-.073.563-.461.994-.926.994-.383 0-.716-.29-.862-.709-.155.387-.47.654-.84.654-.362 0-.676-.262-.831-.638-.155.393-.474.665-.845.665-.31 0-.582-.185-.753-.48-.16.366-.47.612-.82.612-.31 0-.58-.186-.753-.476-.163.367-.47.612-.822.612-.31 0-.586-.19-.76-.49-.153.386-.468.649-.835.649-.331 0-.624-.224-.792-.557-.146.42-.479.714-.861.714-.276 0-.522-.146-.694-.386-.155.386-.474.654-.84.654-.284 0-.543-.164-.715-.414-.146.414-.473.704-.857.704a.85.85 0 0 1-.65-.328c-.165.338-.466.567-.802.567-.267 0-.509-.142-.676-.36-.168.328-.461.546-.792.546-.522 0-.944-.535-.944-1.19 0-.66.422-1.19.944-1.19.262 0 .503.137.675.36.164-.327.457-.545.793-.545.25 0 .478.125.651.327.163-.344.46-.567.801-.567.284 0 .538.158.71.415.147-.415.479-.71.862-.71.276 0 .521.148.693.388.156-.388.47-.655.84-.655.332 0 .625.223.794.556.146-.42.477-.715.86-.715.315 0 .587.191.759.486.155-.382.474-.644.836-.644.31 0 .581.186.753.474.16-.359.47-.604.823-.604.306 0 .577.185.75.474.164-.366.47-.611.822-.611.362 0 .677.262.832.644.155-.399.474-.671.844-.671.384 0 .715.294.862.71.155-.389.474-.656.84-.656.452 0 .826.404.917.939.078-.562.46-.993.926-.993zm-.938 1.194l.022.251.013-.201-.022-.251-.013.201z"/>
        <path fill="#DCC763" d="M40 59.236c0-.421.301-.769.677-.769.371 0 .673.348.673.769 0 .422-.302.764-.673.764-.376 0-.677-.342-.677-.764m1.49-.168c0-.422.3-.769.676-.769.371 0 .672.347.672.769 0 .421-.3.763-.672.763-.376 0-.677-.342-.677-.763m1.471-.219c0-.42.306-.763.677-.763.372 0 .673.343.673.763 0 .427-.301.77-.673.77-.371 0-.677-.343-.677-.77m1.594-.262c0-.427.306-.769.677-.769.371 0 .672.342.672.77 0 .42-.3.763-.672.763-.371 0-.677-.343-.677-.764m1.554-.243c0-.421.302-.77.673-.77.376 0 .677.349.677.77 0 .421-.301.764-.677.764-.371 0-.673-.343-.673-.764m1.681-.145c0-.426.302-.768.673-.768.372 0 .676.342.676.768 0 .422-.304.764-.676.764-.371 0-.673-.342-.673-.764m1.617-.148c0-.421.3-.764.672-.764.375 0 .677.343.677.764 0 .427-.302.77-.677.77-.371 0-.672-.343-.672-.77m1.593-.12c0-.42.301-.762.677-.762.371 0 .672.341.672.763 0 .421-.3.768-.672.768-.376 0-.677-.347-.677-.768m1.594-.12c0-.426.301-.768.676-.768.37 0 .672.342.672.769 0 .421-.301.763-.672.763-.375 0-.676-.342-.676-.763m1.702-.025c0-.427.302-.768.673-.768.375 0 .677.341.677.768 0 .422-.302.764-.677.764-.371 0-.673-.342-.673-.764m1.721.05c0-.427.306-.769.677-.769.371 0 .672.342.672.769 0 .421-.301.763-.672.763-.371 0-.677-.342-.677-.763m1.873-.05c0-.427.302-.768.673-.768.375 0 .676.341.676.768 0 .422-.301.764-.676.764-.371 0-.673-.342-.673-.764m1.935 0c0-.427.301-.768.676-.768.372 0 .673.341.673.768 0 .422-.301.764-.673.764-.375 0-.676-.342-.676-.764m1.855 0c0-.427.302-.768.673-.768.375 0 .676.341.676.768 0 .422-.301.764-.676.764-.371 0-.673-.342-.673-.764m1.956 0c0-.427.301-.768.672-.768.376 0 .678.341.678.768 0 .422-.302.764-.678.764-.37 0-.672-.342-.672-.764m1.808-.025c0-.421.301-.763.672-.763.372 0 .677.342.677.763 0 .422-.305.764-.677.764-.37 0-.672-.342-.672-.764m1.616.095c0-.422.3-.764.672-.764.375 0 .677.342.677.764 0 .426-.302.768-.677.768-.371 0-.672-.342-.672-.768m1.554.124c0-.422.3-.77.672-.77.371 0 .673.348.673.77 0 .421-.302.763-.673.763-.371 0-.672-.342-.672-.763m1.529.094c0-.422.3-.764.676-.764.371 0 .673.342.673.764 0 .421-.302.769-.673.769-.376 0-.676-.348-.676-.77m1.532.1c0-.421.3-.769.672-.769.376 0 .677.348.677.769 0 .421-.301.763-.677.763-.371 0-.672-.342-.672-.763m1.637.12c0-.422.302-.764.672-.764.376 0 .677.342.677.763 0 .422-.301.764-.677.764-.37 0-.672-.342-.672-.764m1.66.218c0-.421.3-.764.672-.764.371 0 .677.343.677.764 0 .422-.306.764-.677.764-.371 0-.673-.342-.673-.764m1.699.12c0-.422.301-.765.676-.765.372 0 .673.343.673.764 0 .422-.301.769-.673.769-.375 0-.676-.347-.676-.769m1.558.194c0-.422.302-.764.673-.764.376 0 .677.342.677.764 0 .421-.301.768-.677.768-.371 0-.673-.347-.673-.768m1.424.267c0-.42.301-.768.677-.768.37 0 .672.347.672.768 0 .422-.301.764-.672.764-.376 0-.677-.342-.677-.764"/>
        <path fill="#7E5838" d="M40.939 53.18c.263 0 .5.105.672.276a.952.952 0 0 1 .797-.425c.271 0 .513.108.686.287a.946.946 0 0 1 .81-.446c.275 0 .525.117.697.3a.96.96 0 0 1 1.525-.188.944.944 0 0 1 .84-.496c.332 0 .63.168.793.421a.946.946 0 0 1 .86-.546c.316 0 .591.15.76.376a.949.949 0 0 1 .84-.497c.306 0 .582.146.75.367a.949.949 0 0 1 .822-.467c.306 0 .581.142.75.362a.955.955 0 0 1 .822-.462c.362 0 .677.196.832.488a.955.955 0 0 1 .848-.51.94.94 0 0 1 .858.539.946.946 0 0 1 .84-.5.93.93 0 0 1 .917.717.937.937 0 0 1 .931-.755c.517 0 .94.405.94.909 0 .506-.423.91-.94.91a.936.936 0 0 1-.922-.714.929.929 0 0 1-.926.756.93.93 0 0 1-.857-.543c-.16.3-.474.501-.84.501a.948.948 0 0 1-.836-.488.941.941 0 0 1-.845.509.956.956 0 0 1-.754-.363.936.936 0 0 1-.818.467.952.952 0 0 1-.754-.367.937.937 0 0 1-.818.467.94.94 0 0 1-.759-.371.954.954 0 0 1-.84.492.945.945 0 0 1-.792-.425.946.946 0 0 1-.862.546.956.956 0 0 1-.694-.292.951.951 0 0 1-.84.497.958.958 0 0 1-.698-.3.942.942 0 0 1-.83.48.933.933 0 0 1-.686-.289.952.952 0 0 1-.81.446.95.95 0 0 1-.672-.27.95.95 0 0 1-.797.421.922.922 0 0 1-.939-.91c0-.5.418-.91.939-.91zm16.741-.208l-.022-.196-.012.154.021.196.013-.154zm2.817-.951c.445 0 .82.296.914.701.1-.405.47-.701.918-.701.517 0 .938.405.938.909 0 .506-.421.91-.938.91a.934.934 0 0 1-.918-.7.928.928 0 0 1-.914.7.921.921 0 0 1-.938-.91c0-.504.417-.91.938-.91zm3.762 0c.409 0 .758.255.887.61a.936.936 0 0 1 .896-.631.94.94 0 0 1 .823.471.943.943 0 0 1 .771-.391c.34 0 .638.175.801.438a.947.947 0 0 1 .729-.334c.332 0 .62.162.788.408a.954.954 0 0 1 1.508.084.941.941 0 0 1 .724-.33c.366 0 .684.2.84.496a.96.96 0 0 1 1.65.172.934.934 0 0 1 .762-.384c.392 0 .724.225.866.555a.945.945 0 0 1 .814-.455c.358 0 .669.192.828.476a.948.948 0 0 1 .71-.313.95.95 0 0 1 .801.434.973.973 0 0 1 .604-.209c.517 0 .939.405.939.91s-.422.909-.94.909a.95.95 0 0 1-.805-.434.948.948 0 0 1-1.426-.267.94.94 0 0 1-.71.318.943.943 0 0 1-.866-.555.946.946 0 0 1-.815.45.946.946 0 0 1-.87-.563.948.948 0 0 1-.767.383.945.945 0 0 1-.836-.5.939.939 0 0 1-.78.396.949.949 0 0 1-.784-.408.956.956 0 0 1-.723.33.948.948 0 0 1-.789-.414.952.952 0 0 1-.723.33.946.946 0 0 1-.801-.434.965.965 0 0 1-.729.334.941.941 0 0 1-.822-.472.956.956 0 0 1-.772.388.933.933 0 0 1-.887-.61.94.94 0 0 1-.896.631c-.521 0-.944-.404-.944-.91 0-.504.423-.91.944-.91z"/>
        <path fill="#DCC763" d="M40 54.22c0-.437.301-.786.677-.786.371 0 .673.35.673.786 0 .43-.302.78-.673.78-.376 0-.677-.35-.677-.78m1.49-.188c0-.43.3-.781.676-.781.371 0 .672.35.672.781 0 .436-.3.786-.672.786-.376 0-.677-.35-.677-.786m1.515-.188c0-.435.301-.785.672-.785.376 0 .677.35.677.785 0 .431-.301.78-.677.78-.37 0-.672-.349-.672-.78m1.55-.222c0-.431.306-.781.677-.781.371 0 .672.35.672.78 0 .431-.3.78-.672.78-.371 0-.677-.349-.677-.78m1.554-.248c0-.43.302-.78.673-.78.376 0 .677.35.677.78 0 .436-.301.786-.677.786-.371 0-.673-.35-.673-.786m1.681-.147c0-.432.302-.781.673-.781.372 0 .676.35.676.781 0 .43-.304.786-.676.786-.371 0-.673-.355-.673-.786m1.617-.147c0-.43.3-.785.672-.785.375 0 .677.354.677.785 0 .431-.302.78-.677.78-.371 0-.672-.349-.672-.78m1.593-.122c0-.436.301-.785.677-.785.371 0 .672.35.672.785 0 .432-.3.781-.672.781-.376 0-.677-.35-.677-.781m1.594-.126c0-.43.301-.78.676-.78.37 0 .672.35.672.78 0 .436-.301.786-.672.786-.375 0-.676-.35-.676-.786m1.702-.025c0-.431.302-.781.673-.781.375 0 .677.35.677.78 0 .436-.302.786-.677.786-.371 0-.673-.35-.673-.785m1.721.05c0-.43.306-.78.677-.78.371 0 .672.35.672.78 0 .431-.301.78-.672.78-.371 0-.677-.349-.677-.78m1.873-.05c0-.431.302-.781.673-.781.375 0 .676.35.676.78 0 .436-.301.786-.676.786-.371 0-.673-.35-.673-.785m1.935 0c0-.431.301-.781.676-.781.372 0 .673.35.673.78 0 .436-.301.786-.673.786-.375 0-.676-.35-.676-.785m1.855 0c0-.431.302-.781.673-.781.375 0 .676.35.676.78 0 .436-.301.786-.676.786-.371 0-.673-.35-.673-.785m1.956 0c0-.431.301-.781.672-.781.376 0 .678.35.678.78 0 .436-.302.786-.678.786-.37 0-.672-.35-.672-.785m1.808-.026c0-.43.301-.78.672-.78.372 0 .677.35.677.78 0 .436-.305.786-.677.786-.37 0-.672-.35-.672-.786m1.616.1c0-.43.3-.785.672-.785.375 0 .677.355.677.786 0 .431-.302.78-.677.78-.371 0-.672-.349-.672-.78m1.554.122c0-.43.3-.78.672-.78.371 0 .673.35.673.78 0 .435-.302.786-.673.786-.371 0-.672-.351-.672-.786m1.529.102c0-.437.3-.781.676-.781.371 0 .673.344.673.78 0 .431-.302.781-.673.781-.376 0-.676-.35-.676-.78m1.532.095c0-.43.3-.78.672-.78.376 0 .677.35.677.78 0 .437-.301.786-.677.786-.371 0-.672-.35-.672-.786m1.637.123c0-.431.302-.781.672-.781.376 0 .677.35.677.78 0 .437-.301.786-.677.786-.37 0-.672-.35-.672-.785m1.66.227c0-.435.3-.785.672-.785.371 0 .677.35.677.785 0 .431-.306.781-.677.781-.371 0-.673-.35-.673-.781m1.699.122c0-.436.301-.786.676-.786.372 0 .673.35.673.786 0 .43-.301.78-.673.78-.375 0-.676-.35-.676-.78m1.558.198c0-.436.302-.786.673-.786.376 0 .677.35.677.786 0 .43-.301.78-.677.78-.371 0-.673-.35-.673-.78m1.424.268c0-.43.301-.78.677-.78.37 0 .672.35.672.78 0 .436-.301.786-.672.786-.376 0-.677-.35-.677-.786"/>
        <path fill="#7E5838" d="M67 30.133s-1.096-.545-1.927-.77c-.83-.226-1.629-.363-1.629-.363s-.958 1.032-.992 1.576c-.032.549-.2 1.355-.2 1.355s.462.447.296.834c-.162.387-.128.806-.128.806s.925.384.992.61c.067.224.498 1.321.233 1.865-.267.548-.897 1.609-.897 1.609s.531.29.497.612c-.032.323-.66 2.512-.66 2.512l.727.157s1.89-4.535 2.289-5.789C65.999 33.893 67 30.133 67 30.133m-14-.101s1.163-.516 1.993-.742c.827-.225 1.59-.225 1.59-.225s.96 1.031.994 1.58c.033.544.199 1.35.199 1.35s-.465.448-.3.835c.168.387.134.806.134.806s-.926.387-.993.608c-.066.226-.498 1.323-.233 1.866.267.549.894 1.61.894 1.61s-.528.289-.494.611c.028.323.66 2.512.66 2.512l-.727.157c-1.69-4.16-2.928-7.816-3.717-10.968M58.267 54.55l-.022 1.16s-.056.377.565.394c.616.02 3.794.037 3.794.037s.336-.107.336-.577c0-.469.035-1.237-.056-1.346-.095-.108-.34-.215-.694-.199-.358.021-3.38.021-3.38.021s3.397.133 3.622.207c.228.07.262.594.245.848-.017.253-.056.723-.28.739-.224.017-3.63-.012-3.776-.054-.242-.075-.354-1.23-.354-1.23m-5.696.188l.044 1.155s-.035.381.582.369c.621-.017 3.79-.158 3.79-.158s.331-.125.305-.594c-.026-.47-.03-1.233-.129-1.337-.1-.104-.35-.2-.703-.166-.353.037-3.375.19-3.375.19s3.402-.037 3.63.026c.228.058.297.577.293.834-.008.25-.017.723-.242.752-.223.03-3.625.17-3.772.138-.246-.063-.423-1.21-.423-1.21m-5.29.304l.056 1.063s-.025.353.51.328c.534-.025 3.28-.212 3.28-.212s.285-.12.254-.552c-.025-.432-.038-1.138-.129-1.233-.086-.096-.302-.18-.608-.137-.306.037-2.923.236-2.923.236s2.945-.1 3.148-.045c.198.05.258.531.258.763 0 .233-.005.669-.198.698-.194.033-3.139.225-3.264.195-.215-.05-.384-1.104-.384-1.104M42 55.643l.13 1.059s0 .353.53.29c.534-.058 3.259-.43 3.259-.43s.275-.142.215-.57c-.06-.428-.125-1.134-.22-1.221-.09-.088-.314-.154-.616-.095-.306.062-2.897.43-2.897.43s2.931-.294 3.134-.256c.198.037.298.514.316.747.016.232.042.665-.148.71-.193.042-3.117.436-3.246.412-.215-.034-.457-1.076-.457-1.076m21.97-1.084l-.038 1.155s-.064.378.556.406c.617.03 3.79.1 3.79.1s.34-.104.35-.573c.008-.465.06-1.233-.035-1.341-.091-.113-.332-.224-.69-.212-.354.012-3.38-.038-3.38-.038s3.397.191 3.621.266c.224.075.25.602.229.851-.026.254-.07.723-.293.736-.23.016-3.63-.07-3.777-.117-.237-.074-.332-1.233-.332-1.233m5.807.208l-.103 1.062s-.077.346.457.396c.534.045 3.28.228 3.28.228s.298-.083.332-.516c.035-.431.126-1.132.052-1.237-.073-.104-.276-.216-.586-.216-.306-.004-2.923-.162-2.923-.162s2.932.304 3.117.382c.19.075.186.56.151.79-.035.232-.103.66-.297.664-.198.004-3.143-.195-3.264-.241-.203-.083-.216-1.15-.216-1.15m5.179.36l-.122 1.06s-.081.345.449.403c.534.058 3.277.283 3.277.283s.297-.075.34-.508c.044-.432.147-1.13.073-1.237-.068-.104-.271-.22-.577-.228-.31-.004-2.924-.208-2.924-.208s2.924.349 3.114.431c.185.084.172.566.133.794-.043.233-.116.66-.31.66-.199.004-3.14-.249-3.26-.298-.202-.084-.193-1.151-.193-1.151"/>
        <path fill="#DCC763" d="M41.21 46.461s-2.492-1.905-2.699-2.541c-.206-.633-.727-2.081-.413-1.905.31.175 1.038.812 1.52 1.623.486.813 1.94 2.718 1.94 2.718s-.418-1.87-.383-2.472c.035-.597.172-1.444.417-1.374.241.07.723 1.269.693 1.695-.038.421-.245 1.795.03 2.292.28.496 1.502 1.589 1.502 1.589s-.55-1.093-.55-1.52c0-.42 0-.812.31-.566.31.25.899 1.238 1.036 1.624.138.391.727 1.414 1.14 1.66.418.246 1.283.527 1.283.527s-1.037-.597-1.175-1.129c-.138-.526-.348-1.128-.07-1.233.276-.105.832.426 1.004.812.172.386.516 1.198.934 1.483.413.281 1.07.703 1.209.668.137-.035-.172-.28-.38-.562-.205-.285-.348-.987-.033-.953.31.036.693.883.968 1.094.276.21 1.868 1.058 1.868 1.058s-.66-.743-.762-1.128c-.103-.391-.207-.602.138-.602.348 0 1.144 1.268 1.316 1.343.173.066.24-.567.24-.882 0-.32.277-.11.729.21.447.316.76.387.864.703.103.32.969.917.969.917s-.486-.772-.486-1.023c0-.245-.07-.666.21-.492.276.177.758.528.826.673.074.14.659.632.659.632s-.482-.672-.379-.672c.103 0 .693.18.831.426.137.246.796.706.796.706l-.66.317-.898.105-1.248.106c-.31.034 1.144-.528 1.144-.528s-1.071.141-1.35.211c-.276.07-.762.422-.935.422-.172 0-1.037.25-1.243.18-.21-.07-.172-.742.31-.847.486-.106 1.454-.426 1.454-.426s-1.385-.036-1.975.32c-.585.351-.968.738-1.312.773-.344.035-1.489.25-1.627.355-.137.106-.658.281-.447 0 .207-.281 1.381-1.097 1.764-1.163.379-.075.796-.32.796-.32s-.796-.035-1.282.21c-.482.25-1.45 1.058-1.971 1.133-.52.07-.796-.32-.555-.707.24-.39 1.833-.917 1.833-.917s-1.106-.316-1.937-.105c-.83.21-1.66.881-2.384 1.058-.727.174-1.385-.247-1.178-.637.206-.387.52-1.058 1.036-1.269.521-.21.969-.351.969-.351s-.654-.215-1.175.105c-.516.316-1.016.918-1.743.843-.727-.066-1.351-.246-1.626-.703-.275-.46.378-.777 1.002-.811.624-.036 2.264-.07 2.264-.07s-.125-.321-1.175-.497c-1.054-.175-2.194-.246-2.573-.491-.383-.246-1.282-.918-1.317-1.238-.034-.317-.24-.633.138-.562.383.07 1.799.105 1.799.105zm28.563 4.518s.689-.141.895-.282c.207-.14.134-.527-.103-.28-.241.245-.792.562-.792.562zm-1.923.28s.86-.386 1.028-.562c.173-.175.448-.631.448-.631s-.241.104-.517.42c-.27.317-.96.773-.96.773zm4.088-.597s1.441.14 1.889.14c.447 0 2.06.874 2.06.874s-.963-.663-1.579-.943c-.619-.282-1.682-.246-1.682-.246s.718-.633.856-.984c.138-.346.173-1.33.173-1.33s-.207.843-.448 1.33c-.236.492-1.27 1.16-1.27 1.16zm2.405-.983l1.407.105s.31.246 1.029.386c.723.141 1.992.035 1.992.035l-1.063-.14c-.55-.07-1.132-.176-1.545-.386-.413-.206-1.82 0-1.82 0zm.517-.593s1.166-.738 1.2-1.088c.034-.351-.207-1.014-.207-.804 0 .206-.068.733-.206.98-.138.245-.787.912-.787.912zm1.613-.878s1.407-.28 1.854-.456c.444-.172 1.82-.558 1.82-.558s-1.341.175-1.785.281c-.448.105-1.889.733-1.889.733zm2.608-1.997s1.51-1.716 1.717-2.033c.206-.316.723-1.47.723-1.47s-.69.913-.896 1.295c-.202.386-1.544 2.208-1.544 2.208zm-.754-3.012s-.103 1.752-.206 2.244c-.103.487-.585 1.993-.585 1.993s.791-1.577.86-2.028c.07-.457-.069-2.209-.069-2.209zM62.062 51.79l1.105-.706c.453-.281 1.18-.422 1.18-.422l-.417.702s.933-.847 1.247-1.058c.31-.21.586-.21.586-.21l-.206 1.058s.59-.777.898-.918c.314-.14 1.106-.315 1.106-.315l-.585 1.233s.865-.882 1.244-1.059c.378-.174 1.489-.495 1.523-.284.034.214-.486.992-.692 1.132-.207.14-.482.281-.482.281s.898-.386 1.346-.918c.452-.526.796-.601 1.037-.526.241.07-.138.807-.138.807s.556 0 1.107-.421c.555-.422 1.11-1.343 1.247-1.765.138-.422.517-1.057.796-.952.276.105.448.671.31 1.023-.137.35-.59 1.198-.59 1.198s1.214-.807 1.386-1.198c.172-.386.448-1.554.762-1.87.31-.317.727-.562.796-.246.069.316-.177 1.589-.177 1.589s1.003-.707 1.076-1.308c.07-.597.035-2.607.241-3.139.207-.531.396-1.163.706-1.058.31.105.59 1.268.517 1.765-.069.491-.654 2.467-.654 2.467s1.66-2.08 1.936-2.683c.275-.597 1.072-2.431 1.592-1.87.516.567-.59 2.542-.973 2.998-.379.462-2.28 1.91-2.28 1.91s1.936-.53 2.005-.285c.069.25-1.093 1.554-2.28 1.659-1.193.106-2.716.532-2.716.532s1.162.35 1.975.526c.81.176 1.395.496 1.395.707 0 .21-1.43.988-2.466.602-1.041-.391-2.874-.602-2.874-.602s1.798.421 2.073.672c.28.246.973.738.452 1.022-.516.281-2.422-.425-3.146-.566-.727-.14-2.147-.176-2.147-.176s.934.387 1.283.672c.344.281.344.988-.034.918-.384-.075-2.492-1.098-2.806-1.132-.31-.036.865.46 1.041.601.172.14-.103.53-.9.39-.795-.145-2.56-1.203-2.56-1.203s1.554 1.058 1.278 1.058c-.275 0-1.523 0-1.661-.14-.137-.14-1.278-.742-1.278-.742s1.037.742.796.742h-1.144l-1.209-.531.796.566s-.83-.035-1.106.07c-.28.106-.486.285-.486.285l-.83-.882z"/>
        <path fill="#DCC763" d="M74.883 21l3.207 1.358.116.733-2.928-1.355-.395-.736zm-.74 1.525l-.055 2.151 1.646 1.132-1.59-3.283zm-.283 4.076l-.112 1.075.567 1.754 2.838 1.186-.963-2.884-2.33-1.131zm-.623 4.242l-.568 1.869 1.535.904-.967-2.773zm-.907 3.339l2.097.904.229 1.586-1.475.706-1.19-.535-.13-.883.469-1.778zm-1.135 3.085l-.344.904 1.14.51.506-.677-1.302-.737zm-.628 1.642l-.283.848.91.394.34-.793-.967-.45zM70 40.15l.967.454-.511.566L70 40.15zm4.711-9.08l3.065 1.47.713 3.394-2.983-1.582-.795-3.283zm3.065-2.602c.06.227.997 3 .997 3l2.949 2.036-.851-3.283-3.095-1.753zm-1.475-4.98l3.323 1.641 1.019 3.168-3.262-1.809-1.08-3zm3.718-.282l.684 1.075 2.437 1.36-1.018-1.42-2.103-1.015zm1.763 3.45l2.609 1.98.512 2.545-2.67-1.864-.451-2.661zm4.027 3.055l.456 2.717s.735 1.187.735.96c0-.227-.111-2.203-.167-2.43-.06-.227-1.024-1.247-1.024-1.247zM84.563 26.6l.452 1.075s.906.51.626.167l-1.078-1.242zM82.8 31.692c.173.282.629 2.888.629 2.888l2.212 2.632-.455-3.652-2.386-1.868zm-3.236 2.323l.344 2.995 2.442 1.899-.289-3.198-2.497-1.696zm4.148 3.252c.056.228.28 2.717.28 2.717l.854 1.414.735-1.923-1.87-2.208zm2.553-2.687l.624.96-.456 1.838-.168-2.798zm-5.962 4.95l2.158 1.585L82.69 44l-.567-.339c.327-1.17-.108-2.648-1.16-1.513l-.603-.3-.056-2.318zm-1.53-.793l.224 2.152-1.79-1.02c.732-.733 1.252-1.11 1.566-1.132zM44.198 23.007l-1.375 2.955-3.397 1.504 1.349-3.4 3.423-1.06zm-8.284 4.125l2.985-1.782-1.17 3.4-3.106 2.175 1.29-3.793zm-2.271 2.04s-.453 1.448-.528 1.837c-.045.402-.115 1.115-.115 1.115l.878-.722.935-3.01-1.17.78zm3.393-4.223l-.116.502s2.808-1.284 2.927-1.507c.116-.22.466-1.001.466-1.001l-3.277 2.006zm4.497-2.61l-.115.557 3.6-1.452.413-.444-3.898 1.339zm4.542.28l.058 2.004-1.35.613 1.292-2.618zm-2.17 4.125l-1.259 3.344 3.194-1.393.47-2.23-.12-.448-2.284.727zm-5.064 2.842l-1.29 3.344.177.334s2.927-1.558 2.927-1.727c0-.169 1.113-3.514 1.113-3.514l-2.927 1.563zm-4.218 3.29l2.342-1.732-.643 3.125-2.342 2.648.643-4.042zm-.408 6.216l1.287 2.268.354-.427.058-3.792-1.699 1.951zm3.22-3.598l-.293 3.543 2.754-2.314.586-3.404-3.047 2.175zm4.684-3.454l3.02-1.673-1.056 3.4-2.608 1.504.644-3.231zm4.776-2.4l.408 1.783s-1.521 1.005-1.463.841l1.055-2.623zm-1.29 4.182l2.106-1.056.648 2.449-2.342 1.508-.878-.392.465-2.51zm-3.602 2.623c.178 0 1.202.164 1.202.164l.586-1.449-1.788 1.285zm-2.52 2.538l-.057 3.175c-.363-.41-.856-.705-1.463-.89-.27-.03-.409.08-.413.333 0 0 0 .671.057 1.06l.178 1.005-.7.334v-3.067l2.399-1.95zm1.407-.895l.115 2.9 1.818-1.896-1.582-1.28-.351.276zm6.47-.833l.528 1 1.406-.611-.47-1.2-1.463.811zm1.234 1.837l.758.837.648-.503-.413-1.115-.993.781z"/>
        <path fill="#7E5838" d="M85.646 118.837c.816 1.034.391 2.002-.223 2.904-.654.859-1.373 1.69-2.138 2.45a23 23 0 0 1-2.453 2.134c-.907.618-1.875 1.038-2.91.224l-.532-1.444c-5.356-6.259-10.781-12.405-16.416-18.41l-16.722 17.479-.524 1.425c-1.031.809-1.992.398-2.898-.216-1.065-.752-2.84-2.596-3.543-3.535-.615-.905-1.034-1.868-.22-2.902l1.422-.523 17.467-16.948c-4.902-4.975-9.916-9.76-15.23-14.298l-5.958 6.043c-1.185 1.183-2.5 1.075-3.476.1l-5.609-5.603a2.312 2.312 0 0 1 0-3.28l17.783-17.758a2.33 2.33 0 0 1 3.289 0l5.609 5.602a2.32 2.32 0 0 1 0 3.281l-6.15 6.138c4.449 5.195 9.451 10.49 14.34 15.315l17.5-16.98c.64-1.013.853-2.562.367-3.194l-5.605-5.515-.25-2.002 2.753-2.82 1.883.192C87.235 74.69 95.206 84.432 98 97.326l-1.414.557c-1.268-2.122-7.28-12.172-10.976-14.211-.799-.44-1.9-.224-3.28.702l-16.712 17.463c5.917 5.514 12.466 11.258 18.578 16.469l1.45.531z"/>
        <path fill="#DCC763" d="M26.443 87.198a1.485 1.485 0 0 1 0-2.117L44.387 67.44a1.535 1.535 0 0 1 2.15 0L52.197 73a1.478 1.478 0 0 1 0 2.118l-6.74 6.63c4.613 5.343 9.583 10.488 14.96 15.673l-3.531 3.43c-5.306-5.328-10.419-10.154-15.888-14.718l-6.74 6.627a1.543 1.543 0 0 1-2.156 0l-5.658-5.562zM65.79 102.52c5.896 5.446 12.15 10.867 18.68 16.346l1.38.5c.29.363.16.936-.39 1.732a22.935 22.935 0 0 1-4.446 4.37c-.805.54-1.392.668-1.761.384l-.508-1.358c-5.616-6.47-11.006-12.443-16.588-18.277l3.633-3.697z"/>
        <path fill="#DCC763" d="M73.338 71.594l-.167-1.335L75.385 68l1.257.125C87.828 77.012 94.61 86.943 97 97.922c-4.52-7.514-8.55-12.835-11.19-14.287-1.249-.686-2.753-.216-4.227.787l-38.423 40.06-.51 1.37c-.363.287-.948.158-1.754-.387-.986-.695-2.694-2.455-3.358-3.345-.547-.8-.677-1.381-.389-1.748l1.375-.504 39.935-38.646c.735-1.094 1.24-3.195.338-4.269l-5.46-5.359z"/>
        <path fill="#7E5838" d="M25.032 113s-5.126 7.77-2.048 15.941C26.108 137.244 32.927 141 32.927 141s2.246-9.25.24-16.42c-2.115-7.535-8.135-11.58-8.135-11.58"/>
        <path fill="#518551" d="M25.036 113s7.403 5.998 8.593 11.945c.903 4.51-.096 10.862-.343 13.636-3.44-7.417-5.69-15.052-7.92-22.797 1.328 7.716 3.92 15.376 7.329 23.216-1.97-1.415-6.088-4.583-9.125-10.197-4.246-7.85 1.466-15.803 1.466-15.803"/>
        <path fill="#7E5838" d="M34.272 128s-1.604 7.29 2.978 12.297C41.9 145.39 48 146 48 146s-.942-7.468-4.45-12.08c-3.687-4.848-9.278-5.92-9.278-5.92"/>
        <path fill="#518551" d="M34.217 128s6.638 2.339 9.126 6.387c1.884 3.07 3.032 8.027 3.657 10.141-4.4-4.497-8.074-9.489-11.765-14.573 3.082 5.314 6.993 10.23 11.49 15.045a22.21 22.21 0 0 1-8.974-4.952C32.688 135.458 34.217 128 34.217 128"/>
        <path fill="#7E5838" d="M23 152.743s5.084-7.53 11.226-7.734c7.393-.248 13.774 4.48 13.774 4.48s-5.848 5.377-11.934 6.359C29.975 156.83 23 152.743 23 152.743"/>
        <path fill="#518551" d="M23 152.403s7.368 3.49 12.656 2.379c4.006-.837 9.141-3.775 11.344-4.889-7.232-.076-14.495.887-21.6 1.824 6.785-1.598 13.964-2.442 21.53-2.535-1.807-.988-5.788-2.779-11.41-3.153-7.855-.53-12.52 6.374-12.52 6.374"/>
        <path fill="#7E5838" d="M28.346 46s3.125 6.417.783 10.865C26.312 62.217 20.48 65 20.48 65s-1.335-6.16.45-10.861c1.786-4.7 7.417-8.139 7.417-8.139"/>
        <path fill="#518551" d="M27.6 46s-5.497 3.737-6.76 7.87c-.956 3.137-.8 7.904-.84 9.89 2.907-5.018 5.054-10.469 7.162-15.806C25.67 53.33 23.469 58.681 20.553 64c1.447-.867 4.35-2.918 6.845-6.69C30.881 52.041 27.6 46 27.6 46"/>
        <path fill="#7E5838" d="M40 61.586s-5.36-4.114-11.214-1.964C22.836 61.804 20 66.923 20 66.923s6.478 1.955 11.6.597c5.383-1.425 8.4-5.934 8.4-5.934"/>
        <path fill="#518551" d="M40 62.311s-4.516 4.875-8.853 5.534c-3.285.497-7.858-.338-9.861-.579 5.452-2.148 11.03-3.482 16.692-4.803C32.36 63.17 26.751 64.74 21 66.857c1.071-1.303 3.458-4.02 7.594-5.942C34.378 58.23 40 62.311 40 62.311"/>
        <path fill="#7E5838" d="M40 49.275S33.365 48 29.114 50.94C22.238 55.693 20 65 20 65s6.639-.543 12.603-4.427C37.314 57.503 40 49.275 40 49.275"/>
        <path fill="#518551" d="M41 50.175s-2.98 7.707-7.75 10.472c-3.622 2.096-9.166 3.701-11.632 4.353 5.37-5 11.067-9.572 17.082-13.71-6.257 3.416-11.958 8.102-17.7 13.202.635-1.99 2.144-5.914 6.086-10.044C32.591 48.678 41 50.175 41 50.175"/>
        <path fill="#7E5838" d="M11.762 59s6.787 5.864 6.202 11.938C17.256 78.253 11.762 84 11.762 84s-4.57-6.375-4.757-12.483C6.818 65.404 11.762 59 11.762 59"/>
        <path fill="#518551" d="M10.898 59s-4.344 6.541-3.86 11.67c.367 3.888 2.698 9.092 3.548 11.309.92-6.825.813-13.802.714-20.63.796 6.604.796 13.488 0 20.651 1.198-1.59 3.45-5.136 4.486-10.4C17.23 64.242 10.898 59 10.898 59"/>
        <path fill="#7E5838" d="M30 68.088s-7.995-1.098-12.928 4.449C12.056 78.17 12 85 12 85s7.934-1.738 12.548-6.059C29.395 74.4 30 68.088 30 68.088"/>
        <path fill="#518551" d="M30 68.063s-1.867 7.682-5.957 10.862C20.934 81.336 15.737 83.098 13.53 84c4.39-5.375 9.385-9.978 14.467-14.61C22.608 73.36 17.72 78.22 13 83.737c.355-1.972 1.264-6.179 4.428-10.56C21.852 67.048 30 68.062 30 68.062"/>
        <path fill="#7E5838" d="M21.68 61s-6.691 2.077-9.222 6.62C8.353 74.97 10.63 84 10.63 84s5.842-3.636 9.515-9.804C23.042 69.326 21.68 61 21.68 61"/>
        <path fill="#518551" d="M21.813 62s1.031 7.806-1.752 12.233C17.952 77.588 13.974 81.37 12.18 83a137.9 137.9 0 0 1 8.189-19.052c-3.74 5.625-6.42 12.077-8.948 18.897-.38-1.96-.915-5.93.526-11.137C13.961 64.424 21.813 62 21.813 62"/>
        <path fill="#7E5838" d="M2.217 79s7.946 3.638 9.312 9.643C13.17 95.87 10.002 103 10.002 103s-6.098-4.779-8.174-10.592C-.24 86.598 2.217 79 2.217 79"/>
        <path fill="#518551" d="M1.96 79s-2.145 7.567-.022 12.308C3.54 94.901 7.486 99.151 9.032 101 7.741 94.213 5.4 87.597 3.111 81.117 6.006 87.169 8.215 93.73 9.735 100.8c.664-1.878 1.727-5.95 1.046-11.286C9.836 82.058 1.96 79 1.96 79"/>
        <path fill="#7E5838" d="M22.85 82s-7.686.98-10.86 7.616C8.764 96.364 10.43 103 10.43 103s6.915-3.72 10.1-9.086C23.884 88.269 22.85 82 22.85 82"/>
        <path fill="#518551" d="M21.998 82s.173 8.032-2.843 12.238c-2.286 3.188-6.676 6.294-8.502 7.762 2.749-6.438 6.245-12.278 9.818-18.17-4.024 5.32-7.356 11.386-10.376 18.052-.156-2.031-.353-6.4 1.501-11.54C14.186 83.157 21.998 82 21.998 82"/>
        <path fill="#7E5838" d="M11.625 78s-5.62 4.307-6.423 9.558C3.907 96.065 9.266 104 9.266 104s4.27-5.515 5.573-12.731C15.87 85.57 11.625 78 11.625 78"/>
        <path fill="#518551" d="M12.057 79s3.833 7.291 2.75 12.583c-.82 4.012-3.287 9.09-4.431 11.308-.204-7.217.129-14.378.994-21.486C9.8 88.204 9.55 95.447 9.587 103c-1.079-1.786-3.035-5.493-3.536-11.09C5.354 84.083 12.057 79 12.057 79"/>
        <path fill="#7E5838" d="M0 103s8.793.556 12.243 5.774C16.395 115.056 15.989 123 15.989 123s-7.467-2.32-11.514-7.091C.428 111.133 0 103 0 103"/>
        <path fill="#518551" d="M0 103s.79 8.195 4.438 12.074c2.772 2.94 7.91 5.675 9.991 6.926-3.64-6.186-8.176-11.82-12.618-17.343 4.841 4.882 9.236 10.51 13.189 16.894-.081-2.09-.588-6.464-3.142-11.447C8.288 103.138 0 103 0 103"/>
        <path fill="#7E5838" d="M20.182 97s-6.88 4.218-7.167 11.801c-.297 7.702 4 13.199 4 13.199s5.025-6.453 5.85-12.848C23.725 102.427 20.182 97 20.182 97"/>
        <path fill="#518551" d="M20.58 97s3.357 7.169 2.163 12.243c-.904 3.851-3.839 8.521-4.99 10.623.051-6.974 1.05-13.73 2.103-20.565-1.707 6.517-2.461 13.405-2.679 20.699-.955-1.763-2.88-5.618-3.16-11.041C13.62 101.377 20.58 97 20.58 97"/>
        <path fill="#7E5838" d="M9.148 98s-3.973 5.804-2.992 10.958C7.754 117.308 15.562 123 15.562 123s2.265-6.504 1.11-13.653C15.762 103.705 9.148 98 9.148 98"/>
        <path fill="#518551" d="M9.405 98s5.697 5.554 6.392 10.792c.522 3.971-.088 9.448-.415 11.858a145.544 145.544 0 0 1-5.835-20.206c.723 6.787 2.769 13.573 5.166 20.556-1.523-1.318-4.426-4.137-6.622-9.167C5.021 104.808 9.405 98 9.405 98"/>
        <path fill="#7E5838" d="M5 131.56s8.055-5.212 14.464-3.023c7.72 2.636 12.536 9.629 12.536 9.629s-8.043 2.86-14.686 1.437C10.668 138.174 5 131.56 5 131.56"/>
        <path fill="#518551" d="M6 131.177s5.92 6.703 11.596 7.608c4.307.684 10.566-.453 13.19-.784-7.14-2.953-14.717-4.8-22.136-6.613 7.363.97 14.812 2.913 22.35 5.82-1.404-1.789-4.637-5.305-10.056-7.95C13.367 125.566 6 131.177 6 131.177"/>
        <path fill="#7E5838" d="M12.035 116s-.604 8.077 3.19 12.798C21.368 136.44 32 138 32 138s-1.422-7.864-6.48-14.52c-3.99-5.254-13.485-7.48-13.485-7.48"/>
        <path fill="#518551" d="M13.02 117s9.522 2.453 13.39 7.541c2.932 3.86 5.515 9.967 6.59 12.696a173.835 173.835 0 0 1-18.372-17.754c4.821 6.7 11.088 12.608 17.848 18.517-2.444-.482-7.288-1.715-12.678-5.694C12.273 126.748 13.021 117 13.021 117"/>
        <path fill="#7E5838" d="M20 136.15s3.319 7.662 9.092 10.085c9.337 3.925 19.908.078 19.908.078s-5.088-6.464-12.955-10.028c-6.21-2.81-16.045-.136-16.045-.136"/>
        <path fill="#518551" d="M21 135.878s9.813-2.284 15.809.515c4.547 2.114 9.883 6.442 12.191 8.409a181.343 181.343 0 0 1-25.33-7.433c7.648 3.806 16.216 6.207 25.232 8.374-2.449.723-7.435 1.891-14.259.832C25.105 145.09 21 135.878 21 135.878"/>
        <path fill="#7E5838" d="M94.971 113s5.123 7.77 2.044 15.941C93.892 137.244 87.072 141 87.072 141s-2.247-9.25-.235-16.42c2.11-7.535 8.134-11.58 8.134-11.58"/>
        <path fill="#518551" d="M95.96 113s-7.402 5.998-8.589 11.945c-.902 4.51.092 10.862.344 13.636 3.44-7.417 5.684-15.052 7.916-22.797-1.324 7.716-3.922 15.376-7.325 23.216 1.965-1.415 6.083-4.583 9.125-10.197 4.246-7.85-1.47-15.803-1.47-15.803"/>
        <path fill="#7E5838" d="M86.73 128s1.598 7.29-2.978 12.297C79.1 145.39 73 146 73 146s.946-7.468 4.449-12.08c3.686-4.848 9.28-5.92 9.28-5.92"/>
        <path fill="#518551" d="M86.783 128s-6.635 2.339-9.121 6.387c-1.888 3.07-3.037 8.027-3.662 10.141 4.405-4.497 8.079-9.489 11.77-14.573-3.084 5.314-6.994 10.23-11.495 15.045 1.71-.49 5.354-1.67 8.978-4.952 5.058-4.59 3.53-12.048 3.53-12.048"/>
        <path fill="#7E5838" d="M98 152.743s-5.08-7.53-11.223-7.734C79.382 144.761 73 149.49 73 149.49s5.844 5.377 11.933 6.359c6.091.982 13.067-3.105 13.067-3.105"/>
        <path fill="#518551" d="M98 152.403s-7.371 3.49-12.654 2.379c-4.01-.837-9.143-3.775-11.346-4.889 7.235-.076 14.492.887 21.6 1.824-6.788-1.598-13.96-2.442-21.53-2.535 1.813-.988 5.792-2.779 11.408-3.153 7.854-.53 12.522 6.374 12.522 6.374"/>
        <path fill="#7E5838" d="M93.65 46s-3.12 6.417-.779 10.865C95.686 62.217 101.52 65 101.52 65s1.336-6.16-.445-10.861C99.288 49.439 93.65 46 93.65 46"/>
        <path fill="#518551" d="M94.403 46s5.498 3.737 6.757 7.87c.956 3.137.8 7.904.84 9.89-2.903-5.018-5.056-10.469-7.164-15.806 1.492 5.376 3.694 10.727 6.61 16.046-1.446-.867-4.345-2.918-6.842-6.69-3.488-5.268-.2-11.31-.2-11.31"/>
        <path fill="#7E5838" d="M81 61.586s5.358-4.114 11.217-1.964c5.947 2.182 8.783 7.301 8.783 7.301s-6.479 1.955-11.602.597C84.018 66.095 81 61.586 81 61.586"/>
        <path fill="#518551" d="M81 62.311s4.52 4.875 8.853 5.534c3.284.497 7.858-.338 9.861-.579-5.448-2.148-11.03-3.482-16.693-4.803 5.622.707 11.227 2.277 16.979 4.394-1.066-1.303-3.458-4.02-7.595-5.942C86.622 58.23 81 62.311 81 62.311"/>
        <path fill="#7E5838" d="M80 49.275S86.639 48 90.886 50.94C97.762 55.693 100 65 100 65s-6.636-.543-12.603-4.427C82.69 57.503 80 49.275 80 49.275"/>
        <path fill="#518551" d="M80 50.175s2.984 7.707 7.755 10.472c3.622 2.096 9.167 3.701 11.632 4.353-5.375-5-11.068-9.572-17.087-13.71 6.257 3.416 11.958 8.102 17.7 13.202-.635-1.99-2.143-5.914-6.082-10.044C88.413 48.678 80 50.175 80 50.175"/>
        <path fill="#7E5838" d="M109.243 59s-6.792 5.864-6.207 11.938c.707 7.315 6.207 13.062 6.207 13.062s4.564-6.375 4.752-12.483C114.18 65.404 109.243 59 109.243 59"/>
        <path fill="#518551" d="M109.105 59s4.34 6.541 3.857 11.67c-.367 3.888-2.694 9.092-3.55 11.309-.919-6.825-.813-13.802-.714-20.63-.795 6.604-.795 13.488 0 20.651-1.197-1.59-3.447-5.136-4.482-10.4-1.45-7.358 4.889-12.6 4.889-12.6"/>
        <path fill="#7E5838" d="M90 68.088s7.99-1.098 12.928 4.449C107.943 78.17 108 85 108 85s-7.934-1.738-12.548-6.059C90.601 74.4 90 68.088 90 68.088"/>
        <path fill="#518551" d="M91 68.063s1.862 7.682 5.956 10.862c3.105 2.411 8.307 4.173 10.51 5.075-4.39-5.375-9.382-9.978-14.468-14.61 5.394 3.97 10.278 8.83 15.002 14.347-.36-1.972-1.264-6.179-4.429-10.56C99.147 67.048 91 68.062 91 68.062"/>
        <path fill="#7E5838" d="M99.32 61s6.69 2.077 9.225 6.62c4.099 7.351 1.827 16.38 1.827 16.38s-5.845-3.636-9.518-9.804C97.958 69.326 99.32 61 99.32 61"/>
        <path fill="#518551" d="M100.187 62s-1.031 7.806 1.752 12.233c2.11 3.355 6.086 7.137 7.88 8.767a137.781 137.781 0 0 0-8.19-19.052c3.74 5.625 6.425 12.077 8.95 18.897.384-1.96.914-5.93-.527-11.137-2.015-7.284-9.865-9.708-9.865-9.708"/>
        <path fill="#7E5838" d="M118.784 79s-7.95 3.638-9.313 9.643c-1.64 7.226 1.527 14.357 1.527 14.357s6.099-4.779 8.171-10.592c2.072-5.81-.385-13.408-.385-13.408"/>
        <path fill="#518551" d="M118.039 79s2.144 7.567.027 12.308c-1.608 3.593-5.554 7.843-7.1 9.692 1.29-6.787 3.637-13.403 5.926-19.883-2.9 6.052-5.11 12.613-6.63 19.683-.658-1.878-1.722-5.95-1.045-11.286.949-7.456 8.822-10.514 8.822-10.514"/>
        <path fill="#7E5838" d="M98.15 82s7.685.98 10.858 7.616c3.232 6.748 1.56 13.384 1.56 13.384s-6.915-3.72-10.1-9.086C97.12 88.269 98.148 82 98.148 82"/>
        <path fill="#518551" d="M98.002 82s-.169 8.032 2.843 12.238c2.29 3.188 6.675 6.294 8.501 7.762-2.745-6.438-6.24-12.278-9.814-18.17 4.02 5.32 7.356 11.386 10.372 18.052.156-2.031.357-6.4-1.497-11.54C105.814 83.157 98.002 82 98.002 82"/>
        <path fill="#7E5838" d="M108.372 78s5.625 4.307 6.427 9.558c1.29 8.507-4.064 16.442-4.064 16.442s-4.269-5.515-5.573-12.731C104.13 85.57 108.372 78 108.372 78"/>
        <path fill="#518551" d="M108.942 79s-3.832 7.291-2.75 12.583c.821 4.012 3.287 9.09 4.432 11.308a143.367 143.367 0 0 0-.994-21.486c1.575 6.799 1.818 14.042 1.783 21.595 1.083-1.786 3.039-5.493 3.536-11.09.7-7.827-6.007-12.91-6.007-12.91"/>
        <g transform="translate(105 103)">
            <mask id="d" fill="#fff">
                <use xlink:href="#c"/>
            </mask>
            <path fill="#7E5838" d="M15.758.023S7.164.574 3.794 5.745c-4.056 6.227-3.66 14.1-3.66 14.1s7.295-2.3 11.253-7.028C15.335 8.084 15.757.023 15.757.023" mask="url(#d)"/>
        </g>
        <path fill="#518551" d="M120 103s-.79 8.195-4.442 12.074c-2.769 2.94-7.91 5.675-9.992 6.926 3.64-6.186 8.18-11.82 12.618-17.343-4.836 4.882-9.235 10.51-13.184 16.894.077-2.09.583-6.464 3.137-11.447C111.708 103.138 120 103 120 103"/>
        <path fill="#7E5838" d="M99.816 97s6.877 4.218 7.17 11.801c.296 7.702-4 13.199-4 13.199s-5.029-6.453-5.85-12.848C96.272 102.427 99.816 97 99.816 97"/>
        <path fill="#518551" d="M100.417 97s-3.35 7.169-2.162 12.243c.905 3.851 3.842 8.521 4.99 10.623-.052-6.974-1.05-13.73-2.103-20.565 1.706 6.517 2.46 13.405 2.682 20.699.951-1.763 2.878-5.618 3.16-11.041.392-7.582-6.567-11.959-6.567-11.959"/>
        <path fill="#7E5838" d="M111.851 98s3.977 5.804 2.992 10.958c-1.593 8.35-9.402 14.042-9.402 14.042s-2.268-6.504-1.114-13.653c.915-5.642 7.524-11.347 7.524-11.347"/>
        <path fill="#518551" d="M110.592 98s-5.697 5.554-6.387 10.792c-.526 3.971.088 9.448.415 11.858a145.017 145.017 0 0 0 5.83-20.206c-.724 6.787-2.769 13.573-5.16 20.556 1.521-1.318 4.424-4.137 6.62-9.167 3.07-7.025-1.318-13.833-1.318-13.833"/>
        <path fill="#7E5838" d="M116 131.56s-8.055-5.212-14.468-3.023C93.815 131.173 89 138.166 89 138.166s8.038 2.86 14.685 1.437c6.647-1.429 12.315-8.043 12.315-8.043"/>
        <path fill="#518551" d="M115 131.177s-5.921 6.703-11.598 7.608c-4.308.684-10.563-.453-13.192-.784 7.145-2.953 14.724-4.8 22.14-6.613-7.36.97-14.81 2.913-22.35 5.82 1.4-1.789 4.637-5.305 10.057-7.95 7.579-3.692 14.943 1.919 14.943 1.919"/>
        <path fill="#7E5838" d="M107.965 116s.601 8.077-3.194 12.798C98.633 136.44 88 138 88 138s1.421-7.864 6.475-14.52c3.995-5.254 13.49-7.48 13.49-7.48"/>
        <path fill="#518551" d="M108.98 117s-9.523 2.453-13.386 7.541c-2.932 3.86-5.516 9.967-6.594 12.696a173.963 173.963 0 0 0 18.376-17.754c-4.821 6.7-11.088 12.608-17.852 18.517 2.448-.482 7.292-1.715 12.677-5.694 7.53-5.558 6.778-15.306 6.778-15.306"/>
        <path fill="#7E5838" d="M99 136.15s-3.322 7.662-9.091 10.085c-9.34 3.925-19.909.078-19.909.078s5.091-6.464 12.957-10.028c6.207-2.81 16.043-.136 16.043-.136"/>
        <path fill="#518551" d="M100 135.878s-9.812-2.284-15.807.515c-4.547 2.114-9.882 6.442-12.193 8.409a181.185 181.185 0 0 0 25.33-7.433c-7.651 3.806-16.218 6.207-25.229 8.374 2.444.723 7.434 1.891 14.258.832C95.89 145.09 100 135.878 100 135.878"/>
        <g transform="translate(41 136)">
            <mask id="f" fill="#fff">
                <use xlink:href="#e"/>
            </mask>
            <path fill="#7E5838" d="M3.606.031c5.581 1.035 25.372 1.035 30.953 0-.835 5.092-.779 9.199.168 13.332l3.021.126L36.741 20c-6.098-1.254-29.223-1.254-35.321 0L.412 13.49l3.026-.126C4.385 9.23 4.44 5.123 3.606.031" mask="url(#f)"/>
        </g>
        <path fill="#518551" d="M45.341 137c5.555.66 23.646.66 29.201 0-.947 5.2-.879 10.867 1.458 17-5.941-.745-26.055-.745-32 0 2.34-6.133 2.284-11.8 1.341-17"/>
        <path fill="#DCC763" d="M49.662 140a10.45 10.45 0 0 1-1.23 1.711A9.266 9.266 0 0 1 47 143.052v.94a12.412 12.412 0 0 0 1.722-1.577l.108 7.838c.016.174-.013.387-.095.642-.087.254-.32.414-.7.49V152H52v-.615c-.372-.08-.604-.24-.683-.486a1.59 1.59 0 0 1-.099-.646V140h-1.556zM53 143.494h.67c.074-.615.235-.986.492-1.115.253-.129.491-.183.711-.156l3.694.019a55.63 55.63 0 0 0-1.87 3.016 46.817 46.817 0 0 0-1.874 3.574c-.565 1.203-.95 2.258-1.153 3.168h2.936c.146-.682.354-1.502.624-2.46.267-.958.566-1.978.897-3.048.325-1.074.656-2.116.982-3.132l.891-2.71V140h-6.771L53 143.494zm7 0h.67c.07-.615.235-.986.487-1.115.257-.129.492-.183.717-.156l3.693.019a52.584 52.584 0 0 0-1.87 3.016 46.483 46.483 0 0 0-1.873 3.574c-.565 1.203-.95 2.258-1.153 3.168h2.934c.148-.682.354-1.502.62-2.46.271-.958.57-1.978.896-3.048.33-1.074.657-2.116.987-3.132l.892-2.71V140h-6.77l-.23 3.494zm7.75-.74c.386-.617.766-1.025 1.147-1.22.382-.196.704-.287.968-.27.494.026.821.17.98.43.164.265.236.5.223.707-.01.452-.16.868-.445 1.26-.286.39-.658.754-1.103 1.092-.45.343-.913.664-1.403.973l.404.68c.173-.116.354-.208.536-.277.181-.07.371-.104.562-.104.559.004.986.156 1.276.45.29.296.436.713.436 1.251.01.494-.122.99-.381 1.493-.26.503-.695.924-1.298 1.275-.605.352-1.418.552-2.443.59l-.209.868.436.035.435.013c1.222-.017 2.288-.264 3.205-.742.918-.473 1.63-1.071 2.143-1.788.513-.716.772-1.44.781-2.178-.005-.747-.227-1.341-.667-1.792-.44-.452-1.063-.682-1.861-.694l-.191.004-.195.013v-.13c.2-.135.453-.339.763-.612.303-.274.58-.6.821-.976.245-.379.373-.786.39-1.22 0-.473-.204-.898-.603-1.28-.4-.382-.995-.581-1.789-.603a4.133 4.133 0 0 0-1.185.147c-.418.109-.84.33-1.267.668-.422.34-.83.843-1.216 1.52l.75.416z"/>
        <text fill="#FFF" font-family="GothamPro, Gotham Pro" font-size="22">
            <tspan x="142" y="107">SAINT-PETERSBURG</tspan>
        </text>
        <text fill="#FFF" font-family="GothamPro, Gotham Pro" font-size="22">
            <tspan x="142" y="136">MINING UNIVERSITY</tspan>
        </text>
    </g>
</svg>
