<svg xmlns="http://www.w3.org/2000/svg" xmlns:xlink="http://www.w3.org/1999/xlink" width="206" height="62" viewBox="0 0 206 62">
    <defs>
        <path id="a" d="M.038.144h21.645v23.617H.038z"/>
        <path id="c" d="M.05.009h6.2v7.878H.05z"/>
        <path id="e" d="M.163.012h14.811V7.95H.164z"/>
    </defs>
    <g fill="none" fill-rule="evenodd">
        <g transform="translate(13.09)">
            <mask id="b" fill="#fff">
                <use xlink:href="#a"/>
            </mask>
            <path fill="#7E5838" d="M9.73 21.133l-3.356.048-3.283.046a.082.082 0 0 1-.082-.07 10.15 10.15 0 0 0-.21-.986c-.12-.444-.285-.927-.505-1.292a46.128 46.128 0 0 1-.903-1.579c-.305-.559-.589-1.11-.772-1.529a6.888 6.888 0 0 1-.44-1.418 7.533 7.533 0 0 1-.138-1.68 3.159 3.159 0 0 1 .102-.721c.119-.468.33-.919.593-1.316.264-.397.58-.74.908-.992.413-.318.73-.55 1.068-.746a6.686 6.686 0 0 1 1.191-.53c.496-.173.85-.284 1.082-.351.23-.068.338-.092.338-.092s.016-.036.059-.074a.346.346 0 0 1 .22-.08.659.659 0 0 1 .17.014.507.507 0 0 0 .17-.105c.045-.038.095-.08.192-.124a.402.402 0 0 1 .207-.033c.07.008.14.03.205.063.076.04.157.05.234.05.077 0 .15-.012.21-.019a.733.733 0 0 0 .166-.04c.055-.02.109-.04.16-.053a.239.239 0 0 1 .187.045.79.79 0 0 1 .164.19c.06.085.168.283.304.597.137.314.3.743.47 1.293.16.515.268.964.339 1.295.05.234.08.41.096.507.007.046.05.075.094.068.11-.017.205-.029.283-.038l.203-.02a.408.408 0 0 1 .003-.157.3.3 0 0 1 .078-.124c.028-.03.053-.054.052-.078-.001-.025-.007-.07-.011-.122a1.925 1.925 0 0 1-.01-.163c0-.053.033-.078.076-.088a.312.312 0 0 1 .138.008c.059-.034.077-.06.072-.095-.006-.034-.035-.076-.072-.142a.242.242 0 0 1-.023-.186.396.396 0 0 1 .074-.142.114.114 0 0 0 .023-.107.388.388 0 0 0-.078-.128.724.724 0 0 1-.09-.264 2.411 2.411 0 0 1-.04-.3.182.182 0 0 1 .08-.16.247.247 0 0 1 .12-.05.909.909 0 0 0 .002-.134l-.012-.125a.326.326 0 0 1 .039-.15c.022-.05.045-.094.045-.125 0-.029-.038-.075-.085-.135a.903.903 0 0 1-.134-.21.183.183 0 0 1 .03-.195c.04-.048.1-.08.141-.092.006-.106.007-.198.012-.276a.723.723 0 0 1 .03-.197c.015-.042.086-.058.167-.063.08-.004.17.003.223.01a.77.77 0 0 1-.32-.18.387.387 0 0 1-.105-.372.351.351 0 0 1 .038-.09.367.367 0 0 1-.255-.107.366.366 0 0 1-.104-.257.347.347 0 0 1 .205-.328.354.354 0 0 1-.206-.122.375.375 0 0 1 0-.472.363.363 0 0 1 .221-.118.354.354 0 0 1-.146-.13.375.375 0 0 1-.057-.198.349.349 0 0 1 .104-.26.38.38 0 0 1 .268-.103c.002-.028-.01-.067-.024-.115a.645.645 0 0 1-.029-.165.352.352 0 0 1 .33-.36l.055-.205.056-.207c.025-.098.066-.402.103-.698.036-.296.068-.585.074-.651.005-.067-.042-.092-.11-.097a1.06 1.06 0 0 0-.243.026 2.312 2.312 0 0 0-.353.12c-.067.026-.129.052-.177.072-.048.02-.114-.02-.13-.07-.055-.166-.044-.337-.041-.547.004-.304.024-.525.024-.554.022-.096.051-.139.096-.15.045-.011.101.011.18.06.078.048.229.094.37.13.142.036.274.062.316.068.041.007.055-.026.05-.084a1.21 1.21 0 0 0-.056-.235 4.926 4.926 0 0 0-.163-.415 5.368 5.368 0 0 0-.16-.343c-.028-.047-.04-.09-.032-.121.007-.031.033-.05.08-.049l.734.003.732.002c.058.002.075.02.07.051-.004.032-.031.079-.065.14a3.985 3.985 0 0 0-.155.503c-.04.148-.077.294-.102.388-.014.051.023.104.075.105.105 0 .233-.023.354-.054a3.29 3.29 0 0 0 .36-.117c.05-.02.097-.024.133-.007.037.016.06.054.06.118l-.012.537-.013.537c0 .085-.015.127-.048.138-.033.012-.084-.007-.159-.043a4.689 4.689 0 0 0-.348-.135l-.271-.098a.078.078 0 0 0-.098.033.808.808 0 0 0-.082.31c-.013.149-.005.317.013.492a13.527 13.527 0 0 0 .114.84.081.081 0 0 0 .066.066c.073.015.135.05.182.1.058.064.092.15.092.254a.424.424 0 0 1-.032.16c.109 0 .201.036.266.1a.363.363 0 0 1 .104.266.39.39 0 0 1-.026.141.346.346 0 0 1-.07.112c.072.024.131.067.172.126a.374.374 0 0 1 .065.218c0 .056-.01.108-.03.153a.328.328 0 0 1-.08.115.321.321 0 0 1 .11.125c.025.05.04.11.04.177a.343.343 0 0 1-.229.34c.029.032.052.069.068.111a.41.41 0 0 1 .024.144.359.359 0 0 1-.093.25.357.357 0 0 1-.235.109c.02.028.034.06.043.096a.426.426 0 0 1-.009.255.335.335 0 0 1-.067.11c.134.034.213.1.253.17.04.07.04.143.016.194-.024.052-.056.097-.081.14-.025.042-.043.08-.039.118a.648.648 0 0 0 .058.153c.026.057.052.111.052.139a.185.185 0 0 1-.027.083c-.014.027-.03.054-.035.085-.006.03.027.092.057.163.03.072.057.152.04.217a.614.614 0 0 1-.082.178c-.033.05-.064.09-.076.11-.013.02.011.047.048.073a.69.69 0 0 0 .122.067c.036.016.056.095.057.192a.75.75 0 0 1-.057.299c-.039.086-.095.161-.143.222-.048.062-.087.11-.09.14.1.023.183.054.23.1.048.047.059.109.012.192-.048.084-.102.147-.153.206a.766.766 0 0 0-.125.18c-.03.066-.069.107-.084.13-.015.025-.006.032.061.032.068 0 .158-.017.233-.012.076.006.137.033.148.124.007.054.027.11.056.167.024.049.055.097.09.144a.085.085 0 0 0 .046.032l.143.039.172.047c.069-.18.184-.569.315-1.01.13-.44.278-.934.412-1.326.152-.447.309-.827.444-1.11.135-.282.25-.465.317-.517a.78.78 0 0 1 .09-.06.494.494 0 0 1 .082-.037.397.397 0 0 1 .173 0c.05.012.097.032.146.052.048.02.105.028.15.031.046.004.08.002.08.002s.025-.047.091-.093a.56.56 0 0 1 .337-.089.561.561 0 0 1 .48.275c0-.012.069-.003.156.021s.193.063.265.109c.074.045.125.045.26.079s.352.102.758.285c.407.183.908.386 1.439.665a7.589 7.589 0 0 1 1.624 1.12c.351.321.619.628.819.952.2.325.332.668.414 1.062.042.201.07.416.088.649.018.233.025.483.023.755-.005.807-.213 1.623-.476 2.32a8.126 8.126 0 0 1-.802 1.602c-.222.328-.422.654-.607.986a15.79 15.79 0 0 0-.519 1.016c-.133.284-.251.682-.343 1.053-.093.371-.16.716-.192.894a.374.374 0 0 1 .22.345.378.378 0 0 1-.11.267.37.37 0 0 1-.262.11 7.347 7.347 0 0 0-.058.506 22.622 22.622 0 0 0-.007.493c0 .04.027.076.066.08.084.012.153.045.204.095a.365.365 0 0 1 .099.265c0 .11-.037.2-.097.263a.332.332 0 0 1-.245.1.334.334 0 0 1-.295-.175.318.318 0 0 1-.103.061.36.36 0 0 1-.321-.04.345.345 0 0 1-.123-.164.317.317 0 0 1-.12.116.35.35 0 0 1-.513-.284.336.336 0 0 1-.116.2.336.336 0 0 1-.215.075.335.335 0 0 1-.212-.073.357.357 0 0 1-.121-.19.326.326 0 0 1-.305.188.334.334 0 0 1-.213-.074.36.36 0 0 1-.12-.193.333.333 0 0 1-.121.167.34.34 0 0 1-.2.06.334.334 0 0 1-.307-.194c-.029.05-.07.09-.12.117a.349.349 0 0 1-.351-.01.351.351 0 0 1-.124-.139.315.315 0 0 1-.12.12.35.35 0 0 1-.36-.014.353.353 0 0 1-.124-.15.32.32 0 0 1-.12.11.348.348 0 0 1-.477-.164.325.325 0 0 1-.13.134.391.391 0 0 1-.193.047.36.36 0 0 1-.357-.26.336.336 0 0 1-.124.2.377.377 0 0 1-.23.072.387.387 0 0 1-.266-.102.36.36 0 0 1-.115-.257c0 .11-.04.199-.106.261a.371.371 0 0 1-.26.098.384.384 0 0 1-.265-.102.361.361 0 0 1-.114-.257.357.357 0 0 1-.106.261.371.371 0 0 1-.26.098.37.37 0 0 1-.26-.101.366.366 0 0 1-.111-.254.405.405 0 0 1-.124.259.38.38 0 0 1-.262.096.363.363 0 0 1-.37-.33.35.35 0 0 1-.114.24.372.372 0 0 1-.25.09.361.361 0 0 1-.336-.207.327.327 0 0 1-.132.144.39.39 0 0 1-.2.051.378.378 0 0 1-.207-.06.355.355 0 0 1-.133-.155.328.328 0 0 1-.117.175.33.33 0 0 1-.2.063.322.322 0 0 1-.185-.057.353.353 0 0 1-.122-.15.328.328 0 0 1-.118.17.327.327 0 0 1-.196.061.322.322 0 0 1-.188-.06.355.355 0 0 1-.122-.158.335.335 0 0 1-.115.193.326.326 0 0 1-.208.07.323.323 0 0 1-.18-.055.343.343 0 0 1-.121-.144.334.334 0 0 1-.119.179.33.33 0 0 1-.2.065.323.323 0 0 1-.196-.064.35.35 0 0 1-.12-.168.325.325 0 0 1-.33.29.321.321 0 0 1-.176-.05.34.34 0 0 1-.12-.138.324.324 0 0 1-.324.268.327.327 0 0 1-.289-.17.333.333 0 0 1-.114.192.328.328 0 0 1-.209.07.325.325 0 0 1-.27-.145.321.321 0 0 1-.304.202.326.326 0 0 1-.294-.178.333.333 0 0 1-.108.172.284.284 0 0 1-.182.063.37.37 0 0 1-.239-.085.315.315 0 0 1-.11-.242.42.42 0 0 1 .065-.218.448.448 0 0 1 .111-.126.088.088 0 0 0 .038-.064l.014-.248.017-.29.018-.26.014-.192a.08.08 0 0 0-.052-.083.373.373 0 0 1-.25-.357.38.38 0 0 1 .084-.238.368.368 0 0 1 .208-.13l3.355-.047 3.355-.048z" mask="url(#b)"/>
        </g>
        <path fill="#DCC763" d="M23.333 4.322c.026-.154.145-.843.196-1.256.057-.466.04-.636.04-.702 0-.064-.066-.136-.292-.095a4.524 4.524 0 0 0-.562.154c-.047.018-.11.041-.103-.088.005-.13.028-.82.028-.882 0-.06.07-.042.143-.002.079.036.519.216.61.22.093.002.213-.03.188-.145-.027-.114-.214-.955-.278-1.04-.064-.085-.03-.089.05-.089l.916.01c.057 0 .07.017.028.105-.04.09-.192.725-.214.914-.023.191.005.261.11.261.104 0 .469-.11.576-.155.107-.043.216-.099.216-.01 0 .092.01.746.006.831-.002.086-.056.092-.133.033-.098-.034-.358-.127-.491-.165-.134-.037-.274-.052-.292.077a8.33 8.33 0 0 0 .016.947c.025.378.073.754.09.886l-.06-.004s-.025.01-.043.03a.323.323 0 0 0-.323-.266c-.196 0-.343.16-.34.375a.39.39 0 0 0 .014.106.27.27 0 0 0-.096-.05"/>
        <path fill="#DCC763" d="M23.675 4.243c0-.15.123-.269.275-.269.152 0 .275.12.275.269a.271.271 0 0 1-.275.266.271.271 0 0 1-.275-.266m.621.235c0 .147.124.266.276.266.152 0 .275-.12.275-.266a.271.271 0 0 0-.275-.267.271.271 0 0 0-.276.267m-1.224.143c0-.147.124-.266.277-.266.152 0 .276.119.276.266a.271.271 0 0 1-.276.267.271.271 0 0 1-.277-.267m-.34.649c0-.147.124-.267.278-.267.152 0 .275.12.275.267a.271.271 0 0 1-.275.268.272.272 0 0 1-.277-.268m-.121.692c0-.147.123-.268.275-.268.153 0 .277.12.277.268a.271.271 0 0 1-.277.266.27.27 0 0 1-.275-.266m.112.674c0-.147.125-.268.277-.268.152 0 .275.121.275.268a.271.271 0 0 1-.275.266.273.273 0 0 1-.277-.266m.297.564c0 .149.123.268.277.268.152 0 .275-.12.275-.268a.27.27 0 0 0-.275-.266.271.271 0 0 0-.277.266m.445.48a.27.27 0 0 1 .275-.266c.152 0 .277.12.277.267a.274.274 0 0 1-.277.268.272.272 0 0 1-.275-.268m.586 0c0 .147.123.268.275.268a.273.273 0 0 0 .277-.268.272.272 0 0 0-.277-.267.271.271 0 0 0-.275.267m.4-.362c0-.148.123-.268.277-.268.152 0 .275.12.275.268a.271.271 0 0 1-.275.267.271.271 0 0 1-.277-.267m.27-.54c0-.148.125-.267.277-.267.152 0 .275.119.275.268a.27.27 0 0 1-.275.266.273.273 0 0 1-.277-.266m.114-.599c0-.149.123-.268.275-.268.152 0 .277.12.277.268a.273.273 0 0 1-.277.267.271.271 0 0 1-.275-.267m-.035-.59c0-.148.123-.268.277-.268.151 0 .275.12.275.269a.271.271 0 0 1-.275.266.271.271 0 0 1-.277-.266M24.66 5c0-.147.123-.266.277-.266a.27.27 0 0 1 .275.266.272.272 0 0 1-.275.268.273.273 0 0 1-.277-.268"/>
        <path fill="#DCC763" d="M23.405 5.962c0-.66.355-1.193.793-1.193.439 0 .794.533.794 1.193 0 .659-.355 1.192-.794 1.192-.438 0-.793-.533-.793-1.192M22.058 12.017s-.252-1.377-.5-2.151c-.249-.774-.676-2-.855-1.913-.18.088 0 1.854.166 2.643.165.79.345 1.725.345 1.725l.844-.304zm4.28 0s.253-1.377.501-2.151c.248-.774.676-2 .856-1.913.177.088 0 1.854-.166 2.643-.166.79-.346 1.725-.346 1.725l-.844-.304zM18.348 8.13c.073-.083.154-.106.24-.073-.193 1.808.283 4.278 1.423 7.41l-.191.362c-1.313-3.42-1.804-5.986-1.472-7.7m10.902-.025c-.015-.13-.24-.202-.29-.121.194 1.808-.185 4.421-1.326 7.554l.192.36c1.312-3.419 1.755-6.08 1.424-7.793"/>
        <path fill="#7E5838" d="M23.837.795h.116l.04.406.05-.406h.154s-.128.827-.205.827c-.077 0-.155-.827-.155-.827m.334 3.18h-.102l-.075-.52-.055.52h-.127s.128-1.47.205-1.47c.077 0 .154 1.47.154 1.47m-1.163-1.69v-.133l.351-.047-.35-.056v-.178s.718.148.718.236-.719.178-.719.178m1.984-.4v.134l-.309.048.309.054v.18s-.632-.149-.632-.237c0-.089.632-.178.632-.178"/>
        <path fill="#DCC763" d="M19.058 7.847l1.38-.209c-.095.445.157 2.61.562 4.289.42 1.738 1.554 4.736 1.554 4.736s-.411.29-.512.55c-.101.258-.045 1.055-.045 1.055s-.366-.658-.366-.95c0-.293.2-.672.2-.879 0-.207-.083-.396-.2-.396-.119 0-.463.01-.529.15-.068.137-.158.44-.158.44l-.044.395s-.093-.537-.093-.743l.017-.93c0-.086-.135-.224-.185-.224-.05 0-.225.035-.225.035s-.93-2.477-1.23-4.575c-.21-1.463-.126-2.744-.126-2.744m6.474 8.834s.136.086.252.293c.117.205.253.534.253.808v.5s.318-.293.352-.585c.034-.294-.017-.964-.067-1.119-.05-.156-.067-.293.067-.31.134-.018.285-.086.42.051.134.138.286.466.302.638.017.172.068.31.068.31s.158-.75.09-1.06c-.068-.31-.107-.645-.056-.765.05-.121.15-.259.217-.259.068 0 .252.07.252.07s.805-2.672.977-3.547c.313-1.614.3-3.913.3-3.913l-1.192-.242c.061.4-.07 1.895-.537 3.943-.358 1.553-.92 3.597-1.698 5.187"/>
        <path fill="#7E5838" d="M19.75 14.59c0-.153.064-.29.164-.38a.486.486 0 0 1-.381-.489c0-.132.048-.25.125-.34-.227-.03-.4-.24-.4-.492 0-.111.033-.212.089-.295a.498.498 0 0 1-.268-.451c0-.144.057-.273.146-.364a.433.433 0 0 1-.343-.436c0-.108.035-.206.094-.284a.444.444 0 0 1-.231-.398.46.46 0 0 1 .126-.321.456.456 0 0 1-.147-.34c0-.158.074-.294.186-.374a.442.442 0 0 1-.225-.395c0-.128.05-.243.13-.323a.455.455 0 0 1-.17-.36c0-.116.042-.223.112-.304a.463.463 0 0 1-.072-.25c0-.245.183-.443.41-.443.227 0 .41.198.41.443a.461.461 0 0 1-.111.304.462.462 0 0 1 .071.25c0 .129-.05.244-.13.325a.458.458 0 0 1 .17.358.453.453 0 0 1-.187.372.45.45 0 0 1 .226.397c0 .125-.049.24-.127.32a.465.465 0 0 1 .053.623.446.446 0 0 1 .232.4.46.46 0 0 1-.113.306c.23.027.41.237.41.494 0 .11-.035.213-.09.295.157.078.267.25.267.451 0 .13-.047.25-.124.34.225.03.4.238.4.492a.514.514 0 0 1-.164.38c.218.04.382.243.382.488 0 .12-.04.23-.105.315.255 0 .46.223.46.497 0 .273-.205.496-.46.496-.253 0-.458-.223-.458-.496 0-.119.039-.229.103-.315-.253 0-.46-.22-.46-.497"/>
        <path fill="#DCC763" d="M19.835 8.42a.54.54 0 0 1-.105.324.433.433 0 0 0-.316-.146.43.43 0 0 0-.288.115.54.54 0 0 1-.085-.292c0-.26.178-.472.398-.472.218 0 .396.212.396.472"/>
        <path fill="#DCC763" d="M19.041 8.783c0-.24.178-.437.398-.437.218 0 .396.196.396.437a.45.45 0 0 1-.128.322.44.44 0 0 0-.498.036.45.45 0 0 1-.168-.358"/>
        <path fill="#DCC763" d="M19.835 9.155a.413.413 0 0 1-.208.363.474.474 0 0 0-.335.02.412.412 0 0 1-.25-.383c0-.227.177-.411.397-.411.218 0 .396.184.396.411M19.835 9.964a.439.439 0 0 1-.145.33.451.451 0 0 0-.45.04.43.43 0 0 1-.199-.37c0-.234.178-.426.398-.426.218 0 .396.192.396.426"/>
        <path fill="#DCC763" d="M19.041 10.73a.397.397 0 1 1 .794 0 .397.397 0 0 1-.794 0"/>
        <path fill="#DCC763" d="M19.041 11.525a.397.397 0 1 1 .795.001.397.397 0 0 1-.795-.001"/>
        <path fill="#DCC763" d="M20.231 11.931c0 .11-.042.21-.112.283l-.086-.008a.484.484 0 0 0-.311.115.403.403 0 0 1-.284-.39.4.4 0 0 1 .396-.405c.219 0 .397.18.397.405M19.835 12.717a.397.397 0 1 1 .794 0 .397.397 0 0 1-.794 0M19.835 13.91a.396.396 0 1 1 .793 0c0 .219-.179.398-.398.398a.398.398 0 0 1-.395-.399M20.231 14.706a.397.397 0 1 1 .794-.003.397.397 0 0 1-.794.003M20.628 15.5a.397.397 0 1 1 0 0"/>
        <path fill="#7E5838" d="M26.51 14.96c0 .114.037.222.101.307a.52.52 0 0 0-.43.509c0 .288.237.519.527.519.29 0 .524-.231.524-.52a.516.516 0 0 0-.102-.306.516.516 0 1 0 .15-.967.52.52 0 0 0 .648-.504.517.517 0 0 0-.313-.474l.072.005c.29 0 .525-.233.525-.52a.52.52 0 0 0-.525-.517.522.522 0 0 0-.525.518c0 .212.129.395.315.475l-.072-.005a.522.522 0 0 0-.527.519.52.52 0 0 0 .28.458.522.522 0 0 0-.649.504m.98-2.925a.47.47 0 0 1 .378-.46.442.442 0 0 1 .183-.794.445.445 0 0 1 .072-.793.445.445 0 0 1 .078-.727.44.44 0 0 1-.057-.678.44.44 0 0 1-.088-.265l.007-.078a.448.448 0 0 1 .38-.69c.25 0 .451.2.451.446l-.007.08a.44.44 0 0 1-.058.557.447.447 0 0 1-.143.655.445.445 0 0 1-.099.778.444.444 0 0 1-.208.774.447.447 0 0 1 .212.378c0 .213-.15.39-.352.436.12.085.198.223.198.381a.47.47 0 0 1-.474.468.47.47 0 0 1-.473-.468"/>
        <path fill="#DCC763" d="M26.579 15.5a.396.396 0 1 1 .793 0 .398.398 0 1 1-.793 0M26.975 15.103a.397.397 0 1 1 0 0M27.372 13.91a.397.397 0 1 1 .794 0 .397.397 0 0 1-.794 0M27.372 12.717a.397.397 0 1 1 .793 0 .397.397 0 0 1-.793 0M27.769 11.13a.397.397 0 1 1 .794-.004.397.397 0 0 1-.794.003"/>
        <path fill="#DCC763" d="M27.372 11.923a.398.398 0 1 1 .795 0 .398.398 0 0 1-.795 0M27.769 10.334a.397.397 0 1 1 .794-.002.397.397 0 0 1-.794.002M28.165 9.54a.396.396 0 1 1 .794 0 .397.397 0 0 1-.794 0"/>
        <path fill="#DCC763" d="M28.959 8.765c0 .167-.091.309-.225.376a.457.457 0 0 0-.397-.032.423.423 0 0 1-.172-.344c0-.232.178-.419.398-.419.218 0 .396.187.396.42"/>
        <path fill="#DCC763" d="M28.165 8.434c0-.268.178-.485.398-.485.218 0 .396.217.396.485a.552.552 0 0 1-.091.31.438.438 0 0 0-.351-.191.416.416 0 0 0-.296.127.575.575 0 0 1-.056-.246"/>
        <path fill="#DCC763" d="M28.562 7.551a.39.39 0 0 1 .397.353.487.487 0 0 0-.774.147.366.366 0 0 1-.02-.121c0-.21.176-.379.397-.379M25.003 21.065s-1.87-1.32-2.145-1.817c-.31-.564-.534-1.68-.415-1.913.117-.234.137-.37 0-.37-.138 0-.438.163-.55.642-.077.322.039.815.156 1.087.119.273.176.543.176.543s-.685-.64-.862-1.028c-.176-.389-.195-1.134-.117-1.27.348-.602.177-.603-.039-.635 0 0-.261.106-.34.3-.08.194-.132.71-.093.885.04.175.04.427.04.427s-.383-.627-.422-.977c-.039-.35.082-1.113.03-1.335-.033-.132-.177-.213-.295-.057-.116.155-.215.7-.196.932.02.233.118.835.373 1.224.255.39.764.953.764.953s-1.057-.874-1.49-1.769c-.431-.893-.915-1.715-1.271-1.933-.479-.294-.89-.33-.99-.094 0 0 .711.395.966.744.255.35.942 1.438.942 1.438-.007.087-.073.084-.2-.009 0 0-.759-1.314-1.151-1.637-.24-.195-.845-.609-1.18-.59-.332.02-.52.099-.385.217.137.116.935.602 1.073.797.137.193.745.93.9 1.049l.826.62s-.124.08-.666-.267c-.163-.106-.638-.706-.975-.9-.187-.107-1.06-.193-.981.157.08.35.522.292.777.408.256.116.884.486.884.486s-.896-.034-1.022.136c-.281.383-.057.505-.057.505s.268-.216.561-.216c.294 0 1.733.41 1.733.41s-1.055-.144-1.232-.047c-.176.096-.324.402-.18.475.063.031.353-.196.647-.196.295 0 1.256.293 1.256.293s-.583.098-.72.234c-.137.134-.144.35-.144.35s.596-.083 1.066-.083c.47 0 1.778.45 2.131.664.353.214 2.583 1.438 2.583 1.438l.234-.271zm-1.155-1.04s.894-.63 1.057-1.033c.161-.402.054-1.703.04-1.851-.015-.148-.033-.153.08-.175.24-.047.408.162.49.442.08.283.108.619.094.886-.013.27-.149.673-.149.673s.677-.686.731-.953c.055-.27.177-.873.123-1.034-.055-.162-.231-.402-.163-.443a.307.307 0 0 1 .365.068c.122.134.23.697.23.818 0 .12-.08.644-.08.644s.38-.43.42-.765c.04-.336.134-.9.082-1.182-.055-.28-.19-.55-.014-.603.175-.054.338.228.42.577.08.35-.028 1.074-.123 1.276l-.324.71s.609-.912.826-1.34c.216-.431.555-1.196.96-1.504.408-.31.476-.43.664-.43.19 0 .462.107.462.107s-.474.31-.745.658c-.272.35-.474.778-.596.953l-.502.711s.462-.43.704-.792c.245-.363.557-.94.854-1.128.299-.187.786-.428 1.084-.388.297.04.5.188.5.188s-.5.175-.758.429c-.258.255-.935 1.007-1.232 1.22-.298.216-.772.685-.772.685s.446-.254.786-.537c.338-.28.582-.563.908-.576.324-.014.988.215.988.215s-.379-.014-.61.148c-.23.16-.677.469-.826.51-.15.04-.406.2-.406.2s.474-.093.623-.026c.15.066.271.482.271.482s-.692-.174-1.26.095c-.57.267-2.222.884-2.222.884s1.3-.442 1.517-.496c.218-.054.84-.175 1.003-.013.163.16.15.43.15.43s-.693-.215-1.044-.148c-.353.067-.718.255-.718.255s.596-.04.69.041c.096.079.204.496.177.563-.027.067-.108-.04-.502-.107-.392-.068-.947-.216-1.477-.014-.527.202-2.33.992-2.33.992l-.446-.321zm5.242-3.313s.095 0 .15-.054l.69-.765c.095-.107 1.058-.818 1.058-.818s-.895.482-1.112.724c-.217.24-.786.913-.786.913zm-1.232 1.328s.908-.457 1.15-.657a6.49 6.49 0 0 1 .936-.605c.258-.133.772-.227.772-.227s-.826.28-1.273.63c-.448.348-1.152.738-1.26.779-.11.04-.325.08-.325.08zm1.003-.255s.528-.162.704-.162c.175 0 .596.095.596.095s-.394-.202-.61-.175c-.216.027-.69.242-.69.242zm-2.819 1.584s.84-.256 1.112-.256c.27 0 1.232.229 1.232.229s-.813-.337-1.232-.31c-.421.027-1.112.337-1.112.337zm1.977-.806s.625-.134.786-.134c.163 0 .557.094.557.094s-.435-.175-.596-.162c-.163.014-.747.202-.747.202zm-6.096 2.63l1.112-.671.406.229-1.165.71-.353-.268z"/>
        <path fill="#DCC763" d="M24.633 17.61l.014-.17c.007-.056.042-.31.042-.38l.007-.4c0-.035-.007-.204-.028-.24-.021-.035-.07.014-.07.014l-.064 1.26.1-.085zm-.857.533l-.048-.084a2.67 2.67 0 0 1 .223-.057c.073-.014.188.04.258.078l-.014.042c-.02.106-.133.527-.133.527s-.111.064-.146.007c-.035-.056-.056-.36-.14-.513zm.573-.259c-.086-.033-.266-.1-.363-.1-.102 0-.294.061-.377.092l.06.091c.076-.02.217-.054.282-.049.07.005.247.04.326.056l.072-.09zm-.412-3.714l.007.127h-.192l.015-.127h.17zm.244 0l.005.127h-.14l.004-.127h.131zm-.129-.063l.01-.162c.014-.057.07.014.105.07l.012.092h-.127zm-.276 0l.014-.113s.035-.063.07-.07c.035-.007.049.035.063.084l.01.099h-.157zm.658 3.684c-.007.007-.002.024-.01.032-.102-.095-.34-.152-.466-.152s-.32.07-.417.11c-.12-.16-.253-.305-.35-.32-.18-.028-.313.008-.355.043-.042.035-.077.09-.077.09l-.014-.125s.118-.198.14-.247c.02-.05.013-.176.07-.212.055-.035.167-.07.132-.18-.035-.114-.259-.86-.259-.972 0-.113.07-.183.133-.197.063-.015.119-.12.07-.197-.049-.078-.375-.57-.41-.81-.035-.237.035-.625.098-.66.06-.035.403-.125.459-.174.056-.05.02-.057-.014-.247-.035-.19-.098-.338-.063-.402.035-.063.02-.167.077-.113.056.058.23.233.272.24.04.007.117-.028.07-.092-.05-.063-.335-.266-.377-.414-.042-.148-.098-.689-.189-.822-.09-.134-.242-.325-.235-.423.005-.097.019-.189.06-.189.043 0 .14-.028.12-.07-.021-.043-.091-.282-.05-.296.042-.015.336.098.37.07.035-.028-.006-.224-.034-.266-.028-.042-.182-.26-.161-.324.02-.064.23-.162.23-.219 0-.056-.146-.169-.181-.21-.035-.042-.189-.436-.168-.535.021-.097.05-.162.105-.153.056.007.154.061.182 0 .028-.064-.084-.275-.056-.38.028-.107.125-.22.125-.262 0-.042-.23-.188-.272-.301-.042-.113 0-.26.056-.26s.244.056.265.006c.021-.05-.112-.24-.125-.322-.014-.085.007-.197.049-.212a.779.779 0 0 1 .19.006c.073.324.387.43.654.222.122.11.255.135.396.077 0 0 .007.277-.076.398-.084.124-.145.14-.145.14s.129-.316.106-.362c-.023-.045-.075-.061-.075-.061l-.054.007s.068.254-.052.301c-.123.046-.281-.062-.281-.062s-.07.108 0 .147c.068.037.274.061.274.061s-.002.154.113.108c.114-.048.265-.254.265-.254s0 .138.061.122c.062-.014.107-.206.084-.33-.022-.123-.084-.308-.084-.308l.107-.26s.153-.03.206-.024c.054.009.199-.023.199.108 0 .13-.1.354-.145.423-.045.068-.138.153-.084.176.052.023.168.023.182.068.015.048-.143.316-.143.364 0 .045.19-.01.19-.01s.036.163-.016.286c-.054.122-.183.284-.16.345.022.062.267.147.274.215.008.069-.069.408-.13.476-.06.07-.167.17-.167.254 0 .084.076.155.129.162.054.007.138-.032.092.053-.047.084-.274.47-.282.576-.007.11-.053.24.008.23.062-.006.35-.13.38-.06.03.07.024.323-.037.447-.062.121-.281.528-.281.66 0 .13-.034.416-.048.446-.015.03-.106.23-.106.23l-.175.253s-.007.107.053.085c.06-.023.145-.216.183-.238.038-.023.068.022.093.077.022.053-.062.407-.062.407l-.008.231s.054.037.137.03c.084-.007.288.069.304.155.016.083.103.416.082.515-.02.098-.361.569-.389.71-.028.139-.07.357-.007.4.061.042.195.063.201.134.007.07-.061.484-.09.583-.029.098-.16.491-.139.562.021.07.105.36.105.465 0 .106.012.197.012.197s-.155-.075-.337-.016l.039-1.103.027-.077c.035-.056.029-.106-.013-.106h-.112c-.07 0-.16.036-.16.036s.034-.022 0 .175a6.228 6.228 0 0 0-.057.527l-.02.473-.01.315zm-.706-1.096s0 .598.027.647c.028.049.42.02.466.02.05 0 .01-.056-.012-.09-.021-.036-.28-.008-.328-.015-.049-.007-.07-.056-.077-.106-.007-.049.175-.056.23-.056.057 0 .236.141.266.141.027 0 0-.365 0-.45 0-.084-.007-.19-.063-.218-.056-.028-.356-.028-.363.007-.007.035.098.035.181.057.084.02.133.035.161.084.026.05.014.323-.014.35-.028.03-.237-.041-.286-.041-.049 0-.056-.055-.056-.106 0-.048.28-.042.251-.085-.028-.042-.21-.005-.258-.042-.049-.034-.007-.14-.049-.16-.042-.022-.076.063-.076.063zm-.25-7.679s.193.296.277.296c.084 0 .307-.155.307-.155s.112.155.306.155c.195 0 .363-.126.356-.218-.007-.092.007-.247-.021-.275-.028-.028-.084.24-.098.268-.014.028-.077.021-.077.021s.063-.12.05-.197c-.015-.078-.05-.127-.064-.099-.014.028-.076.31-.137.345-.063.036-.112-.007-.168-.035-.056-.028-.105 0-.077-.056.028-.057.077-.162.07-.219-.007-.056-.07.007-.105.07a2.899 2.899 0 0 1-.153.22s.063-.163.07-.226c.006-.064-.07-.092-.07-.092s-.091.31-.133.324c-.042.014-.133-.028-.147-.063l-.07-.141s-.088-.035-.11 0c-.02.035-.006.077-.006.077zm-.147.746c.028.056.16.155.222.155l.146-.008s-.014.226-.007.269c.007.042.063.259.112.287.049.028.098-.014.07-.113-.028-.099-.098-.204-.09-.309.006-.105.041-.21.083-.239a.739.739 0 0 1 .272-.063c.077 0 .154.02.16.098l.034.372c.007.077-.014.247-.091.282-.075.035-.263.056-.333.07-.07.015-.063.078 0 .085.063.007.438.014.48-.042.042-.057.16-.282.153-.346-.007-.063-.048-.125-.062-.181-.015-.056-.056-.12-.021-.14l.195-.093s-.244.057-.244-.02c0-.078.055-.142-.07-.177-.124-.035-.215-.05-.27-.035a.97.97 0 0 0-.203.07c-.07.036-.14.134-.196.127a.856.856 0 0 1-.235-.085c-.042-.028-.105.036-.105.036zm.042 2.79s.049-1.01.063-1.13c.014-.12.033-.43.13-.451.098-.022.914.006.962.035.05.028.175.148.175.197 0 .05.02.148-.028.12-.049-.028-.112-.198-.23-.219-.118-.02-.794-.084-.822-.035-.028.05-.091.633-.091.767s-.035.653-.042.703c-.005.049-.117.014-.117.014zm.39-.794l.02-.266c.007-.078.09-.148.09-.148l.231-.021c.07-.007.21.007.229.056.021.05-.04.035-.082.057-.042.02-.196 0-.244 0-.05 0-.098.07-.126.12-.028.049.098.013.16.005a.632.632 0 0 1 .259.058c.04.026.047.11.04.217l-.054.542s-.028-.19-.028-.275c0-.084-.021-.31-.037-.36-.012-.048-.068-.041-.11-.048a.922.922 0 0 0-.251.023c-.042.012-.02.075-.014.132.007.056.098.056.098.056s.132.007.202.035c.07.029.007.05-.028.064a.666.666 0 0 1-.202-.007c-.049-.007-.049.049-.063.099a.135.135 0 0 0 .035.133c.035.036.126.014.21.014.083 0 .055.05.055.078 0 .028-.23 0-.293.005-.063.009-.007.107-.042.148-.035.042-.063-.076-.07-.125-.007-.051.014-.592.014-.592zm.8-.259s-.035.386-.035.47c0 .085-.042.555-.048.584-.007.028-.035.14-.091.169-.056.028-.07.098-.07.098s.237-.049.21 0a.432.432 0 0 1-.152.127c-.037.014.012.035-.147-.02-.16-.057-.21-.05-.286-.057l-.259-.021c-.104-.007-.125-.036-.16-.014-.035.02.028.07.063.091.035.021.265.064.335.064s.286-.021.319 0c.037.02.203.063.244.035.042-.028.16-.05.189-.12a.56.56 0 0 0 .042-.204c0-.064-.021-.17-.021-.254l.007-.337c0-.105.028-.288.042-.33l.062-.203c.014-.043.022-.106-.041-.106s-.105.134-.098.169c.007.034-.028.35-.035.393-.007.042-.02.24-.02.324 0 .083-.05.252-.05.16l.014-.308c0-.063.021-.204.035-.303.014-.099.007-.148.007-.225v-.189c0-.056-.014-.07-.014-.07l-.042.077zm-1.1 2.172s.043-.077.069-.105l.132-.148c.028-.035.035-.127.028-.155a.931.931 0 0 0-.09-.168c-.021-.028.09-.037.09-.037s.147.03.238.037l.307.013c.077 0 .068.05.077.107.005.055-.384.012-.44 0-.056-.016-.07.012-.07.012s.021.141-.007.191c-.028.05-.216.296-.25.331-.036.035-.083-.078-.083-.078zm.774-.338s.263.36.312.409c.05.05-.07.113-.104.097-.035-.012-.306-.379-.313-.435-.007-.057.105-.07.105-.07zm-.892.536s-.028.139-.028.195c0 .057.014.957 0 1.21s.035.239.056.267c.021.028.09-.092.09-.092l.006-1.35c0-.049-.04-.197-.068-.23-.028-.035-.056 0-.056 0zm1.128.111s.013-.069.048-.05c.035.022.112.043.119.078.007.035-.028.437-.02.528.006.092.02.788.055.859.035.069-.028.23.014.259a.435.435 0 0 1 .084.084s-.056.064-.098.057c-.042-.007-.584.02-.69.02-.104 0-.37-.084-.37-.084s-.013-.056.029-.056c.041 0 .223.07.349.07.125 0 .384.007.452-.028.07-.035.146-.106.146-.134 0-.028.049-.077 0-.091-.049-.015-.126.07-.167.084-.042.014-.27.035-.438.035-.168 0-.37-.042-.384-.098-.014-.056-.028-.118.028-.118.055 0 .118.069.25.082.134.015.453.008.488-.013.035-.022.063-.055.063-.148l.042-1.336zm-.43.387h.143c.007.344.004.818.023.852.028.049.077-.717.077-.767l.019-.465c0-.056-.117-.153-.117-.153s-.223-.064-.349-.05c-.126.014-.126.076-.168.147-.041.07.014.436.014.493l.028.078s.028-.064.028-.106l.206-.029.01.226s.05-.016.07-.05a.935.935 0 0 0 .016-.176zm-.684 2.89s0 .064.07.106c.068.042.068 0 .082-.035.014-.035-.033-.148-.033-.148l.028-.577c0-.077-.028-.288-.028-.338 0-.05.028-.098.019-.132-.007-.037-.096-.03-.11.02-.014.049-.028 1.104-.028 1.104zm.32-1.119c0 .029.18.051.328.051.146 0 .39.034.445.006.055-.028.09-.092.055-.104-.034-.014-.174-.014-.25-.014l-.523.014c-.056 0-.056.047-.056.047z"/>
        <path fill="#DCC763" d="M24.272 19.27c.003-.342-.195-.621-.446-.628-.248-.005-.455.267-.458.608-.003.32.17.588.4.622.044-.083.121-.252.135-.45a4.43 4.43 0 0 0-.009-.608c.098.047.15.431.12.59-.022.114-.1.344-.14.468.22-.036.394-.29.398-.603m.598-.864c-.12.224-.297.382-.462.432.072-.081.178-.226.255-.435.128-.346.1-.496.1-.496s-.07.01-.06.066c.01.056-.129.45-.177.542a3.245 3.245 0 0 1-.242.325.499.499 0 0 0-.256-.258.887.887 0 0 1 .114-.527c.178-.331.485-.521.685-.424.202.098.22.444.043.775m-1.323.222l-.061.048a5.768 5.768 0 0 0-.094-.44c-.04-.122-.267-.385-.277-.348-.01.037.08.131.168.356.066.167.088.443.095.573l-.022.049c-.243.08-.54-.168-.675-.544-.138-.379-.063-.746.164-.82.227-.075.525.171.662.548a.959.959 0 0 1 .04.578m.843.775s.06-.182.17-.284c.11-.102.267-.265.257-.18-.009.083-.127.25-.203.326-.079.077-.224.138-.224.138m-.01-.373s.285-.104.394-.226c.108-.12.207-.383.176-.393-.029-.008-.147.244-.207.31-.058.065-.363.309-.363.309M16.264 21.542v1.51s3.416-.58 7.262-.534c3.845.046 8.08.458 8.08.458s.015-.61.015-.763c0-.154.115-.737.115-.737s-7.103-.428-8.113-.411c-1.008.014-7.359.477-7.359.477"/>
        <path fill="#7E5838" d="M31.201 22.72c.135 0 .253.091.32.226a.336.336 0 0 1 .239-.11c.205 0 .372.212.372.475 0 .26-.167.472-.372.472-.135 0-.253-.09-.32-.225a.328.328 0 0 1-.239.108c-.14 0-.263-.1-.326-.247a.345.345 0 0 1-.282.163c-.154 0-.287-.118-.344-.287-.065.139-.184.235-.323.235-.155 0-.289-.122-.345-.293-.067.12-.178.197-.304.197-.146 0-.27-.104-.332-.258-.068.124-.18.206-.309.206-.13 0-.244-.084-.311-.215a.344.344 0 0 1-.287.171c-.132 0-.246-.084-.313-.212a.348.348 0 0 1-.287.172c-.135 0-.253-.092-.318-.228-.068.106-.172.176-.288.176-.142 0-.264-.1-.329-.246-.066.122-.179.202-.306.202-.162 0-.3-.132-.351-.317-.048.191-.188.328-.356.328-.205 0-.372-.213-.372-.473 0-.263.167-.475.372-.475.164 0 .302.135.354.319.048-.191.188-.328.353-.328.142 0 .264.098.329.243.066-.121.179-.202.306-.202.133 0 .252.092.318.228a.35.35 0 0 1 .288-.175c.13 0 .246.086.313.214a.348.348 0 0 1 .287-.171c.13 0 .244.084.31.213a.348.348 0 0 1 .288-.17c.145 0 .272.104.333.258.067-.123.18-.206.308-.206.157 0 .29.122.345.293.068-.12.18-.197.304-.197.154 0 .287.117.344.286.064-.139.184-.234.323-.234.141 0 .265.1.328.247.068-.1.169-.163.28-.163zm-6.477-.455c.207 0 .375.212.375.475 0 .26-.168.473-.375.473-.175 0-.323-.156-.362-.365-.039.209-.186.365-.362.365-.207 0-.374-.213-.374-.473 0-.263.167-.475.374-.475.176 0 .323.156.362.365.04-.209.187-.365.362-.365zm-1.483 0c.207 0 .375.212.375.475 0 .26-.168.473-.375.473-.177 0-.328-.16-.364-.373-.029.223-.183.394-.367.394-.152 0-.284-.115-.342-.281-.061.154-.186.26-.333.26-.144 0-.268-.104-.33-.254-.061.156-.188.265-.335.265-.123 0-.23-.074-.299-.191-.063.145-.186.243-.325.243-.123 0-.23-.074-.299-.19-.064.146-.186.244-.326.244-.123 0-.232-.076-.3-.195-.062.154-.187.258-.332.258-.132 0-.248-.09-.315-.221-.058.166-.19.284-.341.284a.34.34 0 0 1-.275-.154c-.062.154-.189.26-.334.26a.35.35 0 0 1-.283-.165c-.058.165-.188.28-.34.28-.101 0-.192-.05-.259-.13-.065.134-.184.225-.318.225a.342.342 0 0 1-.268-.143c-.066.13-.182.217-.314.217-.207 0-.374-.213-.374-.473 0-.262.167-.473.374-.473.104 0 .2.055.268.144.065-.13.181-.217.314-.217.1 0 .19.05.259.13.065-.137.182-.226.318-.226.112 0 .213.063.282.165.058-.165.19-.282.341-.282a.34.34 0 0 1 .275.154c.062-.154.187-.26.334-.26.131 0 .247.089.314.221.058-.167.19-.284.342-.284.124 0 .232.076.3.193.062-.152.188-.256.332-.256.123 0 .23.074.299.189.063-.143.186-.24.326-.24.122 0 .23.073.298.188.065-.146.186-.243.326-.243.144 0 .269.104.33.256.061-.159.188-.267.335-.267.152 0 .284.117.342.282.061-.154.188-.26.333-.26.18 0 .328.16.364.373.03-.224.183-.395.367-.395zm-.372.475l.008.1.005-.08-.008-.1-.005.08z"/>
        <path fill="#DCC763" d="M15.868 23.542c0-.167.12-.305.268-.305.148 0 .267.138.267.305 0 .168-.12.304-.267.304-.149 0-.268-.136-.268-.304m.59-.066c0-.168.12-.306.269-.306.147 0 .267.138.267.306 0 .167-.12.303-.267.303-.149 0-.269-.136-.269-.303m.584-.087c0-.167.121-.303.269-.303.147 0 .267.136.267.303 0 .17-.12.306-.267.306-.148 0-.269-.137-.269-.306m.632-.104c0-.17.122-.306.269-.306.147 0 .267.136.267.306 0 .167-.12.303-.267.303-.147 0-.269-.136-.269-.303m.617-.097c0-.167.12-.306.267-.306.149 0 .268.139.268.306 0 .167-.12.303-.268.303-.148 0-.267-.136-.267-.303m.667-.057c0-.17.12-.306.267-.306.147 0 .268.136.268.306 0 .167-.121.303-.268.303-.148 0-.267-.136-.267-.303m.641-.06c0-.167.12-.303.266-.303.15 0 .27.136.27.304 0 .17-.12.305-.27.305-.147 0-.266-.136-.266-.305m.632-.048c0-.167.12-.303.269-.303.147 0 .266.136.266.303 0 .168-.12.306-.266.306-.15 0-.269-.138-.269-.306m.632-.047c0-.17.12-.306.269-.306.147 0 .266.136.266.306 0 .167-.12.303-.266.303-.15 0-.269-.136-.269-.303m.676-.01c0-.17.12-.305.267-.305.148 0 .268.135.268.305 0 .168-.12.304-.268.304-.148 0-.267-.136-.267-.304m.682.02c0-.17.121-.306.269-.306.147 0 .267.136.267.306 0 .167-.12.303-.267.303-.148 0-.269-.136-.269-.303m.743-.02c0-.17.12-.305.267-.305.149 0 .268.135.268.305 0 .168-.12.304-.268.304-.147 0-.267-.136-.267-.304m.768 0c0-.17.12-.305.268-.305.148 0 .267.135.267.305 0 .168-.12.304-.267.304-.149 0-.268-.136-.268-.304m.736 0c0-.17.12-.305.267-.305.148 0 .268.135.268.305 0 .168-.12.304-.268.304-.148 0-.267-.136-.267-.304m.776 0c0-.17.12-.305.266-.305.15 0 .269.135.269.305 0 .168-.12.304-.269.304-.147 0-.266-.136-.266-.304m.717-.01c0-.167.12-.303.267-.303.147 0 .268.136.268.303 0 .168-.121.304-.268.304-.148 0-.267-.136-.267-.304m.64.038c0-.168.12-.304.268-.304.148 0 .268.136.268.304 0 .169-.12.305-.268.305-.148 0-.267-.136-.267-.305m.616.05c0-.169.12-.307.267-.307.147 0 .267.138.267.306 0 .168-.12.303-.267.303-.147 0-.267-.135-.267-.303m.607.037c0-.167.12-.303.268-.303.147 0 .267.136.267.303 0 .168-.12.306-.267.306-.149 0-.268-.138-.268-.306m.608.04c0-.168.119-.306.266-.306.15 0 .269.138.269.306 0 .167-.12.303-.269.303-.147 0-.266-.136-.266-.303m.65.047c0-.167.119-.303.266-.303.149 0 .268.136.268.303 0 .168-.12.304-.268.304-.147 0-.267-.136-.267-.304m.658.087c0-.168.12-.304.267-.304.147 0 .269.136.269.304 0 .167-.122.303-.269.303-.147 0-.267-.136-.267-.303m.674.047c0-.167.12-.303.269-.303.147 0 .266.136.266.303 0 .168-.12.306-.266.306-.15 0-.269-.138-.269-.306m.618.077c0-.167.12-.304.267-.304.15 0 .269.137.269.304 0 .168-.12.306-.269.306-.147 0-.267-.138-.267-.306m.565.106c0-.167.12-.305.269-.305.147 0 .266.138.266.305 0 .168-.12.304-.266.304-.15 0-.269-.136-.269-.304"/>
        <path fill="#7E5838" d="M16.24 21.136c.105 0 .198.041.267.11a.377.377 0 0 1 .316-.17c.108 0 .203.043.272.115a.38.38 0 0 1 .598-.058.38.38 0 0 1 .605-.075.374.374 0 0 1 .333-.197c.132 0 .25.066.315.167a.375.375 0 0 1 .341-.217c.125 0 .234.06.301.15a.376.376 0 0 1 .63-.052.376.376 0 0 1 .327-.186c.122 0 .23.056.298.144a.379.379 0 0 1 .326-.184c.144 0 .268.078.33.194a.379.379 0 0 1 .677.012.375.375 0 0 1 .333-.199c.18 0 .328.123.364.285.03-.17.184-.3.369-.3.205 0 .373.16.373.361a.367.367 0 0 1-.373.362.372.372 0 0 1-.366-.284c-.029.171-.183.3-.367.3a.369.369 0 0 1-.34-.215.375.375 0 0 1-.334.199.376.376 0 0 1-.33-.194.373.373 0 0 1-.336.202.379.379 0 0 1-.3-.144.377.377 0 0 1-.624.04.372.372 0 0 1-.323.186.373.373 0 0 1-.301-.148.378.378 0 0 1-.648.026.379.379 0 0 1-.617.101.38.38 0 0 1-.61.078.374.374 0 0 1-.33.191.37.37 0 0 1-.272-.114.378.378 0 0 1-.321.177.377.377 0 0 1-.267-.107.377.377 0 0 1-.316.167.366.366 0 0 1-.372-.361c0-.2.166-.362.372-.362zm6.642-.083l-.01-.078-.004.061.008.078.006-.06zm1.117-.378c.176 0 .325.118.362.279a.37.37 0 0 1 .364-.28c.205 0 .373.162.373.362a.367.367 0 0 1-.373.362.37.37 0 0 1-.364-.279.368.368 0 0 1-.362.279.366.366 0 0 1-.372-.362c0-.2.165-.361.372-.361zm1.492 0c.162 0 .3.101.352.242a.371.371 0 0 1 .356-.25c.14 0 .263.074.326.187a.374.374 0 0 1 .306-.156c.135 0 .253.07.318.175a.376.376 0 0 1 .289-.133c.131 0 .246.064.312.162a.378.378 0 0 1 .599.033.373.373 0 0 1 .287-.13c.145 0 .271.079.333.196a.38.38 0 0 1 .654.069.37.37 0 0 1 .303-.153.37.37 0 0 1 .343.22.375.375 0 0 1 .323-.18c.142 0 .265.076.329.189a.376.376 0 0 1 .281-.125c.134 0 .253.07.318.173a.385.385 0 0 1 .24-.083c.205 0 .372.161.372.362 0 .2-.167.36-.372.36a.377.377 0 0 1-.32-.171.376.376 0 0 1-.566-.106.373.373 0 0 1-.282.126.374.374 0 0 1-.343-.22.375.375 0 0 1-.323.178.375.375 0 0 1-.346-.224.376.376 0 0 1-.635-.046.372.372 0 0 1-.31.157.376.376 0 0 1-.31-.162.379.379 0 0 1-.6-.033.377.377 0 0 1-.287.13.375.375 0 0 1-.318-.172.383.383 0 0 1-.29.133.373.373 0 0 1-.325-.187.38.38 0 0 1-.659-.088.373.373 0 0 1-.355.25.367.367 0 0 1-.374-.362c0-.2.167-.361.374-.361z"/>
        <path fill="#DCC763" d="M15.868 21.549c0-.174.12-.312.268-.312.148 0 .267.138.267.312 0 .17-.12.31-.267.31-.149 0-.268-.14-.268-.31m.59-.075c0-.171.12-.31.269-.31.147 0 .267.139.267.31 0 .173-.12.313-.267.313-.149 0-.269-.14-.269-.313m.601-.074c0-.173.12-.313.267-.313.15 0 .269.14.269.313 0 .17-.12.31-.269.31-.147 0-.267-.14-.267-.31m.615-.089c0-.171.122-.31.269-.31.147 0 .267.139.267.31 0 .171-.12.31-.267.31-.147 0-.269-.139-.269-.31m.617-.099c0-.17.12-.31.267-.31.149 0 .268.14.268.31 0 .174-.12.313-.268.313-.148 0-.267-.14-.267-.313m.667-.058c0-.172.12-.31.267-.31.147 0 .268.138.268.31 0 .171-.121.312-.268.312-.148 0-.267-.14-.267-.312m.641-.059c0-.17.12-.312.266-.312.15 0 .27.141.27.312 0 .172-.12.31-.27.31-.147 0-.266-.138-.266-.31m.632-.048c0-.173.12-.312.269-.312.147 0 .266.139.266.312 0 .172-.12.31-.266.31-.15 0-.269-.138-.269-.31m.632-.05c0-.171.12-.31.269-.31.147 0 .266.139.266.31 0 .173-.12.312-.266.312-.15 0-.269-.139-.269-.312m.676-.01c0-.171.12-.31.267-.31.148 0 .268.139.268.31 0 .173-.12.312-.268.312-.148 0-.267-.139-.267-.312m.682.02c0-.171.121-.31.269-.31.147 0 .267.139.267.31 0 .171-.12.31-.267.31-.148 0-.269-.139-.269-.31m.743-.02c0-.171.12-.31.267-.31.149 0 .268.139.268.31 0 .173-.12.312-.268.312-.147 0-.267-.139-.267-.312m.768 0c0-.171.12-.31.268-.31.148 0 .267.139.267.31 0 .173-.12.312-.267.312-.149 0-.268-.139-.268-.312m.736 0c0-.171.12-.31.267-.31.148 0 .268.139.268.31 0 .173-.12.312-.268.312-.148 0-.267-.139-.267-.312m.776 0c0-.171.12-.31.266-.31.15 0 .269.139.269.31 0 .173-.12.312-.269.312-.147 0-.266-.139-.266-.312m.717-.01c0-.171.12-.31.267-.31.147 0 .268.139.268.31 0 .173-.121.312-.268.312-.148 0-.267-.139-.267-.312m.64.04c0-.171.12-.313.268-.313.148 0 .268.142.268.313s-.12.31-.268.31c-.148 0-.267-.139-.267-.31m.616.048c0-.17.12-.31.267-.31.147 0 .267.14.267.31 0 .173-.12.313-.267.313-.147 0-.267-.14-.267-.313m.607.04c0-.173.12-.31.268-.31.147 0 .267.137.267.31 0 .172-.12.31-.267.31-.149 0-.268-.138-.268-.31m.608.039c0-.171.119-.31.266-.31.15 0 .269.139.269.31 0 .173-.12.312-.269.312-.147 0-.266-.139-.266-.312m.65.048c0-.171.119-.31.266-.31.149 0 .268.139.268.31 0 .174-.12.312-.268.312-.147 0-.267-.138-.267-.312m.658.09c0-.172.12-.311.267-.311.147 0 .269.139.269.312 0 .171-.122.31-.269.31-.147 0-.267-.139-.267-.31m.674.048c0-.173.12-.312.269-.312.147 0 .266.139.266.312 0 .171-.12.31-.266.31-.15 0-.269-.139-.269-.31m.618.079c0-.173.12-.312.267-.312.15 0 .269.139.269.312 0 .17-.12.31-.269.31-.147 0-.267-.14-.267-.31m.565.106c0-.17.12-.31.269-.31.147 0 .266.14.266.31 0 .174-.12.313-.266.313-.15 0-.269-.14-.269-.313"/>
        <path fill="#7E5838" d="M26.579 11.976s-.435-.217-.765-.306c-.33-.09-.646-.144-.646-.144s-.38.41-.393.626c-.014.218-.08.538-.08.538s.183.178.117.332c-.064.154-.05.32-.05.32s.367.153.393.242c.027.09.198.526.092.742-.105.218-.355.64-.355.64s.21.115.197.243c-.013.128-.262.998-.262.998l.289.062s.749-1.802.907-2.3c.158-.499.556-1.993.556-1.993m-5.554-.04s.461-.205.79-.295c.328-.09.631-.09.631-.09s.381.41.394.628c.014.217.08.537.08.537s-.185.178-.12.332c.067.153.054.32.054.32s-.368.154-.394.242c-.027.09-.198.525-.093.742.106.217.355.639.355.639s-.21.115-.196.243c.011.128.262.999.262.999l-.289.062c-.67-1.653-1.161-3.106-1.474-4.36M23.114 21.68l-.008.461s-.023.15.224.157c.244.008 1.505.015 1.505.015s.133-.043.133-.23c0-.186.014-.492-.022-.535-.038-.043-.135-.085-.275-.079-.142.008-1.341.008-1.341.008s1.347.053 1.436.083c.09.028.105.236.098.337-.007.1-.022.287-.111.293-.09.007-1.44-.004-1.498-.021-.096-.03-.14-.489-.14-.489m-2.26.075l.017.459s-.014.151.23.146c.247-.006 1.504-.062 1.504-.062s.132-.05.121-.236c-.01-.187-.011-.49-.05-.532-.04-.041-.14-.079-.28-.066-.14.015-1.339.076-1.339.076s1.35-.015 1.44.01c.091.023.118.23.117.332-.003.099-.007.287-.096.298-.089.012-1.438.068-1.497.055-.097-.025-.167-.48-.167-.48m-2.099.12l.023.423s-.01.14.201.13c.212-.01 1.302-.084 1.302-.084s.113-.048.1-.22c-.01-.171-.015-.452-.05-.49-.035-.038-.12-.07-.242-.054-.121.015-1.16.094-1.16.094s1.169-.04 1.25-.018c.078.02.102.21.102.303s-.002.266-.079.278c-.077.013-1.245.089-1.295.077-.085-.02-.152-.439-.152-.439m-2.095.24l.051.42s0 .14.21.116c.213-.023 1.294-.172 1.294-.172s.11-.056.085-.226c-.024-.17-.05-.45-.087-.485-.036-.035-.125-.061-.245-.038a69.23 69.23 0 0 1-1.149.171s1.163-.117 1.243-.102c.08.015.119.205.126.297.006.093.017.264-.059.283-.077.016-1.236.173-1.288.163-.085-.013-.18-.427-.18-.427m8.715-.431l-.016.459s-.025.15.221.161c.245.012 1.503.04 1.503.04s.136-.041.139-.228c.003-.185.024-.49-.014-.533-.036-.045-.131-.089-.273-.084-.14.005-1.341-.015-1.341-.015s1.348.076 1.436.106c.09.03.1.239.091.338-.01.1-.027.287-.116.292-.091.007-1.44-.028-1.498-.046-.094-.03-.132-.49-.132-.49m2.304.082l-.041.423s-.031.137.18.157c.213.018 1.302.09 1.302.09s.118-.033.132-.205c.014-.17.05-.45.02-.491-.029-.042-.109-.086-.232-.086-.121-.002-1.16-.064-1.16-.064s1.164.12 1.237.151c.075.03.074.223.06.314-.014.093-.041.263-.118.264-.079.002-1.247-.077-1.295-.096-.08-.033-.085-.457-.085-.457m2.054.144l-.048.42s-.033.138.178.16c.212.024 1.3.113 1.3.113s.118-.03.135-.201c.017-.172.058-.45.029-.492-.028-.041-.108-.088-.23-.091-.123-.001-1.16-.082-1.16-.082s1.16.138 1.236.171c.073.033.068.225.053.315-.017.093-.046.263-.123.263-.08.001-1.245-.1-1.293-.119-.08-.033-.077-.457-.077-.457"/>
        <path fill="#DCC763" d="M16.348 18.465s-.989-.757-1.07-1.01c-.083-.251-.29-.827-.165-.757.123.07.412.323.603.645.193.323.77 1.08.77 1.08s-.166-.743-.152-.982c.014-.237.068-.574.165-.546.096.028.287.504.275.674-.015.167-.097.713.012.91.111.198.596.632.596.632s-.219-.434-.219-.604c0-.167 0-.323.124-.225.122.1.356.492.41.645.055.156.29.562.453.66.166.098.509.21.509.21s-.411-.238-.466-.449c-.055-.21-.138-.448-.028-.49.11-.042.33.17.398.323.069.153.205.476.37.59.165.11.426.278.48.265.055-.015-.068-.112-.15-.224-.082-.113-.138-.392-.013-.378.122.014.274.35.383.434.11.084.741.42.741.42s-.26-.295-.302-.448c-.04-.155-.082-.239.055-.239.138 0 .454.504.522.534.069.026.096-.225.096-.35 0-.128.11-.044.288.083.178.125.302.153.343.28.041.127.385.364.385.364s-.193-.307-.193-.407c0-.097-.028-.265.083-.195.11.07.3.21.328.267.03.056.261.251.261.251s-.191-.267-.15-.267c.04 0 .275.072.33.17.054.097.315.28.315.28l-.261.126-.357.042-.495.042c-.123.013.454-.21.454-.21s-.425.056-.536.084c-.109.028-.302.167-.37.167-.069 0-.412.1-.493.072-.084-.028-.069-.295.122-.337.193-.042.577-.169.577-.169s-.55-.014-.783.127c-.232.14-.384.294-.52.307-.137.015-.591.1-.646.142-.055.042-.261.111-.177 0 .082-.112.547-.436.7-.462.15-.03.315-.128.315-.128s-.316-.014-.508.084c-.192.1-.576.42-.782.45-.207.028-.316-.127-.22-.28.095-.156.727-.366.727-.366s-.44-.125-.769-.041c-.329.083-.658.35-.945.42-.289.07-.55-.098-.468-.253.082-.153.207-.42.411-.504.207-.084.385-.14.385-.14s-.26-.085-.467.042c-.204.126-.402.365-.69.335-.29-.026-.537-.098-.646-.28-.11-.182.15-.308.398-.322.247-.014.898-.028.898-.028s-.05-.127-.466-.197c-.419-.07-.871-.098-1.021-.195-.152-.098-.509-.365-.523-.492-.013-.126-.095-.252.055-.223.152.027.714.041.714.041zm11.33 1.796s.274-.056.356-.112c.082-.056.053-.21-.041-.112-.096.098-.314.224-.314.224zm-.762.111s.341-.153.408-.223c.068-.07.177-.251.177-.251s-.095.041-.205.167c-.107.126-.38.307-.38.307zm1.621-.237s.572.056.75.056c.177 0 .817.347.817.347s-.382-.263-.626-.375c-.246-.112-.668-.098-.668-.098s.285-.251.34-.39c.055-.138.069-.53.069-.53s-.082.336-.178.53c-.094.195-.504.46-.504.46zm.955-.39l.558.041s.122.098.408.153c.286.056.79.014.79.014l-.422-.055c-.218-.028-.449-.07-.612-.154-.164-.082-.722 0-.722 0zm.204-.236s.463-.294.476-.433c.014-.14-.081-.403-.081-.32 0 .083-.028.292-.082.39-.055.098-.313.363-.313.363zm.64-.35s.559-.111.736-.18c.176-.069.722-.222.722-.222s-.532.07-.708.111c-.178.042-.75.292-.75.292zm1.035-.793s.6-.682.681-.808c.082-.126.287-.584.287-.584s-.273.363-.355.514c-.08.154-.613.878-.613.878zm-.299-1.197s-.04.696-.082.892c-.04.193-.232.792-.232.792s.314-.627.342-.806c.027-.182-.028-.878-.028-.878zm-6.452 3.414l.438-.28c.18-.112.468-.168.468-.168l-.165.28s.37-.338.495-.422c.122-.083.232-.083.232-.083l-.082.42s.234-.309.356-.364c.125-.056.44-.126.44-.126l-.233.49s.343-.35.494-.42c.15-.07.59-.197.604-.113.013.085-.193.394-.275.45a2.141 2.141 0 0 1-.191.111s.356-.153.534-.365c.18-.209.316-.239.411-.209.096.028-.054.321-.054.321s.22 0 .438-.167c.22-.168.44-.534.495-.702.055-.167.205-.42.316-.378.11.042.178.267.123.406-.054.14-.234.477-.234.477s.482-.321.55-.477c.068-.153.178-.617.302-.743.123-.126.289-.223.316-.097.027.125-.07.63-.07.63s.398-.28.427-.519c.027-.237.013-1.036.095-1.247.082-.211.157-.463.28-.42.123.041.234.503.205.7-.027.196-.26.981-.26.981s.66-.827.769-1.066c.109-.237.425-.967.631-.743.205.225-.234 1.01-.386 1.191-.15.184-.904.76-.904.76s.768-.212.795-.114c.028.1-.433.618-.904.66-.473.041-1.077.21-1.077.21s.46.14.783.21c.32.07.553.197.553.28 0 .084-.567.393-.978.24-.413-.156-1.14-.24-1.14-.24s.713.168.822.268c.111.097.386.293.18.406-.205.112-.961-.169-1.248-.225-.289-.056-.852-.07-.852-.07s.37.154.509.267c.136.112.136.393-.014.365-.152-.03-.988-.436-1.113-.45-.123-.014.343.183.413.24.068.055-.04.21-.357.154-.315-.058-1.015-.478-1.015-.478s.616.42.507.42c-.11 0-.605 0-.66-.055-.054-.056-.506-.295-.506-.295s.411.295.316.295h-.455l-.479-.211.316.225s-.33-.014-.439.028a.701.701 0 0 0-.193.113l-.33-.35z"/>
        <path fill="#DCC763" d="M29.706 8.346l1.272.54.046.291-1.162-.538-.156-.293zm-.294.606l-.022.855.653.45-.63-1.305zm-.112 1.62l-.045.428.225.696 1.126.472-.382-1.146-.924-.45zm-.247 1.686l-.226.743.61.36-.384-1.103zm-.36 1.327l.832.36.09.63-.585.28-.472-.212-.051-.351.186-.707zm-.45 1.226l-.137.36.452.202.201-.269-.517-.293zm-.25.653l-.112.337.361.157.135-.316-.383-.178zm-.224.494l.383.18-.203.225-.18-.405zm1.868-3.61l1.216.585.283 1.349-1.183-.629-.316-1.304zm1.216-1.033c.024.09.396 1.192.396 1.192l1.17.81-.338-1.306-1.228-.696zm-.585-1.98l1.318.653.405 1.259-1.295-.72-.428-1.191zm1.475-.112l.271.428.967.54-.404-.564-.834-.404zm.7 1.371l1.034.787.204 1.012-1.06-.741-.179-1.058zm1.597 1.214l.18 1.08s.292.472.292.382c0-.09-.044-.875-.066-.966-.024-.09-.406-.496-.406-.496zm-.494-1.236l.179.428s.36.202.248.066l-.427-.494zm-.7 2.024c.069.112.25 1.147.25 1.147l.877 1.046-.18-1.451-.947-.742zm-1.283.923l.136 1.19.969.755-.115-1.271-.99-.674zm1.645 1.292c.022.09.11 1.08.11 1.08l.34.562.292-.764-.742-.878zm1.013-1.068l.247.382-.18.73-.067-1.112zm-2.365 1.968l.856.63.09 1.146-.225-.134c.13-.466-.042-1.053-.46-.602l-.24-.119-.021-.921zm-.607-.316l.089.856-.71-.406c.29-.291.496-.441.62-.45zM17.533 9.144l-.545 1.174-1.348.598.535-1.351 1.358-.421zm-3.286 1.64l1.184-.709-.464 1.351-1.232.865.512-1.508zm-.901.81s-.18.576-.21.73l-.045.443.348-.287.371-1.196-.464.31zm1.346-1.678l-.046.2s1.114-.511 1.161-.6c.046-.087.185-.398.185-.398l-1.3.798zm1.784-1.038l-.046.222 1.429-.578.163-.176-1.546.532zm1.802.111l.023.797-.535.244.512-1.04zm-.86 1.64l-.5 1.33 1.266-.555.187-.886-.048-.178-.906.289zm-2.01 1.13l-.512 1.329.07.132s1.162-.619 1.162-.686c0-.067.441-1.397.441-1.397l-1.16.621zm-1.673 1.307l.929-.688-.255 1.242-.93 1.052.256-1.606zm-.162 2.47l.51.902.141-.17.023-1.507-.674.776zm1.277-1.43l-.116 1.409 1.093-.92.232-1.353-1.209.865zm1.858-1.372l1.198-.665-.419 1.351-1.034.598.255-1.284zm1.895-.954l.162.709s-.604.399-.58.334l.418-1.043zm-.512 1.662l.836-.42.257.974-.93.6-.348-.157.185-.997zm-1.429 1.042c.07 0 .477.066.477.066l.233-.576-.71.51zm-.999 1.01l-.023 1.261a1.24 1.24 0 0 0-.58-.354c-.108-.012-.162.032-.164.133 0 0 0 .266.023.421l.07.4-.278.132v-1.219l.952-.775zm.558-.357l.045 1.153.722-.753-.628-.509-.14.11zm2.567-.33l.209.397.558-.243-.187-.477-.58.323zm.489.73l.3.332.258-.2-.164-.443-.394.31z"/>
        <path fill="#7E5838" d="M33.975 47.23c.324.411.156.796-.088 1.154a9.36 9.36 0 0 1-1.821 1.822c-.36.246-.744.413-1.155.09l-.211-.575a213.68 213.68 0 0 0-6.512-7.317l-6.634 6.947-.208.566c-.408.322-.79.159-1.149-.085-.422-.3-1.127-1.032-1.405-1.405-.244-.36-.41-.743-.088-1.154l.565-.208 6.929-6.735c-1.945-1.978-3.934-3.879-6.042-5.683l-2.364 2.402c-.47.47-.991.427-1.379.04l-2.225-2.227a.92.92 0 0 1 0-1.304l7.055-7.057a.923.923 0 0 1 1.304 0l2.225 2.226c.36.36.36.944 0 1.304l-2.44 2.44c1.766 2.064 3.75 4.168 5.69 6.086l6.942-6.748c.254-.403.338-1.019.145-1.27l-2.223-2.191-.1-.796 1.093-1.12.747.075c3.98 3.178 7.142 7.05 8.25 12.174l-.56.221c-.504-.843-2.889-4.837-4.355-5.648-.317-.175-.754-.089-1.301.28l-6.63 6.94c2.348 2.191 4.945 4.474 7.37 6.545l.575.211z"/>
        <path fill="#DCC763" d="M10.49 34.656a.59.59 0 0 1 0-.842l7.118-7.011a.608.608 0 0 1 .853 0l2.245 2.21a.588.588 0 0 1 0 .842l-2.674 2.635c1.83 2.123 3.802 4.168 5.935 6.229l-1.401 1.362c-2.105-2.117-4.133-4.035-6.303-5.849l-2.673 2.634a.611.611 0 0 1-.856 0l-2.244-2.21zm15.608 6.09c2.34 2.164 4.82 4.319 7.41 6.496l.548.199c.115.144.063.372-.155.688a9.11 9.11 0 0 1-1.763 1.737c-.32.215-.553.265-.699.152l-.201-.54a200.636 200.636 0 0 0-6.58-7.263l1.44-1.47z"/>
        <path fill="#DCC763" d="M29.093 28.454l-.067-.53.879-.898.498.05c4.438 3.531 7.129 7.478 8.076 11.842-1.792-2.987-3.391-5.101-4.439-5.678-.495-.273-1.092-.086-1.676.312L17.12 49.474l-.202.544c-.144.114-.376.063-.696-.154-.39-.276-1.069-.975-1.332-1.33-.217-.317-.269-.548-.154-.694l.545-.2 15.842-15.36c.292-.434.492-1.27.134-1.696l-2.165-2.13z"/>
        <path fill="#7E5838" d="M9.93 44.91S7.897 48 9.118 51.246c1.239 3.3 3.944 4.792 3.944 4.792s.89-3.676.095-6.525c-.839-2.995-3.227-4.603-3.227-4.603"/>
        <path fill="#518551" d="M9.932 44.91s2.936 2.384 3.409 4.748c.358 1.792-.039 4.317-.137 5.42-1.364-2.949-2.257-5.983-3.142-9.061.527 3.066 1.556 6.11 2.908 9.227-.781-.563-2.415-1.822-3.62-4.053-1.684-3.12.582-6.28.582-6.28"/>
        <path fill="#7E5838" d="M13.595 50.872s-.636 2.897 1.182 4.887c1.844 2.024 4.264 2.267 4.264 2.267s-.373-2.968-1.765-4.802c-1.463-1.926-3.68-2.352-3.68-2.352"/>
        <path fill="#518551" d="M13.574 50.872s2.633.93 3.62 2.538c.747 1.22 1.203 3.19 1.45 4.03-1.745-1.787-3.202-3.77-4.667-5.791 1.223 2.112 2.775 4.065 4.559 5.98a8.806 8.806 0 0 1-3.56-1.969c-2.009-1.824-1.402-4.788-1.402-4.788"/>
        <path fill="#7E5838" d="M9.124 60.706s2.017-2.993 4.453-3.074c2.933-.099 5.464 1.78 5.464 1.78s-2.32 2.137-4.734 2.527c-2.416.39-5.183-1.233-5.183-1.233"/>
        <path fill="#518551" d="M9.124 60.57s2.923 1.387 5.02.946c1.59-.333 3.627-1.5 4.5-1.943-2.868-.03-5.75.352-8.568.725 2.692-.635 5.54-.97 8.541-1.008-.717-.392-2.296-1.104-4.527-1.253-3.115-.21-4.966 2.533-4.966 2.533"/>
        <path fill="#7E5838" d="M11.245 18.282s1.24 2.55.31 4.318c-1.117 2.127-3.43 3.233-3.43 3.233s-.53-2.448.178-4.316c.708-1.868 2.942-3.235 2.942-3.235"/>
        <path fill="#518551" d="M10.948 18.282s-2.18 1.485-2.681 3.128c-.38 1.247-.317 3.141-.333 3.93 1.153-1.994 2.005-4.16 2.84-6.281-.59 2.136-1.464 4.263-2.62 6.377.573-.345 1.725-1.16 2.715-2.66 1.381-2.092.08-4.494.08-4.494"/>
        <path fill="#7E5838" d="M15.868 24.477s-2.127-1.636-4.449-.781c-2.36.867-3.485 2.902-3.485 2.902s2.57.777 4.601.237c2.136-.567 3.333-2.358 3.333-2.358"/>
        <path fill="#518551" d="M15.868 24.765s-1.792 1.937-3.512 2.199c-1.303.198-3.117-.134-3.912-.23 2.163-.854 4.375-1.384 6.622-1.909-2.229.281-4.454.905-6.735 1.746a8.478 8.478 0 0 1 3.012-2.361c2.294-1.068 4.525.555 4.525.555"/>
        <path fill="#7E5838" d="M15.868 19.584s-2.632-.507-4.319.661c-2.727 1.89-3.615 5.588-3.615 5.588s2.633-.216 5-1.76c1.868-1.22 2.934-4.49 2.934-4.49"/>
        <path fill="#518551" d="M16.264 19.941s-1.182 3.063-3.074 4.162c-1.437.833-3.636 1.471-4.614 1.73a59.05 59.05 0 0 1 6.776-5.449c-2.482 1.358-4.744 3.22-7.021 5.248.252-.791.85-2.351 2.414-3.992 2.183-2.294 5.52-1.699 5.52-1.699"/>
        <path fill="#7E5838" d="M4.666 23.449s2.692 2.33 2.46 4.744c-.28 2.907-2.46 5.192-2.46 5.192s-1.813-2.534-1.887-4.961c-.074-2.43 1.887-4.975 1.887-4.975"/>
        <path fill="#518551" d="M4.323 23.449s-1.723 2.6-1.531 4.637c.146 1.546 1.07 3.614 1.407 4.495.365-2.712.323-5.485.284-8.199.315 2.625.315 5.36 0 8.208.475-.632 1.368-2.042 1.779-4.133.573-2.925-1.939-5.008-1.939-5.008"/>
        <path fill="#7E5838" d="M11.9 27.06s-3.17-.436-5.128 1.769c-1.99 2.239-2.012 4.953-2.012 4.953s3.148-.69 4.978-2.408c1.923-1.805 2.163-4.313 2.163-4.313"/>
        <path fill="#518551" d="M11.9 27.05s-.74 3.054-2.362 4.318c-1.234.958-3.295 1.658-4.17 2.017 1.74-2.137 3.722-3.966 5.738-5.807-2.138 1.578-4.077 3.51-5.949 5.702.14-.784.501-2.455 1.757-4.197C8.669 26.648 11.9 27.05 11.9 27.05"/>
        <path fill="#7E5838" d="M8.6 24.244s-2.654.825-3.658 2.63c-1.628 2.922-.725 6.51-.725 6.51s2.317-1.444 3.775-3.896c1.149-1.935.608-5.244.608-5.244"/>
        <path fill="#518551" d="M8.653 24.641s.41 3.103-.695 4.862c-.836 1.333-2.415 2.836-3.127 3.484a54.86 54.86 0 0 1 3.249-7.572c-1.484 2.236-2.547 4.8-3.55 7.51-.15-.778-.363-2.356.209-4.425.8-2.896 3.914-3.859 3.914-3.859"/>
        <path fill="#7E5838" d="M.88 31.397s3.151 1.447 3.694 3.833c.65 2.872-.606 5.706-.606 5.706s-2.42-1.9-3.243-4.21c-.82-2.309.154-5.329.154-5.329"/>
        <path fill="#518551" d="M.777 31.397s-.85 3.008-.008 4.892c.636 1.428 2.2 3.117 2.814 3.852-.512-2.697-1.441-5.327-2.349-7.902 1.148 2.405 2.025 5.013 2.628 7.823.263-.747.685-2.365.415-4.486-.375-2.963-3.5-4.179-3.5-4.179"/>
        <path fill="#7E5838" d="M9.064 32.59s-3.049.389-4.307 3.027c-1.28 2.681-.62 5.319-.62 5.319s2.744-1.479 4.007-3.611c1.33-2.244.92-4.735.92-4.735"/>
        <path fill="#518551" d="M8.727 32.59s.068 3.192-1.128 4.864c-.907 1.267-2.649 2.5-3.373 3.084 1.09-2.558 2.477-4.88 3.895-7.221-1.597 2.114-2.918 4.525-4.116 7.174a10.89 10.89 0 0 1 .595-4.586c1.027-2.855 4.127-3.315 4.127-3.315"/>
        <path fill="#7E5838" d="M4.612 31s-2.23 1.712-2.548 3.799c-.514 3.38 1.612 6.534 1.612 6.534s1.693-2.191 2.21-5.06C6.296 34.01 4.613 31 4.613 31"/>
        <path fill="#518551" d="M4.783 31.397s1.52 2.898 1.091 5.002c-.325 1.594-1.304 3.612-1.758 4.493-.08-2.868.051-5.714.394-8.539-.623 2.702-.721 5.581-.707 8.583-.428-.71-1.204-2.183-1.403-4.407-.276-3.111 2.383-5.132 2.383-5.132"/>
        <path fill="#7E5838" d="M0 40.936s3.488.221 4.857 2.295c1.647 2.496 1.486 5.654 1.486 5.654s-2.962-.922-4.568-2.819C.17 44.168 0 40.936 0 40.936"/>
        <path fill="#518551" d="M0 40.936s.313 3.257 1.76 4.799c1.1 1.168 3.138 2.255 3.964 2.752C4.28 46.03 2.48 43.79.718 41.594c1.92 1.94 3.664 4.178 5.232 6.715-.032-.83-.233-2.57-1.246-4.55C3.287 40.991 0 40.936 0 40.936"/>
        <path fill="#7E5838" d="M8.006 38.551s-2.729 1.676-2.843 4.69c-.118 3.061 1.587 5.246 1.587 5.246s1.993-2.564 2.32-5.106c.342-2.673-1.064-4.83-1.064-4.83"/>
        <path fill="#518551" d="M8.164 38.551s1.332 2.85.858 4.866c-.359 1.53-1.523 3.387-1.98 4.222.02-2.772.417-5.457.835-8.173-.677 2.59-.977 5.328-1.063 8.226a10.204 10.204 0 0 1-1.254-4.388c-.157-3.013 2.604-4.753 2.604-4.753"/>
        <path fill="#7E5838" d="M3.629 38.949s-1.576 2.306-1.187 4.355c.634 3.318 3.731 5.58 3.731 5.58s.899-2.584.44-5.425c-.36-2.243-2.984-4.51-2.984-4.51"/>
        <path fill="#518551" d="M3.73 38.949s2.26 2.207 2.536 4.289c.208 1.578-.034 3.755-.164 4.713a57.928 57.928 0 0 1-2.315-8.03c.287 2.696 1.099 5.394 2.05 8.169-.605-.524-1.756-1.645-2.627-3.643-1.218-2.793.52-5.498.52-5.498"/>
        <path fill="#7E5838" d="M1.983 52.286s3.196-2.07 5.738-1.2c3.063 1.047 4.973 3.826 4.973 3.826s-3.19 1.137-5.826.571c-2.636-.568-4.885-3.197-4.885-3.197"/>
        <path fill="#518551" d="M2.38 52.134s2.349 2.665 4.6 3.024c1.709.272 4.192-.18 5.233-.312-2.833-1.173-5.839-1.907-8.781-2.628 2.92.386 5.875 1.158 8.866 2.314-.557-.712-1.84-2.11-3.99-3.16-3.005-1.468-5.928.762-5.928.762"/>
        <path fill="#7E5838" d="M4.774 46.103s-.24 3.21 1.266 5.086c2.436 3.037 6.654 3.657 6.654 3.657s-.564-3.125-2.57-5.77c-1.583-2.089-5.35-2.973-5.35-2.973"/>
        <path fill="#518551" d="M5.165 46.5s3.777.975 5.312 2.997c1.163 1.534 2.188 3.961 2.614 5.046a69.017 69.017 0 0 1-7.288-7.056c1.912 2.662 4.399 5.01 7.08 7.36-.97-.192-2.891-.682-5.03-2.264C4.869 50.374 5.166 46.5 5.166 46.5"/>
        <path fill="#7E5838" d="M7.934 54.11s1.316 3.046 3.607 4.01c3.704 1.56 7.897.03 7.897.03s-2.018-2.57-5.139-3.985c-2.464-1.117-6.365-.054-6.365-.054"/>
        <path fill="#518551" d="M8.33 54.003s3.893-.908 6.272.204c1.804.84 3.92 2.561 4.836 3.342A71.836 71.836 0 0 1 9.39 54.595c3.034 1.513 6.433 2.467 10.01 3.328-.972.288-2.95.752-5.657.331-3.784-.59-5.412-4.251-5.412-4.251"/>
        <path fill="#7E5838" d="M37.675 44.91s2.032 3.089.81 6.336c-1.239 3.3-3.944 4.792-3.944 4.792s-.891-3.676-.093-6.525c.836-2.995 3.227-4.603 3.227-4.603"/>
        <path fill="#518551" d="M38.067 44.91s-2.937 2.384-3.407 4.748c-.358 1.792.036 4.317.136 5.42 1.365-2.949 2.255-5.983 3.14-9.061-.525 3.066-1.555 6.11-2.905 9.227.78-.563 2.413-1.822 3.62-4.053 1.684-3.12-.584-6.28-.584-6.28"/>
        <path fill="#7E5838" d="M34.405 50.872s.634 2.897-1.181 4.887c-1.846 2.024-4.265 2.267-4.265 2.267s.375-2.968 1.764-4.802c1.463-1.926 3.682-2.352 3.682-2.352"/>
        <path fill="#518551" d="M34.426 50.872s-2.632.93-3.618 2.538c-.749 1.22-1.205 3.19-1.453 4.03 1.748-1.787 3.205-3.77 4.67-5.791-1.224 2.112-2.775 4.065-4.56 5.98a8.81 8.81 0 0 0 3.561-1.969c2.007-1.824 1.4-4.788 1.4-4.788"/>
        <path fill="#7E5838" d="M38.876 60.706s-2.015-2.993-4.452-3.074c-2.934-.099-5.465 1.78-5.465 1.78s2.318 2.137 4.733 2.527c2.417.39 5.184-1.233 5.184-1.233"/>
        <path fill="#518551" d="M38.876 60.57s-2.924 1.387-5.02.946c-1.59-.333-3.627-1.5-4.5-1.943 2.87-.03 5.748.352 8.568.725-2.693-.635-5.538-.97-8.54-1.008.718-.392 2.297-1.104 4.525-1.253 3.115-.21 4.967 2.533 4.967 2.533"/>
        <path fill="#7E5838" d="M37.15 18.282s-1.238 2.55-.308 4.318c1.116 2.127 3.43 3.233 3.43 3.233s.53-2.448-.177-4.316c-.708-1.868-2.944-3.235-2.944-3.235"/>
        <path fill="#518551" d="M37.45 18.282s2.18 1.485 2.68 3.128c.379 1.247.317 3.141.333 3.93-1.152-1.994-2.006-4.16-2.842-6.281.592 2.136 1.465 4.263 2.622 6.377-.574-.345-1.724-1.16-2.714-2.66-1.384-2.092-.08-4.494-.08-4.494"/>
        <path fill="#7E5838" d="M32.132 24.477s2.126-1.636 4.45-.781c2.36.867 3.484 2.902 3.484 2.902s-2.57.777-4.602.237c-2.134-.567-3.332-2.358-3.332-2.358"/>
        <path fill="#518551" d="M32.132 24.765s1.793 1.937 3.512 2.199c1.303.198 3.117-.134 3.912-.23-2.161-.854-4.375-1.384-6.622-1.909 2.23.281 4.454.905 6.735 1.746a8.46 8.46 0 0 0-3.012-2.361c-2.295-1.068-4.525.555-4.525.555"/>
        <path fill="#7E5838" d="M31.736 19.584s2.633-.507 4.318.661c2.728 1.89 3.615 5.588 3.615 5.588s-2.632-.216-4.999-1.76c-1.868-1.22-2.934-4.49-2.934-4.49"/>
        <path fill="#518551" d="M31.736 19.941s1.183 3.063 3.076 4.162c1.437.833 3.636 1.471 4.614 1.73a59.118 59.118 0 0 0-6.778-5.449c2.482 1.358 4.744 3.22 7.021 5.248-.251-.791-.85-2.351-2.412-3.992-2.184-2.294-5.521-1.699-5.521-1.699"/>
        <path fill="#7E5838" d="M43.336 23.449s-2.694 2.33-2.462 4.744c.28 2.907 2.462 5.192 2.462 5.192s1.81-2.534 1.885-4.961c.074-2.43-1.885-4.975-1.885-4.975"/>
        <path fill="#518551" d="M43.281 23.449s1.722 2.6 1.53 4.637c-.145 1.546-1.068 3.614-1.408 4.495-.364-2.712-.322-5.485-.283-8.199-.316 2.625-.316 5.36 0 8.208-.475-.632-1.368-2.042-1.778-4.133-.575-2.925 1.94-5.008 1.94-5.008"/>
        <path fill="#7E5838" d="M35.702 27.06s3.17-.436 5.129 1.769c1.99 2.239 2.012 4.953 2.012 4.953s-3.147-.69-4.978-2.408c-1.924-1.805-2.163-4.313-2.163-4.313"/>
        <path fill="#518551" d="M36.1 27.05s.738 3.054 2.362 4.318c1.232.958 3.295 1.658 4.169 2.017-1.742-2.137-3.722-3.966-5.739-5.807 2.14 1.578 4.077 3.51 5.951 5.702a10.153 10.153 0 0 0-1.757-4.197C39.331 26.648 36.1 27.05 36.1 27.05"/>
        <path fill="#7E5838" d="M39.4 24.244s2.654.825 3.66 2.63c1.625 2.922.724 6.51.724 6.51s-2.319-1.444-3.776-3.896c-1.149-1.935-.608-5.244-.608-5.244"/>
        <path fill="#518551" d="M39.743 24.641s-.409 3.103.696 4.862c.837 1.333 2.414 2.836 3.126 3.484a54.814 54.814 0 0 0-3.25-7.572c1.485 2.236 2.55 4.8 3.551 7.51.152-.778.363-2.356-.209-4.425-.8-2.896-3.914-3.859-3.914-3.859"/>
        <path fill="#7E5838" d="M47.12 31.397s-3.153 1.447-3.693 3.833c-.65 2.872.605 5.706.605 5.706s2.42-1.9 3.242-4.21c.822-2.309-.153-5.329-.153-5.329"/>
        <path fill="#518551" d="M46.825 31.397s.851 3.008.011 4.892c-.638 1.428-2.203 3.117-2.817 3.852.513-2.697 1.443-5.327 2.352-7.902-1.15 2.405-2.027 5.013-2.63 7.823-.262-.747-.684-2.365-.415-4.486.376-2.963 3.5-4.179 3.5-4.179"/>
        <path fill="#7E5838" d="M38.935 32.59s3.049.389 4.308 3.027c1.282 2.681.619 5.319.619 5.319s-2.743-1.479-4.007-3.611c-1.328-2.244-.92-4.735-.92-4.735"/>
        <path fill="#518551" d="M38.877 32.59s-.067 3.192 1.128 4.864c.908 1.267 2.648 2.5 3.372 3.084-1.089-2.558-2.476-4.88-3.893-7.221 1.595 2.114 2.918 4.525 4.114 7.174a10.88 10.88 0 0 0-.594-4.586c-1.028-2.855-4.127-3.315-4.127-3.315"/>
        <path fill="#7E5838" d="M42.99 31s2.232 1.712 2.55 3.799c.512 3.38-1.612 6.534-1.612 6.534s-1.694-2.191-2.21-5.06C41.307 34.01 42.99 31 42.99 31"/>
        <path fill="#518551" d="M43.217 31.397s-1.52 2.898-1.091 5.002c.326 1.594 1.304 3.612 1.758 4.493.08-2.868-.05-5.714-.394-8.539.624 2.702.72 5.581.707 8.583.43-.71 1.205-2.183 1.403-4.407.277-3.111-2.383-5.132-2.383-5.132"/>
        <g transform="translate(41.653 40.936)">
            <mask id="d" fill="#fff">
                <use xlink:href="#c"/>
            </mask>
            <path fill="#7E5838" d="M6.251.009s-3.409.22-4.746 2.274C-.104 4.758.053 7.887.053 7.887s2.894-.914 4.464-2.793C6.083 3.213 6.251.009 6.251.009" mask="url(#d)"/>
        </g>
        <path fill="#518551" d="M47.603 40.936s-.313 3.257-1.762 4.799c-1.098 1.168-3.138 2.255-3.963 2.752 1.443-2.458 3.245-4.698 5.005-6.893-1.919 1.94-3.664 4.178-5.23 6.715.03-.83.231-2.57 1.244-4.55 1.417-2.768 4.706-2.823 4.706-2.823"/>
        <path fill="#7E5838" d="M39.596 38.551s2.728 1.676 2.844 4.69c.118 3.061-1.586 5.246-1.586 5.246s-1.995-2.564-2.32-5.106c-.344-2.673 1.062-4.83 1.062-4.83"/>
        <path fill="#518551" d="M39.835 38.551s-1.33 2.85-.858 4.866c.36 1.53 1.524 3.387 1.98 4.222-.02-2.772-.417-5.457-.834-8.173.676 2.59.976 5.328 1.063 8.226.378-.7 1.142-2.233 1.254-4.388.155-3.013-2.605-4.753-2.605-4.753"/>
        <path fill="#7E5838" d="M44.37 38.949s1.578 2.306 1.188 4.355c-.633 3.318-3.73 5.58-3.73 5.58s-.9-2.584-.442-5.425c.363-2.243 2.985-4.51 2.985-4.51"/>
        <path fill="#518551" d="M43.871 38.949s-2.26 2.207-2.533 4.289c-.21 1.578.035 3.755.164 4.713a57.718 57.718 0 0 0 2.313-8.03c-.287 2.696-1.098 5.394-2.047 8.169.603-.524 1.755-1.645 2.626-3.643 1.218-2.793-.523-5.498-.523-5.498"/>
        <path fill="#7E5838" d="M46.017 52.286s-3.196-2.07-5.74-1.2c-3.061 1.047-4.971 3.826-4.971 3.826s3.189 1.137 5.825.571c2.637-.568 4.886-3.197 4.886-3.197"/>
        <path fill="#518551" d="M45.62 52.134s-2.35 2.665-4.601 3.024c-1.709.272-4.19-.18-5.233-.312 2.834-1.173 5.84-1.907 8.782-2.628-2.919.386-5.875 1.158-8.866 2.314.556-.712 1.84-2.11 3.99-3.16 3.006-1.468 5.928.762 5.928.762"/>
        <path fill="#7E5838" d="M42.83 46.103s.238 3.21-1.268 5.086c-2.435 3.037-6.653 3.657-6.653 3.657s.564-3.125 2.569-5.77c1.585-2.089 5.351-2.973 5.351-2.973"/>
        <path fill="#518551" d="M43.231 46.5s-3.777.975-5.31 2.997c-1.163 1.534-2.187 3.961-2.615 5.046a69.068 69.068 0 0 0 7.29-7.056c-1.913 2.662-4.4 5.01-7.082 7.36.97-.192 2.892-.682 5.029-2.264 2.986-2.209 2.688-6.083 2.688-6.083"/>
        <path fill="#7E5838" d="M39.273 54.11s-1.318 3.046-3.607 4.01c-3.705 1.56-7.897.03-7.897.03s2.02-2.57 5.14-3.985c2.462-1.117 6.364-.054 6.364-.054"/>
        <path fill="#518551" d="M39.67 54.003s-3.893-.908-6.271.204c-1.804.84-3.92 2.561-4.837 3.342a71.773 71.773 0 0 0 10.048-2.954c-3.035 1.513-6.433 2.467-10.008 3.328.97.288 2.95.752 5.656.331 3.781-.59 5.411-4.251 5.411-4.251"/>
        <g transform="translate(16.264 54.051)">
            <mask id="f" fill="#fff">
                <use xlink:href="#e"/>
            </mask>
            <path fill="#7E5838" d="M1.43.012c2.214.412 10.065.412 12.28 0-.332 2.024-.31 3.656.066 5.3l1.198.049-.4 2.588c-2.418-.499-11.592-.499-14.01 0l-.4-2.588 1.2-.05c.375-1.643.398-3.275.066-5.299" mask="url(#f)"/>
        </g>
        <path fill="#518551" d="M17.987 54.449c2.203.262 9.38.262 11.583 0-.375 2.066-.348 4.319.579 6.756-2.357-.296-10.336-.296-12.694 0 .928-2.437.906-4.69.532-6.756"/>
        <path fill="#DCC763" d="M19.7 55.641a4.153 4.153 0 0 1-1.055 1.213v.374c.26-.198.486-.407.683-.627l.043 3.115a.646.646 0 0 1-.038.255c-.035.101-.127.165-.278.195v.244h1.573v-.244c-.148-.032-.24-.096-.27-.193a.633.633 0 0 1-.04-.257v-4.075h-.617zm1.325 1.389h.266c.029-.245.093-.392.195-.443a.489.489 0 0 1 .282-.062l1.465.007c-.222.331-.47.731-.741 1.199-.272.469-.52.942-.744 1.42-.224.478-.377.898-.457 1.26h1.164c.058-.272.14-.598.248-.978.106-.381.224-.787.355-1.212.13-.427.26-.84.39-1.245l.354-1.077v-.258h-2.686l-.091 1.389zm2.777 0h.266c.027-.245.093-.392.193-.443a.495.495 0 0 1 .284-.062l1.465.007a20.905 20.905 0 0 0-1.485 2.62c-.224.477-.377.897-.457 1.258h1.164c.058-.27.14-.597.246-.977a62.477 62.477 0 0 1 .747-2.457l.354-1.077v-.258h-2.686l-.091 1.389zm3.074-.295c.153-.245.304-.407.455-.485.152-.077.28-.113.384-.106.196.01.326.067.389.17a.486.486 0 0 1 .088.281.86.86 0 0 1-.176.5c-.114.156-.261.3-.438.435a7.563 7.563 0 0 1-.556.387l.16.27c.068-.046.14-.083.212-.11a.62.62 0 0 1 .224-.041c.221.001.39.062.506.179.115.117.173.283.173.497.003.196-.049.393-.152.593-.102.2-.275.367-.515.507s-.562.219-.969.235l-.082.344.172.014.173.005c.485-.007.908-.105 1.272-.295.364-.188.646-.425.85-.71.203-.285.306-.573.31-.866-.002-.297-.09-.533-.265-.712-.175-.18-.422-.271-.739-.276l-.075.002-.078.005v-.052c.08-.053.18-.134.303-.243.12-.109.23-.238.326-.388a.95.95 0 0 0 .155-.485c0-.188-.081-.357-.24-.508-.158-.152-.394-.232-.71-.24a1.637 1.637 0 0 0-.47.058 1.373 1.373 0 0 0-.502.266 2.1 2.1 0 0 0-.482.603l.297.166z"/>
        <g fill="#113060" font-family="GothamPro, Gotham Pro" font-size="14">
            <text transform="translate(57 21)">
                <tspan x="0" y="10">SAINT-PETERSBURG</tspan>
            </text>
            <text transform="translate(57 21)">
                <tspan x="0" y="29">MINING UNIVERSITY</tspan>
            </text>
        </g>
    </g>
</svg>
