<?xml version="1.0" encoding="UTF-8"?>
<svg width="78px" height="80px" viewBox="0 0 78 80" version="1.1" xmlns="http://www.w3.org/2000/svg" xmlns:xlink="http://www.w3.org/1999/xlink">
    <!-- Generator: Sketch 50.2 (55047) - http://www.bohemiancoding.com/sketch -->
    <title>newsletter</title>
    <desc>Created with Sketch.</desc>
    <defs></defs>
    <g id="News-DONE" stroke="none" stroke-width="1" fill="none" fill-rule="evenodd">
        <g id="Gorny-News" transform="translate(-1075.000000, -2351.000000)" fill="#FFFFFF" fill-rule="nonzero">
            <g id="newsletter" transform="translate(1075.000000, 2351.000000)">
                <path d="M77.2396115,33.5987528 L61.7882503,23.5989927 C61.6674096,23.5217652 61.5341506,23.4925051 61.404235,23.4493345 L61.404235,20.0004797 C61.404235,19.0795059 60.6619965,18.3336131 59.7444674,18.3336131 L53.5820729,18.3336131 L40.7099188,10.2539873 C40.1721064,9.91533757 39.4881388,9.91533757 38.9498488,10.2539873 L26.0776946,18.3336131 L18.2555326,18.3336131 C17.3384811,18.3336131 16.595765,19.0790263 16.595765,20.0004797 L16.595765,23.4483751 C16.4658494,23.4915457 16.3321127,23.5212855 16.2117497,23.5989927 L0.760388473,33.5987528 C0.287056201,33.9062238 0,34.433865 0,34.9998801 L0,78.3331335 C0,79.2541072 0.742238497,80 1.65976755,80 L76.3402324,80 C77.2572839,80 78,79.2545869 78,78.3331335 L78,35.0003598 C78,34.433865 77.7129438,33.9067034 77.2396115,33.5987528 Z M39.8301226,13.6332894 L47.3198535,18.3336131 L32.3403917,18.3336131 L39.8301226,13.6332894 Z M19.9153001,21.6668665 L58.0851775,21.6668665 L58.0851775,59.1668066 C58.0851775,59.1716033 58.0880433,59.1754407 58.0880433,59.1807171 L52.4739691,62.6041492 L38.9646553,55.2042211 C38.4607547,54.9308071 37.8479541,54.9322461 37.3473969,55.22053 L25.0197421,62.2952392 L19.912912,59.1811968 C19.912912,59.1764 19.9157777,59.1725627 19.9157777,59.1677659 L19.9153001,21.6668665 Z M3.31953511,35.9083823 L16.595765,27.3174242 L16.595765,57.158892 L3.31953511,49.0629572 L3.31953511,35.9083823 Z M3.31953511,52.9612663 L21.725999,64.1841947 L3.31953511,74.7475717 L3.31953511,52.9612663 Z M6.66390702,76.6672263 L38.1899379,58.5763281 L71.21573,76.6672263 L6.66390702,76.6672263 Z M74.6809425,74.7681976 L55.8412673,64.448495 L74.6809425,52.9607867 L74.6809425,74.7681976 Z M74.6809425,49.0629572 L61.404235,57.1584123 L61.404235,27.3174242 L74.6809425,35.908862 L74.6809425,49.0629572 Z" id="Shape"></path>
                <path d="M26.643026,38 L46.356974,38 C47.2647754,38 48,37.2732309 48,36.3748246 L48,26.6251754 C48,25.7272368 47.2652482,25 46.356974,25 L26.643026,25 C25.7352246,25 25,25.7267691 25,26.6251754 L25,36.3748246 C25,37.2732309 25.7352246,38 26.643026,38 Z M28.2855792,28.2498831 L44.713948,28.2498831 L44.713948,34.7496492 L28.2855792,34.7496492 L28.2855792,28.2498831 Z" id="Shape"></path>
                <rect id="Rectangle-path" x="25" y="42" width="27" height="3"></rect>
                <rect id="Rectangle-path" x="25" y="48" width="27" height="3"></rect>
                <path d="M70.6256532,20 C71.0416894,20 71.4577256,19.8413592 71.7754855,19.5236096 L77.5237111,13.7755708 C78.158763,13.1405396 78.158763,12.1114802 77.5237111,11.4764489 C76.8886592,10.8409497 75.8595663,10.8414177 75.2245145,11.4764489 L69.4762889,17.2244877 C68.841237,17.8595189 68.841237,18.8885784 69.4762889,19.5236096 C69.7935808,19.8413592 70.209617,20 70.6256532,20 Z" id="Shape"></path>
                <path d="M7.22419082,19.5236003 C7.54193423,19.8413561 7.95794878,20 8.37396334,20 C8.7899779,20 9.20599246,19.8413561 9.52373586,19.5236003 C10.1587547,18.8885567 10.1587547,17.8594772 9.52373586,17.2244336 L3.77534122,11.4762827 C3.14032237,10.8412391 2.11128298,10.8412391 1.47626414,11.4762827 C0.841245288,12.1113263 0.841245288,13.1404058 1.47626414,13.7754495 L7.22419082,19.5236003 Z" id="Shape"></path>
                <path d="M56.1010161,11.8781377 C56.3130199,11.9620105 56.5335844,12 56.7501203,12 C57.4440423,12 58.1017071,11.59297 58.3751466,10.9219872 L61.8744674,2.35067506 C62.2335142,1.47198359 61.7959102,0.473896649 60.8990488,0.12261741 C60.010748,-0.22718172 58.9834614,0.196129498 58.6249183,1.07827455 L55.1255975,9.64958666 C54.7665507,10.5287715 55.2036511,11.5268584 56.1010161,11.8781377 Z" id="Shape"></path>
                <path d="M22.624887,10.9220055 C22.898329,11.5934703 23.556,12 24.2499284,12 C24.4669699,12 24.6875364,11.9615178 24.8990386,11.8776464 C25.7959083,11.5258798 26.2335163,10.5283032 25.8744663,9.64962671 L22.375113,1.07846064 C22.016063,0.196330614 20.9912847,-0.227466753 20.1009614,0.122819778 C19.2040917,0.474586394 18.7664837,1.47216297 19.1255337,2.35083946 L22.624887,10.9220055 Z" id="Shape"></path>
            </g>
        </g>
    </g>
</svg>