<svg xmlns="http://www.w3.org/2000/svg" width="199" height="53" viewBox="0 0 199 53">
    <g fill="none" fill-rule="nonzero">
        <g fill="#FFF">
            <path d="M80.007 4.422c4.231 0 7.316 2.792 7.316 7.163 0 4.37-3.085 7.162-7.316 7.162-4.234 0-7.318-2.792-7.318-7.162 0-4.371 3.084-7.163 7.318-7.163m0 11.552c2.547 0 4.212-1.848 4.212-4.39 0-2.54-1.665-4.39-4.212-4.39-2.548 0-4.214 1.85-4.214 4.39 0 2.542 1.666 4.39 4.214 4.39M52.849 4.769h3.256l2.164 8.742h.04l2.835-8.742h2.777l2.815 8.972h.039l2.28-8.972h3.025l-3.965 13.63h-2.663l-2.988-9.432h-.037l-2.99 9.433h-2.565zM89.35 4.769h5.248c2.777 0 5.115.963 5.115 4.14 0 1.905-1.016 3.388-2.931 3.734l3.448 5.757h-3.582l-2.835-5.45h-1.476v5.45H89.35V4.769zm2.987 5.641H94.1c1.092 0 2.51-.039 2.51-1.521 0-1.366-1.225-1.58-2.317-1.58h-1.955v3.101zM101.873 4.769h2.987v10.858h5.536V18.4h-8.523zM112.041 4.769h4.484c4.366 0 8.024 1.867 8.024 6.853 0 4.41-3.581 6.778-7.622 6.778h-4.886V4.769zm2.99 10.858h1.55c2.777 0 4.865-1.059 4.865-4.158 0-2.677-2.124-3.928-4.655-3.928h-1.76v8.086zM65.702 30.106c0 3.216-1.955 5.603-5.708 5.603-3.774 0-5.728-2.387-5.728-5.603v-8.375h2.988v8.26c0 1.675 1.15 2.946 2.74 2.946 1.57 0 2.72-1.27 2.72-2.946v-8.26h2.988v8.375zM68.457 21.731h4.061l5.765 9.472h.038V21.73h2.988v13.631h-3.907l-5.919-9.703h-.038v9.703h-2.988zM84.026 21.731h2.988v13.631h-2.988zM88.39 21.731h3.41l3.352 8.933h.04L98.6 21.73h3.199l-5.593 13.631h-2.394zM103.328 21.731h9.213v2.772h-6.225v2.541h5.88v2.773h-5.88v2.772h6.57v2.773h-9.558zM115.278 21.731h5.248c2.776 0 5.114.963 5.114 4.14 0 1.905-1.015 3.388-2.93 3.735l3.446 5.756h-3.58l-2.835-5.448h-1.475v5.448h-2.988v-13.63zm2.988 5.641h1.762c1.092 0 2.51-.038 2.51-1.52 0-1.368-1.227-1.58-2.32-1.58h-1.952v3.1zM134.39 25.062c-.477-.616-1.435-.905-2.164-.905-.844 0-2.012.385-2.012 1.406 0 2.483 6.246.885 6.246 5.66 0 3.041-2.433 4.486-5.23 4.486-1.743 0-3.274-.52-4.557-1.714l2.124-2.348a3.32 3.32 0 0 0 2.607 1.29c.974 0 2.066-.462 2.066-1.425 0-2.503-6.357-1.155-6.357-5.699 0-2.907 2.51-4.429 5.17-4.429 1.532 0 3.01.405 4.158 1.426l-2.051 2.252zM138.64 21.731h2.988v13.631h-2.988zM146.971 24.388h-3.869V21.73h10.726v2.657h-3.868v10.974h-2.989z"/>
            <path d="M158.672 29.549l-5.093-7.817h3.714l2.873 5.101 3.047-5.1h3.543l-5.095 7.816v5.814h-2.989zM54.266 38.693h5.248c2.778 0 5.114.963 5.114 4.14 0 1.907-1.015 3.389-2.93 3.736l3.448 5.756h-3.582l-2.835-5.45h-1.475v5.45h-2.988V38.693zm2.988 5.642h1.762c1.092 0 2.51-.038 2.51-1.52 0-1.369-1.227-1.58-2.318-1.58h-1.954v3.1zM71.138 38.693h2.47l5.9 13.631h-3.372l-1.167-2.887h-5.267l-1.13 2.887h-3.294l5.86-13.63zm1.15 3.966l-1.647 4.235h3.314l-1.668-4.235zM80.866 38.693h4.06l5.767 9.472h.037v-9.472h2.988v13.632h-3.906l-5.919-9.703h-.04v9.703h-2.987zM96.588 38.693h2.988v5.661l5.267-5.66h3.908l-6.035 6.334 6.553 7.297h-4.177l-5.516-6.469v6.47h-2.988zM110.26 38.693h2.988v13.632h-2.988zM115.966 38.693h4.062l5.765 9.472h.038v-9.472h2.99v13.632h-3.91l-5.917-9.703h-.037v9.703h-2.99zM143.852 51.36c-1.762.928-3.698 1.312-5.689 1.312-4.232 0-7.317-2.793-7.317-7.163s3.085-7.161 7.317-7.161c2.145 0 4.042.48 5.4 1.75l-2.103 2.312c-.805-.848-1.783-1.29-3.297-1.29-2.547 0-4.214 1.848-4.214 4.39 0 2.541 1.667 4.388 4.214 4.388 1.303 0 2.259-.366 2.817-.673V47.01h-2.434v-2.773h5.306v7.122zM153.178 42.023c-.478-.615-1.437-.904-2.166-.904-.842 0-2.011.384-2.011 1.406 0 2.482 6.244.885 6.244 5.66 0 3.043-2.431 4.486-5.228 4.486-1.744 0-3.278-.52-4.559-1.713l2.125-2.35a3.32 3.32 0 0 0 2.607 1.29c.976 0 2.068-.461 2.068-1.424 0-2.504-6.36-1.155-6.36-5.7 0-2.906 2.51-4.427 5.172-4.427 1.533 0 3.007.404 4.159 1.425l-2.051 2.251zM188.738 4.829c1.94 0 3.53 1.595 3.53 3.547v6.686c0 .067-.006.134-.01.2l.004 3.348h-65.24V4.829h61.716zM188.738 52.357c1.94 0 3.53-1.598 3.53-3.548v-6.686c0-.069-.006-.135-.01-.202l.004-3.346h-34.08v13.782h30.556zM168.713 21.832h23.554v13.782h-23.554zM195.662.416a2.48 2.48 0 0 1 2.486 2.5 2.479 2.479 0 0 1-2.486 2.499 2.475 2.475 0 0 1-2.487-2.499c0-1.424 1.129-2.5 2.487-2.5zm0 4.637c1.134 0 2.044-.928 2.044-2.137S196.796.78 195.662.78c-1.144 0-2.046.927-2.046 2.136 0 1.21.902 2.137 2.046 2.137zm-.95-3.602h1.097c.689 0 1.014.276 1.014.834 0 .53-.332.753-.768.799l.836 1.29h-.474l-.79-1.257h-.475v1.257h-.44V1.45zm.44 1.304h.455c.395 0 .777-.021.777-.49 0-.404-.347-.45-.65-.45h-.582v.94zM50.511 48.901a3.183 3.183 0 0 1-3.173 3.19H3.225a3.184 3.184 0 0 1-3.178-3.19V7.797a3.184 3.184 0 0 1 3.178-3.19h44.113a3.183 3.183 0 0 1 3.173 3.19V48.9z"/>
        </g>
        <g fill="#113060">
            <path d="M20.955 29.73c-1.155.437-3.001.757-4.53.757-8.457 0-11.746-6.31-11.746-11.542 0-4.739 3.377-11.248 11.832-11.248 6.896 0 11.687 4.212 11.687 11.016 0 5.117-3.203 8.345-5.022 9.564l5.8 2.994c6.091 3.14 9.928 3.458 11.892 3.458 1.5 0 3.635-.23 5.626-1.016.174-.056.318-.144.434-.144.144 0 .258.114.258.26 0 .174-.144.262-.345.35-1.732.844-4.992 2.18-9.148 2.18-4.357 0-7.416-1.162-12.207-3.955l-4.53-2.673m3.203-10.234c0-7.035-4.329-10.406-8.31-10.406-3.783 0-7.159 2.442-7.159 9.185 0 6.92 4.155 10.757 8.802 10.757 2.308 0 6.667-1.018 6.667-9.536"/>
            <path d="M33.075 29.73c-.462-.203-.548-.348-.548-.988 0-1.598.115-3.342.146-3.807.027-.437.113-.757.344-.757.26 0 .29.261.29.494 0 .378.115.989.259 1.483.635 2.15 2.337 2.935 4.127 2.935 2.597 0 3.867-1.77 3.867-3.314 0-1.424-.433-2.79-2.829-4.65l-1.326-1.047c-3.176-2.5-4.271-4.535-4.271-6.89 0-3.198 2.654-5.493 6.666-5.493 1.875 0 3.087.29 3.837.492.26.059.405.146.405.35 0 .379-.115 1.221-.115 3.488 0 .64-.087.872-.318.872-.203 0-.288-.174-.288-.524 0-.261-.146-1.162-.75-1.917-.434-.553-1.27-1.425-3.147-1.425-2.136 0-3.434 1.25-3.434 2.994 0 1.337.664 2.356 3.06 4.186l.808.61c3.463 2.705 4.733 4.653 4.733 7.414 0 1.686-.636 3.692-2.715 5.06-1.442.928-3.059 1.191-4.588 1.191-1.674 0-2.972-.203-4.213-.756M47.034 46.296c0 .55-9.413.996-21.025.996-11.61 0-21.024-.446-21.024-.996 0-.551 9.413-.996 21.024-.996 11.612 0 21.025.445 21.025.996"/>
        </g>
    </g>
</svg>
