<svg xmlns="http://www.w3.org/2000/svg" width="41" height="33" viewBox="0 0 41 33">
    <path fill="#FFF" fill-rule="nonzero" d="M12.894 33c15.472 0 23.934-12.695 23.934-23.703 0-.36-.008-.72-.024-1.077A17.016 17.016 0 0 0 41 3.906a16.901 16.901 0 0 1-4.83 1.312A8.376 8.376 0 0 0 39.867.61a16.97 16.97 0 0 1-5.341 2.022A8.44 8.44 0 0 0 28.387 0c-4.646 0-8.413 3.73-8.413 8.33 0 .653.074 1.29.219 1.9a23.963 23.963 0 0 1-17.34-8.705 8.247 8.247 0 0 0-1.139 4.187 8.304 8.304 0 0 0 3.743 6.935 8.411 8.411 0 0 1-3.81-1.042v.106c0 4.035 2.9 7.403 6.748 8.167a8.5 8.5 0 0 1-3.799.143c1.071 3.31 4.176 5.718 7.858 5.786a16.98 16.98 0 0 1-10.448 3.566A17.25 17.25 0 0 1 0 29.257 23.98 23.98 0 0 0 12.894 33"/>
</svg>
